%TF.GenerationSoftware,KiCad,Pcbnew,10.0.5*%
%TF.CreationDate,2026-09-25T17:21:53+02:00*%
%TF.ProjectId,texecom-power-reset,74657865-636f-46d2-9d70-6f7765722d72,rev?*%
%TF.SameCoordinates,Original*%
%TF.FileFunction,Copper,L2,Bot*%
%TF.FilePolarity,Positive*%
%FSLAX46Y46*%
G04 Gerber Fmt 4.6, Leading zero omitted, Abs format (unit mm)*
G04 Created by KiCad (PCBNEW 10.0.5) date 2026-09-25 17:21:53*
%MOMM*%
%LPD*%
G01*
G04 APERTURE LIST*
G04 Aperture macros list*
%AMRoundRect*
0 Rectangle with rounded corners*
0 $1 Rounding radius*
0 $2 $3 $4 $5 $6 $7 $8 $9 X,Y pos of 4 corners*
0 Add a 4 corners polygon primitive as box body*
4,1,4,$2,$3,$4,$5,$6,$7,$8,$9,$2,$3,0*
0 Add four circle primitives for the rounded corners*
1,1,$1+$1,$2,$3*
1,1,$1+$1,$4,$5*
1,1,$1+$1,$6,$7*
1,1,$1+$1,$8,$9*
0 Add four rect primitives between the rounded corners*
20,1,$1+$1,$2,$3,$4,$5,0*
20,1,$1+$1,$4,$5,$6,$7,0*
20,1,$1+$1,$6,$7,$8,$9,0*
20,1,$1+$1,$8,$9,$2,$3,0*%
G04 Aperture macros list end*
%TA.AperFunction,ComponentPad*%
%ADD10RoundRect,0.750000X-0.750000X0.950000X-0.750000X-0.950000X0.750000X-0.950000X0.750000X0.950000X0*%
%TD*%
%TA.AperFunction,ComponentPad*%
%ADD11O,3.000000X3.400000*%
%TD*%
%TA.AperFunction,ComponentPad*%
%ADD12RoundRect,0.425000X-0.425000X-0.775000X0.425000X-0.775000X0.425000X0.775000X-0.425000X0.775000X0*%
%TD*%
%TA.AperFunction,ComponentPad*%
%ADD13O,1.700000X2.400000*%
%TD*%
%TA.AperFunction,ComponentPad*%
%ADD14RoundRect,0.400000X-0.400000X-0.800000X0.400000X-0.800000X0.400000X0.800000X-0.400000X0.800000X0*%
%TD*%
%TA.AperFunction,ComponentPad*%
%ADD15O,1.600000X2.400000*%
%TD*%
%TA.AperFunction,ComponentPad*%
%ADD16RoundRect,0.750000X-0.750000X-1.050000X0.750000X-1.050000X0.750000X1.050000X-0.750000X1.050000X0*%
%TD*%
%TA.AperFunction,ComponentPad*%
%ADD17O,3.000000X3.600000*%
%TD*%
%TA.AperFunction,ComponentPad*%
%ADD18RoundRect,0.425000X-0.425000X-0.875000X0.425000X-0.875000X0.425000X0.875000X-0.425000X0.875000X0*%
%TD*%
%TA.AperFunction,ComponentPad*%
%ADD19O,1.700000X2.600000*%
%TD*%
%TA.AperFunction,ComponentPad*%
%ADD20O,2.000000X2.800000*%
%TD*%
%TA.AperFunction,ComponentPad*%
%ADD21RoundRect,0.550000X0.550000X-0.850000X0.550000X0.850000X-0.550000X0.850000X-0.550000X-0.850000X0*%
%TD*%
%TA.AperFunction,ComponentPad*%
%ADD22O,2.200000X2.800000*%
%TD*%
%TA.AperFunction,ComponentPad*%
%ADD23RoundRect,0.550000X-0.850000X-0.550000X0.850000X-0.550000X0.850000X0.550000X-0.850000X0.550000X0*%
%TD*%
%TA.AperFunction,ComponentPad*%
%ADD24O,2.800000X2.200000*%
%TD*%
%TA.AperFunction,ComponentPad*%
%ADD25RoundRect,0.425000X0.425000X-0.875000X0.425000X0.875000X-0.425000X0.875000X-0.425000X-0.875000X0*%
%TD*%
%TA.AperFunction,ComponentPad*%
%ADD26O,2.800000X2.000000*%
%TD*%
%TA.AperFunction,ComponentPad*%
%ADD27RoundRect,0.425000X0.875000X0.425000X-0.875000X0.425000X-0.875000X-0.425000X0.875000X-0.425000X0*%
%TD*%
%TA.AperFunction,ComponentPad*%
%ADD28O,2.600000X1.700000*%
%TD*%
%TA.AperFunction,ComponentPad*%
%ADD29C,3.600000*%
%TD*%
%TA.AperFunction,ComponentPad*%
%ADD30C,3.000000*%
%TD*%
%TA.AperFunction,SMDPad,CuDef*%
%ADD31RoundRect,0.250000X-0.400000X-0.625000X0.400000X-0.625000X0.400000X0.625000X-0.400000X0.625000X0*%
%TD*%
%TA.AperFunction,SMDPad,CuDef*%
%ADD32RoundRect,0.250000X0.625000X-0.400000X0.625000X0.400000X-0.625000X0.400000X-0.625000X-0.400000X0*%
%TD*%
%TA.AperFunction,SMDPad,CuDef*%
%ADD33RoundRect,0.250000X0.400000X0.625000X-0.400000X0.625000X-0.400000X-0.625000X0.400000X-0.625000X0*%
%TD*%
%TA.AperFunction,SMDPad,CuDef*%
%ADD34RoundRect,0.250001X0.624999X-0.462499X0.624999X0.462499X-0.624999X0.462499X-0.624999X-0.462499X0*%
%TD*%
%TA.AperFunction,SMDPad,CuDef*%
%ADD35RoundRect,0.250000X0.650000X-0.412500X0.650000X0.412500X-0.650000X0.412500X-0.650000X-0.412500X0*%
%TD*%
%TA.AperFunction,ViaPad*%
%ADD36C,2.000000*%
%TD*%
%TA.AperFunction,Conductor*%
%ADD37C,1.000000*%
%TD*%
%TA.AperFunction,Conductor*%
%ADD38C,0.940000*%
%TD*%
%TA.AperFunction,Conductor*%
%ADD39C,0.700000*%
%TD*%
%TA.AperFunction,Conductor*%
%ADD40C,0.600000*%
%TD*%
%TA.AperFunction,Conductor*%
%ADD41C,0.880000*%
%TD*%
%TA.AperFunction,Conductor*%
%ADD42C,0.760000*%
%TD*%
%TA.AperFunction,Conductor*%
%ADD43C,0.820000*%
%TD*%
%TA.AperFunction,Conductor*%
%ADD44C,2.000000*%
%TD*%
G04 APERTURE END LIST*
D10*
%TO.P,D3,1*%
%TO.N,+5V_MCU*%
X184000000Y-128000000D03*
D11*
%TO.P,D3,2*%
%TO.N,+5V*%
X184000000Y-143240000D03*
%TD*%
D12*
%TO.P,Q1,1*%
%TO.N,GND*%
X139000000Y-134000000D03*
D13*
%TO.P,Q1,2*%
%TO.N,Net-(Q1-B)*%
X141540000Y-134000000D03*
%TO.P,Q1,3*%
%TO.N,Net-(D4-A)*%
X144080000Y-134000000D03*
%TD*%
D14*
%TO.P,C3,1*%
%TO.N,+5V*%
X174000000Y-146000000D03*
D15*
%TO.P,C3,2*%
%TO.N,GND*%
X176500000Y-146000000D03*
%TD*%
D16*
%TO.P,J3,1*%
%TO.N,Net-(J3-Pin_1)*%
X116000000Y-164000000D03*
D17*
%TO.P,J3,2*%
%TO.N,Net-(J3-Pin_2)*%
X121000000Y-164000000D03*
%TD*%
D18*
%TO.P,U1,1*%
%TO.N,+5V*%
X161000000Y-148000000D03*
D19*
%TO.P,U1,2*%
%TO.N,GND*%
X163540000Y-148000000D03*
%TO.P,U1,3*%
%TO.N,Net-(D1-K)*%
X166080000Y-148000000D03*
%TO.P,U1,4*%
%TO.N,N/C*%
X168620000Y-148000000D03*
%TD*%
D20*
%TO.P,R3,1*%
%TO.N,+5V*%
X156000000Y-122000000D03*
%TO.P,R3,2*%
%TO.N,Net-(U2A-RxCx)*%
X156000000Y-111840000D03*
%TD*%
%TO.P,R4,1*%
%TO.N,+5V*%
X124500000Y-122000000D03*
%TO.P,R4,2*%
%TO.N,Net-(U2B-RxCx)*%
X124500000Y-111840000D03*
%TD*%
D12*
%TO.P,Q2,1*%
%TO.N,GND*%
X113000000Y-134000000D03*
D13*
%TO.P,Q2,2*%
%TO.N,Net-(Q2-B)*%
X115540000Y-134000000D03*
%TO.P,Q2,3*%
%TO.N,Net-(D5-A)*%
X118080000Y-134000000D03*
%TD*%
D12*
%TO.P,D7,1*%
%TO.N,Net-(D5-A)*%
X122000000Y-134000000D03*
D13*
%TO.P,D7,2*%
%TO.N,Net-(D7-A)*%
X124540000Y-134000000D03*
%TD*%
D21*
%TO.P,D5,1*%
%TO.N,+5V*%
X125000000Y-150500000D03*
D22*
%TO.P,D5,2*%
%TO.N,Net-(D5-A)*%
X125000000Y-140340000D03*
%TD*%
D23*
%TO.P,D2,1*%
%TO.N,Net-(D1-K)*%
X161000000Y-161000000D03*
D24*
%TO.P,D2,2*%
%TO.N,GND*%
X171160000Y-161000000D03*
%TD*%
D25*
%TO.P,U3,1*%
%TO.N,+5V_MCU*%
X171110000Y-118620000D03*
D19*
%TO.P,U3,2*%
%TO.N,GND*%
X173650000Y-118620000D03*
%TO.P,U3,3*%
%TO.N,N/C*%
X176190000Y-118620000D03*
%TO.P,U3,4*%
%TO.N,Net-(U3-IO4)*%
X178730000Y-118620000D03*
%TO.P,U3,5*%
%TO.N,Net-(U3-IO3)*%
X181270000Y-118620000D03*
%TO.P,U3,6*%
%TO.N,N/C*%
X183810000Y-118620000D03*
%TO.P,U3,7*%
X186350000Y-118620000D03*
%TO.P,U3,8*%
X188890000Y-118620000D03*
%TO.P,U3,9*%
X171110000Y-103380000D03*
%TO.P,U3,10*%
X173650000Y-103380000D03*
%TO.P,U3,11*%
X176190000Y-103380000D03*
%TO.P,U3,12*%
X178730000Y-103380000D03*
%TO.P,U3,13*%
X181270000Y-103380000D03*
%TO.P,U3,14*%
X183810000Y-103380000D03*
%TO.P,U3,15*%
X186350000Y-103380000D03*
%TO.P,U3,16*%
X188890000Y-103380000D03*
%TD*%
D26*
%TO.P,R2,1*%
%TO.N,Net-(U2B-R)*%
X111000000Y-108000000D03*
%TO.P,R2,2*%
%TO.N,GND*%
X121160000Y-108000000D03*
%TD*%
D12*
%TO.P,D6,1*%
%TO.N,Net-(D4-A)*%
X148000000Y-134000000D03*
D13*
%TO.P,D6,2*%
%TO.N,Net-(D6-A)*%
X150540000Y-134000000D03*
%TD*%
D26*
%TO.P,R14,1*%
%TO.N,Net-(Q2-B)*%
X105500000Y-129000000D03*
%TO.P,R14,2*%
%TO.N,GND*%
X115660000Y-129000000D03*
%TD*%
%TO.P,R13,1*%
%TO.N,Net-(Q1-B)*%
X131500000Y-129000000D03*
%TO.P,R13,2*%
%TO.N,GND*%
X141660000Y-129000000D03*
%TD*%
D14*
%TO.P,C1,1*%
%TO.N,Net-(D1-K)*%
X175000000Y-154000000D03*
D15*
%TO.P,C1,2*%
%TO.N,GND*%
X177500000Y-154000000D03*
%TD*%
D27*
%TO.P,U2,1*%
%TO.N,GND*%
X144000000Y-121000000D03*
D28*
%TO.P,U2,2*%
%TO.N,Net-(U2A-RxCx)*%
X144000000Y-118460000D03*
%TO.P,U2,3*%
%TO.N,Net-(U2A-R)*%
X144000000Y-115920000D03*
%TO.P,U2,4*%
%TO.N,Net-(U2A-Clk+)*%
X144000000Y-113380000D03*
%TO.P,U2,5*%
%TO.N,+5V*%
X144000000Y-110840000D03*
%TO.P,U2,6*%
%TO.N,Net-(U2A-Q)*%
X144000000Y-108300000D03*
%TO.P,U2,7*%
%TO.N,N/C*%
X144000000Y-105760000D03*
%TO.P,U2,8*%
%TO.N,GND*%
X144000000Y-103220000D03*
%TO.P,U2,9*%
%TO.N,N/C*%
X136380000Y-103220000D03*
%TO.P,U2,10*%
%TO.N,Net-(U2B-Q)*%
X136380000Y-105760000D03*
%TO.P,U2,11*%
%TO.N,+5V*%
X136380000Y-108300000D03*
%TO.P,U2,12*%
%TO.N,Net-(U2B-Clk+)*%
X136380000Y-110840000D03*
%TO.P,U2,13*%
%TO.N,Net-(U2B-R)*%
X136380000Y-113380000D03*
%TO.P,U2,14*%
%TO.N,Net-(U2B-RxCx)*%
X136380000Y-115920000D03*
%TO.P,U2,15*%
%TO.N,GND*%
X136380000Y-118460000D03*
%TO.P,U2,16*%
%TO.N,+5V*%
X136380000Y-121000000D03*
%TD*%
D16*
%TO.P,J4,1*%
%TO.N,Net-(J4-Pin_1)*%
X104000000Y-164000000D03*
D17*
%TO.P,J4,2*%
%TO.N,Net-(J3-Pin_2)*%
X109000000Y-164000000D03*
%TD*%
D29*
%TO.P,K2,1*%
%TO.N,Net-(J3-Pin_1)*%
X120600000Y-146000000D03*
D30*
%TO.P,K2,2*%
%TO.N,Net-(D5-A)*%
X118650000Y-139950000D03*
D29*
%TO.P,K2,3*%
%TO.N,N/C*%
X106450000Y-139950000D03*
%TO.P,K2,4*%
%TO.N,Net-(J4-Pin_1)*%
X106400000Y-152000000D03*
D30*
%TO.P,K2,5*%
%TO.N,+5V*%
X118650000Y-151950000D03*
%TD*%
D22*
%TO.P,C4,1*%
%TO.N,+5V*%
X132500000Y-125500000D03*
%TO.P,C4,2*%
%TO.N,GND*%
X137500000Y-125500000D03*
%TD*%
D16*
%TO.P,J2,1*%
%TO.N,Net-(J2-Pin_1)*%
X130000000Y-164000000D03*
D17*
%TO.P,J2,2*%
%TO.N,GND*%
X135000000Y-164000000D03*
%TD*%
D24*
%TO.P,C7,1*%
%TO.N,Net-(U2A-Clk+)*%
X164000000Y-116000000D03*
%TO.P,C7,2*%
%TO.N,GND*%
X164000000Y-111000000D03*
%TD*%
D16*
%TO.P,J1,1*%
%TO.N,Net-(J1-Pin_1)*%
X142000000Y-164000000D03*
D17*
%TO.P,J1,2*%
%TO.N,GND*%
X147000000Y-164000000D03*
%TD*%
D26*
%TO.P,R1,1*%
%TO.N,Net-(U2A-R)*%
X149000000Y-108000000D03*
%TO.P,R1,2*%
%TO.N,GND*%
X159160000Y-108000000D03*
%TD*%
D21*
%TO.P,D4,1*%
%TO.N,+5V*%
X151000000Y-150500000D03*
D22*
%TO.P,D4,2*%
%TO.N,Net-(D4-A)*%
X151000000Y-140340000D03*
%TD*%
D24*
%TO.P,C8,1*%
%TO.N,Net-(U2B-Clk+)*%
X116000000Y-116500000D03*
%TO.P,C8,2*%
%TO.N,GND*%
X116000000Y-111500000D03*
%TD*%
D22*
%TO.P,C2,1*%
%TO.N,Net-(D1-K)*%
X166000000Y-154000000D03*
%TO.P,C2,2*%
%TO.N,GND*%
X171000000Y-154000000D03*
%TD*%
D26*
%TO.P,R5,1*%
%TO.N,Net-(U2A-R)*%
X149000000Y-104000000D03*
%TO.P,R5,2*%
%TO.N,Net-(U2A-Clk+)*%
X159160000Y-104000000D03*
%TD*%
%TO.P,R6,1*%
%TO.N,Net-(U2B-R)*%
X111000000Y-104000000D03*
%TO.P,R6,2*%
%TO.N,Net-(U2B-Clk+)*%
X121160000Y-104000000D03*
%TD*%
D10*
%TO.P,D1,1*%
%TO.N,Net-(D1-K)*%
X156000000Y-148000000D03*
D11*
%TO.P,D1,2*%
%TO.N,Net-(D1-A)*%
X156000000Y-163240000D03*
%TD*%
D29*
%TO.P,K1,1*%
%TO.N,Net-(J1-Pin_1)*%
X146600000Y-146000000D03*
D30*
%TO.P,K1,2*%
%TO.N,Net-(D4-A)*%
X144650000Y-139950000D03*
D29*
%TO.P,K1,3*%
%TO.N,N/C*%
X132450000Y-139950000D03*
%TO.P,K1,4*%
%TO.N,Net-(J2-Pin_1)*%
X132400000Y-152000000D03*
D30*
%TO.P,K1,5*%
%TO.N,+5V*%
X144650000Y-151950000D03*
%TD*%
D31*
%TO.P,R10,1*%
%TO.N,Net-(U3-IO4)*%
X163450000Y-124000000D03*
%TO.P,R10,2*%
%TO.N,Net-(U2B-R)*%
X166550000Y-124000000D03*
%TD*%
%TO.P,R9,1*%
%TO.N,Net-(U3-IO3)*%
X163450000Y-108000000D03*
%TO.P,R9,2*%
%TO.N,Net-(U2A-R)*%
X166550000Y-108000000D03*
%TD*%
D32*
%TO.P,R16,1*%
%TO.N,+5V*%
X124540000Y-130550000D03*
%TO.P,R16,2*%
%TO.N,Net-(D7-A)*%
X124540000Y-127450000D03*
%TD*%
D33*
%TO.P,R7,1*%
%TO.N,Net-(U2A-Q)*%
X134550000Y-132500000D03*
%TO.P,R7,2*%
%TO.N,Net-(Q1-B)*%
X131450000Y-132500000D03*
%TD*%
D32*
%TO.P,R11,1*%
%TO.N,Net-(C5-Pad2)*%
X152000000Y-121050000D03*
%TO.P,R11,2*%
%TO.N,GND*%
X152000000Y-117950000D03*
%TD*%
D34*
%TO.P,F1,1*%
%TO.N,Net-(J1-Pin_1)*%
X152000000Y-163487500D03*
%TO.P,F1,2*%
%TO.N,Net-(D1-A)*%
X152000000Y-160512500D03*
%TD*%
D35*
%TO.P,C6,1*%
%TO.N,Net-(U2B-RxCx)*%
X128500000Y-114562500D03*
%TO.P,C6,2*%
%TO.N,Net-(C6-Pad2)*%
X128500000Y-111437500D03*
%TD*%
D32*
%TO.P,R12,1*%
%TO.N,Net-(C6-Pad2)*%
X128500000Y-121050000D03*
%TO.P,R12,2*%
%TO.N,GND*%
X128500000Y-117950000D03*
%TD*%
D35*
%TO.P,C5,1*%
%TO.N,Net-(U2A-RxCx)*%
X152000000Y-114562500D03*
%TO.P,C5,2*%
%TO.N,Net-(C5-Pad2)*%
X152000000Y-111437500D03*
%TD*%
D33*
%TO.P,R8,1*%
%TO.N,Net-(U2B-Q)*%
X108550000Y-132500000D03*
%TO.P,R8,2*%
%TO.N,Net-(Q2-B)*%
X105450000Y-132500000D03*
%TD*%
D32*
%TO.P,R15,1*%
%TO.N,+5V*%
X150540000Y-130550000D03*
%TO.P,R15,2*%
%TO.N,Net-(D6-A)*%
X150540000Y-127450000D03*
%TD*%
D36*
%TO.N,+5V*%
X121500000Y-155000000D03*
X150500000Y-130600000D03*
%TO.N,GND*%
X154100000Y-106000000D03*
X133125000Y-120650000D03*
%TO.N,Net-(D4-A)*%
X158500000Y-129000000D03*
%TO.N,Net-(U2B-R)*%
X133100000Y-112400000D03*
X133100000Y-116900000D03*
%TO.N,Net-(U2A-R)*%
X166600000Y-108100000D03*
%TO.N,Net-(U2A-Clk+)*%
X147300000Y-113400000D03*
%TO.N,Net-(U2A-Q)*%
X140700000Y-109400000D03*
X134600000Y-132600000D03*
%TO.N,Net-(C5-Pad2)*%
X161500000Y-121000000D03*
X164200000Y-101800000D03*
%TO.N,Net-(C6-Pad2)*%
X128500000Y-111400000D03*
X128500000Y-120700000D03*
%TD*%
%TO.N,+5V_MCU*%
D37*
X171110000Y-118620000D02*
X171110000Y-125500000D01*
X171110000Y-125500000D02*
X184000000Y-125500000D01*
X184000000Y-125500000D02*
X184000000Y-128000000D01*
%TO.N,+5V*%
D38*
X139600000Y-114600000D02*
X139600000Y-114475000D01*
D37*
X162500000Y-145100000D02*
X173100000Y-145100000D01*
D39*
X157800000Y-151300000D02*
X161000000Y-148100000D01*
D37*
X173100000Y-145100000D02*
X174000000Y-146000000D01*
D40*
X137075000Y-108300000D02*
X136375000Y-108300000D01*
D37*
X136400000Y-121600000D02*
X132500000Y-125500000D01*
D41*
X139600000Y-118650000D02*
X139600000Y-118525000D01*
D38*
X139600000Y-118525000D02*
X139600000Y-118400000D01*
D39*
X142900000Y-110800000D02*
X144000000Y-110800000D01*
D37*
X124000000Y-130600000D02*
X124500000Y-130600000D01*
D40*
X138600000Y-109975000D02*
X138600000Y-109825000D01*
D37*
X153400000Y-150500000D02*
X154200000Y-151300000D01*
D39*
X137700000Y-120800000D02*
X139600000Y-118900000D01*
D40*
X141950000Y-111750000D02*
X140050000Y-111750000D01*
X138775000Y-110275000D02*
X138700000Y-110200000D01*
D37*
X151000000Y-150500000D02*
X153400000Y-150500000D01*
X161000000Y-146600000D02*
X162500000Y-145100000D01*
X175300000Y-143200000D02*
X184000000Y-143200000D01*
D42*
X139600000Y-114225000D02*
X139600000Y-114100000D01*
D37*
X173250000Y-145250000D02*
X173300000Y-145200000D01*
D39*
X141938335Y-111761665D02*
X142900000Y-110800000D01*
D42*
X139600000Y-118900000D02*
X139600000Y-118775000D01*
D39*
X136600000Y-120800000D02*
X137700000Y-120800000D01*
D37*
X146100000Y-150500000D02*
X144600000Y-152000000D01*
D40*
X138700000Y-110075000D02*
X138600000Y-109975000D01*
D37*
X154200000Y-151300000D02*
X157800000Y-151300000D01*
X121500000Y-154900000D02*
X118600000Y-152000000D01*
D40*
X138775000Y-110475000D02*
X138775000Y-110275000D01*
D39*
X139600000Y-114100000D02*
X141938335Y-111761665D01*
D37*
X139600000Y-118400000D02*
X139600000Y-114600000D01*
X122000000Y-128600000D02*
X124000000Y-130600000D01*
X122000000Y-126300000D02*
X122000000Y-128600000D01*
X124500000Y-122000000D02*
X124500000Y-123800000D01*
D43*
X139600000Y-118775000D02*
X139600000Y-118650000D01*
D37*
X173300000Y-145200000D02*
X175300000Y-143200000D01*
D40*
X138600000Y-109825000D02*
X137075000Y-108300000D01*
D37*
X124500000Y-123800000D02*
X122000000Y-126300000D01*
X151000000Y-150500000D02*
X146100000Y-150500000D01*
D39*
X161000000Y-148000000D02*
X161000000Y-146600000D01*
D40*
X140050000Y-111750000D02*
X138775000Y-110475000D01*
D43*
X139600000Y-114350000D02*
X139600000Y-114225000D01*
D37*
X124500000Y-130600000D02*
X124540000Y-130550000D01*
D40*
X138700000Y-110200000D02*
X138700000Y-110075000D01*
D41*
X139600000Y-114475000D02*
X139600000Y-114350000D01*
%TO.N,GND*%
D37*
X144000000Y-103200000D02*
X145900000Y-103200000D01*
X154100000Y-105200000D02*
X154100000Y-106000000D01*
X145900000Y-103200000D02*
X147500000Y-101600000D01*
X144000000Y-103220000D02*
X144000000Y-103200000D01*
D39*
X136375000Y-118450000D02*
X136380000Y-118460000D01*
D37*
X141540000Y-130660000D02*
X141500000Y-130700000D01*
X150500000Y-101600000D02*
X154100000Y-105200000D01*
D39*
X135325000Y-118450000D02*
X136375000Y-118450000D01*
D37*
X147500000Y-101600000D02*
X150500000Y-101600000D01*
X141500000Y-130700000D02*
X141200000Y-130700000D01*
D39*
X133125000Y-120650000D02*
X135325000Y-118450000D01*
D37*
X139300000Y-132600000D02*
X139300000Y-132580000D01*
X141200000Y-130700000D02*
X139300000Y-132600000D01*
%TO.N,Net-(Q1-B)*%
D39*
X130900000Y-133000000D02*
X131400000Y-132500000D01*
X134700000Y-137300000D02*
X130900000Y-133500000D01*
X131400000Y-132500000D02*
X131450000Y-132500000D01*
X141100000Y-134400000D02*
X141100000Y-135400000D01*
X141100000Y-135400000D02*
X139200000Y-137300000D01*
X131400000Y-132500000D02*
X131400000Y-129100000D01*
X139200000Y-137300000D02*
X134700000Y-137300000D01*
X130900000Y-133500000D02*
X130900000Y-133000000D01*
%TO.N,Net-(D4-A)*%
X155000000Y-125500000D02*
X149100000Y-125500000D01*
X158500000Y-129000000D02*
X155000000Y-125500000D01*
X144100000Y-130500000D02*
X144100000Y-134000000D01*
X144600000Y-140000000D02*
X150700000Y-140000000D01*
X149100000Y-125500000D02*
X144100000Y-130500000D01*
X144100000Y-134000000D02*
X148000000Y-134000000D01*
%TO.N,Net-(J3-Pin_1)*%
X121500000Y-151200000D02*
X121500000Y-148127208D01*
X121500000Y-146900000D02*
X120600000Y-146000000D01*
X123900000Y-153600000D02*
X121500000Y-151200000D01*
X123900000Y-165600000D02*
X123900000Y-153600000D01*
X116500000Y-164000000D02*
X119700000Y-167200000D01*
X119700000Y-167200000D02*
X122300000Y-167200000D01*
X121500000Y-148127208D02*
X121500000Y-146900000D01*
X122300000Y-167200000D02*
X123900000Y-165600000D01*
%TO.N,Net-(J3-Pin_2)*%
D44*
X118100000Y-159800000D02*
X113200000Y-159800000D01*
X119900000Y-161600000D02*
X118100000Y-159800000D01*
X119900000Y-162900000D02*
X119900000Y-161600000D01*
X113200000Y-159800000D02*
X109000000Y-164000000D01*
X121000000Y-164000000D02*
X119900000Y-162900000D01*
%TO.N,Net-(D1-K)*%
D37*
X169800000Y-151000000D02*
X172200000Y-151000000D01*
X172200000Y-151000000D02*
X175000000Y-153800000D01*
D39*
X166100000Y-149500000D02*
X166100000Y-148000000D01*
D37*
X166800000Y-154000000D02*
X169800000Y-151000000D01*
X166000000Y-154000000D02*
X166800000Y-154000000D01*
X168700000Y-152100000D02*
X166100000Y-149500000D01*
%TO.N,Net-(U2A-RxCx)*%
D39*
X152000000Y-114600000D02*
X153200000Y-114600000D01*
X148000000Y-118500000D02*
X151900000Y-114600000D01*
X144000000Y-118500000D02*
X148000000Y-118500000D01*
X153200000Y-114600000D02*
X156000000Y-111800000D01*
X151900000Y-114600000D02*
X152000000Y-114600000D01*
X152000000Y-114600000D02*
X152000000Y-114562500D01*
%TO.N,Net-(U2B-RxCx)*%
X127300000Y-114600000D02*
X124500000Y-111800000D01*
X128500000Y-114600000D02*
X133900000Y-114600000D01*
X135200000Y-115900000D02*
X136400000Y-115900000D01*
X128500000Y-114562500D02*
X128500000Y-114600000D01*
X133900000Y-114600000D02*
X135200000Y-115900000D01*
X128500000Y-114600000D02*
X127300000Y-114600000D01*
%TO.N,Net-(Q2-B)*%
X115500000Y-132700000D02*
X115500000Y-134000000D01*
X105450000Y-132500000D02*
X105400000Y-132500000D01*
X106600000Y-131000000D02*
X107400000Y-130200000D01*
X105400000Y-132500000D02*
X106600000Y-131300000D01*
X113000000Y-130200000D02*
X115500000Y-132700000D01*
X106600000Y-131300000D02*
X106600000Y-131000000D01*
X107400000Y-130200000D02*
X113000000Y-130200000D01*
X107000000Y-130500000D02*
X105500000Y-129000000D01*
X107000000Y-130600000D02*
X107000000Y-130500000D01*
%TO.N,Net-(D5-A)*%
X121500000Y-134500000D02*
X122000000Y-134000000D01*
X118600000Y-140000000D02*
X118600000Y-134500000D01*
X118600000Y-140000000D02*
X124700000Y-140000000D01*
X118600000Y-134500000D02*
X118100000Y-134000000D01*
X118600000Y-134500000D02*
X121500000Y-134500000D01*
%TO.N,Net-(D7-A)*%
X124800000Y-127400000D02*
X124500000Y-127400000D01*
X126900000Y-129500000D02*
X124800000Y-127400000D01*
X124500000Y-134000000D02*
X126900000Y-131600000D01*
X124500000Y-127400000D02*
X124540000Y-127450000D01*
X126900000Y-131600000D02*
X126900000Y-129500000D01*
%TO.N,Net-(U3-IO4)*%
X169900000Y-115900000D02*
X163400000Y-122400000D01*
X177200000Y-115900000D02*
X169900000Y-115900000D01*
X163400000Y-122400000D02*
X163400000Y-124000000D01*
X178500000Y-117200000D02*
X177200000Y-115900000D01*
X178500000Y-118400000D02*
X178500000Y-117200000D01*
X163400000Y-124000000D02*
X163450000Y-124000000D01*
%TO.N,Net-(U3-IO3)*%
X181000000Y-118300000D02*
X181000000Y-117200000D01*
X165400000Y-105700000D02*
X163400000Y-107700000D01*
X163400000Y-108000000D02*
X163450000Y-108000000D01*
X181000000Y-117200000D02*
X169500000Y-105700000D01*
X169500000Y-105700000D02*
X165400000Y-105700000D01*
X163400000Y-107700000D02*
X163400000Y-108000000D01*
%TO.N,Net-(U2B-R)*%
X128500000Y-125900000D02*
X128500000Y-140300000D01*
X166600000Y-124000000D02*
X166550000Y-124000000D01*
X133900000Y-112400000D02*
X133100000Y-112400000D01*
X166600000Y-124100000D02*
X166600000Y-124000000D01*
X144300000Y-136400000D02*
X154300000Y-136400000D01*
X131200000Y-143000000D02*
X137700000Y-143000000D01*
X134900000Y-113400000D02*
X133900000Y-112400000D01*
X130800000Y-123600000D02*
X128500000Y-125900000D01*
X133100000Y-117300000D02*
X130800000Y-119600000D01*
X137700000Y-143000000D02*
X144300000Y-136400000D01*
X154300000Y-136400000D02*
X166600000Y-124100000D01*
X130800000Y-119600000D02*
X130800000Y-123600000D01*
X136400000Y-113400000D02*
X134900000Y-113400000D01*
X128500000Y-140300000D02*
X131200000Y-143000000D01*
%TO.N,Net-(D6-A)*%
X152900000Y-129500000D02*
X150800000Y-127400000D01*
X150800000Y-127400000D02*
X150500000Y-127400000D01*
X150500000Y-127400000D02*
X150540000Y-127450000D01*
X152900000Y-131600000D02*
X152900000Y-129500000D01*
X150500000Y-134000000D02*
X152900000Y-131600000D01*
%TO.N,Net-(U2A-R)*%
D40*
X149000000Y-108000000D02*
X149000000Y-112025000D01*
D39*
X149500000Y-114300000D02*
X147875000Y-115925000D01*
X149000000Y-112025000D02*
X149500000Y-112525000D01*
X149500000Y-112525000D02*
X149500000Y-114300000D01*
X147875000Y-115925000D02*
X144000000Y-115925000D01*
%TO.N,Net-(U2A-Clk+)*%
X147300000Y-113400000D02*
X144000000Y-113400000D01*
%TO.N,Net-(U2A-Q)*%
X144000000Y-108300000D02*
X141800000Y-108300000D01*
X141800000Y-108300000D02*
X140700000Y-109400000D01*
%TO.N,Net-(U2B-Q)*%
X108600000Y-132800000D02*
X108600000Y-132500000D01*
X113800000Y-107500000D02*
X113800000Y-109800000D01*
X132700000Y-105800000D02*
X128500000Y-101600000D01*
X128500000Y-101600000D02*
X119700000Y-101600000D01*
X106600000Y-134800000D02*
X108600000Y-132800000D01*
X102700000Y-120900000D02*
X102700000Y-133200000D01*
X119700000Y-101600000D02*
X113800000Y-107500000D01*
X108600000Y-132500000D02*
X108550000Y-132500000D01*
X136400000Y-105800000D02*
X132700000Y-105800000D01*
X102700000Y-133200000D02*
X104300000Y-134800000D01*
X113800000Y-109800000D02*
X102700000Y-120900000D01*
X104300000Y-134800000D02*
X106600000Y-134800000D01*
%TO.N,Net-(U2B-Clk+)*%
X135200000Y-110800000D02*
X136400000Y-110800000D01*
X128400000Y-104000000D02*
X135200000Y-110800000D01*
X121200000Y-104000000D02*
X128400000Y-104000000D01*
%TO.N,Net-(J4-Pin_1)*%
D44*
X104000000Y-164000000D02*
X104000000Y-154400000D01*
X104000000Y-154400000D02*
X106400000Y-152000000D01*
%TO.N,Net-(J2-Pin_1)*%
X130000000Y-154400000D02*
X132400000Y-152000000D01*
X130000000Y-164000000D02*
X130000000Y-154400000D01*
%TO.N,Net-(J1-Pin_1)*%
X140700000Y-150300000D02*
X145000000Y-146000000D01*
D37*
X142000000Y-160600000D02*
X148300000Y-160600000D01*
X148300000Y-160600000D02*
X151200000Y-163500000D01*
D44*
X142000000Y-154900000D02*
X140700000Y-153600000D01*
X140700000Y-153600000D02*
X140700000Y-150300000D01*
D37*
X151200000Y-163500000D02*
X152000000Y-163500000D01*
D44*
X145000000Y-146000000D02*
X146600000Y-146000000D01*
X142000000Y-164000000D02*
X142000000Y-154900000D01*
%TO.N,Net-(D1-A)*%
D37*
X152800000Y-160500000D02*
X152000000Y-160500000D01*
X155500000Y-163200000D02*
X152800000Y-160500000D01*
%TO.N,Net-(C5-Pad2)*%
D39*
X153200000Y-120200000D02*
X152800000Y-120200000D01*
X152000000Y-111200000D02*
X156300000Y-106900000D01*
X152800000Y-120200000D02*
X152000000Y-121000000D01*
X152000000Y-121000000D02*
X152000000Y-121050000D01*
X157700000Y-101600000D02*
X164000000Y-101600000D01*
X156300000Y-106900000D02*
X156300000Y-103000000D01*
X152000000Y-111400000D02*
X152000000Y-111200000D01*
X156300000Y-103000000D02*
X157700000Y-101600000D01*
X161500000Y-121000000D02*
X159700000Y-119200000D01*
X159700000Y-119200000D02*
X154200000Y-119200000D01*
X154200000Y-119200000D02*
X153200000Y-120200000D01*
X152000000Y-111437500D02*
X152000000Y-111400000D01*
%TD*%
%TA.AperFunction,Conductor*%
%TO.N,GND*%
G36*
X118258607Y-100820691D02*
G01*
X118352031Y-100878536D01*
X118418250Y-100966224D01*
X118448321Y-101071912D01*
X118438182Y-101181325D01*
X118389203Y-101279688D01*
X118362021Y-101310925D01*
X113050495Y-106622451D01*
X113021039Y-106651906D01*
X112930386Y-106714002D01*
X112823422Y-106739158D01*
X112714594Y-106723975D01*
X112618599Y-106670505D01*
X112598193Y-106651902D01*
X112589704Y-106643413D01*
X112589692Y-106643402D01*
X112402450Y-106499727D01*
X112198051Y-106381717D01*
X112198049Y-106381716D01*
X111979993Y-106291394D01*
X111970352Y-106288810D01*
X111871252Y-106241356D01*
X111795982Y-106161302D01*
X111754714Y-106059464D01*
X111753020Y-105949595D01*
X111791131Y-105846533D01*
X111863898Y-105764198D01*
X111961494Y-105713709D01*
X111970298Y-105711203D01*
X111979993Y-105708606D01*
X112198049Y-105618284D01*
X112402450Y-105500273D01*
X112589699Y-105356592D01*
X112756592Y-105189699D01*
X112900273Y-105002450D01*
X113018284Y-104798049D01*
X113108606Y-104579993D01*
X113169693Y-104352014D01*
X113200500Y-104118011D01*
X113200500Y-103881989D01*
X113169693Y-103647986D01*
X113108606Y-103420007D01*
X113018284Y-103201951D01*
X112900273Y-102997550D01*
X112800466Y-102867479D01*
X112756597Y-102810307D01*
X112756594Y-102810304D01*
X112756592Y-102810301D01*
X112589699Y-102643408D01*
X112589696Y-102643405D01*
X112589692Y-102643402D01*
X112402450Y-102499727D01*
X112198051Y-102381717D01*
X112134056Y-102355209D01*
X111979993Y-102291394D01*
X111752014Y-102230307D01*
X111674013Y-102220038D01*
X111518013Y-102199500D01*
X111518011Y-102199500D01*
X110481989Y-102199500D01*
X110481987Y-102199500D01*
X110247986Y-102230307D01*
X110020007Y-102291394D01*
X110020005Y-102291394D01*
X110020004Y-102291395D01*
X109801948Y-102381717D01*
X109597549Y-102499727D01*
X109410307Y-102643402D01*
X109410295Y-102643413D01*
X109243413Y-102810295D01*
X109243402Y-102810307D01*
X109099727Y-102997549D01*
X108981717Y-103201948D01*
X108892108Y-103418284D01*
X108891394Y-103420007D01*
X108851286Y-103569692D01*
X108830307Y-103647986D01*
X108801226Y-103868880D01*
X108799500Y-103881989D01*
X108799500Y-104118011D01*
X108830307Y-104352014D01*
X108891394Y-104579993D01*
X108930694Y-104674870D01*
X108981717Y-104798051D01*
X109099727Y-105002450D01*
X109243402Y-105189692D01*
X109243405Y-105189696D01*
X109243408Y-105189699D01*
X109410301Y-105356592D01*
X109410304Y-105356594D01*
X109410307Y-105356597D01*
X109528255Y-105447101D01*
X109597550Y-105500273D01*
X109801951Y-105618284D01*
X110020007Y-105708606D01*
X110029649Y-105711189D01*
X110128751Y-105758647D01*
X110204019Y-105838701D01*
X110245286Y-105940540D01*
X110246978Y-106050409D01*
X110208866Y-106153470D01*
X110136098Y-106235804D01*
X110038502Y-106286292D01*
X110029692Y-106288798D01*
X110022951Y-106290605D01*
X110020002Y-106291395D01*
X109801948Y-106381717D01*
X109597549Y-106499727D01*
X109410307Y-106643402D01*
X109410295Y-106643413D01*
X109243413Y-106810295D01*
X109243402Y-106810307D01*
X109099727Y-106997549D01*
X108981717Y-107201948D01*
X108934474Y-107316004D01*
X108891394Y-107420007D01*
X108887391Y-107434946D01*
X108830307Y-107647986D01*
X108799500Y-107881986D01*
X108799500Y-108118013D01*
X108812665Y-108218011D01*
X108830307Y-108352014D01*
X108891394Y-108579993D01*
X108932816Y-108679993D01*
X108981717Y-108798051D01*
X109099727Y-109002450D01*
X109243402Y-109189692D01*
X109243405Y-109189696D01*
X109243408Y-109189699D01*
X109410301Y-109356592D01*
X109410304Y-109356594D01*
X109410307Y-109356597D01*
X109429612Y-109371410D01*
X109597550Y-109500273D01*
X109801951Y-109618284D01*
X110020007Y-109708606D01*
X110247986Y-109769693D01*
X110433215Y-109794078D01*
X110481987Y-109800500D01*
X111450597Y-109800500D01*
X111558608Y-109820691D01*
X111652032Y-109878536D01*
X111718251Y-109966224D01*
X111748322Y-110071912D01*
X111738183Y-110181325D01*
X111689204Y-110279688D01*
X111662022Y-110310924D01*
X106804430Y-115168516D01*
X101950502Y-120022444D01*
X101822446Y-120150499D01*
X101749792Y-120250498D01*
X101749793Y-120250499D01*
X101716006Y-120297002D01*
X101716004Y-120297006D01*
X101633789Y-120458361D01*
X101633788Y-120458363D01*
X101633787Y-120458366D01*
X101633785Y-120458370D01*
X101577829Y-120630588D01*
X101563588Y-120720500D01*
X101550688Y-120801951D01*
X101549499Y-120809456D01*
X101549499Y-121002885D01*
X101549500Y-121002910D01*
X101549500Y-133098828D01*
X101549499Y-133098858D01*
X101549499Y-133290546D01*
X101572186Y-133433787D01*
X101577826Y-133469399D01*
X101577830Y-133469415D01*
X101633785Y-133641629D01*
X101633787Y-133641633D01*
X101633789Y-133641639D01*
X101716004Y-133802994D01*
X101822447Y-133949501D01*
X101822448Y-133949502D01*
X101960936Y-134087990D01*
X101960946Y-134087999D01*
X103414930Y-135541982D01*
X103414959Y-135542013D01*
X103422447Y-135549501D01*
X103550499Y-135677553D01*
X103697006Y-135783996D01*
X103858361Y-135866211D01*
X103858366Y-135866212D01*
X103858367Y-135866213D01*
X103858369Y-135866214D01*
X103902575Y-135880577D01*
X104030588Y-135922171D01*
X104030591Y-135922172D01*
X104209454Y-135950501D01*
X104209455Y-135950501D01*
X104402887Y-135950501D01*
X104402911Y-135950500D01*
X106497090Y-135950500D01*
X106497114Y-135950501D01*
X106509454Y-135950501D01*
X106690541Y-135950501D01*
X106690546Y-135950501D01*
X106869409Y-135922171D01*
X107041639Y-135866211D01*
X107202994Y-135783996D01*
X107291695Y-135719551D01*
X107349501Y-135677553D01*
X107477553Y-135549501D01*
X107477554Y-135549499D01*
X107494589Y-135532464D01*
X107494594Y-135532457D01*
X108189141Y-134837911D01*
X111350001Y-134837911D01*
X111360190Y-134967396D01*
X111360193Y-134967411D01*
X111414070Y-135181227D01*
X111505256Y-135381983D01*
X111505262Y-135381992D01*
X111630836Y-135563247D01*
X111786752Y-135719163D01*
X111968007Y-135844737D01*
X111968016Y-135844743D01*
X112168772Y-135935929D01*
X112382594Y-135989808D01*
X112512073Y-135999998D01*
X112512103Y-135999999D01*
X112600000Y-135999999D01*
X112600000Y-134400000D01*
X111350001Y-134400000D01*
X111350001Y-134837911D01*
X108189141Y-134837911D01*
X108763978Y-134263075D01*
X108854631Y-134200977D01*
X108961594Y-134175819D01*
X108975403Y-134175500D01*
X109001612Y-134175500D01*
X109052405Y-134170496D01*
X109155934Y-134160300D01*
X109353954Y-134100232D01*
X109536450Y-134002685D01*
X109536452Y-134002683D01*
X109536453Y-134002683D01*
X109696405Y-133871414D01*
X109696404Y-133871414D01*
X109696410Y-133871410D01*
X109827685Y-133711450D01*
X109925232Y-133528954D01*
X109985300Y-133330934D01*
X109998125Y-133200721D01*
X110000500Y-133176611D01*
X110000500Y-131823389D01*
X109987993Y-131696410D01*
X109986259Y-131678806D01*
X109995765Y-131569339D01*
X110044174Y-131470695D01*
X110124948Y-131396200D01*
X110227179Y-131355914D01*
X110283819Y-131350500D01*
X112399597Y-131350500D01*
X112507608Y-131370691D01*
X112601032Y-131428536D01*
X112611022Y-131438075D01*
X112666115Y-131493168D01*
X112728213Y-131583821D01*
X112753371Y-131690784D01*
X112738190Y-131799613D01*
X112684721Y-131895608D01*
X112600185Y-131965806D01*
X112495999Y-132000726D01*
X112478149Y-132002671D01*
X112382603Y-132010190D01*
X112382588Y-132010193D01*
X112168772Y-132064070D01*
X111968016Y-132155256D01*
X111968007Y-132155262D01*
X111786752Y-132280836D01*
X111630836Y-132436752D01*
X111505262Y-132618007D01*
X111505256Y-132618016D01*
X111414070Y-132818772D01*
X111360191Y-133032595D01*
X111350001Y-133162071D01*
X111350000Y-133162104D01*
X111350000Y-133600000D01*
X112701000Y-133600000D01*
X112809011Y-133620191D01*
X112832576Y-133634781D01*
X112754394Y-133679920D01*
X112679920Y-133754394D01*
X112627259Y-133845606D01*
X112600000Y-133947339D01*
X112600000Y-134052661D01*
X112627259Y-134154394D01*
X112679920Y-134245606D01*
X112754394Y-134320080D01*
X112845606Y-134372741D01*
X112947339Y-134400000D01*
X113052661Y-134400000D01*
X113154394Y-134372741D01*
X113245606Y-134320080D01*
X113320080Y-134245606D01*
X113367263Y-134163882D01*
X113368654Y-134165724D01*
X113398725Y-134271412D01*
X113400000Y-134299000D01*
X113400000Y-135999999D01*
X113487911Y-135999999D01*
X113617396Y-135989809D01*
X113617411Y-135989806D01*
X113831227Y-135935929D01*
X114031983Y-135844743D01*
X114031992Y-135844737D01*
X114213240Y-135719168D01*
X114222012Y-135711845D01*
X114317865Y-135658120D01*
X114426652Y-135642649D01*
X114533682Y-135667521D01*
X114589385Y-135699468D01*
X114674949Y-135761634D01*
X114906428Y-135879579D01*
X114906430Y-135879579D01*
X114906433Y-135879581D01*
X114994726Y-135908269D01*
X115153507Y-135959860D01*
X115410103Y-136000500D01*
X115410105Y-136000500D01*
X115669895Y-136000500D01*
X115669897Y-136000500D01*
X115926493Y-135959860D01*
X116161693Y-135883438D01*
X116173566Y-135879581D01*
X116173566Y-135879580D01*
X116173572Y-135879579D01*
X116405051Y-135761634D01*
X116615229Y-135608931D01*
X116615232Y-135608928D01*
X116615815Y-135608431D01*
X116616306Y-135608148D01*
X116624733Y-135602026D01*
X116625385Y-135602924D01*
X116711060Y-135553636D01*
X116819668Y-135536948D01*
X116926970Y-135560621D01*
X116994824Y-135602635D01*
X116995267Y-135602026D01*
X117003493Y-135608002D01*
X117004185Y-135608431D01*
X117004767Y-135608928D01*
X117004770Y-135608930D01*
X117004771Y-135608931D01*
X117214949Y-135761634D01*
X117286247Y-135797962D01*
X117373316Y-135864987D01*
X117430295Y-135958941D01*
X117449500Y-136064371D01*
X117449500Y-137824008D01*
X117429309Y-137932019D01*
X117371464Y-138025443D01*
X117332520Y-138061221D01*
X117129919Y-138216681D01*
X116916681Y-138429919D01*
X116733099Y-138669169D01*
X116582318Y-138930329D01*
X116572817Y-138953268D01*
X116466913Y-139208942D01*
X116388862Y-139500232D01*
X116349500Y-139799217D01*
X116349500Y-140100783D01*
X116388862Y-140399768D01*
X116466913Y-140691058D01*
X116582317Y-140969668D01*
X116733100Y-141230832D01*
X116916681Y-141470080D01*
X117129920Y-141683319D01*
X117369168Y-141866900D01*
X117630332Y-142017683D01*
X117908942Y-142133087D01*
X118200232Y-142211138D01*
X118436899Y-142242295D01*
X118499215Y-142250500D01*
X118499217Y-142250500D01*
X118800785Y-142250500D01*
X118857219Y-142243070D01*
X119099768Y-142211138D01*
X119391058Y-142133087D01*
X119669668Y-142017683D01*
X119930832Y-141866900D01*
X120170080Y-141683319D01*
X120383319Y-141470080D01*
X120538778Y-141267480D01*
X120620549Y-141194081D01*
X120723314Y-141155177D01*
X120775991Y-141150500D01*
X122954584Y-141150500D01*
X123062595Y-141170691D01*
X123156019Y-141228536D01*
X123222238Y-141316224D01*
X123230823Y-141335075D01*
X123291836Y-141482373D01*
X123416401Y-141698127D01*
X123568062Y-141895776D01*
X123744224Y-142071938D01*
X123941873Y-142223599D01*
X124157627Y-142348164D01*
X124387793Y-142443502D01*
X124628435Y-142507982D01*
X124823952Y-142533722D01*
X124875433Y-142540500D01*
X124875435Y-142540500D01*
X125124567Y-142540500D01*
X125171188Y-142534361D01*
X125371565Y-142507982D01*
X125612207Y-142443502D01*
X125842373Y-142348164D01*
X126058127Y-142223599D01*
X126255776Y-142071938D01*
X126431938Y-141895776D01*
X126583599Y-141698127D01*
X126708164Y-141482373D01*
X126803502Y-141252207D01*
X126867982Y-141011565D01*
X126886710Y-140869309D01*
X126920825Y-140764861D01*
X126990369Y-140679787D01*
X127085950Y-140625579D01*
X127194658Y-140609561D01*
X127301813Y-140633893D01*
X127392941Y-140695292D01*
X127449561Y-140772594D01*
X127510920Y-140893017D01*
X127516004Y-140902994D01*
X127594885Y-141011565D01*
X127622448Y-141049502D01*
X127760936Y-141187990D01*
X127760946Y-141187999D01*
X130314930Y-143741982D01*
X130314959Y-143742013D01*
X130322447Y-143749501D01*
X130450499Y-143877553D01*
X130597006Y-143983996D01*
X130758361Y-144066211D01*
X130758366Y-144066212D01*
X130758367Y-144066213D01*
X130758369Y-144066214D01*
X130822510Y-144087054D01*
X130930588Y-144122171D01*
X130930591Y-144122172D01*
X131109454Y-144150501D01*
X131109455Y-144150501D01*
X131302887Y-144150501D01*
X131302911Y-144150500D01*
X137597090Y-144150500D01*
X137597114Y-144150501D01*
X137609454Y-144150501D01*
X137790541Y-144150501D01*
X137790546Y-144150501D01*
X137969409Y-144122171D01*
X138141639Y-144066211D01*
X138302994Y-143983996D01*
X138375217Y-143931523D01*
X138449501Y-143877553D01*
X138577553Y-143749501D01*
X138577554Y-143749499D01*
X138594589Y-143732464D01*
X138594595Y-143732457D01*
X141925123Y-140401928D01*
X142015773Y-140339833D01*
X142122736Y-140314675D01*
X142231565Y-140329856D01*
X142327560Y-140383325D01*
X142397758Y-140467861D01*
X142425357Y-140535968D01*
X142466914Y-140691062D01*
X142554698Y-140902990D01*
X142582317Y-140969668D01*
X142733100Y-141230832D01*
X142916681Y-141470080D01*
X143129920Y-141683319D01*
X143369168Y-141866900D01*
X143630332Y-142017683D01*
X143908942Y-142133087D01*
X144200232Y-142211138D01*
X144436899Y-142242295D01*
X144499215Y-142250500D01*
X144499217Y-142250500D01*
X144800785Y-142250500D01*
X144857219Y-142243070D01*
X145099768Y-142211138D01*
X145391058Y-142133087D01*
X145669668Y-142017683D01*
X145930832Y-141866900D01*
X146170080Y-141683319D01*
X146383319Y-141470080D01*
X146538778Y-141267480D01*
X146620549Y-141194081D01*
X146723314Y-141155177D01*
X146775991Y-141150500D01*
X148954584Y-141150500D01*
X149062595Y-141170691D01*
X149156019Y-141228536D01*
X149222238Y-141316224D01*
X149230823Y-141335075D01*
X149291836Y-141482373D01*
X149416401Y-141698127D01*
X149568062Y-141895776D01*
X149744224Y-142071938D01*
X149941873Y-142223599D01*
X150157627Y-142348164D01*
X150387793Y-142443502D01*
X150628435Y-142507982D01*
X150823952Y-142533722D01*
X150875433Y-142540500D01*
X150875435Y-142540500D01*
X151124567Y-142540500D01*
X151171188Y-142534361D01*
X151371565Y-142507982D01*
X151612207Y-142443502D01*
X151842373Y-142348164D01*
X152058127Y-142223599D01*
X152255776Y-142071938D01*
X152431938Y-141895776D01*
X152583599Y-141698127D01*
X152708164Y-141482373D01*
X152803502Y-141252207D01*
X152867982Y-141011565D01*
X152900500Y-140764565D01*
X152900500Y-139915435D01*
X152867982Y-139668435D01*
X152803502Y-139427793D01*
X152708164Y-139197627D01*
X152583599Y-138981873D01*
X152431938Y-138784224D01*
X152255776Y-138608062D01*
X152058127Y-138456401D01*
X151842373Y-138331836D01*
X151612207Y-138236498D01*
X151371565Y-138172018D01*
X151275631Y-138159388D01*
X151192928Y-138148500D01*
X151192927Y-138148500D01*
X151124565Y-138139500D01*
X150875435Y-138139500D01*
X150807073Y-138148500D01*
X150807072Y-138148500D01*
X150628435Y-138172018D01*
X150387793Y-138236498D01*
X150387791Y-138236498D01*
X150387790Y-138236499D01*
X150157624Y-138331837D01*
X149941871Y-138456402D01*
X149744223Y-138608062D01*
X149744218Y-138608067D01*
X149590361Y-138761925D01*
X149499708Y-138824023D01*
X149392745Y-138849181D01*
X149378936Y-138849500D01*
X146843642Y-138849500D01*
X146735631Y-138829309D01*
X146642207Y-138771464D01*
X146584703Y-138700004D01*
X146566900Y-138669168D01*
X146421488Y-138479663D01*
X146383324Y-138429926D01*
X146383321Y-138429923D01*
X146383319Y-138429920D01*
X146170080Y-138216681D01*
X146167140Y-138214425D01*
X146000702Y-138086712D01*
X145927302Y-138004941D01*
X145888399Y-137902176D01*
X145889245Y-137792297D01*
X145929727Y-137690144D01*
X146004377Y-137609512D01*
X146103114Y-137561292D01*
X146182722Y-137550500D01*
X154197090Y-137550500D01*
X154197114Y-137550501D01*
X154209454Y-137550501D01*
X154390541Y-137550501D01*
X154390546Y-137550501D01*
X154569409Y-137522171D01*
X154741639Y-137466211D01*
X154902994Y-137383996D01*
X154905434Y-137382223D01*
X154905465Y-137382208D01*
X154905462Y-137382203D01*
X154928275Y-137365627D01*
X155049501Y-137277553D01*
X155177553Y-137149501D01*
X155177554Y-137149499D01*
X155194589Y-137132464D01*
X155194594Y-137132457D01*
X166563978Y-125763075D01*
X166654631Y-125700977D01*
X166761594Y-125675819D01*
X166775403Y-125675500D01*
X167001612Y-125675500D01*
X167052405Y-125670496D01*
X167155934Y-125660300D01*
X167353954Y-125600232D01*
X167536450Y-125502685D01*
X167536452Y-125502683D01*
X167536453Y-125502683D01*
X167696405Y-125371414D01*
X167696404Y-125371414D01*
X167696410Y-125371410D01*
X167757471Y-125297007D01*
X167827683Y-125211453D01*
X167827683Y-125211452D01*
X167827685Y-125211450D01*
X167925232Y-125028954D01*
X167985300Y-124830934D01*
X168000500Y-124676608D01*
X168000500Y-123323392D01*
X167999184Y-123310035D01*
X167988155Y-123198053D01*
X167985300Y-123169066D01*
X167925232Y-122971046D01*
X167827685Y-122788550D01*
X167827683Y-122788547D01*
X167827683Y-122788546D01*
X167696414Y-122628594D01*
X167696405Y-122628585D01*
X167536453Y-122497316D01*
X167353960Y-122399771D01*
X167353958Y-122399770D01*
X167353954Y-122399768D01*
X167353949Y-122399766D01*
X167353948Y-122399766D01*
X167155935Y-122339700D01*
X167155937Y-122339700D01*
X167001612Y-122324500D01*
X167001608Y-122324500D01*
X166098392Y-122324500D01*
X166098388Y-122324500D01*
X165944064Y-122339700D01*
X165856582Y-122366237D01*
X165747360Y-122378269D01*
X165641168Y-122350032D01*
X165552347Y-122285341D01*
X165492893Y-122192933D01*
X165470835Y-122085288D01*
X165489153Y-121976943D01*
X165545372Y-121882532D01*
X165558349Y-121868702D01*
X168949078Y-118477973D01*
X169039728Y-118415878D01*
X169146691Y-118390720D01*
X169255520Y-118405901D01*
X169351515Y-118459370D01*
X169421713Y-118543906D01*
X169456633Y-118648092D01*
X169459500Y-118689401D01*
X169459500Y-119557937D01*
X169469694Y-119687477D01*
X169469696Y-119687487D01*
X169523594Y-119901388D01*
X169523596Y-119901393D01*
X169560080Y-119981716D01*
X169614822Y-120102236D01*
X169614823Y-120102238D01*
X169614824Y-120102239D01*
X169738173Y-120280282D01*
X169748096Y-120294604D01*
X169746942Y-120295403D01*
X169793746Y-120378907D01*
X169809500Y-120474681D01*
X169809500Y-125602353D01*
X169841523Y-125804535D01*
X169904778Y-125999214D01*
X169904779Y-125999218D01*
X169992977Y-126172316D01*
X169997713Y-126181610D01*
X170118034Y-126347219D01*
X170262781Y-126491966D01*
X170428390Y-126612287D01*
X170610781Y-126705220D01*
X170805466Y-126768477D01*
X171007648Y-126800500D01*
X181400500Y-126800500D01*
X181508511Y-126820691D01*
X181601935Y-126878536D01*
X181668154Y-126966224D01*
X181698225Y-127071912D01*
X181699500Y-127099500D01*
X181699500Y-129021446D01*
X181709886Y-129168561D01*
X181764890Y-129412781D01*
X181858351Y-129645005D01*
X181858361Y-129645024D01*
X181987861Y-129859243D01*
X181987866Y-129859250D01*
X182150064Y-130049936D01*
X182340749Y-130212133D01*
X182340756Y-130212138D01*
X182400056Y-130247986D01*
X182554985Y-130341644D01*
X182554990Y-130341646D01*
X182554994Y-130341648D01*
X182787218Y-130435109D01*
X182787219Y-130435109D01*
X182787221Y-130435110D01*
X183031442Y-130490114D01*
X183178554Y-130500500D01*
X183178559Y-130500500D01*
X184821441Y-130500500D01*
X184821446Y-130500500D01*
X184968558Y-130490114D01*
X185212779Y-130435110D01*
X185445015Y-130341644D01*
X185659250Y-130212134D01*
X185849936Y-130049936D01*
X186012134Y-129859250D01*
X186141644Y-129645015D01*
X186235110Y-129412779D01*
X186290114Y-129168558D01*
X186300500Y-129021446D01*
X186300500Y-126978554D01*
X186290114Y-126831442D01*
X186235110Y-126587221D01*
X186196771Y-126491960D01*
X186141648Y-126354994D01*
X186141646Y-126354990D01*
X186141644Y-126354985D01*
X186110572Y-126303585D01*
X186012138Y-126140756D01*
X186012133Y-126140749D01*
X185849936Y-125950064D01*
X185659250Y-125787866D01*
X185659248Y-125787864D01*
X185444815Y-125658234D01*
X185362827Y-125585076D01*
X185312802Y-125487241D01*
X185301513Y-125409346D01*
X185301421Y-125409354D01*
X185301310Y-125407947D01*
X185300500Y-125402356D01*
X185300500Y-125397648D01*
X185268477Y-125195466D01*
X185205220Y-125000781D01*
X185112287Y-124818390D01*
X184991966Y-124652781D01*
X184847219Y-124508034D01*
X184704688Y-124404480D01*
X184681612Y-124387714D01*
X184681607Y-124387711D01*
X184499218Y-124294779D01*
X184499214Y-124294778D01*
X184304535Y-124231523D01*
X184102353Y-124199500D01*
X184102352Y-124199500D01*
X172709500Y-124199500D01*
X172601489Y-124179309D01*
X172508065Y-124121464D01*
X172441846Y-124033776D01*
X172411775Y-123928088D01*
X172410500Y-123900500D01*
X172410500Y-120778204D01*
X172430691Y-120670193D01*
X172488536Y-120576769D01*
X172576224Y-120510550D01*
X172681912Y-120480479D01*
X172791325Y-120490618D01*
X172845244Y-120511794D01*
X173016614Y-120599112D01*
X173016626Y-120599117D01*
X173249999Y-120674944D01*
X173250000Y-120674944D01*
X173250000Y-118927106D01*
X173342993Y-119020099D01*
X173457007Y-119085925D01*
X173584174Y-119120000D01*
X173715826Y-119120000D01*
X173842993Y-119085925D01*
X173957007Y-119020099D01*
X174050000Y-118927106D01*
X174050000Y-120674944D01*
X174283373Y-120599117D01*
X174283374Y-120599116D01*
X174514790Y-120481203D01*
X174514798Y-120481199D01*
X174724894Y-120328556D01*
X174725413Y-120328113D01*
X174725851Y-120327860D01*
X174734408Y-120321644D01*
X174735070Y-120322556D01*
X174820654Y-120273312D01*
X174929261Y-120256617D01*
X175036564Y-120280282D01*
X175104869Y-120322573D01*
X175105267Y-120322026D01*
X175112654Y-120327393D01*
X175113804Y-120328105D01*
X175114771Y-120328931D01*
X175324949Y-120481634D01*
X175556428Y-120599579D01*
X175556430Y-120599579D01*
X175556433Y-120599581D01*
X175641618Y-120627259D01*
X175803507Y-120679860D01*
X176060103Y-120720500D01*
X176060105Y-120720500D01*
X176319895Y-120720500D01*
X176319897Y-120720500D01*
X176576493Y-120679860D01*
X176823572Y-120599579D01*
X177055051Y-120481634D01*
X177265229Y-120328931D01*
X177265234Y-120328926D01*
X177265815Y-120328431D01*
X177266306Y-120328148D01*
X177274733Y-120322026D01*
X177275385Y-120322924D01*
X177361060Y-120273636D01*
X177469668Y-120256948D01*
X177576970Y-120280621D01*
X177644824Y-120322635D01*
X177645267Y-120322026D01*
X177653493Y-120328002D01*
X177654185Y-120328431D01*
X177654767Y-120328928D01*
X177654770Y-120328930D01*
X177654771Y-120328931D01*
X177864949Y-120481634D01*
X178096428Y-120599579D01*
X178096430Y-120599579D01*
X178096433Y-120599581D01*
X178181618Y-120627259D01*
X178343507Y-120679860D01*
X178600103Y-120720500D01*
X178600105Y-120720500D01*
X178859895Y-120720500D01*
X178859897Y-120720500D01*
X179116493Y-120679860D01*
X179363572Y-120599579D01*
X179595051Y-120481634D01*
X179805229Y-120328931D01*
X179805234Y-120328926D01*
X179805815Y-120328431D01*
X179806306Y-120328148D01*
X179814733Y-120322026D01*
X179815385Y-120322924D01*
X179901060Y-120273636D01*
X180009668Y-120256948D01*
X180116970Y-120280621D01*
X180184824Y-120322635D01*
X180185267Y-120322026D01*
X180193493Y-120328002D01*
X180194185Y-120328431D01*
X180194767Y-120328928D01*
X180194770Y-120328930D01*
X180194771Y-120328931D01*
X180404949Y-120481634D01*
X180636428Y-120599579D01*
X180636430Y-120599579D01*
X180636433Y-120599581D01*
X180721618Y-120627259D01*
X180883507Y-120679860D01*
X181140103Y-120720500D01*
X181140105Y-120720500D01*
X181399895Y-120720500D01*
X181399897Y-120720500D01*
X181656493Y-120679860D01*
X181903572Y-120599579D01*
X182135051Y-120481634D01*
X182345229Y-120328931D01*
X182345234Y-120328926D01*
X182345815Y-120328431D01*
X182346306Y-120328148D01*
X182354733Y-120322026D01*
X182355385Y-120322924D01*
X182441060Y-120273636D01*
X182549668Y-120256948D01*
X182656970Y-120280621D01*
X182724824Y-120322635D01*
X182725267Y-120322026D01*
X182733493Y-120328002D01*
X182734185Y-120328431D01*
X182734767Y-120328928D01*
X182734770Y-120328930D01*
X182734771Y-120328931D01*
X182944949Y-120481634D01*
X183176428Y-120599579D01*
X183176430Y-120599579D01*
X183176433Y-120599581D01*
X183261618Y-120627259D01*
X183423507Y-120679860D01*
X183680103Y-120720500D01*
X183680105Y-120720500D01*
X183939895Y-120720500D01*
X183939897Y-120720500D01*
X184196493Y-120679860D01*
X184443572Y-120599579D01*
X184675051Y-120481634D01*
X184885229Y-120328931D01*
X184885234Y-120328926D01*
X184885815Y-120328431D01*
X184886306Y-120328148D01*
X184894733Y-120322026D01*
X184895385Y-120322924D01*
X184981060Y-120273636D01*
X185089668Y-120256948D01*
X185196970Y-120280621D01*
X185264823Y-120322634D01*
X185265266Y-120322025D01*
X185273495Y-120328004D01*
X185274185Y-120328431D01*
X185274765Y-120328926D01*
X185274768Y-120328928D01*
X185274771Y-120328931D01*
X185376749Y-120403022D01*
X185452262Y-120482842D01*
X185493843Y-120584553D01*
X185500000Y-120644917D01*
X185500000Y-122000000D01*
X190900500Y-122000000D01*
X191008511Y-122020191D01*
X191101935Y-122078036D01*
X191168154Y-122165724D01*
X191198225Y-122271412D01*
X191199500Y-122299000D01*
X191199500Y-167988255D01*
X191198578Y-168011715D01*
X191186578Y-168164183D01*
X191179239Y-168210521D01*
X191146286Y-168347784D01*
X191131787Y-168392408D01*
X191077769Y-168522819D01*
X191056468Y-168564625D01*
X190982712Y-168684983D01*
X190955133Y-168722941D01*
X190863455Y-168830281D01*
X190830281Y-168863455D01*
X190722941Y-168955133D01*
X190684983Y-168982712D01*
X190564625Y-169056468D01*
X190522819Y-169077769D01*
X190392408Y-169131787D01*
X190347784Y-169146286D01*
X190210521Y-169179239D01*
X190164183Y-169186578D01*
X190011716Y-169198578D01*
X189988256Y-169199500D01*
X102011744Y-169199500D01*
X101988284Y-169198578D01*
X101835816Y-169186578D01*
X101789478Y-169179239D01*
X101652215Y-169146286D01*
X101607593Y-169131787D01*
X101477178Y-169077768D01*
X101435374Y-169056468D01*
X101315016Y-168982712D01*
X101277058Y-168955133D01*
X101169718Y-168863455D01*
X101136544Y-168830281D01*
X101044866Y-168722941D01*
X101017287Y-168684983D01*
X100943527Y-168564618D01*
X100922234Y-168522827D01*
X100868209Y-168392398D01*
X100853715Y-168347791D01*
X100820759Y-168210518D01*
X100813421Y-168164186D01*
X100801422Y-168011713D01*
X100800500Y-167988255D01*
X100800500Y-162862608D01*
X101499500Y-162862608D01*
X101499500Y-165137392D01*
X101505630Y-165246543D01*
X101509796Y-165268560D01*
X101554405Y-165504331D01*
X101641059Y-165751975D01*
X101641059Y-165751976D01*
X101763653Y-165983934D01*
X101763655Y-165983935D01*
X101919447Y-166195028D01*
X102104971Y-166380552D01*
X102316064Y-166536344D01*
X102316065Y-166536346D01*
X102525720Y-166647152D01*
X102548026Y-166658941D01*
X102795667Y-166745594D01*
X103053457Y-166794370D01*
X103162608Y-166800500D01*
X103162618Y-166800500D01*
X104837382Y-166800500D01*
X104837392Y-166800500D01*
X104946543Y-166794370D01*
X105204333Y-166745594D01*
X105451974Y-166658941D01*
X105451976Y-166658940D01*
X105683934Y-166536346D01*
X105683934Y-166536344D01*
X105895031Y-166380550D01*
X106080550Y-166195031D01*
X106236344Y-165983934D01*
X106236346Y-165983934D01*
X106297155Y-165868878D01*
X106358941Y-165751974D01*
X106368580Y-165724424D01*
X106423308Y-165629145D01*
X106508762Y-165560067D01*
X106613399Y-165526524D01*
X106723088Y-165533044D01*
X106823014Y-165578749D01*
X106899681Y-165657464D01*
X106903971Y-165664096D01*
X106957474Y-165749245D01*
X106957476Y-165749248D01*
X107052880Y-165868880D01*
X107132584Y-165968825D01*
X107331175Y-166167416D01*
X107365803Y-166195031D01*
X107550750Y-166342522D01*
X107788548Y-166491941D01*
X107788552Y-166491944D01*
X107931216Y-166560647D01*
X108041592Y-166613801D01*
X108306682Y-166706560D01*
X108580491Y-166769055D01*
X108580496Y-166769055D01*
X108580498Y-166769056D01*
X108715547Y-166784272D01*
X108859575Y-166800500D01*
X108859577Y-166800500D01*
X109140423Y-166800500D01*
X109140425Y-166800500D01*
X109334543Y-166778628D01*
X109419501Y-166769056D01*
X109419501Y-166769055D01*
X109419509Y-166769055D01*
X109693318Y-166706560D01*
X109958408Y-166613801D01*
X110211445Y-166491945D01*
X110449248Y-166342523D01*
X110668825Y-166167416D01*
X110867416Y-165968825D01*
X111042523Y-165749248D01*
X111191945Y-165511445D01*
X111313801Y-165258408D01*
X111406560Y-164993318D01*
X111469055Y-164719509D01*
X111500500Y-164440425D01*
X111500500Y-164440408D01*
X111500751Y-164435947D01*
X111501218Y-164434041D01*
X111501439Y-164432089D01*
X111501691Y-164432117D01*
X111526963Y-164329237D01*
X111587853Y-164241280D01*
X112989076Y-162840057D01*
X113079728Y-162777960D01*
X113186691Y-162752802D01*
X113295520Y-162767983D01*
X113391515Y-162821452D01*
X113461713Y-162905988D01*
X113496633Y-163010174D01*
X113499500Y-163051483D01*
X113499500Y-165137392D01*
X113505630Y-165246543D01*
X113509796Y-165268560D01*
X113554405Y-165504331D01*
X113641059Y-165751975D01*
X113641059Y-165751976D01*
X113763653Y-165983934D01*
X113763655Y-165983935D01*
X113919447Y-166195028D01*
X114104971Y-166380552D01*
X114316064Y-166536344D01*
X114316065Y-166536346D01*
X114525720Y-166647152D01*
X114548026Y-166658941D01*
X114795667Y-166745594D01*
X115053457Y-166794370D01*
X115162608Y-166800500D01*
X115162618Y-166800500D01*
X116837382Y-166800500D01*
X116837392Y-166800500D01*
X116946543Y-166794370D01*
X117159530Y-166754070D01*
X117269405Y-166753829D01*
X117371954Y-166793297D01*
X117426537Y-166836433D01*
X118669895Y-168079791D01*
X118669896Y-168079792D01*
X118820208Y-168230104D01*
X118992184Y-168355051D01*
X119181588Y-168451557D01*
X119383754Y-168517245D01*
X119383757Y-168517246D01*
X119593713Y-168550500D01*
X119593714Y-168550500D01*
X122406286Y-168550500D01*
X122406287Y-168550500D01*
X122616243Y-168517246D01*
X122818412Y-168451557D01*
X123007816Y-168355051D01*
X123179792Y-168230104D01*
X123330104Y-168079792D01*
X123330105Y-168079790D01*
X123347140Y-168062755D01*
X123347146Y-168062748D01*
X124762748Y-166647146D01*
X124762755Y-166647140D01*
X124779790Y-166630105D01*
X124779792Y-166630104D01*
X124930104Y-166479792D01*
X125055051Y-166307816D01*
X125151557Y-166118412D01*
X125217246Y-165916243D01*
X125235578Y-165800500D01*
X125250501Y-165706286D01*
X125250501Y-165493713D01*
X125250501Y-165483117D01*
X125250500Y-165483087D01*
X125250500Y-162878553D01*
X127699500Y-162878553D01*
X127699500Y-165121446D01*
X127709886Y-165268561D01*
X127764890Y-165512781D01*
X127858351Y-165745005D01*
X127858361Y-165745024D01*
X127987861Y-165959243D01*
X127987866Y-165959250D01*
X128150064Y-166149936D01*
X128335670Y-166307813D01*
X128340749Y-166312133D01*
X128340756Y-166312138D01*
X128471405Y-166391118D01*
X128554985Y-166441644D01*
X128554990Y-166441646D01*
X128554994Y-166441648D01*
X128787218Y-166535109D01*
X128787219Y-166535109D01*
X128787221Y-166535110D01*
X129031442Y-166590114D01*
X129178554Y-166600500D01*
X129178559Y-166600500D01*
X130821441Y-166600500D01*
X130821446Y-166600500D01*
X130968558Y-166590114D01*
X131212779Y-166535110D01*
X131445015Y-166441644D01*
X131659250Y-166312134D01*
X131849936Y-166149936D01*
X132012134Y-165959250D01*
X132141644Y-165745015D01*
X132235110Y-165512779D01*
X132290114Y-165268558D01*
X132291337Y-165251224D01*
X132319083Y-165144906D01*
X132383364Y-165055787D01*
X132475497Y-164995907D01*
X132583039Y-164973353D01*
X132691467Y-164991171D01*
X132786137Y-165046954D01*
X132854262Y-165133169D01*
X132865835Y-165157858D01*
X132932769Y-165319452D01*
X133083517Y-165580553D01*
X133267052Y-165819742D01*
X133267063Y-165819754D01*
X133480245Y-166032936D01*
X133480257Y-166032947D01*
X133719446Y-166216482D01*
X133980547Y-166367230D01*
X134259100Y-166482610D01*
X134550334Y-166560647D01*
X134550342Y-166560648D01*
X134599999Y-166567185D01*
X134600000Y-166567185D01*
X134600000Y-164514476D01*
X134692110Y-164576022D01*
X134810402Y-164625021D01*
X134935981Y-164650000D01*
X135064019Y-164650000D01*
X135189598Y-164625021D01*
X135307890Y-164576022D01*
X135400000Y-164514476D01*
X135400000Y-166567185D01*
X135449657Y-166560648D01*
X135449665Y-166560647D01*
X135740899Y-166482610D01*
X136019452Y-166367230D01*
X136280553Y-166216482D01*
X136519742Y-166032947D01*
X136519754Y-166032936D01*
X136732936Y-165819754D01*
X136732947Y-165819742D01*
X136916482Y-165580553D01*
X137067230Y-165319452D01*
X137182610Y-165040899D01*
X137260645Y-164749670D01*
X137300000Y-164450752D01*
X137300000Y-164400000D01*
X135514477Y-164400000D01*
X135576022Y-164307890D01*
X135625021Y-164189598D01*
X135650000Y-164064019D01*
X135650000Y-163935981D01*
X135625021Y-163810402D01*
X135576022Y-163692110D01*
X135514477Y-163600000D01*
X137300000Y-163600000D01*
X137300000Y-163549247D01*
X137260645Y-163250329D01*
X137182610Y-162959100D01*
X137067230Y-162680547D01*
X136916482Y-162419446D01*
X136732947Y-162180257D01*
X136732936Y-162180245D01*
X136519754Y-161967063D01*
X136519742Y-161967052D01*
X136280553Y-161783517D01*
X136019452Y-161632769D01*
X135740899Y-161517389D01*
X135449666Y-161439353D01*
X135449664Y-161439352D01*
X135400001Y-161432813D01*
X135400000Y-161432814D01*
X135400000Y-163485523D01*
X135307890Y-163423978D01*
X135189598Y-163374979D01*
X135064019Y-163350000D01*
X134935981Y-163350000D01*
X134810402Y-163374979D01*
X134692110Y-163423978D01*
X134600000Y-163485523D01*
X134600000Y-161432814D01*
X134599998Y-161432813D01*
X134550335Y-161439352D01*
X134550333Y-161439353D01*
X134259100Y-161517389D01*
X133980547Y-161632769D01*
X133719446Y-161783517D01*
X133480257Y-161967052D01*
X133480245Y-161967063D01*
X133267063Y-162180245D01*
X133267052Y-162180257D01*
X133083517Y-162419446D01*
X132932769Y-162680547D01*
X132865835Y-162842141D01*
X132805846Y-162934204D01*
X132716652Y-162998379D01*
X132610298Y-163026000D01*
X132501148Y-163013337D01*
X132403943Y-162962099D01*
X132331812Y-162879206D01*
X132294495Y-162775855D01*
X132291338Y-162748785D01*
X132290114Y-162731442D01*
X132235110Y-162487221D01*
X132206695Y-162416617D01*
X132141648Y-162254994D01*
X132141646Y-162254990D01*
X132141644Y-162254985D01*
X132060569Y-162120871D01*
X132012138Y-162040756D01*
X132012133Y-162040749D01*
X131991138Y-162016067D01*
X131871747Y-161875706D01*
X131817145Y-161780351D01*
X131800500Y-161681980D01*
X131800500Y-155269641D01*
X131820691Y-155161630D01*
X131878536Y-155068206D01*
X131888075Y-155058216D01*
X132258216Y-154688075D01*
X132348869Y-154625977D01*
X132455832Y-154600819D01*
X132469641Y-154600500D01*
X132546039Y-154600500D01*
X132546041Y-154600500D01*
X132836286Y-154567798D01*
X133121045Y-154502803D01*
X133396737Y-154406335D01*
X133659893Y-154279605D01*
X133907206Y-154124208D01*
X134135565Y-153942098D01*
X134342098Y-153735565D01*
X134524208Y-153507206D01*
X134679605Y-153259893D01*
X134679606Y-153259892D01*
X134706891Y-153203232D01*
X134806335Y-152996737D01*
X134902803Y-152721045D01*
X134967798Y-152436286D01*
X135000500Y-152146041D01*
X135000500Y-151853959D01*
X134967798Y-151563714D01*
X134902803Y-151278955D01*
X134806335Y-151003263D01*
X134679605Y-150740107D01*
X134679605Y-150740106D01*
X134594082Y-150603999D01*
X134524208Y-150492794D01*
X134342098Y-150264435D01*
X134259649Y-150181986D01*
X138899500Y-150181986D01*
X138899500Y-153718013D01*
X138905865Y-153766356D01*
X138930307Y-153952014D01*
X138991394Y-154179993D01*
X138997512Y-154194764D01*
X139033642Y-154281988D01*
X139033642Y-154281989D01*
X139081715Y-154398050D01*
X139142194Y-154502801D01*
X139198785Y-154600819D01*
X139199729Y-154602453D01*
X139343402Y-154789692D01*
X139343413Y-154789704D01*
X140111925Y-155558216D01*
X140174023Y-155648869D01*
X140199181Y-155755832D01*
X140199500Y-155769641D01*
X140199500Y-161681980D01*
X140179309Y-161789991D01*
X140128252Y-161875707D01*
X139987866Y-162040749D01*
X139987861Y-162040756D01*
X139858361Y-162254975D01*
X139858351Y-162254994D01*
X139764890Y-162487218D01*
X139709886Y-162731438D01*
X139699500Y-162878553D01*
X139699500Y-165121446D01*
X139709886Y-165268561D01*
X139764890Y-165512781D01*
X139858351Y-165745005D01*
X139858361Y-165745024D01*
X139987861Y-165959243D01*
X139987866Y-165959250D01*
X140150064Y-166149936D01*
X140335670Y-166307813D01*
X140340749Y-166312133D01*
X140340756Y-166312138D01*
X140471405Y-166391118D01*
X140554985Y-166441644D01*
X140554990Y-166441646D01*
X140554994Y-166441648D01*
X140787218Y-166535109D01*
X140787219Y-166535109D01*
X140787221Y-166535110D01*
X141031442Y-166590114D01*
X141178554Y-166600500D01*
X141178559Y-166600500D01*
X142821441Y-166600500D01*
X142821446Y-166600500D01*
X142968558Y-166590114D01*
X143212779Y-166535110D01*
X143445015Y-166441644D01*
X143659250Y-166312134D01*
X143849936Y-166149936D01*
X144012134Y-165959250D01*
X144141644Y-165745015D01*
X144235110Y-165512779D01*
X144290114Y-165268558D01*
X144291337Y-165251224D01*
X144319083Y-165144906D01*
X144383364Y-165055787D01*
X144475497Y-164995907D01*
X144583039Y-164973353D01*
X144691467Y-164991171D01*
X144786137Y-165046954D01*
X144854262Y-165133169D01*
X144865835Y-165157858D01*
X144932769Y-165319452D01*
X145083517Y-165580553D01*
X145267052Y-165819742D01*
X145267063Y-165819754D01*
X145480245Y-166032936D01*
X145480257Y-166032947D01*
X145719446Y-166216482D01*
X145980547Y-166367230D01*
X146259100Y-166482610D01*
X146550334Y-166560647D01*
X146550342Y-166560648D01*
X146599999Y-166567185D01*
X146600000Y-166567185D01*
X146600000Y-164514476D01*
X146692110Y-164576022D01*
X146810402Y-164625021D01*
X146935981Y-164650000D01*
X147064019Y-164650000D01*
X147189598Y-164625021D01*
X147307890Y-164576022D01*
X147400000Y-164514476D01*
X147400000Y-166567185D01*
X147449657Y-166560648D01*
X147449665Y-166560647D01*
X147740899Y-166482610D01*
X148019452Y-166367230D01*
X148280553Y-166216482D01*
X148519742Y-166032947D01*
X148519754Y-166032936D01*
X148683812Y-165868878D01*
X183999500Y-165868878D01*
X183999500Y-166131121D01*
X184033730Y-166391118D01*
X184101600Y-166644414D01*
X184101601Y-166644418D01*
X184101602Y-166644419D01*
X184201957Y-166886697D01*
X184201958Y-166886700D01*
X184201960Y-166886703D01*
X184333069Y-167113792D01*
X184333076Y-167113803D01*
X184492718Y-167321851D01*
X184678149Y-167507282D01*
X184886197Y-167666924D01*
X185113303Y-167798043D01*
X185355581Y-167898398D01*
X185608884Y-167966270D01*
X185790037Y-167990119D01*
X185868878Y-168000500D01*
X185868880Y-168000500D01*
X186131122Y-168000500D01*
X186199582Y-167991486D01*
X186391116Y-167966270D01*
X186644419Y-167898398D01*
X186886697Y-167798043D01*
X187113803Y-167666924D01*
X187321851Y-167507282D01*
X187507282Y-167321851D01*
X187666924Y-167113803D01*
X187798043Y-166886697D01*
X187898398Y-166644419D01*
X187966270Y-166391116D01*
X188000500Y-166131120D01*
X188000500Y-165868880D01*
X187966270Y-165608884D01*
X187898398Y-165355581D01*
X187798043Y-165113303D01*
X187728770Y-164993318D01*
X187666930Y-164886207D01*
X187666923Y-164886196D01*
X187507282Y-164678149D01*
X187321851Y-164492718D01*
X187113803Y-164333076D01*
X187113792Y-164333069D01*
X186886703Y-164201960D01*
X186886700Y-164201958D01*
X186886697Y-164201957D01*
X186644419Y-164101602D01*
X186644418Y-164101601D01*
X186644414Y-164101600D01*
X186391118Y-164033730D01*
X186131122Y-163999500D01*
X186131120Y-163999500D01*
X185868880Y-163999500D01*
X185868878Y-163999500D01*
X185608881Y-164033730D01*
X185355585Y-164101600D01*
X185113296Y-164201960D01*
X184886207Y-164333069D01*
X184886196Y-164333076D01*
X184678146Y-164492720D01*
X184492720Y-164678146D01*
X184333076Y-164886196D01*
X184333069Y-164886207D01*
X184201960Y-165113296D01*
X184101600Y-165355585D01*
X184033730Y-165608881D01*
X183999500Y-165868878D01*
X148683812Y-165868878D01*
X148732936Y-165819754D01*
X148732947Y-165819742D01*
X148916482Y-165580553D01*
X149067230Y-165319452D01*
X149182610Y-165040899D01*
X149260645Y-164749670D01*
X149300000Y-164450752D01*
X149300000Y-164400000D01*
X147514477Y-164400000D01*
X147576022Y-164307890D01*
X147625021Y-164189598D01*
X147650000Y-164064019D01*
X147650000Y-163935981D01*
X147625021Y-163810402D01*
X147576022Y-163692110D01*
X147514477Y-163600000D01*
X149336965Y-163600000D01*
X149444976Y-163620191D01*
X149538400Y-163678036D01*
X149548390Y-163687575D01*
X150352781Y-164491966D01*
X150518389Y-164612287D01*
X150518395Y-164612290D01*
X150533414Y-164619943D01*
X150620487Y-164686968D01*
X150628518Y-164696338D01*
X150628588Y-164696408D01*
X150628590Y-164696410D01*
X150788550Y-164827685D01*
X150971046Y-164925231D01*
X151169067Y-164985300D01*
X151323393Y-165000500D01*
X152676606Y-165000499D01*
X152676610Y-165000499D01*
X152676612Y-165000498D01*
X152830933Y-164985300D01*
X153028954Y-164925231D01*
X153211450Y-164827685D01*
X153371410Y-164696410D01*
X153502685Y-164536450D01*
X153502688Y-164536443D01*
X153506844Y-164531380D01*
X153590972Y-164460694D01*
X153694955Y-164425172D01*
X153804747Y-164429612D01*
X153905522Y-164473413D01*
X153983669Y-164550661D01*
X153996917Y-164571561D01*
X154083094Y-164720825D01*
X154209988Y-164886196D01*
X154266681Y-164960080D01*
X154479920Y-165173319D01*
X154719168Y-165356900D01*
X154980332Y-165507683D01*
X155258942Y-165623087D01*
X155550232Y-165701138D01*
X155786899Y-165732295D01*
X155849215Y-165740500D01*
X155849217Y-165740500D01*
X156150785Y-165740500D01*
X156207219Y-165733070D01*
X156449768Y-165701138D01*
X156741058Y-165623087D01*
X157019668Y-165507683D01*
X157280832Y-165356900D01*
X157520080Y-165173319D01*
X157733319Y-164960080D01*
X157916900Y-164720832D01*
X158067683Y-164459668D01*
X158183087Y-164181058D01*
X158261138Y-163889768D01*
X158295160Y-163631346D01*
X158300500Y-163590785D01*
X158300500Y-162889214D01*
X158282627Y-162753457D01*
X158261138Y-162590232D01*
X158183087Y-162298942D01*
X158067683Y-162020332D01*
X157916900Y-161759168D01*
X157733319Y-161519920D01*
X157520080Y-161306681D01*
X157280832Y-161123100D01*
X157019668Y-160972317D01*
X156741058Y-160856913D01*
X156449768Y-160778862D01*
X156350106Y-160765741D01*
X156150785Y-160739500D01*
X156150783Y-160739500D01*
X155849217Y-160739500D01*
X155849215Y-160739500D01*
X155550232Y-160778862D01*
X155258938Y-160856914D01*
X155258081Y-160857269D01*
X155257654Y-160857446D01*
X155256906Y-160857604D01*
X155249668Y-160860061D01*
X155249373Y-160859193D01*
X155220527Y-160865277D01*
X155184547Y-160877337D01*
X155167163Y-160876533D01*
X155150140Y-160880124D01*
X155112691Y-160874014D01*
X155074782Y-160872262D01*
X155058863Y-160865233D01*
X155041692Y-160862432D01*
X155008975Y-160843205D01*
X154974262Y-160827878D01*
X154953362Y-160810523D01*
X154946957Y-160806759D01*
X154931813Y-160792629D01*
X154735119Y-160595935D01*
X154530205Y-160391021D01*
X158799500Y-160391021D01*
X158799500Y-161608978D01*
X158814937Y-161785409D01*
X158814937Y-161785410D01*
X158876098Y-162013665D01*
X158876098Y-162013666D01*
X158975960Y-162227821D01*
X158975964Y-162227828D01*
X158975965Y-162227830D01*
X159111505Y-162421401D01*
X159278599Y-162588495D01*
X159472170Y-162724035D01*
X159472175Y-162724037D01*
X159472178Y-162724039D01*
X159535268Y-162753458D01*
X159686337Y-162823903D01*
X159914592Y-162885063D01*
X160063317Y-162898075D01*
X160091021Y-162900499D01*
X160091024Y-162900499D01*
X160091034Y-162900500D01*
X160091040Y-162900500D01*
X161908960Y-162900500D01*
X161908966Y-162900500D01*
X161908976Y-162900499D01*
X161908978Y-162900499D01*
X161918123Y-162899698D01*
X162085408Y-162885063D01*
X162313663Y-162823903D01*
X162527830Y-162724035D01*
X162721401Y-162588495D01*
X162888495Y-162421401D01*
X163024035Y-162227830D01*
X163123903Y-162013663D01*
X163185063Y-161785408D01*
X163200500Y-161608966D01*
X163200500Y-161400000D01*
X169000155Y-161400000D01*
X169056974Y-161612052D01*
X169152286Y-161842154D01*
X169276816Y-162057845D01*
X169428439Y-162255445D01*
X169604554Y-162431560D01*
X169802154Y-162583183D01*
X170017845Y-162707713D01*
X170247949Y-162803026D01*
X170488534Y-162867490D01*
X170735465Y-162900000D01*
X170760000Y-162900000D01*
X171560000Y-162900000D01*
X171584535Y-162900000D01*
X171831465Y-162867490D01*
X172072050Y-162803026D01*
X172302154Y-162707713D01*
X172517845Y-162583183D01*
X172715445Y-162431560D01*
X172891560Y-162255445D01*
X173043183Y-162057845D01*
X173167713Y-161842154D01*
X173263025Y-161612052D01*
X173319845Y-161400000D01*
X171560000Y-161400000D01*
X171560000Y-162900000D01*
X170760000Y-162900000D01*
X170760000Y-161400000D01*
X169000155Y-161400000D01*
X163200500Y-161400000D01*
X163200500Y-160934174D01*
X170660000Y-160934174D01*
X170660000Y-161065826D01*
X170694075Y-161192993D01*
X170759901Y-161307007D01*
X170852993Y-161400099D01*
X170967007Y-161465925D01*
X171094174Y-161500000D01*
X171225826Y-161500000D01*
X171352993Y-161465925D01*
X171467007Y-161400099D01*
X171560099Y-161307007D01*
X171625925Y-161192993D01*
X171660000Y-161065826D01*
X171660000Y-160934174D01*
X171625925Y-160807007D01*
X171560099Y-160692993D01*
X171467106Y-160600000D01*
X171560000Y-160600000D01*
X173319845Y-160600000D01*
X173263025Y-160387947D01*
X173167713Y-160157845D01*
X173043183Y-159942154D01*
X172891560Y-159744554D01*
X172715445Y-159568439D01*
X172517845Y-159416816D01*
X172302154Y-159292286D01*
X172072050Y-159196973D01*
X171831465Y-159132509D01*
X171584535Y-159100000D01*
X171560000Y-159100000D01*
X171560000Y-160600000D01*
X171467106Y-160600000D01*
X171467007Y-160599901D01*
X171352993Y-160534075D01*
X171225826Y-160500000D01*
X171094174Y-160500000D01*
X170967007Y-160534075D01*
X170852993Y-160599901D01*
X170759901Y-160692993D01*
X170694075Y-160807007D01*
X170660000Y-160934174D01*
X163200500Y-160934174D01*
X163200500Y-160600000D01*
X169000155Y-160600000D01*
X170760000Y-160600000D01*
X170760000Y-159100000D01*
X170735465Y-159100000D01*
X170488534Y-159132509D01*
X170247949Y-159196973D01*
X170017845Y-159292286D01*
X169802154Y-159416816D01*
X169604554Y-159568439D01*
X169428439Y-159744554D01*
X169276816Y-159942154D01*
X169152286Y-160157845D01*
X169056974Y-160387947D01*
X169000155Y-160600000D01*
X163200500Y-160600000D01*
X163200500Y-160391034D01*
X163199724Y-160382170D01*
X163195258Y-160331119D01*
X163185063Y-160214592D01*
X163123903Y-159986337D01*
X163024035Y-159772170D01*
X162888495Y-159578599D01*
X162721401Y-159411505D01*
X162697515Y-159394780D01*
X162607175Y-159331523D01*
X162527830Y-159275965D01*
X162527828Y-159275964D01*
X162527821Y-159275960D01*
X162313665Y-159176098D01*
X162313663Y-159176097D01*
X162207730Y-159147712D01*
X162085410Y-159114937D01*
X161908978Y-159099500D01*
X161908966Y-159099500D01*
X160091034Y-159099500D01*
X160091021Y-159099500D01*
X159914590Y-159114937D01*
X159914589Y-159114937D01*
X159731109Y-159164100D01*
X159686337Y-159176097D01*
X159686336Y-159176097D01*
X159686334Y-159176098D01*
X159686333Y-159176098D01*
X159472178Y-159275960D01*
X159472171Y-159275964D01*
X159278599Y-159411504D01*
X159111504Y-159578599D01*
X158975964Y-159772171D01*
X158975960Y-159772178D01*
X158876098Y-159986333D01*
X158876098Y-159986334D01*
X158814937Y-160214589D01*
X158814937Y-160214590D01*
X158799500Y-160391021D01*
X154530205Y-160391021D01*
X154353776Y-160214592D01*
X153647219Y-159508034D01*
X153647218Y-159508033D01*
X153647216Y-159508031D01*
X153481621Y-159387719D01*
X153481602Y-159387708D01*
X153466577Y-159380052D01*
X153379506Y-159313024D01*
X153371478Y-159303658D01*
X153371411Y-159303591D01*
X153341823Y-159279309D01*
X153211450Y-159172315D01*
X153211448Y-159172314D01*
X153211447Y-159172313D01*
X153028956Y-159074770D01*
X153028955Y-159074769D01*
X152830934Y-159014700D01*
X152676610Y-158999500D01*
X151323389Y-158999500D01*
X151323385Y-158999501D01*
X151169076Y-159014698D01*
X151169066Y-159014700D01*
X150971043Y-159074769D01*
X150971043Y-159074770D01*
X150788552Y-159172313D01*
X150628590Y-159303590D01*
X150497313Y-159463552D01*
X150399770Y-159646043D01*
X150399769Y-159646044D01*
X150339700Y-159844065D01*
X150324500Y-159998389D01*
X150324500Y-160063465D01*
X150304309Y-160171476D01*
X150246464Y-160264900D01*
X150158776Y-160331119D01*
X150053088Y-160361190D01*
X149943675Y-160351051D01*
X149845312Y-160302072D01*
X149814075Y-160274890D01*
X149147219Y-159608034D01*
X149092721Y-159568439D01*
X148981611Y-159487713D01*
X148981607Y-159487711D01*
X148981603Y-159487708D01*
X148890415Y-159441246D01*
X148799223Y-159394782D01*
X148799222Y-159394781D01*
X148799219Y-159394780D01*
X148734323Y-159373694D01*
X148701874Y-159363150D01*
X148701874Y-159363149D01*
X148604537Y-159331523D01*
X148402353Y-159299500D01*
X148402352Y-159299500D01*
X144099500Y-159299500D01*
X143991489Y-159279309D01*
X143898065Y-159221464D01*
X143831846Y-159133776D01*
X143801775Y-159028088D01*
X143800500Y-159000500D01*
X143800500Y-154781986D01*
X143782786Y-154647441D01*
X143769693Y-154547986D01*
X143769689Y-154547971D01*
X143768485Y-154541916D01*
X143768445Y-154538514D01*
X143768415Y-154538282D01*
X143768442Y-154538278D01*
X143767213Y-154432041D01*
X143805718Y-154329126D01*
X143878800Y-154247071D01*
X143976589Y-154196957D01*
X144085878Y-154185552D01*
X144139120Y-154194763D01*
X144200232Y-154211138D01*
X144436899Y-154242295D01*
X144499215Y-154250500D01*
X144499217Y-154250500D01*
X144800785Y-154250500D01*
X144857219Y-154243070D01*
X145099768Y-154211138D01*
X145391058Y-154133087D01*
X145669668Y-154017683D01*
X145930832Y-153866900D01*
X146170080Y-153683319D01*
X146383319Y-153470080D01*
X146566900Y-153230832D01*
X146717683Y-152969668D01*
X146833087Y-152691058D01*
X146911138Y-152399768D01*
X146945374Y-152139716D01*
X146950500Y-152100785D01*
X146950500Y-152099500D01*
X146950629Y-152098804D01*
X146951140Y-152091021D01*
X146952073Y-152091082D01*
X146970691Y-151991489D01*
X147028536Y-151898065D01*
X147116224Y-151831846D01*
X147221912Y-151801775D01*
X147249500Y-151800500D01*
X148979475Y-151800500D01*
X149087486Y-151820691D01*
X149180910Y-151878536D01*
X149247129Y-151966224D01*
X149250461Y-151973138D01*
X149275960Y-152027821D01*
X149275964Y-152027828D01*
X149275965Y-152027830D01*
X149411505Y-152221401D01*
X149578599Y-152388495D01*
X149772170Y-152524035D01*
X149772175Y-152524037D01*
X149772178Y-152524039D01*
X149838478Y-152554955D01*
X149986337Y-152623903D01*
X150214592Y-152685063D01*
X150363317Y-152698075D01*
X150391021Y-152700499D01*
X150391024Y-152700499D01*
X150391034Y-152700500D01*
X150391040Y-152700500D01*
X151608960Y-152700500D01*
X151608966Y-152700500D01*
X151608976Y-152700499D01*
X151608978Y-152700499D01*
X151618123Y-152699698D01*
X151785408Y-152685063D01*
X152013663Y-152623903D01*
X152227830Y-152524035D01*
X152421401Y-152388495D01*
X152588495Y-152221401D01*
X152669810Y-152105270D01*
X152748300Y-152028375D01*
X152849270Y-151985025D01*
X152959081Y-151981077D01*
X153062903Y-152017064D01*
X153126161Y-152065345D01*
X153200524Y-152139708D01*
X153200531Y-152139716D01*
X153208032Y-152147217D01*
X153208034Y-152147219D01*
X153352781Y-152291966D01*
X153418427Y-152339660D01*
X153473381Y-152379587D01*
X153518389Y-152412287D01*
X153609583Y-152458752D01*
X153609587Y-152458755D01*
X153671996Y-152490553D01*
X153700781Y-152505220D01*
X153758685Y-152524034D01*
X153758687Y-152524035D01*
X153824519Y-152545425D01*
X153895465Y-152568477D01*
X153968174Y-152579993D01*
X154097648Y-152600500D01*
X154097649Y-152600500D01*
X157902351Y-152600500D01*
X157902352Y-152600500D01*
X158104534Y-152568477D01*
X158299219Y-152505220D01*
X158481610Y-152412287D01*
X158647219Y-152291966D01*
X158791966Y-152147219D01*
X158912287Y-151981610D01*
X159005220Y-151799219D01*
X159020283Y-151752857D01*
X159072859Y-151656375D01*
X159093214Y-151633837D01*
X160538978Y-150188074D01*
X160629631Y-150125976D01*
X160736594Y-150100818D01*
X160750403Y-150100499D01*
X161487937Y-150100499D01*
X161617477Y-150090305D01*
X161617480Y-150090304D01*
X161617485Y-150090304D01*
X161831393Y-150036404D01*
X162032239Y-149945176D01*
X162213567Y-149819551D01*
X162213578Y-149819539D01*
X162222830Y-149811817D01*
X162318683Y-149758093D01*
X162427471Y-149742623D01*
X162534501Y-149767497D01*
X162590202Y-149799443D01*
X162675209Y-149861204D01*
X162906625Y-149979116D01*
X162906626Y-149979117D01*
X163139999Y-150054944D01*
X163140000Y-150054944D01*
X163140000Y-148307106D01*
X163232993Y-148400099D01*
X163347007Y-148465925D01*
X163474174Y-148500000D01*
X163605826Y-148500000D01*
X163732993Y-148465925D01*
X163847007Y-148400099D01*
X163940000Y-148307106D01*
X163940000Y-150054944D01*
X164173373Y-149979117D01*
X164173374Y-149979116D01*
X164404789Y-149861204D01*
X164431977Y-149841451D01*
X164531227Y-149794297D01*
X164640809Y-149786181D01*
X164745923Y-149818198D01*
X164832373Y-149886024D01*
X164888484Y-149980500D01*
X164892094Y-149990950D01*
X164894782Y-149999224D01*
X164894782Y-149999225D01*
X164987708Y-150181603D01*
X164987714Y-150181613D01*
X165108033Y-150347218D01*
X166051910Y-151291095D01*
X166114008Y-151381748D01*
X166139166Y-151488711D01*
X166123985Y-151597540D01*
X166070516Y-151693535D01*
X165985980Y-151763733D01*
X165881794Y-151798653D01*
X165879514Y-151798962D01*
X165628434Y-151832018D01*
X165489497Y-151869246D01*
X165387793Y-151896498D01*
X165387791Y-151896498D01*
X165387790Y-151896499D01*
X165157624Y-151991837D01*
X164941871Y-152116402D01*
X164744223Y-152268062D01*
X164568062Y-152444223D01*
X164416402Y-152641871D01*
X164291837Y-152857624D01*
X164200493Y-153078149D01*
X164196498Y-153087793D01*
X164143338Y-153286189D01*
X164132018Y-153328435D01*
X164099500Y-153575432D01*
X164099500Y-154424567D01*
X164114471Y-154538282D01*
X164132018Y-154671565D01*
X164196498Y-154912207D01*
X164291836Y-155142373D01*
X164416401Y-155358127D01*
X164568062Y-155555776D01*
X164744224Y-155731938D01*
X164941873Y-155883599D01*
X165157627Y-156008164D01*
X165387793Y-156103502D01*
X165628435Y-156167982D01*
X165823952Y-156193722D01*
X165875433Y-156200500D01*
X165875435Y-156200500D01*
X166124567Y-156200500D01*
X166171188Y-156194361D01*
X166371565Y-156167982D01*
X166612207Y-156103502D01*
X166842373Y-156008164D01*
X167058127Y-155883599D01*
X167255776Y-155731938D01*
X167431938Y-155555776D01*
X167583599Y-155358127D01*
X167708164Y-155142373D01*
X167803502Y-154912207D01*
X167810774Y-154885064D01*
X167858228Y-154785961D01*
X167888156Y-154751027D01*
X168214648Y-154424535D01*
X169100000Y-154424535D01*
X169132509Y-154671465D01*
X169196973Y-154912050D01*
X169292286Y-155142154D01*
X169416816Y-155357845D01*
X169568439Y-155555445D01*
X169744554Y-155731560D01*
X169942154Y-155883183D01*
X170157845Y-156007713D01*
X170387956Y-156103028D01*
X170600000Y-156159845D01*
X170600000Y-154400000D01*
X169100000Y-154400000D01*
X169100000Y-154424535D01*
X168214648Y-154424535D01*
X168951611Y-153687572D01*
X169042261Y-153625477D01*
X169149224Y-153600319D01*
X169163033Y-153600000D01*
X170701000Y-153600000D01*
X170809011Y-153620191D01*
X170832576Y-153634781D01*
X170754394Y-153679920D01*
X170679920Y-153754394D01*
X170627259Y-153845606D01*
X170600000Y-153947339D01*
X170600000Y-154052661D01*
X170627259Y-154154394D01*
X170679920Y-154245606D01*
X170754394Y-154320080D01*
X170845606Y-154372741D01*
X170947339Y-154400000D01*
X171052661Y-154400000D01*
X171154394Y-154372741D01*
X171245606Y-154320080D01*
X171320080Y-154245606D01*
X171367263Y-154163882D01*
X171368654Y-154165724D01*
X171398725Y-154271412D01*
X171400000Y-154299000D01*
X171400000Y-156159844D01*
X171612043Y-156103028D01*
X171842154Y-156007713D01*
X172057845Y-155883183D01*
X172255445Y-155731560D01*
X172431560Y-155555445D01*
X172583183Y-155357845D01*
X172707713Y-155142154D01*
X172803027Y-154912047D01*
X172815693Y-154864777D01*
X172863150Y-154765672D01*
X172943204Y-154690402D01*
X173045042Y-154649134D01*
X173154912Y-154647441D01*
X173257973Y-154685552D01*
X173340308Y-154758320D01*
X173390796Y-154855916D01*
X173402787Y-154921455D01*
X173405918Y-154966563D01*
X173405919Y-154966568D01*
X173427475Y-155058216D01*
X173456857Y-155183143D01*
X173515607Y-155316200D01*
X173531420Y-155352014D01*
X173546723Y-155386671D01*
X173584850Y-155442329D01*
X173672456Y-155570219D01*
X173829780Y-155727543D01*
X173836195Y-155731937D01*
X174013329Y-155853277D01*
X174216857Y-155943143D01*
X174433433Y-155994081D01*
X174479670Y-155997290D01*
X174525904Y-156000500D01*
X174525908Y-156000500D01*
X175474096Y-156000500D01*
X175515192Y-155997647D01*
X175566567Y-155994081D01*
X175783143Y-155943143D01*
X175986671Y-155853277D01*
X176170221Y-155727542D01*
X176172650Y-155725112D01*
X176175483Y-155723171D01*
X176180858Y-155718709D01*
X176181271Y-155719206D01*
X176263297Y-155663013D01*
X176370260Y-155637851D01*
X176479089Y-155653027D01*
X176559829Y-155694635D01*
X176661413Y-155768440D01*
X176885818Y-155882780D01*
X176885819Y-155882781D01*
X177099999Y-155952372D01*
X177100000Y-155952372D01*
X177900000Y-155952372D01*
X178114180Y-155882781D01*
X178114181Y-155882780D01*
X178338585Y-155768440D01*
X178338586Y-155768440D01*
X178542329Y-155620412D01*
X178720412Y-155442329D01*
X178868440Y-155238586D01*
X178868440Y-155238585D01*
X178982781Y-155014180D01*
X178982782Y-155014179D01*
X179060602Y-154774669D01*
X179099999Y-154525927D01*
X179100000Y-154525922D01*
X179100000Y-154400000D01*
X177900000Y-154400000D01*
X177900000Y-155952372D01*
X177100000Y-155952372D01*
X177100000Y-154052661D01*
X177127259Y-154154394D01*
X177179920Y-154245606D01*
X177254394Y-154320080D01*
X177345606Y-154372741D01*
X177447339Y-154400000D01*
X177552661Y-154400000D01*
X177654394Y-154372741D01*
X177745606Y-154320080D01*
X177820080Y-154245606D01*
X177872741Y-154154394D01*
X177900000Y-154052661D01*
X177900000Y-153947339D01*
X177872741Y-153845606D01*
X177820080Y-153754394D01*
X177745606Y-153679920D01*
X177654394Y-153627259D01*
X177552661Y-153600000D01*
X177900000Y-153600000D01*
X179100000Y-153600000D01*
X179100000Y-153474077D01*
X179099999Y-153474072D01*
X179060602Y-153225330D01*
X178982782Y-152985820D01*
X178982781Y-152985819D01*
X178868440Y-152761414D01*
X178868440Y-152761413D01*
X178720412Y-152557670D01*
X178542329Y-152379587D01*
X178338586Y-152231559D01*
X178114188Y-152117222D01*
X177900000Y-152047627D01*
X177900000Y-153600000D01*
X177552661Y-153600000D01*
X177447339Y-153600000D01*
X177345606Y-153627259D01*
X177254394Y-153679920D01*
X177179920Y-153754394D01*
X177127259Y-153845606D01*
X177100000Y-153947339D01*
X177100000Y-152047627D01*
X176885811Y-152117222D01*
X176661414Y-152231559D01*
X176661408Y-152231562D01*
X176559827Y-152305365D01*
X176460576Y-152352517D01*
X176350994Y-152360632D01*
X176245880Y-152328612D01*
X176181054Y-152281054D01*
X176180858Y-152281291D01*
X176176921Y-152278022D01*
X176172656Y-152274893D01*
X176170219Y-152272456D01*
X176085818Y-152214641D01*
X175986671Y-152146723D01*
X175986667Y-152146721D01*
X175986668Y-152146721D01*
X175860517Y-152091021D01*
X175783143Y-152056857D01*
X175674855Y-152031388D01*
X175566568Y-152005919D01*
X175566562Y-152005918D01*
X175474096Y-151999500D01*
X175474092Y-151999500D01*
X175162535Y-151999500D01*
X175054524Y-151979309D01*
X174961100Y-151921464D01*
X174951110Y-151911925D01*
X173047219Y-150008034D01*
X173023705Y-149990950D01*
X172881611Y-149887713D01*
X172881607Y-149887711D01*
X172881603Y-149887708D01*
X172790415Y-149841246D01*
X172699223Y-149794782D01*
X172699222Y-149794781D01*
X172699219Y-149794780D01*
X172634323Y-149773694D01*
X172601874Y-149763150D01*
X172601874Y-149763149D01*
X172504537Y-149731523D01*
X172302353Y-149699500D01*
X172302352Y-149699500D01*
X170323671Y-149699500D01*
X170215660Y-149679309D01*
X170122236Y-149621464D01*
X170056017Y-149533776D01*
X170025946Y-149428088D01*
X170036085Y-149318675D01*
X170057257Y-149264762D01*
X170149579Y-149083572D01*
X170229860Y-148836493D01*
X170270500Y-148579897D01*
X170270500Y-147420103D01*
X170229860Y-147163507D01*
X170149579Y-146916428D01*
X170108213Y-146835243D01*
X170077167Y-146729838D01*
X170086294Y-146620335D01*
X170134362Y-146521525D01*
X170214879Y-146446750D01*
X170316970Y-146406111D01*
X170374624Y-146400500D01*
X172100500Y-146400500D01*
X172208511Y-146420691D01*
X172301935Y-146478536D01*
X172368154Y-146566224D01*
X172398225Y-146671912D01*
X172399500Y-146699500D01*
X172399500Y-146874096D01*
X172405918Y-146966562D01*
X172405919Y-146966567D01*
X172456857Y-147183143D01*
X172546723Y-147386671D01*
X172569622Y-147420099D01*
X172672456Y-147570219D01*
X172672458Y-147570221D01*
X172829779Y-147727542D01*
X173013329Y-147853277D01*
X173216857Y-147943143D01*
X173433433Y-147994081D01*
X173479670Y-147997290D01*
X173525904Y-148000500D01*
X173525908Y-148000500D01*
X174474096Y-148000500D01*
X174515192Y-147997647D01*
X174566567Y-147994081D01*
X174783143Y-147943143D01*
X174986671Y-147853277D01*
X175170221Y-147727542D01*
X175172650Y-147725112D01*
X175175483Y-147723171D01*
X175180858Y-147718709D01*
X175181271Y-147719206D01*
X175263297Y-147663013D01*
X175370260Y-147637851D01*
X175479089Y-147653027D01*
X175559829Y-147694635D01*
X175661413Y-147768440D01*
X175885818Y-147882780D01*
X175885819Y-147882781D01*
X176099999Y-147952372D01*
X176100000Y-147952372D01*
X176900000Y-147952372D01*
X177114180Y-147882781D01*
X177114181Y-147882780D01*
X177338585Y-147768440D01*
X177338586Y-147768440D01*
X177542329Y-147620412D01*
X177720412Y-147442329D01*
X177868440Y-147238586D01*
X177868440Y-147238585D01*
X177982781Y-147014180D01*
X177982782Y-147014179D01*
X178060602Y-146774669D01*
X178099999Y-146525927D01*
X178100000Y-146525922D01*
X178100000Y-146400000D01*
X176900000Y-146400000D01*
X176900000Y-147952372D01*
X176100000Y-147952372D01*
X176100000Y-146299000D01*
X176120191Y-146190989D01*
X176134781Y-146167423D01*
X176179920Y-146245606D01*
X176254394Y-146320080D01*
X176345606Y-146372741D01*
X176447339Y-146400000D01*
X176552661Y-146400000D01*
X176654394Y-146372741D01*
X176745606Y-146320080D01*
X176820080Y-146245606D01*
X176872741Y-146154394D01*
X176900000Y-146052661D01*
X176900000Y-145947339D01*
X176872741Y-145845606D01*
X176820080Y-145754394D01*
X176745606Y-145679920D01*
X176663882Y-145632736D01*
X176665724Y-145631346D01*
X176771412Y-145601275D01*
X176799000Y-145600000D01*
X178100000Y-145600000D01*
X178100000Y-145474077D01*
X178099999Y-145474072D01*
X178060602Y-145225330D01*
X177982782Y-144985820D01*
X177982779Y-144985814D01*
X177957012Y-144935243D01*
X177925966Y-144829838D01*
X177935093Y-144720336D01*
X177983161Y-144621525D01*
X178063677Y-144546751D01*
X178165768Y-144506111D01*
X178223423Y-144500500D01*
X181783264Y-144500500D01*
X181891275Y-144520691D01*
X181984699Y-144578536D01*
X182042202Y-144649995D01*
X182083100Y-144720832D01*
X182145702Y-144802417D01*
X182266675Y-144960073D01*
X182266678Y-144960077D01*
X182266681Y-144960080D01*
X182479920Y-145173319D01*
X182719168Y-145356900D01*
X182980332Y-145507683D01*
X183258942Y-145623087D01*
X183550232Y-145701138D01*
X183786899Y-145732295D01*
X183849215Y-145740500D01*
X183849217Y-145740500D01*
X184150785Y-145740500D01*
X184207219Y-145733070D01*
X184449768Y-145701138D01*
X184741058Y-145623087D01*
X185019668Y-145507683D01*
X185280832Y-145356900D01*
X185520080Y-145173319D01*
X185733319Y-144960080D01*
X185916900Y-144720832D01*
X186067683Y-144459668D01*
X186183087Y-144181058D01*
X186261138Y-143889768D01*
X186300121Y-143593663D01*
X186300500Y-143590785D01*
X186300500Y-142889214D01*
X186289355Y-142804562D01*
X186261138Y-142590232D01*
X186183087Y-142298942D01*
X186067683Y-142020332D01*
X185916900Y-141759168D01*
X185733319Y-141519920D01*
X185520080Y-141306681D01*
X185280832Y-141123100D01*
X185019668Y-140972317D01*
X184741058Y-140856913D01*
X184449768Y-140778862D01*
X184341171Y-140764565D01*
X184150785Y-140739500D01*
X184150783Y-140739500D01*
X183849217Y-140739500D01*
X183849215Y-140739500D01*
X183656580Y-140764861D01*
X183550232Y-140778862D01*
X183258942Y-140856913D01*
X183258940Y-140856913D01*
X183258939Y-140856914D01*
X182980329Y-140972318D01*
X182719169Y-141123099D01*
X182479919Y-141306681D01*
X182266686Y-141519914D01*
X182266675Y-141519926D01*
X182083101Y-141759165D01*
X182078126Y-141766613D01*
X182001331Y-141845204D01*
X181901331Y-141890747D01*
X181829515Y-141899500D01*
X175197646Y-141899500D01*
X175062859Y-141920848D01*
X174995465Y-141931523D01*
X174898123Y-141963151D01*
X174898120Y-141963152D01*
X174898119Y-141963151D01*
X174800775Y-141994781D01*
X174800775Y-141994782D01*
X174709585Y-142041244D01*
X174709586Y-142041245D01*
X174618396Y-142087709D01*
X174618378Y-142087719D01*
X174452783Y-142208031D01*
X172948890Y-143711925D01*
X172858237Y-143774023D01*
X172751274Y-143799181D01*
X172737465Y-143799500D01*
X162397646Y-143799500D01*
X162195464Y-143831523D01*
X162000785Y-143894778D01*
X162000781Y-143894779D01*
X161928669Y-143931523D01*
X161875587Y-143958569D01*
X161818386Y-143987714D01*
X161652781Y-144108033D01*
X160008033Y-145752781D01*
X159887714Y-145918386D01*
X159794779Y-146100784D01*
X159794774Y-146100795D01*
X159782633Y-146138162D01*
X159730052Y-146234647D01*
X159709696Y-146257185D01*
X159630448Y-146336434D01*
X159504825Y-146517759D01*
X159504822Y-146517763D01*
X159413595Y-146718610D01*
X159413594Y-146718611D01*
X159359695Y-146932517D01*
X159349501Y-147062045D01*
X159349500Y-147062078D01*
X159349500Y-147999596D01*
X159329309Y-148107607D01*
X159271464Y-148201031D01*
X159261925Y-148211021D01*
X158810925Y-148662021D01*
X158720272Y-148724119D01*
X158613309Y-148749277D01*
X158504480Y-148734096D01*
X158408485Y-148680627D01*
X158338287Y-148596091D01*
X158303367Y-148491905D01*
X158300500Y-148450596D01*
X158300500Y-146978559D01*
X158300500Y-146978554D01*
X158290114Y-146831442D01*
X158235110Y-146587221D01*
X158195985Y-146490006D01*
X158141648Y-146354994D01*
X158141646Y-146354990D01*
X158141644Y-146354985D01*
X158141638Y-146354975D01*
X158012138Y-146140756D01*
X158012133Y-146140749D01*
X157849936Y-145950064D01*
X157659250Y-145787866D01*
X157659243Y-145787861D01*
X157445024Y-145658361D01*
X157445018Y-145658358D01*
X157445015Y-145658356D01*
X157445012Y-145658355D01*
X157445005Y-145658351D01*
X157212781Y-145564890D01*
X156968561Y-145509886D01*
X156821446Y-145499500D01*
X155178554Y-145499500D01*
X155178553Y-145499500D01*
X155031438Y-145509886D01*
X154787218Y-145564890D01*
X154554994Y-145658351D01*
X154554975Y-145658361D01*
X154340756Y-145787861D01*
X154340749Y-145787866D01*
X154150064Y-145950064D01*
X153987866Y-146140749D01*
X153987861Y-146140756D01*
X153858361Y-146354975D01*
X153858351Y-146354994D01*
X153764890Y-146587218D01*
X153709886Y-146831438D01*
X153699500Y-146978553D01*
X153699500Y-148900500D01*
X153679309Y-149008511D01*
X153621464Y-149101935D01*
X153533776Y-149168154D01*
X153428088Y-149198225D01*
X153400500Y-149199500D01*
X153020525Y-149199500D01*
X152912514Y-149179309D01*
X152819090Y-149121464D01*
X152752871Y-149033776D01*
X152749539Y-149026862D01*
X152724039Y-148972178D01*
X152724035Y-148972171D01*
X152724035Y-148972170D01*
X152588495Y-148778599D01*
X152421401Y-148611505D01*
X152405684Y-148600500D01*
X152266163Y-148502806D01*
X152227830Y-148475965D01*
X152227828Y-148475964D01*
X152227821Y-148475960D01*
X152013665Y-148376098D01*
X152013663Y-148376097D01*
X151892590Y-148343656D01*
X151785410Y-148314937D01*
X151608978Y-148299500D01*
X151608966Y-148299500D01*
X150391034Y-148299500D01*
X150391021Y-148299500D01*
X150214590Y-148314937D01*
X150214589Y-148314937D01*
X150031109Y-148364100D01*
X149986337Y-148376097D01*
X149986336Y-148376097D01*
X149986334Y-148376098D01*
X149986333Y-148376098D01*
X149772178Y-148475960D01*
X149772171Y-148475964D01*
X149578599Y-148611504D01*
X149411504Y-148778599D01*
X149275964Y-148972171D01*
X149275960Y-148972178D01*
X149250461Y-149026862D01*
X149186515Y-149116221D01*
X149094606Y-149176445D01*
X148987149Y-149199402D01*
X148979475Y-149199500D01*
X145997646Y-149199500D01*
X145795464Y-149231523D01*
X145600776Y-149294781D01*
X145509585Y-149341244D01*
X145509586Y-149341245D01*
X145418396Y-149387709D01*
X145418378Y-149387719D01*
X145252787Y-149508028D01*
X145252786Y-149508029D01*
X145179449Y-149581365D01*
X145088796Y-149643462D01*
X144981832Y-149668618D01*
X144929001Y-149666379D01*
X144800788Y-149649500D01*
X144800783Y-149649500D01*
X144618641Y-149649500D01*
X144510630Y-149629309D01*
X144417206Y-149571464D01*
X144350987Y-149483776D01*
X144320916Y-149378088D01*
X144331055Y-149268675D01*
X144380034Y-149170312D01*
X144407216Y-149139075D01*
X144767692Y-148778599D01*
X145140539Y-148405751D01*
X145231188Y-148343656D01*
X145338152Y-148318498D01*
X145446980Y-148333679D01*
X145481690Y-148347788D01*
X145603263Y-148406335D01*
X145878955Y-148502803D01*
X145878961Y-148502804D01*
X145878967Y-148502806D01*
X146030886Y-148537480D01*
X146163714Y-148567798D01*
X146453959Y-148600500D01*
X146453961Y-148600500D01*
X146746039Y-148600500D01*
X146746041Y-148600500D01*
X147036286Y-148567798D01*
X147321045Y-148502803D01*
X147596737Y-148406335D01*
X147859893Y-148279605D01*
X148107206Y-148124208D01*
X148335565Y-147942098D01*
X148542098Y-147735565D01*
X148724208Y-147507206D01*
X148879605Y-147259893D01*
X149006335Y-146996737D01*
X149102803Y-146721045D01*
X149167798Y-146436286D01*
X149200500Y-146146041D01*
X149200500Y-145853959D01*
X149167798Y-145563714D01*
X149102803Y-145278955D01*
X149006335Y-145003263D01*
X148879605Y-144740107D01*
X148879605Y-144740106D01*
X148758111Y-144546751D01*
X148724208Y-144492794D01*
X148542098Y-144264435D01*
X148335565Y-144057902D01*
X148107206Y-143875792D01*
X148076505Y-143856501D01*
X147859893Y-143720394D01*
X147720614Y-143653321D01*
X147596737Y-143593665D01*
X147596729Y-143593662D01*
X147596721Y-143593659D01*
X147321050Y-143497198D01*
X147321032Y-143497193D01*
X147036284Y-143432201D01*
X147036285Y-143432201D01*
X146804820Y-143406122D01*
X146746041Y-143399500D01*
X146453959Y-143399500D01*
X146395179Y-143406122D01*
X146163715Y-143432201D01*
X145878967Y-143497193D01*
X145878949Y-143497198D01*
X145603278Y-143593659D01*
X145603268Y-143593663D01*
X145603266Y-143593663D01*
X145603263Y-143593665D01*
X145546458Y-143621020D01*
X145340106Y-143720394D01*
X145092798Y-143875789D01*
X145092795Y-143875791D01*
X145092794Y-143875792D01*
X145090586Y-143877553D01*
X144864437Y-144057900D01*
X144764798Y-144157537D01*
X144674144Y-144219634D01*
X144630765Y-144234920D01*
X144420016Y-144291391D01*
X144419993Y-144291399D01*
X144292272Y-144344302D01*
X144292272Y-144344303D01*
X144235314Y-144367895D01*
X144201947Y-144381717D01*
X143997548Y-144499727D01*
X143810306Y-144643402D01*
X143810294Y-144643413D01*
X139343413Y-149110295D01*
X139343402Y-149110307D01*
X139199727Y-149297549D01*
X139081716Y-149501949D01*
X139081713Y-149501955D01*
X139072076Y-149525224D01*
X139072074Y-149525229D01*
X138991395Y-149720001D01*
X138930307Y-149947986D01*
X138899500Y-150181986D01*
X134259649Y-150181986D01*
X134135565Y-150057902D01*
X133907206Y-149875792D01*
X133852553Y-149841451D01*
X133659893Y-149720394D01*
X133495992Y-149641464D01*
X133396737Y-149593665D01*
X133396729Y-149593662D01*
X133396721Y-149593659D01*
X133121050Y-149497198D01*
X133121032Y-149497193D01*
X132836284Y-149432201D01*
X132836285Y-149432201D01*
X132604820Y-149406122D01*
X132546041Y-149399500D01*
X132253959Y-149399500D01*
X132195179Y-149406122D01*
X131963715Y-149432201D01*
X131678967Y-149497193D01*
X131678949Y-149497198D01*
X131403278Y-149593659D01*
X131403268Y-149593663D01*
X131403266Y-149593663D01*
X131403263Y-149593665D01*
X131346458Y-149621020D01*
X131140106Y-149720394D01*
X130892798Y-149875789D01*
X130892795Y-149875791D01*
X130892794Y-149875792D01*
X130785744Y-149961161D01*
X130664441Y-150057897D01*
X130664425Y-150057911D01*
X130457911Y-150264425D01*
X130457897Y-150264441D01*
X130275789Y-150492798D01*
X130120394Y-150740106D01*
X129993663Y-151003268D01*
X129993659Y-151003278D01*
X129897198Y-151278949D01*
X129897193Y-151278967D01*
X129832201Y-151563715D01*
X129805636Y-151799500D01*
X129801992Y-151831846D01*
X129799500Y-151853960D01*
X129799500Y-151930359D01*
X129779309Y-152038370D01*
X129721464Y-152131794D01*
X129711925Y-152141784D01*
X128643413Y-153210295D01*
X128643402Y-153210307D01*
X128499727Y-153397549D01*
X128499723Y-153397556D01*
X128378431Y-153607639D01*
X128374217Y-153620053D01*
X128291396Y-153820001D01*
X128291394Y-153820007D01*
X128256023Y-153952013D01*
X128230307Y-154047986D01*
X128199500Y-154281986D01*
X128199500Y-161681980D01*
X128179309Y-161789991D01*
X128128252Y-161875707D01*
X127987866Y-162040749D01*
X127987861Y-162040756D01*
X127858361Y-162254975D01*
X127858351Y-162254994D01*
X127764890Y-162487218D01*
X127709886Y-162731438D01*
X127699500Y-162878553D01*
X125250500Y-162878553D01*
X125250500Y-153718651D01*
X125250501Y-153718626D01*
X125250501Y-153493719D01*
X125250501Y-153493714D01*
X125217246Y-153283757D01*
X125209494Y-153259900D01*
X125209493Y-153259891D01*
X125209492Y-153259892D01*
X125154907Y-153091895D01*
X125140732Y-152982931D01*
X125166878Y-152876205D01*
X125229811Y-152786130D01*
X125321034Y-152724872D01*
X125428225Y-152700704D01*
X125439273Y-152700500D01*
X125608960Y-152700500D01*
X125608966Y-152700500D01*
X125608976Y-152700499D01*
X125608978Y-152700499D01*
X125618123Y-152699698D01*
X125785408Y-152685063D01*
X126013663Y-152623903D01*
X126227830Y-152524035D01*
X126421401Y-152388495D01*
X126588495Y-152221401D01*
X126724035Y-152027830D01*
X126823903Y-151813663D01*
X126885063Y-151585408D01*
X126900500Y-151408966D01*
X126900500Y-149591034D01*
X126885063Y-149414592D01*
X126823903Y-149186337D01*
X126768481Y-149067485D01*
X126724039Y-148972178D01*
X126724035Y-148972171D01*
X126724035Y-148972170D01*
X126588495Y-148778599D01*
X126421401Y-148611505D01*
X126405684Y-148600500D01*
X126266163Y-148502806D01*
X126227830Y-148475965D01*
X126227828Y-148475964D01*
X126227821Y-148475960D01*
X126013665Y-148376098D01*
X126013663Y-148376097D01*
X125892590Y-148343656D01*
X125785410Y-148314937D01*
X125608978Y-148299500D01*
X125608966Y-148299500D01*
X124391034Y-148299500D01*
X124391021Y-148299500D01*
X124214590Y-148314937D01*
X124214589Y-148314937D01*
X124031109Y-148364100D01*
X123986337Y-148376097D01*
X123986336Y-148376097D01*
X123986334Y-148376098D01*
X123986333Y-148376098D01*
X123772178Y-148475960D01*
X123772171Y-148475964D01*
X123578599Y-148611504D01*
X123411503Y-148778600D01*
X123411499Y-148778605D01*
X123394424Y-148802991D01*
X123315931Y-148879887D01*
X123214961Y-148923235D01*
X123105150Y-148927181D01*
X123001328Y-148891193D01*
X122917518Y-148820130D01*
X122865038Y-148723590D01*
X122850500Y-148631489D01*
X122850500Y-147768271D01*
X122870691Y-147660260D01*
X122896330Y-147609193D01*
X123054926Y-147356789D01*
X123191402Y-147073394D01*
X123195366Y-147062067D01*
X123295287Y-146776505D01*
X123295289Y-146776500D01*
X123365282Y-146469840D01*
X123400500Y-146157273D01*
X123400500Y-145842727D01*
X123376683Y-145631346D01*
X123365283Y-145530167D01*
X123365282Y-145530165D01*
X123365282Y-145530160D01*
X123295289Y-145223500D01*
X123277730Y-145173318D01*
X123191404Y-144926610D01*
X123191402Y-144926607D01*
X123138549Y-144816857D01*
X123101588Y-144740106D01*
X123054926Y-144643210D01*
X122887576Y-144376875D01*
X122691464Y-144130959D01*
X122469040Y-143908535D01*
X122223124Y-143712423D01*
X121956789Y-143545073D01*
X121673392Y-143408597D01*
X121673389Y-143408595D01*
X121376504Y-143304712D01*
X121069832Y-143234716D01*
X120810471Y-143205494D01*
X120757273Y-143199500D01*
X120442727Y-143199500D01*
X120393701Y-143205023D01*
X120130167Y-143234716D01*
X119823495Y-143304712D01*
X119823494Y-143304712D01*
X119526610Y-143408595D01*
X119526607Y-143408597D01*
X119243210Y-143545073D01*
X118976875Y-143712423D01*
X118730959Y-143908535D01*
X118730959Y-143908536D01*
X118508536Y-144130959D01*
X118508535Y-144130959D01*
X118312423Y-144376875D01*
X118145073Y-144643210D01*
X118008597Y-144926607D01*
X118008595Y-144926610D01*
X117904712Y-145223494D01*
X117904712Y-145223495D01*
X117834716Y-145530167D01*
X117799500Y-145842729D01*
X117799500Y-146157270D01*
X117834716Y-146469832D01*
X117904712Y-146776504D01*
X117904712Y-146776505D01*
X118008595Y-147073389D01*
X118008597Y-147073392D01*
X118145073Y-147356789D01*
X118312423Y-147623124D01*
X118508535Y-147869040D01*
X118730959Y-148091464D01*
X118976875Y-148287576D01*
X119243210Y-148454926D01*
X119384908Y-148523164D01*
X119526606Y-148591402D01*
X119526608Y-148591402D01*
X119526610Y-148591404D01*
X119781598Y-148680627D01*
X119823500Y-148695289D01*
X119917034Y-148716637D01*
X120017842Y-148760354D01*
X120096052Y-148837537D01*
X120141099Y-148937761D01*
X120149500Y-149008140D01*
X120149500Y-149641464D01*
X120129309Y-149749475D01*
X120071464Y-149842899D01*
X119983776Y-149909118D01*
X119878088Y-149939189D01*
X119768675Y-149929050D01*
X119701004Y-149900408D01*
X119669673Y-149882320D01*
X119669668Y-149882317D01*
X119391058Y-149766913D01*
X119099768Y-149688862D01*
X119000106Y-149675741D01*
X118800785Y-149649500D01*
X118800783Y-149649500D01*
X118499217Y-149649500D01*
X118499215Y-149649500D01*
X118272794Y-149679309D01*
X118200232Y-149688862D01*
X117908942Y-149766913D01*
X117908940Y-149766913D01*
X117908939Y-149766914D01*
X117630329Y-149882318D01*
X117369169Y-150033099D01*
X117129919Y-150216681D01*
X116916681Y-150429919D01*
X116733099Y-150669169D01*
X116582318Y-150930329D01*
X116558529Y-150987762D01*
X116466913Y-151208942D01*
X116391949Y-151488711D01*
X116388862Y-151500232D01*
X116349500Y-151799214D01*
X116349500Y-152100785D01*
X116356937Y-152157273D01*
X116388862Y-152399768D01*
X116466913Y-152691058D01*
X116582317Y-152969668D01*
X116733100Y-153230832D01*
X116916681Y-153470080D01*
X117129920Y-153683319D01*
X117369168Y-153866900D01*
X117630332Y-154017683D01*
X117908942Y-154133087D01*
X118200232Y-154211138D01*
X118436899Y-154242295D01*
X118499215Y-154250500D01*
X118499217Y-154250500D01*
X118800785Y-154250500D01*
X118815243Y-154248596D01*
X118840628Y-154245254D01*
X118950349Y-154251171D01*
X119050525Y-154296325D01*
X119091085Y-154330270D01*
X119611925Y-154851110D01*
X119674023Y-154941763D01*
X119699181Y-155048726D01*
X119699500Y-155062535D01*
X119699500Y-155118013D01*
X119708075Y-155183143D01*
X119730307Y-155352014D01*
X119791394Y-155579993D01*
X119854332Y-155731937D01*
X119881717Y-155798051D01*
X119999727Y-156002450D01*
X120143402Y-156189692D01*
X120143405Y-156189696D01*
X120143408Y-156189699D01*
X120310301Y-156356592D01*
X120310304Y-156356594D01*
X120310307Y-156356597D01*
X120428255Y-156447101D01*
X120497550Y-156500273D01*
X120701951Y-156618284D01*
X120920007Y-156708606D01*
X121147986Y-156769693D01*
X121333215Y-156794078D01*
X121381987Y-156800500D01*
X121381989Y-156800500D01*
X121618013Y-156800500D01*
X121662181Y-156794684D01*
X121852014Y-156769693D01*
X122079993Y-156708606D01*
X122136076Y-156685375D01*
X122243589Y-156662694D01*
X122352038Y-156680383D01*
X122446774Y-156736054D01*
X122515002Y-156822188D01*
X122547507Y-156927152D01*
X122549500Y-156961614D01*
X122549500Y-161194997D01*
X122529309Y-161303008D01*
X122471464Y-161396432D01*
X122383776Y-161462651D01*
X122278088Y-161492722D01*
X122168675Y-161482583D01*
X122120771Y-161464388D01*
X122029936Y-161420645D01*
X121941381Y-161355590D01*
X121882307Y-161262938D01*
X121869002Y-161218286D01*
X121868804Y-161218340D01*
X121866885Y-161211181D01*
X121866409Y-161209581D01*
X121866273Y-161208901D01*
X121866271Y-161208884D01*
X121798398Y-160955581D01*
X121725199Y-160778862D01*
X121698041Y-160713298D01*
X121682685Y-160686701D01*
X121682682Y-160686697D01*
X121618974Y-160576351D01*
X121566927Y-160486201D01*
X121566916Y-160486186D01*
X121487104Y-160382174D01*
X121487101Y-160382170D01*
X121407292Y-160278159D01*
X121407287Y-160278153D01*
X121407283Y-160278148D01*
X119421851Y-158292717D01*
X119421845Y-158292711D01*
X119421844Y-158292710D01*
X119304134Y-158202390D01*
X119304131Y-158202387D01*
X119304131Y-158202388D01*
X119213803Y-158133076D01*
X119213792Y-158133069D01*
X118986703Y-158001960D01*
X118986700Y-158001958D01*
X118986697Y-158001957D01*
X118880260Y-157957869D01*
X118744423Y-157901603D01*
X118720212Y-157895115D01*
X118491116Y-157833729D01*
X118491111Y-157833728D01*
X118491106Y-157833727D01*
X118491103Y-157833726D01*
X118361120Y-157816615D01*
X118361119Y-157816614D01*
X118361117Y-157816614D01*
X118317785Y-157810910D01*
X118231122Y-157799500D01*
X118231120Y-157799500D01*
X113068880Y-157799500D01*
X113068877Y-157799500D01*
X112930854Y-157817670D01*
X112930853Y-157817671D01*
X112808907Y-157833726D01*
X112808884Y-157833729D01*
X112555576Y-157901603D01*
X112313300Y-158001958D01*
X112086201Y-158133073D01*
X112086193Y-158133079D01*
X111995868Y-158202386D01*
X111995869Y-158202387D01*
X111878151Y-158292715D01*
X111878143Y-158292722D01*
X109058722Y-161112143D01*
X108968069Y-161174241D01*
X108867885Y-161198331D01*
X108867911Y-161198561D01*
X108866064Y-161198769D01*
X108864077Y-161199247D01*
X108859578Y-161199499D01*
X108580498Y-161230943D01*
X108306680Y-161293440D01*
X108129067Y-161355590D01*
X108041592Y-161386199D01*
X108041590Y-161386200D01*
X108041584Y-161386202D01*
X107788552Y-161508055D01*
X107788548Y-161508058D01*
X107550750Y-161657477D01*
X107331183Y-161832577D01*
X107331165Y-161832593D01*
X107132593Y-162031165D01*
X107132577Y-162031183D01*
X106957481Y-162250746D01*
X106903971Y-162335905D01*
X106829408Y-162416617D01*
X106730724Y-162464945D01*
X106621246Y-162474360D01*
X106515759Y-162443591D01*
X106428511Y-162376794D01*
X106371285Y-162282989D01*
X106368605Y-162275644D01*
X106358941Y-162248026D01*
X106358939Y-162248022D01*
X106358938Y-162248019D01*
X106236346Y-162016065D01*
X106236344Y-162016064D01*
X106080552Y-161804971D01*
X106073252Y-161796488D01*
X106075679Y-161794398D01*
X106025977Y-161721841D01*
X106000819Y-161614878D01*
X106000500Y-161601069D01*
X106000500Y-155352484D01*
X106020691Y-155244473D01*
X106078536Y-155151049D01*
X106088075Y-155141059D01*
X106341059Y-154888075D01*
X106431712Y-154825977D01*
X106538675Y-154800819D01*
X106552484Y-154800500D01*
X106557271Y-154800500D01*
X106557273Y-154800500D01*
X106774689Y-154776002D01*
X106869832Y-154765283D01*
X106869832Y-154765282D01*
X106869840Y-154765282D01*
X107176500Y-154695289D01*
X107441812Y-154602453D01*
X107473389Y-154591404D01*
X107473389Y-154591403D01*
X107473394Y-154591402D01*
X107756789Y-154454926D01*
X108023123Y-154287577D01*
X108269040Y-154091464D01*
X108269041Y-154091464D01*
X108491464Y-153869041D01*
X108491464Y-153869040D01*
X108530567Y-153820007D01*
X108687577Y-153623123D01*
X108854926Y-153356789D01*
X108991402Y-153073394D01*
X109095289Y-152776500D01*
X109165282Y-152469840D01*
X109166532Y-152458751D01*
X109184362Y-152300500D01*
X109200500Y-152157273D01*
X109200500Y-151842727D01*
X109165282Y-151530160D01*
X109095289Y-151223500D01*
X109061822Y-151127855D01*
X108991404Y-150926610D01*
X108991402Y-150926607D01*
X108854926Y-150643210D01*
X108687576Y-150376875D01*
X108491464Y-150130959D01*
X108269040Y-149908535D01*
X108023124Y-149712423D01*
X107756789Y-149545073D01*
X107473392Y-149408597D01*
X107473389Y-149408595D01*
X107176504Y-149304712D01*
X107145125Y-149297550D01*
X107018616Y-149268675D01*
X106869832Y-149234716D01*
X106610471Y-149205494D01*
X106557273Y-149199500D01*
X106242727Y-149199500D01*
X106193701Y-149205023D01*
X105930167Y-149234716D01*
X105623495Y-149304712D01*
X105623494Y-149304712D01*
X105326610Y-149408595D01*
X105326607Y-149408597D01*
X105043210Y-149545073D01*
X104776875Y-149712423D01*
X104530959Y-149908535D01*
X104530959Y-149908536D01*
X104308536Y-150130959D01*
X104308535Y-150130959D01*
X104112423Y-150376875D01*
X103945073Y-150643210D01*
X103808597Y-150926607D01*
X103808595Y-150926610D01*
X103704712Y-151223494D01*
X103704712Y-151223495D01*
X103634716Y-151530167D01*
X103599500Y-151842729D01*
X103599500Y-151847516D01*
X103599115Y-151849575D01*
X103599029Y-151851107D01*
X103598830Y-151851095D01*
X103579309Y-151955527D01*
X103521464Y-152048951D01*
X103511925Y-152058941D01*
X102492714Y-153078152D01*
X102482169Y-153091895D01*
X102456071Y-153125908D01*
X102452697Y-153130305D01*
X102452695Y-153130307D01*
X102333081Y-153286189D01*
X102333069Y-153286208D01*
X102258837Y-153414783D01*
X102258837Y-153414784D01*
X102201957Y-153513302D01*
X102101603Y-153755576D01*
X102084339Y-153820007D01*
X102036110Y-154000000D01*
X102033727Y-154008893D01*
X102033726Y-154008896D01*
X102021477Y-154101947D01*
X102021477Y-154101950D01*
X101999500Y-154268877D01*
X101999500Y-161601069D01*
X101979309Y-161709080D01*
X101925730Y-161795612D01*
X101926748Y-161796488D01*
X101919447Y-161804971D01*
X101763655Y-162016064D01*
X101763653Y-162016065D01*
X101641059Y-162248023D01*
X101641059Y-162248024D01*
X101554405Y-162495668D01*
X101519425Y-162680547D01*
X101505630Y-162753457D01*
X101499500Y-162862608D01*
X100800500Y-162862608D01*
X100800500Y-139803960D01*
X103849500Y-139803960D01*
X103849500Y-140096039D01*
X103882201Y-140386284D01*
X103947193Y-140671032D01*
X103947198Y-140671050D01*
X104043659Y-140946721D01*
X104043665Y-140946737D01*
X104074885Y-141011565D01*
X104170394Y-141209893D01*
X104237207Y-141316224D01*
X104325792Y-141457206D01*
X104507902Y-141685565D01*
X104714435Y-141892098D01*
X104942794Y-142074208D01*
X105053999Y-142144082D01*
X105190106Y-142229605D01*
X105257179Y-142261905D01*
X105453263Y-142356335D01*
X105728955Y-142452803D01*
X105728961Y-142452804D01*
X105728967Y-142452806D01*
X105880886Y-142487480D01*
X106013714Y-142517798D01*
X106303959Y-142550500D01*
X106303961Y-142550500D01*
X106596039Y-142550500D01*
X106596041Y-142550500D01*
X106886286Y-142517798D01*
X107171045Y-142452803D01*
X107446737Y-142356335D01*
X107709893Y-142229605D01*
X107957206Y-142074208D01*
X108185565Y-141892098D01*
X108392098Y-141685565D01*
X108574208Y-141457206D01*
X108729605Y-141209893D01*
X108856335Y-140946737D01*
X108952803Y-140671045D01*
X109017798Y-140386286D01*
X109050500Y-140096041D01*
X109050500Y-139803959D01*
X109017798Y-139513714D01*
X108952803Y-139228955D01*
X108856335Y-138953263D01*
X108743738Y-138719454D01*
X108729605Y-138690106D01*
X108582758Y-138456402D01*
X108574208Y-138442794D01*
X108392098Y-138214435D01*
X108185565Y-138007902D01*
X107957206Y-137825792D01*
X107846701Y-137756357D01*
X107709893Y-137670394D01*
X107570614Y-137603321D01*
X107446737Y-137543665D01*
X107446729Y-137543662D01*
X107446721Y-137543659D01*
X107171050Y-137447198D01*
X107171032Y-137447193D01*
X106886284Y-137382201D01*
X106886285Y-137382201D01*
X106654820Y-137356122D01*
X106596041Y-137349500D01*
X106303959Y-137349500D01*
X106245179Y-137356122D01*
X106013715Y-137382201D01*
X105728967Y-137447193D01*
X105728949Y-137447198D01*
X105453278Y-137543659D01*
X105453268Y-137543663D01*
X105453266Y-137543663D01*
X105453263Y-137543665D01*
X105396458Y-137571020D01*
X105190106Y-137670394D01*
X104942798Y-137825789D01*
X104714441Y-138007897D01*
X104714425Y-138007911D01*
X104507911Y-138214425D01*
X104507897Y-138214441D01*
X104452430Y-138283995D01*
X104336060Y-138429919D01*
X104325789Y-138442798D01*
X104170394Y-138690106D01*
X104093635Y-138849500D01*
X104054710Y-138930329D01*
X104043663Y-138953268D01*
X104043659Y-138953278D01*
X103947198Y-139228949D01*
X103947193Y-139228967D01*
X103882201Y-139513715D01*
X103849500Y-139803960D01*
X100800500Y-139803960D01*
X100800500Y-103868878D01*
X101999500Y-103868878D01*
X101999500Y-104131121D01*
X102033730Y-104391118D01*
X102101600Y-104644414D01*
X102101601Y-104644418D01*
X102101602Y-104644419D01*
X102201957Y-104886697D01*
X102201958Y-104886700D01*
X102201960Y-104886703D01*
X102333069Y-105113792D01*
X102333076Y-105113803D01*
X102492718Y-105321851D01*
X102678149Y-105507282D01*
X102886197Y-105666924D01*
X102886203Y-105666927D01*
X102886207Y-105666930D01*
X103054681Y-105764198D01*
X103113303Y-105798043D01*
X103355581Y-105898398D01*
X103608884Y-105966270D01*
X103790037Y-105990119D01*
X103868878Y-106000500D01*
X103868880Y-106000500D01*
X104131122Y-106000500D01*
X104199582Y-105991486D01*
X104391116Y-105966270D01*
X104644419Y-105898398D01*
X104886697Y-105798043D01*
X105113803Y-105666924D01*
X105321851Y-105507282D01*
X105507282Y-105321851D01*
X105666924Y-105113803D01*
X105798043Y-104886697D01*
X105898398Y-104644419D01*
X105966270Y-104391116D01*
X106000500Y-104131120D01*
X106000500Y-103868880D01*
X105998458Y-103853373D01*
X105967733Y-103620000D01*
X105966270Y-103608884D01*
X105898398Y-103355581D01*
X105798043Y-103113303D01*
X105731213Y-102997549D01*
X105666930Y-102886207D01*
X105666923Y-102886196D01*
X105638765Y-102849500D01*
X105507282Y-102678149D01*
X105321851Y-102492718D01*
X105113803Y-102333076D01*
X105113792Y-102333069D01*
X104886703Y-102201960D01*
X104886700Y-102201958D01*
X104886697Y-102201957D01*
X104644419Y-102101602D01*
X104644418Y-102101601D01*
X104644414Y-102101600D01*
X104391118Y-102033730D01*
X104131122Y-101999500D01*
X104131120Y-101999500D01*
X103868880Y-101999500D01*
X103868878Y-101999500D01*
X103608881Y-102033730D01*
X103355585Y-102101600D01*
X103113296Y-102201960D01*
X102886207Y-102333069D01*
X102886196Y-102333076D01*
X102678146Y-102492720D01*
X102492720Y-102678146D01*
X102333076Y-102886196D01*
X102333069Y-102886207D01*
X102201960Y-103113296D01*
X102101600Y-103355585D01*
X102033730Y-103608881D01*
X101999500Y-103868878D01*
X100800500Y-103868878D01*
X100800500Y-102011744D01*
X100801422Y-101988286D01*
X100806705Y-101921158D01*
X100813421Y-101835811D01*
X100820760Y-101789478D01*
X100853716Y-101652205D01*
X100868207Y-101607604D01*
X100922236Y-101477167D01*
X100943524Y-101435386D01*
X101017294Y-101315006D01*
X101044866Y-101277058D01*
X101136544Y-101169718D01*
X101169718Y-101136544D01*
X101277058Y-101044866D01*
X101315006Y-101017294D01*
X101435386Y-100943524D01*
X101477167Y-100922236D01*
X101607604Y-100868207D01*
X101652205Y-100853716D01*
X101789483Y-100820759D01*
X101835811Y-100813421D01*
X101963571Y-100803367D01*
X101988286Y-100801422D01*
X102011744Y-100800500D01*
X102084135Y-100800500D01*
X118150596Y-100800500D01*
X118258607Y-100820691D01*
G37*
%TD.AperFunction*%
%TA.AperFunction,Conductor*%
G36*
X141808483Y-113752939D02*
G01*
X141904478Y-113806408D01*
X141974676Y-113890944D01*
X141997829Y-113944042D01*
X142019160Y-114009693D01*
X142020421Y-114013572D01*
X142138366Y-114245051D01*
X142138368Y-114245053D01*
X142138368Y-114245054D01*
X142291076Y-114455239D01*
X142291580Y-114455829D01*
X142291865Y-114456325D01*
X142297974Y-114464733D01*
X142297076Y-114465384D01*
X142346369Y-114551077D01*
X142363050Y-114659686D01*
X142339371Y-114766986D01*
X142297366Y-114834825D01*
X142297974Y-114835267D01*
X142292013Y-114843471D01*
X142291580Y-114844171D01*
X142291076Y-114844760D01*
X142138368Y-115054945D01*
X142138368Y-115054946D01*
X142020418Y-115286433D01*
X141940140Y-115533506D01*
X141899500Y-115790099D01*
X141899500Y-116049900D01*
X141940140Y-116306493D01*
X142020418Y-116553566D01*
X142020420Y-116553571D01*
X142020421Y-116553572D01*
X142138366Y-116785051D01*
X142138368Y-116785053D01*
X142138368Y-116785054D01*
X142291076Y-116995239D01*
X142291580Y-116995829D01*
X142291865Y-116996325D01*
X142297974Y-117004733D01*
X142297076Y-117005384D01*
X142346369Y-117091077D01*
X142363050Y-117199686D01*
X142339371Y-117306986D01*
X142297366Y-117374825D01*
X142297974Y-117375267D01*
X142292013Y-117383471D01*
X142291580Y-117384171D01*
X142291076Y-117384760D01*
X142138368Y-117594945D01*
X142138368Y-117594946D01*
X142138366Y-117594949D01*
X142085834Y-117698049D01*
X142020418Y-117826433D01*
X141940140Y-118073506D01*
X141899500Y-118330099D01*
X141899500Y-118589900D01*
X141940140Y-118846493D01*
X142020418Y-119093566D01*
X142020420Y-119093571D01*
X142020421Y-119093572D01*
X142138366Y-119325051D01*
X142138368Y-119325053D01*
X142138368Y-119325054D01*
X142200529Y-119410611D01*
X142247682Y-119509862D01*
X142255797Y-119619444D01*
X142223778Y-119724558D01*
X142188164Y-119777974D01*
X142180840Y-119786746D01*
X142055262Y-119968007D01*
X142055256Y-119968016D01*
X141964070Y-120168772D01*
X141910191Y-120382595D01*
X141900001Y-120512071D01*
X141900000Y-120512104D01*
X141900000Y-120600000D01*
X143947339Y-120600000D01*
X143845606Y-120627259D01*
X143754394Y-120679920D01*
X143679920Y-120754394D01*
X143627259Y-120845606D01*
X143600000Y-120947339D01*
X143600000Y-121052661D01*
X143627259Y-121154394D01*
X143679920Y-121245606D01*
X143754394Y-121320080D01*
X143845606Y-121372741D01*
X143947339Y-121400000D01*
X144052661Y-121400000D01*
X144154394Y-121372741D01*
X144245606Y-121320080D01*
X144320080Y-121245606D01*
X144372741Y-121154394D01*
X144400000Y-121052661D01*
X144400000Y-120947339D01*
X144372741Y-120845606D01*
X144320080Y-120754394D01*
X144245606Y-120679920D01*
X144154394Y-120627259D01*
X144052661Y-120600000D01*
X146099999Y-120600000D01*
X146099999Y-120512088D01*
X146089809Y-120382603D01*
X146089806Y-120382588D01*
X146035929Y-120168772D01*
X145992498Y-120073153D01*
X145966212Y-119966461D01*
X145980244Y-119857478D01*
X146032697Y-119760924D01*
X146116487Y-119689837D01*
X146220299Y-119653820D01*
X146264731Y-119650500D01*
X147897090Y-119650500D01*
X147897114Y-119650501D01*
X147909454Y-119650501D01*
X148090541Y-119650501D01*
X148090546Y-119650501D01*
X148269409Y-119622171D01*
X148441639Y-119566211D01*
X148602994Y-119483996D01*
X148623071Y-119469409D01*
X148749501Y-119377553D01*
X148877553Y-119249501D01*
X148877554Y-119249499D01*
X148894589Y-119232464D01*
X148894594Y-119232457D01*
X149824228Y-118302824D01*
X149914877Y-118240729D01*
X150021840Y-118215571D01*
X150130669Y-118230752D01*
X150226664Y-118284221D01*
X150296862Y-118368757D01*
X150331782Y-118472943D01*
X150333209Y-118484941D01*
X150340192Y-118555837D01*
X150400232Y-118753764D01*
X150497732Y-118936172D01*
X150628944Y-119096053D01*
X150628946Y-119096055D01*
X150788823Y-119227264D01*
X150805201Y-119236018D01*
X150890942Y-119304739D01*
X150946068Y-119399793D01*
X150963135Y-119508342D01*
X150939836Y-119615726D01*
X150879319Y-119707442D01*
X150805214Y-119763407D01*
X150788548Y-119772315D01*
X150788546Y-119772316D01*
X150628594Y-119903585D01*
X150628585Y-119903594D01*
X150497316Y-120063546D01*
X150497316Y-120063547D01*
X150399771Y-120246039D01*
X150399766Y-120246051D01*
X150339700Y-120444063D01*
X150324500Y-120598388D01*
X150324500Y-121501611D01*
X150339700Y-121655936D01*
X150382810Y-121798051D01*
X150399768Y-121853954D01*
X150399769Y-121853955D01*
X150399771Y-121853960D01*
X150497316Y-122036452D01*
X150497316Y-122036453D01*
X150628585Y-122196405D01*
X150628594Y-122196414D01*
X150788546Y-122327683D01*
X150788550Y-122327685D01*
X150971046Y-122425232D01*
X151169063Y-122485299D01*
X151169066Y-122485300D01*
X151262588Y-122494511D01*
X151323388Y-122500500D01*
X151323392Y-122500500D01*
X152676612Y-122500500D01*
X152727405Y-122495496D01*
X152830934Y-122485300D01*
X153028954Y-122425232D01*
X153211450Y-122327685D01*
X153211452Y-122327683D01*
X153211453Y-122327683D01*
X153371405Y-122196414D01*
X153371404Y-122196414D01*
X153371410Y-122196410D01*
X153462605Y-122085288D01*
X153502683Y-122036453D01*
X153502683Y-122036452D01*
X153502685Y-122036450D01*
X153600232Y-121853954D01*
X153614375Y-121807327D01*
X153665049Y-121709831D01*
X153747523Y-121637221D01*
X153850657Y-121599308D01*
X153960523Y-121601211D01*
X154062282Y-121642673D01*
X154142192Y-121718096D01*
X154189460Y-121817292D01*
X154199500Y-121894124D01*
X154199500Y-122518013D01*
X154217461Y-122654441D01*
X154230307Y-122752014D01*
X154291394Y-122979993D01*
X154363743Y-123154657D01*
X154381717Y-123198051D01*
X154499727Y-123402450D01*
X154643402Y-123589692D01*
X154643405Y-123589696D01*
X154643408Y-123589699D01*
X154810301Y-123756592D01*
X154884189Y-123813288D01*
X154957588Y-123895058D01*
X154996492Y-123997822D01*
X154995646Y-124107701D01*
X154955165Y-124209855D01*
X154880515Y-124290487D01*
X154781779Y-124338707D01*
X154702169Y-124349500D01*
X149202911Y-124349500D01*
X149202887Y-124349499D01*
X149190547Y-124349499D01*
X149009454Y-124349499D01*
X149009450Y-124349499D01*
X148830589Y-124377828D01*
X148658369Y-124433785D01*
X148658367Y-124433786D01*
X148658361Y-124433788D01*
X148658361Y-124433789D01*
X148497006Y-124516004D01*
X148406769Y-124581564D01*
X148350497Y-124622448D01*
X148350493Y-124622452D01*
X148222444Y-124750502D01*
X144300144Y-128672801D01*
X144209491Y-128734899D01*
X144102528Y-128760057D01*
X143993699Y-128744876D01*
X143897704Y-128691407D01*
X143827506Y-128606871D01*
X143799907Y-128538762D01*
X143768129Y-128420164D01*
X143677837Y-128202177D01*
X143677831Y-128202165D01*
X143559855Y-127997827D01*
X143416220Y-127810637D01*
X143416209Y-127810625D01*
X143249374Y-127643790D01*
X143249362Y-127643779D01*
X143062172Y-127500144D01*
X142857834Y-127382168D01*
X142857822Y-127382162D01*
X142639836Y-127291871D01*
X142411916Y-127230799D01*
X142177979Y-127200000D01*
X142060000Y-127200000D01*
X142060000Y-128947339D01*
X142032741Y-128845606D01*
X141980080Y-128754394D01*
X141905606Y-128679920D01*
X141814394Y-128627259D01*
X141712661Y-128600000D01*
X141607339Y-128600000D01*
X141505606Y-128627259D01*
X141414394Y-128679920D01*
X141339920Y-128754394D01*
X141287259Y-128845606D01*
X141260000Y-128947339D01*
X141260000Y-129052661D01*
X141287259Y-129154394D01*
X141339920Y-129245606D01*
X141414394Y-129320080D01*
X141505606Y-129372741D01*
X141607339Y-129400000D01*
X141712661Y-129400000D01*
X141814394Y-129372741D01*
X141905606Y-129320080D01*
X141980080Y-129245606D01*
X142032741Y-129154394D01*
X142060000Y-129052661D01*
X142060000Y-130800000D01*
X142177979Y-130800000D01*
X142411921Y-130769199D01*
X142573112Y-130726008D01*
X142682668Y-130717554D01*
X142787880Y-130749249D01*
X142874538Y-130816809D01*
X142930939Y-130911113D01*
X142949500Y-131014819D01*
X142949500Y-132047110D01*
X142929309Y-132155121D01*
X142871464Y-132248545D01*
X142783776Y-132314764D01*
X142678088Y-132344835D01*
X142568675Y-132334696D01*
X142474754Y-132289007D01*
X142405059Y-132238371D01*
X142405055Y-132238369D01*
X142405051Y-132238366D01*
X142173572Y-132120421D01*
X142173571Y-132120420D01*
X142173566Y-132120418D01*
X141926493Y-132040140D01*
X141669900Y-131999500D01*
X141669897Y-131999500D01*
X141410103Y-131999500D01*
X141410099Y-131999500D01*
X141153506Y-132040140D01*
X140906433Y-132120418D01*
X140674946Y-132238367D01*
X140589387Y-132300530D01*
X140490135Y-132347682D01*
X140380553Y-132355797D01*
X140275440Y-132323778D01*
X140222019Y-132288159D01*
X140213250Y-132280838D01*
X140031992Y-132155262D01*
X140031983Y-132155256D01*
X139831227Y-132064070D01*
X139617404Y-132010191D01*
X139487928Y-132000001D01*
X139487895Y-132000000D01*
X139400000Y-132000000D01*
X139400000Y-133701000D01*
X139379809Y-133809011D01*
X139365218Y-133832576D01*
X139320080Y-133754394D01*
X139245606Y-133679920D01*
X139154394Y-133627259D01*
X139052661Y-133600000D01*
X138947339Y-133600000D01*
X138845606Y-133627259D01*
X138754394Y-133679920D01*
X138679920Y-133754394D01*
X138627259Y-133845606D01*
X138600000Y-133947339D01*
X138600000Y-134052661D01*
X138627259Y-134154394D01*
X138679920Y-134245606D01*
X138754394Y-134320080D01*
X138836117Y-134367263D01*
X138834276Y-134368654D01*
X138728588Y-134398725D01*
X138701000Y-134400000D01*
X137350001Y-134400000D01*
X137350001Y-134837911D01*
X137360190Y-134967396D01*
X137360193Y-134967411D01*
X137414070Y-135181227D01*
X137505256Y-135381983D01*
X137505262Y-135381992D01*
X137630836Y-135563247D01*
X137706664Y-135639075D01*
X137768762Y-135729728D01*
X137793920Y-135836691D01*
X137778739Y-135945520D01*
X137725270Y-136041515D01*
X137640734Y-136111713D01*
X137536548Y-136146633D01*
X137495239Y-136149500D01*
X135300402Y-136149500D01*
X135192391Y-136129309D01*
X135098967Y-136071464D01*
X135088977Y-136061925D01*
X133874218Y-134847165D01*
X133812120Y-134756512D01*
X133786962Y-134649549D01*
X133802143Y-134540720D01*
X133855612Y-134444725D01*
X133940148Y-134374527D01*
X134044334Y-134339607D01*
X134154099Y-134344682D01*
X134162997Y-134346920D01*
X134247986Y-134369693D01*
X134411031Y-134391158D01*
X134481987Y-134400500D01*
X134481989Y-134400500D01*
X134718013Y-134400500D01*
X134762181Y-134394684D01*
X134952014Y-134369693D01*
X135179993Y-134308606D01*
X135398049Y-134218284D01*
X135602450Y-134100273D01*
X135789699Y-133956592D01*
X135956592Y-133789699D01*
X136100273Y-133602450D01*
X136218284Y-133398049D01*
X136308606Y-133179993D01*
X136313399Y-133162104D01*
X137350000Y-133162104D01*
X137350000Y-133600000D01*
X138600000Y-133600000D01*
X138600000Y-132000000D01*
X138512088Y-132000000D01*
X138382603Y-132010190D01*
X138382588Y-132010193D01*
X138168772Y-132064070D01*
X137968016Y-132155256D01*
X137968007Y-132155262D01*
X137786752Y-132280836D01*
X137630836Y-132436752D01*
X137505262Y-132618007D01*
X137505256Y-132618016D01*
X137414070Y-132818772D01*
X137360191Y-133032595D01*
X137350001Y-133162071D01*
X137350000Y-133162104D01*
X136313399Y-133162104D01*
X136369693Y-132952014D01*
X136399416Y-132726247D01*
X136400500Y-132718013D01*
X136400500Y-132481986D01*
X136387383Y-132382359D01*
X136369693Y-132247986D01*
X136308606Y-132020007D01*
X136218284Y-131801951D01*
X136100273Y-131597550D01*
X136002934Y-131470695D01*
X135956597Y-131410307D01*
X135956594Y-131410304D01*
X135956592Y-131410301D01*
X135805324Y-131259033D01*
X135785618Y-131237291D01*
X135696408Y-131128588D01*
X135696405Y-131128585D01*
X135536453Y-130997316D01*
X135353960Y-130899771D01*
X135353958Y-130899770D01*
X135353954Y-130899768D01*
X135353949Y-130899766D01*
X135353948Y-130899766D01*
X135155935Y-130839700D01*
X135155937Y-130839700D01*
X135001612Y-130824500D01*
X135001608Y-130824500D01*
X134927502Y-130824500D01*
X134888476Y-130821942D01*
X134829940Y-130814235D01*
X134718013Y-130799500D01*
X134718011Y-130799500D01*
X134481989Y-130799500D01*
X134481987Y-130799500D01*
X134370059Y-130814235D01*
X134311523Y-130821942D01*
X134272498Y-130824500D01*
X134098388Y-130824500D01*
X133944063Y-130839700D01*
X133746051Y-130899766D01*
X133746039Y-130899771D01*
X133563547Y-130997316D01*
X133563546Y-130997316D01*
X133403594Y-131128585D01*
X133403585Y-131128594D01*
X133272316Y-131288546D01*
X133272313Y-131288551D01*
X133263693Y-131304679D01*
X133194969Y-131390418D01*
X133099914Y-131445541D01*
X132991365Y-131462604D01*
X132883982Y-131439303D01*
X132792268Y-131378783D01*
X132736307Y-131304679D01*
X132727686Y-131288551D01*
X132650500Y-131194499D01*
X132618369Y-131155347D01*
X132565456Y-131059046D01*
X132550500Y-130965665D01*
X132550500Y-130876099D01*
X132570691Y-130768088D01*
X132628536Y-130674664D01*
X132700000Y-130617158D01*
X132795035Y-130562288D01*
X132902450Y-130500273D01*
X133089699Y-130356592D01*
X133256592Y-130189699D01*
X133400273Y-130002450D01*
X133518284Y-129798049D01*
X133608606Y-129579993D01*
X133656835Y-129400000D01*
X139503684Y-129400000D01*
X139551871Y-129579839D01*
X139642162Y-129797821D01*
X139642168Y-129797834D01*
X139760144Y-130002172D01*
X139903779Y-130189362D01*
X139903790Y-130189374D01*
X140070625Y-130356209D01*
X140070637Y-130356220D01*
X140257827Y-130499855D01*
X140462165Y-130617831D01*
X140462177Y-130617837D01*
X140680163Y-130708128D01*
X140908083Y-130769200D01*
X141142021Y-130800000D01*
X141260000Y-130800000D01*
X141260000Y-129400000D01*
X139503684Y-129400000D01*
X133656835Y-129400000D01*
X133669693Y-129352014D01*
X133693845Y-129168559D01*
X133700500Y-129118013D01*
X133700500Y-128881986D01*
X133680412Y-128729407D01*
X133669693Y-128647986D01*
X133656835Y-128600000D01*
X139503684Y-128600000D01*
X141260000Y-128600000D01*
X141260000Y-127200000D01*
X141142021Y-127200000D01*
X140908083Y-127230799D01*
X140680163Y-127291871D01*
X140462177Y-127382162D01*
X140462165Y-127382168D01*
X140257827Y-127500144D01*
X140070637Y-127643779D01*
X140070625Y-127643790D01*
X139903790Y-127810625D01*
X139903779Y-127810637D01*
X139760144Y-127997827D01*
X139642168Y-128202165D01*
X139642162Y-128202178D01*
X139551871Y-128420160D01*
X139503684Y-128600000D01*
X133656835Y-128600000D01*
X133608606Y-128420007D01*
X133518284Y-128201951D01*
X133400273Y-127997550D01*
X133329818Y-127905731D01*
X133280084Y-127807751D01*
X133269103Y-127698419D01*
X133298359Y-127592503D01*
X133363900Y-127504307D01*
X133417532Y-127464771D01*
X133507719Y-127412702D01*
X133558127Y-127383599D01*
X133755776Y-127231938D01*
X133931938Y-127055776D01*
X134083599Y-126858127D01*
X134208164Y-126642373D01*
X134303502Y-126412207D01*
X134367982Y-126171565D01*
X134400500Y-125924565D01*
X134400500Y-125924535D01*
X135600000Y-125924535D01*
X135632509Y-126171465D01*
X135696973Y-126412050D01*
X135792286Y-126642154D01*
X135916816Y-126857845D01*
X136068439Y-127055445D01*
X136244554Y-127231560D01*
X136442154Y-127383183D01*
X136657845Y-127507713D01*
X136887956Y-127603028D01*
X137100000Y-127659845D01*
X137100000Y-127659844D01*
X137900000Y-127659844D01*
X138112043Y-127603028D01*
X138342154Y-127507713D01*
X138557845Y-127383183D01*
X138755445Y-127231560D01*
X138931560Y-127055445D01*
X139083183Y-126857845D01*
X139207713Y-126642154D01*
X139303026Y-126412050D01*
X139367490Y-126171465D01*
X139400000Y-125924535D01*
X139400000Y-125900000D01*
X137900000Y-125900000D01*
X137900000Y-127659844D01*
X137100000Y-127659844D01*
X137100000Y-125900000D01*
X135600000Y-125900000D01*
X135600000Y-125924535D01*
X134400500Y-125924535D01*
X134400500Y-125562534D01*
X134420691Y-125454523D01*
X134425139Y-125447339D01*
X137100000Y-125447339D01*
X137100000Y-125552661D01*
X137127259Y-125654394D01*
X137179920Y-125745606D01*
X137254394Y-125820080D01*
X137345606Y-125872741D01*
X137447339Y-125900000D01*
X137552661Y-125900000D01*
X137654394Y-125872741D01*
X137745606Y-125820080D01*
X137820080Y-125745606D01*
X137872741Y-125654394D01*
X137900000Y-125552661D01*
X137900000Y-125447339D01*
X137872741Y-125345606D01*
X137820080Y-125254394D01*
X137745606Y-125179920D01*
X137654394Y-125127259D01*
X137552661Y-125100000D01*
X137900000Y-125100000D01*
X139400000Y-125100000D01*
X139400000Y-125075464D01*
X139367490Y-124828534D01*
X139303026Y-124587949D01*
X139207713Y-124357845D01*
X139083183Y-124142154D01*
X138931560Y-123944554D01*
X138755445Y-123768439D01*
X138557845Y-123616816D01*
X138342154Y-123492286D01*
X138112052Y-123396974D01*
X137900000Y-123340154D01*
X137900000Y-125100000D01*
X137552661Y-125100000D01*
X137447339Y-125100000D01*
X137345606Y-125127259D01*
X137254394Y-125179920D01*
X137179920Y-125254394D01*
X137127259Y-125345606D01*
X137100000Y-125447339D01*
X134425139Y-125447339D01*
X134478536Y-125361099D01*
X134488054Y-125351130D01*
X135103957Y-124735227D01*
X135194604Y-124673133D01*
X135301568Y-124647975D01*
X135410396Y-124663156D01*
X135506392Y-124716625D01*
X135576590Y-124801161D01*
X135611510Y-124905347D01*
X135611819Y-124985680D01*
X135600000Y-125075458D01*
X135600000Y-125100000D01*
X137100000Y-125100000D01*
X137100000Y-123340154D01*
X137030444Y-123286782D01*
X136957045Y-123205010D01*
X136918141Y-123102246D01*
X136918987Y-122992367D01*
X136959469Y-122890213D01*
X137001034Y-122838149D01*
X137184745Y-122654438D01*
X137275395Y-122592343D01*
X137303750Y-122581507D01*
X137463572Y-122529579D01*
X137695051Y-122411634D01*
X137905229Y-122258931D01*
X138088931Y-122075229D01*
X138241634Y-121865051D01*
X138241637Y-121865045D01*
X138247768Y-121855041D01*
X138249910Y-121856353D01*
X138305534Y-121784064D01*
X138329206Y-121764951D01*
X138449501Y-121677553D01*
X138577553Y-121549501D01*
X138577554Y-121549499D01*
X138594589Y-121532464D01*
X138594595Y-121532457D01*
X138639141Y-121487911D01*
X141900001Y-121487911D01*
X141910190Y-121617396D01*
X141910193Y-121617411D01*
X141964070Y-121831227D01*
X142055256Y-122031983D01*
X142055262Y-122031992D01*
X142180836Y-122213247D01*
X142336752Y-122369163D01*
X142518007Y-122494737D01*
X142518016Y-122494743D01*
X142718772Y-122585929D01*
X142932595Y-122639808D01*
X143062072Y-122649998D01*
X143062104Y-122649999D01*
X143600000Y-122649999D01*
X144400000Y-122649999D01*
X144937911Y-122649999D01*
X145067396Y-122639809D01*
X145067411Y-122639806D01*
X145281227Y-122585929D01*
X145481983Y-122494743D01*
X145481992Y-122494737D01*
X145663247Y-122369163D01*
X145819163Y-122213247D01*
X145944737Y-122031992D01*
X145944743Y-122031983D01*
X146035929Y-121831227D01*
X146089808Y-121617404D01*
X146099998Y-121487928D01*
X146100000Y-121487895D01*
X146100000Y-121400000D01*
X144400000Y-121400000D01*
X144400000Y-122649999D01*
X143600000Y-122649999D01*
X143600000Y-121400000D01*
X141900001Y-121400000D01*
X141900001Y-121487911D01*
X138639141Y-121487911D01*
X140197258Y-119929793D01*
X140232930Y-119899328D01*
X140355456Y-119810307D01*
X140369044Y-119800435D01*
X140500435Y-119669044D01*
X140609654Y-119518717D01*
X140694012Y-119353155D01*
X140751432Y-119176434D01*
X140756377Y-119145207D01*
X140767331Y-119099583D01*
X140780692Y-119058462D01*
X140780691Y-119058462D01*
X140780693Y-119058459D01*
X140785637Y-119027236D01*
X140796589Y-118981617D01*
X140809955Y-118940484D01*
X140814899Y-118909264D01*
X140825853Y-118863634D01*
X140839216Y-118822510D01*
X140844161Y-118791284D01*
X140855117Y-118745649D01*
X140862657Y-118722444D01*
X140868477Y-118704534D01*
X140900500Y-118502352D01*
X140900500Y-114550402D01*
X140920691Y-114442391D01*
X140978536Y-114348967D01*
X140988075Y-114338977D01*
X141385511Y-113941541D01*
X141502039Y-113825012D01*
X141592691Y-113762916D01*
X141699654Y-113737758D01*
X141808483Y-113752939D01*
G37*
%TD.AperFunction*%
%TA.AperFunction,Conductor*%
G36*
X118842797Y-104318625D02*
G01*
X118938792Y-104372094D01*
X119008990Y-104456630D01*
X119036587Y-104524733D01*
X119051394Y-104579993D01*
X119090694Y-104674870D01*
X119141717Y-104798051D01*
X119259727Y-105002450D01*
X119403402Y-105189692D01*
X119403405Y-105189696D01*
X119403408Y-105189699D01*
X119570301Y-105356592D01*
X119570304Y-105356594D01*
X119570307Y-105356597D01*
X119688255Y-105447101D01*
X119757550Y-105500273D01*
X119961951Y-105618284D01*
X120180007Y-105708606D01*
X120190612Y-105711447D01*
X120289716Y-105758905D01*
X120364985Y-105838959D01*
X120406253Y-105940798D01*
X120407945Y-106050667D01*
X120369834Y-106153728D01*
X120297066Y-106236063D01*
X120199470Y-106286550D01*
X120190617Y-106289070D01*
X120180162Y-106291871D01*
X119962177Y-106382162D01*
X119962165Y-106382168D01*
X119757827Y-106500144D01*
X119570637Y-106643779D01*
X119570625Y-106643790D01*
X119403790Y-106810625D01*
X119403779Y-106810637D01*
X119260144Y-106997827D01*
X119142168Y-107202165D01*
X119142162Y-107202178D01*
X119051871Y-107420160D01*
X119003684Y-107600000D01*
X121107339Y-107600000D01*
X121005606Y-107627259D01*
X120914394Y-107679920D01*
X120839920Y-107754394D01*
X120787259Y-107845606D01*
X120760000Y-107947339D01*
X120760000Y-108052661D01*
X120787259Y-108154394D01*
X120839920Y-108245606D01*
X120914394Y-108320080D01*
X121005606Y-108372741D01*
X121107339Y-108400000D01*
X121212661Y-108400000D01*
X121314394Y-108372741D01*
X121405606Y-108320080D01*
X121480080Y-108245606D01*
X121532741Y-108154394D01*
X121560000Y-108052661D01*
X121560000Y-107947339D01*
X121532741Y-107845606D01*
X121480080Y-107754394D01*
X121405606Y-107679920D01*
X121314394Y-107627259D01*
X121212661Y-107600000D01*
X123316316Y-107600000D01*
X123268128Y-107420160D01*
X123177837Y-107202178D01*
X123177831Y-107202165D01*
X123059855Y-106997827D01*
X122916220Y-106810637D01*
X122916209Y-106810625D01*
X122749374Y-106643790D01*
X122749362Y-106643779D01*
X122562172Y-106500144D01*
X122357834Y-106382168D01*
X122357822Y-106382162D01*
X122139838Y-106291871D01*
X122129386Y-106289071D01*
X122030281Y-106241612D01*
X121955013Y-106161557D01*
X121913746Y-106059719D01*
X121912054Y-105949849D01*
X121950166Y-105846788D01*
X122022934Y-105764454D01*
X122120531Y-105713967D01*
X122129359Y-105711455D01*
X122139993Y-105708606D01*
X122358049Y-105618284D01*
X122562450Y-105500273D01*
X122749699Y-105356592D01*
X122868216Y-105238075D01*
X122958869Y-105175977D01*
X123065832Y-105150819D01*
X123079641Y-105150500D01*
X127799597Y-105150500D01*
X127907608Y-105170691D01*
X128001032Y-105228536D01*
X128011022Y-105238075D01*
X132898990Y-110126043D01*
X132961088Y-110216696D01*
X132986246Y-110323659D01*
X132971065Y-110432488D01*
X132917596Y-110528483D01*
X132833060Y-110598681D01*
X132757125Y-110626595D01*
X132757441Y-110627774D01*
X132747989Y-110630306D01*
X132747986Y-110630307D01*
X132520007Y-110691394D01*
X132520005Y-110691394D01*
X132520004Y-110691395D01*
X132301948Y-110781717D01*
X132097549Y-110899727D01*
X131910307Y-111043402D01*
X131910295Y-111043413D01*
X131743413Y-111210295D01*
X131743402Y-111210307D01*
X131599727Y-111397549D01*
X131481717Y-111601948D01*
X131405065Y-111787003D01*
X131391394Y-111820007D01*
X131344354Y-111995563D01*
X131330307Y-112047986D01*
X131299500Y-112281986D01*
X131299500Y-112518013D01*
X131309243Y-112592014D01*
X131330307Y-112752014D01*
X131378416Y-112931560D01*
X131391395Y-112979995D01*
X131414625Y-113036077D01*
X131437305Y-113143593D01*
X131419615Y-113252042D01*
X131363943Y-113346777D01*
X131277808Y-113415004D01*
X131172843Y-113447508D01*
X131138385Y-113449500D01*
X130059336Y-113449500D01*
X129951325Y-113429309D01*
X129869653Y-113381631D01*
X129807905Y-113330956D01*
X129736450Y-113272315D01*
X129736448Y-113272314D01*
X129736447Y-113272313D01*
X129721717Y-113264439D01*
X129635979Y-113195715D01*
X129580856Y-113100659D01*
X129563794Y-112992110D01*
X129587096Y-112884727D01*
X129647617Y-112793013D01*
X129680663Y-112763525D01*
X129687108Y-112758579D01*
X129728148Y-112732121D01*
X129736450Y-112727685D01*
X129896410Y-112596410D01*
X129939527Y-112543872D01*
X130027683Y-112436453D01*
X130027683Y-112436452D01*
X130027685Y-112436450D01*
X130125232Y-112253954D01*
X130185300Y-112055934D01*
X130185300Y-112055925D01*
X130187080Y-112046982D01*
X130204100Y-111990868D01*
X130208606Y-111979993D01*
X130269693Y-111752014D01*
X130300500Y-111518011D01*
X130300500Y-111281989D01*
X130269693Y-111047986D01*
X130208606Y-110820007D01*
X130118284Y-110601951D01*
X130088002Y-110549501D01*
X130076804Y-110530105D01*
X130072051Y-110521553D01*
X130027686Y-110438552D01*
X130019526Y-110426340D01*
X130019640Y-110426263D01*
X130002810Y-110401944D01*
X130000274Y-110397551D01*
X130000266Y-110397540D01*
X129856599Y-110210310D01*
X129856598Y-110210309D01*
X129856592Y-110210301D01*
X129689699Y-110043408D01*
X129689696Y-110043405D01*
X129689692Y-110043402D01*
X129502450Y-109899727D01*
X129298051Y-109781717D01*
X129269021Y-109769692D01*
X129079993Y-109691394D01*
X128852014Y-109630307D01*
X128757249Y-109617831D01*
X128618013Y-109599500D01*
X128618011Y-109599500D01*
X128381989Y-109599500D01*
X128381987Y-109599500D01*
X128231524Y-109619309D01*
X128147986Y-109630307D01*
X127920007Y-109691394D01*
X127920005Y-109691394D01*
X127920004Y-109691395D01*
X127701948Y-109781717D01*
X127497549Y-109899727D01*
X127310307Y-110043402D01*
X127310295Y-110043413D01*
X127143413Y-110210295D01*
X127143402Y-110210307D01*
X126999727Y-110397549D01*
X126999717Y-110397564D01*
X126997175Y-110401968D01*
X126980356Y-110426269D01*
X126980470Y-110426345D01*
X126972312Y-110438553D01*
X126927936Y-110521574D01*
X126923185Y-110530123D01*
X126881719Y-110601944D01*
X126791394Y-110820005D01*
X126783423Y-110849755D01*
X126735963Y-110948860D01*
X126655907Y-111024127D01*
X126554068Y-111065393D01*
X126444199Y-111067083D01*
X126341138Y-111028970D01*
X126258805Y-110956201D01*
X126211477Y-110868466D01*
X126208608Y-110860016D01*
X126208606Y-110860007D01*
X126118284Y-110641951D01*
X126000273Y-110437550D01*
X125920320Y-110333353D01*
X125856597Y-110250307D01*
X125856594Y-110250304D01*
X125856592Y-110250301D01*
X125689699Y-110083408D01*
X125689696Y-110083405D01*
X125689692Y-110083402D01*
X125502450Y-109939727D01*
X125298051Y-109821717D01*
X125266399Y-109808606D01*
X125079993Y-109731394D01*
X124852014Y-109670307D01*
X124763774Y-109658690D01*
X124618013Y-109639500D01*
X124618011Y-109639500D01*
X124381989Y-109639500D01*
X124381987Y-109639500D01*
X124158369Y-109668940D01*
X124147986Y-109670307D01*
X123920007Y-109731394D01*
X123920005Y-109731394D01*
X123920004Y-109731395D01*
X123701948Y-109821717D01*
X123497549Y-109939727D01*
X123310307Y-110083402D01*
X123310295Y-110083413D01*
X123143413Y-110250295D01*
X123143402Y-110250307D01*
X122999727Y-110437549D01*
X122881717Y-110641948D01*
X122795641Y-110849755D01*
X122791394Y-110860007D01*
X122747418Y-111024127D01*
X122730307Y-111087986D01*
X122699506Y-111321945D01*
X122699500Y-111321989D01*
X122699500Y-112358011D01*
X122730307Y-112592014D01*
X122791394Y-112819993D01*
X122862688Y-112992110D01*
X122881717Y-113038051D01*
X122999727Y-113242450D01*
X123143402Y-113429692D01*
X123143405Y-113429696D01*
X123143408Y-113429699D01*
X123310301Y-113596592D01*
X123310304Y-113596594D01*
X123310307Y-113596597D01*
X123375792Y-113646845D01*
X123497550Y-113740273D01*
X123701951Y-113858284D01*
X123920007Y-113948606D01*
X124147986Y-114009693D01*
X124333215Y-114034078D01*
X124381987Y-114040500D01*
X124381989Y-114040500D01*
X124618013Y-114040500D01*
X124656401Y-114035445D01*
X124852014Y-114009693D01*
X124867151Y-114005637D01*
X124976708Y-113997182D01*
X125081920Y-114028875D01*
X125155969Y-114083022D01*
X126414937Y-115341990D01*
X126414944Y-115341998D01*
X126422447Y-115349501D01*
X126550499Y-115477553D01*
X126627512Y-115533506D01*
X126665975Y-115561451D01*
X126665977Y-115561452D01*
X126696998Y-115583991D01*
X126697000Y-115583991D01*
X126697006Y-115583996D01*
X126858361Y-115666211D01*
X127030591Y-115722171D01*
X127042028Y-115723982D01*
X127145547Y-115760818D01*
X127184937Y-115788169D01*
X127263550Y-115852685D01*
X127446046Y-115950232D01*
X127545591Y-115980428D01*
X127643087Y-116031101D01*
X127715697Y-116113575D01*
X127753610Y-116216709D01*
X127751707Y-116326574D01*
X127710245Y-116428334D01*
X127634823Y-116508244D01*
X127545592Y-116552676D01*
X127471238Y-116575231D01*
X127471235Y-116575233D01*
X127288827Y-116672732D01*
X127128946Y-116803944D01*
X127128944Y-116803946D01*
X126997732Y-116963827D01*
X126900233Y-117146235D01*
X126900232Y-117146235D01*
X126840192Y-117344163D01*
X126825000Y-117498408D01*
X126825000Y-117550000D01*
X130175000Y-117550000D01*
X130175000Y-117498408D01*
X130159807Y-117344163D01*
X130099767Y-117146235D01*
X130002267Y-116963827D01*
X129871055Y-116803946D01*
X129871053Y-116803944D01*
X129711172Y-116672732D01*
X129528766Y-116575234D01*
X129454408Y-116552677D01*
X129356909Y-116502000D01*
X129284300Y-116419526D01*
X129246388Y-116316391D01*
X129248292Y-116206525D01*
X129289756Y-116104766D01*
X129365180Y-116024858D01*
X129454407Y-115980428D01*
X129553954Y-115950232D01*
X129736450Y-115852685D01*
X129778267Y-115818366D01*
X129874568Y-115765455D01*
X129967947Y-115750500D01*
X131179807Y-115750500D01*
X131287818Y-115770691D01*
X131381242Y-115828536D01*
X131447461Y-115916224D01*
X131477532Y-116021912D01*
X131467393Y-116131325D01*
X131456050Y-116163912D01*
X131391394Y-116320007D01*
X131377579Y-116371564D01*
X131330307Y-116547986D01*
X131299500Y-116781986D01*
X131299500Y-117018013D01*
X131307069Y-117075501D01*
X131320685Y-117178931D01*
X131330308Y-117252019D01*
X131330754Y-117254261D01*
X131330768Y-117255516D01*
X131331585Y-117261718D01*
X131330841Y-117261815D01*
X131332024Y-117364136D01*
X131293517Y-117467050D01*
X131248925Y-117524020D01*
X130510397Y-118262547D01*
X130419744Y-118324645D01*
X130312781Y-118349803D01*
X130298850Y-118347859D01*
X130298850Y-118350000D01*
X126825000Y-118350000D01*
X126825000Y-118401592D01*
X126840192Y-118555836D01*
X126900232Y-118753764D01*
X126997732Y-118936172D01*
X127128944Y-119096053D01*
X127132177Y-119099286D01*
X127135103Y-119103558D01*
X127138263Y-119107408D01*
X127137928Y-119107682D01*
X127194275Y-119189939D01*
X127219433Y-119296902D01*
X127204252Y-119405731D01*
X127150783Y-119501726D01*
X127145561Y-119507846D01*
X127143406Y-119510303D01*
X126999727Y-119697549D01*
X126881717Y-119901948D01*
X126810802Y-120073153D01*
X126791394Y-120120007D01*
X126747568Y-120283567D01*
X126730307Y-120347986D01*
X126699500Y-120581986D01*
X126699500Y-120701955D01*
X126679309Y-120809966D01*
X126621464Y-120903390D01*
X126533776Y-120969609D01*
X126428088Y-120999680D01*
X126318675Y-120989541D01*
X126220312Y-120940562D01*
X126146285Y-120859358D01*
X126124262Y-120816381D01*
X126118286Y-120801956D01*
X126118284Y-120801951D01*
X126090827Y-120754394D01*
X126000273Y-120597550D01*
X125911328Y-120481634D01*
X125856597Y-120410307D01*
X125856594Y-120410304D01*
X125856592Y-120410301D01*
X125689699Y-120243408D01*
X125689696Y-120243405D01*
X125689692Y-120243402D01*
X125502450Y-120099727D01*
X125298051Y-119981717D01*
X125264953Y-119968007D01*
X125079993Y-119891394D01*
X124852014Y-119830307D01*
X124700099Y-119810307D01*
X124618013Y-119799500D01*
X124618011Y-119799500D01*
X124381989Y-119799500D01*
X124381987Y-119799500D01*
X124147986Y-119830307D01*
X123920007Y-119891394D01*
X123920005Y-119891394D01*
X123920004Y-119891395D01*
X123701948Y-119981717D01*
X123497549Y-120099727D01*
X123310307Y-120243402D01*
X123310295Y-120243413D01*
X123143413Y-120410295D01*
X123143402Y-120410307D01*
X122999727Y-120597549D01*
X122881717Y-120801948D01*
X122799814Y-120999680D01*
X122791394Y-121020007D01*
X122775975Y-121077553D01*
X122730307Y-121247986D01*
X122699500Y-121481986D01*
X122699500Y-122518013D01*
X122717461Y-122654441D01*
X122730307Y-122752014D01*
X122791394Y-122979993D01*
X122799514Y-122999596D01*
X122881717Y-123198053D01*
X122906474Y-123240932D01*
X122942994Y-123344567D01*
X122939610Y-123454398D01*
X122896779Y-123555589D01*
X122858957Y-123601856D01*
X121008033Y-125452781D01*
X120887714Y-125618386D01*
X120858614Y-125675500D01*
X120794780Y-125800780D01*
X120794779Y-125800782D01*
X120791961Y-125809457D01*
X120731523Y-125995462D01*
X120714492Y-126102994D01*
X120699500Y-126197645D01*
X120699500Y-128702353D01*
X120731523Y-128904537D01*
X120756600Y-128981713D01*
X120756601Y-128981717D01*
X120794776Y-129099210D01*
X120794779Y-129099218D01*
X120804355Y-129118011D01*
X120830110Y-129168558D01*
X120887713Y-129281611D01*
X121008034Y-129447219D01*
X122937112Y-131376297D01*
X122989381Y-131446773D01*
X123037315Y-131536450D01*
X123060866Y-131565147D01*
X123113781Y-131661450D01*
X123128333Y-131770364D01*
X123102559Y-131877181D01*
X123039939Y-131967473D01*
X122948929Y-132029048D01*
X122841822Y-132053588D01*
X122756681Y-132044769D01*
X122617487Y-132009696D01*
X122617482Y-132009695D01*
X122487953Y-131999501D01*
X122487940Y-131999500D01*
X122487933Y-131999500D01*
X122487921Y-131999500D01*
X121512062Y-131999500D01*
X121382522Y-132009694D01*
X121382512Y-132009696D01*
X121168611Y-132063594D01*
X121168610Y-132063595D01*
X121168608Y-132063595D01*
X121168607Y-132063596D01*
X121118522Y-132086345D01*
X120967763Y-132154822D01*
X120967759Y-132154825D01*
X120786431Y-132280450D01*
X120630450Y-132436431D01*
X120504825Y-132617759D01*
X120504822Y-132617763D01*
X120438334Y-132764145D01*
X120428886Y-132784946D01*
X120413595Y-132818610D01*
X120413594Y-132818611D01*
X120359695Y-133032518D01*
X120356434Y-133073957D01*
X120327832Y-133180052D01*
X120262835Y-133268649D01*
X120170223Y-133327785D01*
X120062502Y-133349471D01*
X120058356Y-133349500D01*
X119935037Y-133349500D01*
X119827026Y-133329309D01*
X119733602Y-133271464D01*
X119667383Y-133183776D01*
X119650671Y-133142896D01*
X119609581Y-133016433D01*
X119609579Y-133016430D01*
X119609579Y-133016428D01*
X119491634Y-132784949D01*
X119338931Y-132574771D01*
X119155229Y-132391069D01*
X119115893Y-132362490D01*
X118945054Y-132238368D01*
X118945053Y-132238367D01*
X118945051Y-132238366D01*
X118713572Y-132120421D01*
X118713571Y-132120420D01*
X118713566Y-132120418D01*
X118466493Y-132040140D01*
X118209900Y-131999500D01*
X118209897Y-131999500D01*
X117950103Y-131999500D01*
X117950099Y-131999500D01*
X117693506Y-132040140D01*
X117446433Y-132120418D01*
X117378049Y-132155262D01*
X117214949Y-132238366D01*
X117214946Y-132238367D01*
X117214946Y-132238368D01*
X117214938Y-132238372D01*
X117016758Y-132382359D01*
X116917508Y-132429512D01*
X116807925Y-132437627D01*
X116702812Y-132405608D01*
X116616362Y-132337780D01*
X116572990Y-132268091D01*
X116571544Y-132268829D01*
X116566212Y-132258365D01*
X116566211Y-132258361D01*
X116483996Y-132097006D01*
X116450207Y-132050499D01*
X116450207Y-132050498D01*
X116377553Y-131950499D01*
X116242005Y-131814951D01*
X116241990Y-131814937D01*
X115347575Y-130920522D01*
X115285477Y-130829869D01*
X115275452Y-130787247D01*
X116060000Y-130787247D01*
X116072753Y-130800000D01*
X116177979Y-130800000D01*
X116411916Y-130769200D01*
X116639836Y-130708128D01*
X116857822Y-130617837D01*
X116857834Y-130617831D01*
X117062172Y-130499855D01*
X117249362Y-130356220D01*
X117249374Y-130356209D01*
X117416209Y-130189374D01*
X117416220Y-130189362D01*
X117559855Y-130002172D01*
X117677831Y-129797834D01*
X117677837Y-129797821D01*
X117768128Y-129579839D01*
X117816316Y-129400000D01*
X116060000Y-129400000D01*
X116060000Y-130787247D01*
X115275452Y-130787247D01*
X115260319Y-130722906D01*
X115260000Y-130709097D01*
X115260000Y-129400000D01*
X113950611Y-129400000D01*
X113842600Y-129379809D01*
X113756433Y-129328368D01*
X113749507Y-129322453D01*
X113749501Y-129322447D01*
X113602994Y-129216004D01*
X113602987Y-129216000D01*
X113524000Y-129175754D01*
X113523998Y-129175753D01*
X113441639Y-129133789D01*
X113269409Y-129077829D01*
X113189263Y-129065134D01*
X113189258Y-129065133D01*
X113090546Y-129049499D01*
X112909454Y-129049499D01*
X112897114Y-129049499D01*
X112897090Y-129049500D01*
X107984769Y-129049500D01*
X107876758Y-129029309D01*
X107783334Y-128971464D01*
X107765116Y-128947339D01*
X115260000Y-128947339D01*
X115260000Y-129052661D01*
X115287259Y-129154394D01*
X115339920Y-129245606D01*
X115414394Y-129320080D01*
X115505606Y-129372741D01*
X115607339Y-129400000D01*
X115712661Y-129400000D01*
X115814394Y-129372741D01*
X115905606Y-129320080D01*
X115980080Y-129245606D01*
X116032741Y-129154394D01*
X116060000Y-129052661D01*
X116060000Y-128947339D01*
X116032741Y-128845606D01*
X115980080Y-128754394D01*
X115905606Y-128679920D01*
X115814394Y-128627259D01*
X115712661Y-128600000D01*
X116060000Y-128600000D01*
X117816316Y-128600000D01*
X117768128Y-128420160D01*
X117677837Y-128202178D01*
X117677831Y-128202165D01*
X117559855Y-127997827D01*
X117416220Y-127810637D01*
X117416209Y-127810625D01*
X117249374Y-127643790D01*
X117249362Y-127643779D01*
X117062172Y-127500144D01*
X116857834Y-127382168D01*
X116857822Y-127382162D01*
X116639836Y-127291871D01*
X116411916Y-127230799D01*
X116177979Y-127200000D01*
X116060000Y-127200000D01*
X116060000Y-128600000D01*
X115712661Y-128600000D01*
X115607339Y-128600000D01*
X115505606Y-128627259D01*
X115414394Y-128679920D01*
X115339920Y-128754394D01*
X115287259Y-128845606D01*
X115260000Y-128947339D01*
X107765116Y-128947339D01*
X107717115Y-128883776D01*
X107688327Y-128789527D01*
X107684447Y-128760057D01*
X107669693Y-128647986D01*
X107641877Y-128544175D01*
X113518641Y-128544175D01*
X113687569Y-128600000D01*
X115260000Y-128600000D01*
X115260000Y-127200000D01*
X115142021Y-127200000D01*
X114908083Y-127230799D01*
X114680163Y-127291871D01*
X114462177Y-127382162D01*
X114462165Y-127382168D01*
X114257827Y-127500144D01*
X114070637Y-127643779D01*
X114070625Y-127643790D01*
X113903790Y-127810625D01*
X113903779Y-127810637D01*
X113760144Y-127997827D01*
X113642168Y-128202165D01*
X113642162Y-128202178D01*
X113551871Y-128420160D01*
X113518641Y-128544175D01*
X107641877Y-128544175D01*
X107608606Y-128420007D01*
X107518284Y-128201951D01*
X107400273Y-127997550D01*
X107343710Y-127923835D01*
X107256597Y-127810307D01*
X107256594Y-127810304D01*
X107256592Y-127810301D01*
X107089699Y-127643408D01*
X107089696Y-127643405D01*
X107089692Y-127643402D01*
X106902450Y-127499727D01*
X106698051Y-127381717D01*
X106678731Y-127373714D01*
X106479993Y-127291394D01*
X106252014Y-127230307D01*
X106174013Y-127220038D01*
X106018013Y-127199500D01*
X106018011Y-127199500D01*
X104981989Y-127199500D01*
X104981987Y-127199500D01*
X104747986Y-127230307D01*
X104520007Y-127291394D01*
X104520005Y-127291394D01*
X104520004Y-127291395D01*
X104301944Y-127381718D01*
X104298984Y-127383428D01*
X104297215Y-127384051D01*
X104293170Y-127386046D01*
X104292930Y-127385560D01*
X104195346Y-127419941D01*
X104085516Y-127416551D01*
X103984327Y-127373714D01*
X103905446Y-127297216D01*
X103859526Y-127197389D01*
X103850500Y-127124477D01*
X103850500Y-121500401D01*
X103870691Y-121392390D01*
X103928536Y-121298966D01*
X103938054Y-121288997D01*
X108851618Y-116375432D01*
X113799500Y-116375432D01*
X113799500Y-116624567D01*
X113816685Y-116755097D01*
X113832018Y-116871565D01*
X113896498Y-117112207D01*
X113991836Y-117342373D01*
X114116401Y-117558127D01*
X114268062Y-117755776D01*
X114444224Y-117931938D01*
X114641873Y-118083599D01*
X114857627Y-118208164D01*
X115087793Y-118303502D01*
X115328435Y-118367982D01*
X115523952Y-118393722D01*
X115575433Y-118400500D01*
X115575435Y-118400500D01*
X116424567Y-118400500D01*
X116471188Y-118394361D01*
X116671565Y-118367982D01*
X116912207Y-118303502D01*
X117142373Y-118208164D01*
X117358127Y-118083599D01*
X117555776Y-117931938D01*
X117731938Y-117755776D01*
X117883599Y-117558127D01*
X118008164Y-117342373D01*
X118103502Y-117112207D01*
X118167982Y-116871565D01*
X118200500Y-116624565D01*
X118200500Y-116375435D01*
X118199990Y-116371564D01*
X118179603Y-116216709D01*
X118167982Y-116128435D01*
X118103502Y-115887793D01*
X118008164Y-115657627D01*
X117883599Y-115441873D01*
X117731938Y-115244224D01*
X117555776Y-115068062D01*
X117358127Y-114916401D01*
X117142373Y-114791836D01*
X116912207Y-114696498D01*
X116671565Y-114632018D01*
X116589231Y-114621178D01*
X116424567Y-114599500D01*
X116424565Y-114599500D01*
X115575435Y-114599500D01*
X115575433Y-114599500D01*
X115328435Y-114632018D01*
X115087793Y-114696498D01*
X115087791Y-114696498D01*
X115087790Y-114696499D01*
X114857624Y-114791837D01*
X114641871Y-114916402D01*
X114444223Y-115068062D01*
X114268062Y-115244223D01*
X114116402Y-115441871D01*
X113991837Y-115657624D01*
X113911041Y-115852684D01*
X113896498Y-115887793D01*
X113839114Y-116101951D01*
X113832018Y-116128435D01*
X113799500Y-116375432D01*
X108851618Y-116375432D01*
X113365527Y-111861523D01*
X113456177Y-111799428D01*
X113563140Y-111774270D01*
X113671969Y-111789451D01*
X113767964Y-111842920D01*
X113838162Y-111927456D01*
X113865761Y-111995563D01*
X113896974Y-112112052D01*
X113992286Y-112342154D01*
X114116816Y-112557845D01*
X114268439Y-112755445D01*
X114444554Y-112931560D01*
X114642154Y-113083183D01*
X114857845Y-113207713D01*
X115087949Y-113303026D01*
X115328534Y-113367490D01*
X115575465Y-113400000D01*
X115600000Y-113400000D01*
X116400000Y-113400000D01*
X116424535Y-113400000D01*
X116671465Y-113367490D01*
X116912050Y-113303026D01*
X117142154Y-113207713D01*
X117357845Y-113083183D01*
X117555445Y-112931560D01*
X117731560Y-112755445D01*
X117883183Y-112557845D01*
X118007713Y-112342154D01*
X118103025Y-112112052D01*
X118159845Y-111900000D01*
X116400000Y-111900000D01*
X116400000Y-113400000D01*
X115600000Y-113400000D01*
X115600000Y-111552661D01*
X115627259Y-111654394D01*
X115679920Y-111745606D01*
X115754394Y-111820080D01*
X115845606Y-111872741D01*
X115947339Y-111900000D01*
X116052661Y-111900000D01*
X116154394Y-111872741D01*
X116245606Y-111820080D01*
X116320080Y-111745606D01*
X116372741Y-111654394D01*
X116400000Y-111552661D01*
X116400000Y-111447339D01*
X116372741Y-111345606D01*
X116320080Y-111254394D01*
X116245606Y-111179920D01*
X116154394Y-111127259D01*
X116052661Y-111100000D01*
X116400000Y-111100000D01*
X118159845Y-111100000D01*
X118103025Y-110887947D01*
X118007713Y-110657845D01*
X117883183Y-110442154D01*
X117731560Y-110244554D01*
X117555445Y-110068439D01*
X117357845Y-109916816D01*
X117142154Y-109792286D01*
X116912050Y-109696973D01*
X116671465Y-109632509D01*
X116424535Y-109600000D01*
X116400000Y-109600000D01*
X116400000Y-111100000D01*
X116052661Y-111100000D01*
X115947339Y-111100000D01*
X115845606Y-111127259D01*
X115754394Y-111179920D01*
X115679920Y-111254394D01*
X115627259Y-111345606D01*
X115600000Y-111447339D01*
X115600000Y-109600000D01*
X115575465Y-109600000D01*
X115328529Y-109632509D01*
X115328528Y-109632509D01*
X115326875Y-109632953D01*
X115325938Y-109633025D01*
X115318931Y-109634419D01*
X115318763Y-109633578D01*
X115217318Y-109641401D01*
X115112107Y-109609702D01*
X115025452Y-109542137D01*
X114969056Y-109447831D01*
X114950500Y-109344138D01*
X114950500Y-108400000D01*
X119003684Y-108400000D01*
X119051871Y-108579839D01*
X119142162Y-108797821D01*
X119142168Y-108797834D01*
X119260144Y-109002172D01*
X119403779Y-109189362D01*
X119403790Y-109189374D01*
X119570625Y-109356209D01*
X119570637Y-109356220D01*
X119757827Y-109499855D01*
X119962165Y-109617831D01*
X119962177Y-109617837D01*
X120180163Y-109708128D01*
X120408083Y-109769200D01*
X120642021Y-109800000D01*
X120760000Y-109800000D01*
X121560000Y-109800000D01*
X121677979Y-109800000D01*
X121911916Y-109769200D01*
X122139836Y-109708128D01*
X122357822Y-109617837D01*
X122357834Y-109617831D01*
X122562172Y-109499855D01*
X122749362Y-109356220D01*
X122749374Y-109356209D01*
X122916209Y-109189374D01*
X122916220Y-109189362D01*
X123059855Y-109002172D01*
X123177831Y-108797834D01*
X123177837Y-108797821D01*
X123268128Y-108579839D01*
X123316316Y-108400000D01*
X121560000Y-108400000D01*
X121560000Y-109800000D01*
X120760000Y-109800000D01*
X120760000Y-108400000D01*
X119003684Y-108400000D01*
X114950500Y-108400000D01*
X114950500Y-108100403D01*
X114970691Y-107992392D01*
X115028536Y-107898968D01*
X115038075Y-107888978D01*
X116780560Y-106146493D01*
X118536355Y-104390697D01*
X118627005Y-104328602D01*
X118733968Y-104303444D01*
X118842797Y-104318625D01*
G37*
%TD.AperFunction*%
%TA.AperFunction,Conductor*%
G36*
X134111401Y-118514375D02*
G01*
X134206137Y-118570047D01*
X134274363Y-118656182D01*
X134305179Y-118748829D01*
X134320630Y-118846379D01*
X134400881Y-119093372D01*
X134400882Y-119093373D01*
X134518796Y-119324790D01*
X134518800Y-119324798D01*
X134671448Y-119534901D01*
X134671898Y-119535427D01*
X134672153Y-119535870D01*
X134678356Y-119544408D01*
X134677445Y-119545069D01*
X134726693Y-119630672D01*
X134743382Y-119739279D01*
X134719710Y-119846581D01*
X134677428Y-119914870D01*
X134677974Y-119915267D01*
X134672620Y-119922635D01*
X134671905Y-119923791D01*
X134671074Y-119924763D01*
X134518368Y-120134945D01*
X134518368Y-120134946D01*
X134518366Y-120134949D01*
X134485016Y-120200402D01*
X134400418Y-120366433D01*
X134320140Y-120613506D01*
X134279500Y-120870099D01*
X134279500Y-121129900D01*
X134320140Y-121386493D01*
X134320141Y-121386498D01*
X134374901Y-121555033D01*
X134389076Y-121663997D01*
X134362930Y-121770724D01*
X134301960Y-121858853D01*
X132938034Y-123222779D01*
X132847381Y-123284877D01*
X132740418Y-123310035D01*
X132687582Y-123307796D01*
X132624567Y-123299500D01*
X132624565Y-123299500D01*
X132375435Y-123299500D01*
X132375431Y-123299500D01*
X132288527Y-123310941D01*
X132178804Y-123305021D01*
X132078629Y-123259864D01*
X132001532Y-123181570D01*
X131957923Y-123080711D01*
X131950500Y-123014499D01*
X131950500Y-120200402D01*
X131970691Y-120092391D01*
X132028536Y-119998967D01*
X132038055Y-119988997D01*
X133271241Y-118755810D01*
X133361891Y-118693715D01*
X133443641Y-118670795D01*
X133452014Y-118669693D01*
X133679993Y-118608606D01*
X133895441Y-118519364D01*
X134002953Y-118496685D01*
X134111401Y-118514375D01*
G37*
%TD.AperFunction*%
%TA.AperFunction,Conductor*%
G36*
X170542993Y-100820691D02*
G01*
X170636417Y-100878536D01*
X170702636Y-100966224D01*
X170732707Y-101071912D01*
X170722568Y-101181325D01*
X170673589Y-101279688D01*
X170592385Y-101353715D01*
X170527378Y-101383866D01*
X170476433Y-101400418D01*
X170407829Y-101435374D01*
X170244949Y-101518366D01*
X170244946Y-101518368D01*
X170244945Y-101518368D01*
X170034771Y-101671068D01*
X169851068Y-101854771D01*
X169698368Y-102064945D01*
X169698368Y-102064946D01*
X169698366Y-102064949D01*
X169654004Y-102152014D01*
X169580418Y-102296433D01*
X169500140Y-102543506D01*
X169459500Y-102800099D01*
X169459500Y-103959903D01*
X169498118Y-104203727D01*
X169495072Y-104313567D01*
X169452553Y-104414889D01*
X169376304Y-104494010D01*
X169276621Y-104540243D01*
X169202799Y-104549500D01*
X165502910Y-104549500D01*
X165502886Y-104549499D01*
X165490546Y-104549499D01*
X165309453Y-104549499D01*
X165210085Y-104565237D01*
X165130587Y-104577829D01*
X164958370Y-104633785D01*
X164958366Y-104633787D01*
X164958363Y-104633788D01*
X164958361Y-104633789D01*
X164797006Y-104716004D01*
X164706769Y-104781564D01*
X164650497Y-104822448D01*
X164650493Y-104822452D01*
X164586249Y-104886697D01*
X164522447Y-104950499D01*
X164522444Y-104950502D01*
X163840122Y-105632825D01*
X163236022Y-106236925D01*
X163145369Y-106299023D01*
X163038406Y-106324181D01*
X163024597Y-106324500D01*
X162998388Y-106324500D01*
X162844063Y-106339700D01*
X162646051Y-106399766D01*
X162646039Y-106399771D01*
X162463547Y-106497316D01*
X162463546Y-106497316D01*
X162303594Y-106628585D01*
X162303585Y-106628594D01*
X162172316Y-106788546D01*
X162172316Y-106788547D01*
X162074771Y-106971039D01*
X162074766Y-106971051D01*
X162014700Y-107169063D01*
X161999500Y-107323388D01*
X161999500Y-108676611D01*
X162014700Y-108830936D01*
X162066644Y-109002172D01*
X162074768Y-109028954D01*
X162074770Y-109028958D01*
X162074771Y-109028960D01*
X162172314Y-109211449D01*
X162284023Y-109347568D01*
X162336936Y-109443871D01*
X162351488Y-109552786D01*
X162325713Y-109659602D01*
X162273241Y-109735743D01*
X162274895Y-109737194D01*
X162268439Y-109744554D01*
X162116816Y-109942154D01*
X161992286Y-110157845D01*
X161896974Y-110387947D01*
X161840155Y-110600000D01*
X163947339Y-110600000D01*
X163845606Y-110627259D01*
X163754394Y-110679920D01*
X163679920Y-110754394D01*
X163627259Y-110845606D01*
X163600000Y-110947339D01*
X163600000Y-111052661D01*
X163627259Y-111154394D01*
X163679920Y-111245606D01*
X163754394Y-111320080D01*
X163845606Y-111372741D01*
X163947339Y-111400000D01*
X164052661Y-111400000D01*
X164154394Y-111372741D01*
X164245606Y-111320080D01*
X164320080Y-111245606D01*
X164372741Y-111154394D01*
X164400000Y-111052661D01*
X164400000Y-110947339D01*
X164372741Y-110845606D01*
X164320080Y-110754394D01*
X164245606Y-110679920D01*
X164154394Y-110627259D01*
X164052661Y-110600000D01*
X166159845Y-110600000D01*
X166103025Y-110387947D01*
X166065800Y-110298079D01*
X166043119Y-110190563D01*
X166060809Y-110082114D01*
X166116481Y-109987379D01*
X166202615Y-109919152D01*
X166307580Y-109886647D01*
X166381063Y-109887212D01*
X166461983Y-109897866D01*
X166481988Y-109900500D01*
X166481989Y-109900500D01*
X166718013Y-109900500D01*
X166762181Y-109894684D01*
X166952014Y-109869693D01*
X167179993Y-109808606D01*
X167398049Y-109718284D01*
X167602450Y-109600273D01*
X167789699Y-109456592D01*
X167956592Y-109289699D01*
X168100273Y-109102450D01*
X168218284Y-108898049D01*
X168308606Y-108679993D01*
X168369693Y-108452014D01*
X168395966Y-108252447D01*
X168400500Y-108218013D01*
X168400500Y-107981986D01*
X168387334Y-107881986D01*
X168369693Y-107747986D01*
X168308606Y-107520007D01*
X168218284Y-107301951D01*
X168216581Y-107299001D01*
X168215958Y-107297235D01*
X168213954Y-107293170D01*
X168214441Y-107292929D01*
X168180061Y-107195365D01*
X168183444Y-107085535D01*
X168226274Y-106984344D01*
X168302767Y-106905458D01*
X168402591Y-106859531D01*
X168475522Y-106850500D01*
X168899597Y-106850500D01*
X169007608Y-106870691D01*
X169101032Y-106928536D01*
X169111022Y-106938075D01*
X176412022Y-114239075D01*
X176474120Y-114329728D01*
X176499278Y-114436691D01*
X176484097Y-114545520D01*
X176430628Y-114641515D01*
X176346092Y-114711713D01*
X176241906Y-114746633D01*
X176200597Y-114749500D01*
X170002910Y-114749500D01*
X170002886Y-114749499D01*
X169990546Y-114749499D01*
X169809453Y-114749499D01*
X169710085Y-114765237D01*
X169630587Y-114777829D01*
X169458370Y-114833785D01*
X169458366Y-114833787D01*
X169458363Y-114833788D01*
X169458361Y-114833789D01*
X169297006Y-114916004D01*
X169206769Y-114981564D01*
X169150497Y-115022448D01*
X169150493Y-115022452D01*
X169022444Y-115150502D01*
X163684457Y-120488488D01*
X163593804Y-120550586D01*
X163486841Y-120575744D01*
X163378012Y-120560563D01*
X163282017Y-120507094D01*
X163211819Y-120422558D01*
X163196792Y-120391486D01*
X163193109Y-120382595D01*
X163118284Y-120201951D01*
X163000273Y-119997550D01*
X162937135Y-119915267D01*
X162856597Y-119810307D01*
X162856594Y-119810304D01*
X162856592Y-119810301D01*
X162689699Y-119643408D01*
X162689696Y-119643405D01*
X162689692Y-119643402D01*
X162502450Y-119499727D01*
X162298051Y-119381717D01*
X162287999Y-119377553D01*
X162079993Y-119291394D01*
X161852014Y-119230307D01*
X161743372Y-119216004D01*
X161618013Y-119199500D01*
X161618011Y-119199500D01*
X161450403Y-119199500D01*
X161342392Y-119179309D01*
X161248968Y-119121464D01*
X161238978Y-119111925D01*
X160587999Y-118460946D01*
X160587995Y-118460941D01*
X160449502Y-118322448D01*
X160449501Y-118322447D01*
X160302994Y-118216004D01*
X160141639Y-118133789D01*
X160141633Y-118133787D01*
X160141632Y-118133786D01*
X159969420Y-118077831D01*
X159969405Y-118077828D01*
X159967648Y-118077550D01*
X159967647Y-118077549D01*
X159849969Y-118058911D01*
X159790546Y-118049499D01*
X159609454Y-118049499D01*
X159597114Y-118049499D01*
X159597090Y-118049500D01*
X154302911Y-118049500D01*
X154302887Y-118049499D01*
X154290547Y-118049499D01*
X154109454Y-118049499D01*
X154109450Y-118049499D01*
X153935889Y-118076988D01*
X153935883Y-118076989D01*
X153930591Y-118077828D01*
X153759258Y-118133497D01*
X153758944Y-118133598D01*
X153758369Y-118133785D01*
X153758367Y-118133786D01*
X153597002Y-118216006D01*
X153491173Y-118292896D01*
X153391923Y-118340049D01*
X153315426Y-118350000D01*
X152299000Y-118350000D01*
X152190989Y-118329809D01*
X152097565Y-118271964D01*
X152031346Y-118184276D01*
X152001275Y-118078588D01*
X152000000Y-118051000D01*
X152000000Y-117849000D01*
X152020191Y-117740989D01*
X152078036Y-117647565D01*
X152165724Y-117581346D01*
X152271412Y-117551275D01*
X152299000Y-117550000D01*
X153620601Y-117550000D01*
X153675000Y-117532596D01*
X153675000Y-117498408D01*
X153659807Y-117344163D01*
X153599767Y-117146235D01*
X153502267Y-116963827D01*
X153371055Y-116803946D01*
X153371053Y-116803944D01*
X153211172Y-116672732D01*
X153028766Y-116575234D01*
X152954408Y-116552677D01*
X152856909Y-116502000D01*
X152784300Y-116419526D01*
X152746388Y-116316391D01*
X152748292Y-116206525D01*
X152789756Y-116104766D01*
X152865180Y-116024858D01*
X152954407Y-115980428D01*
X153053954Y-115950232D01*
X153193894Y-115875432D01*
X161799500Y-115875432D01*
X161799500Y-116124567D01*
X161810290Y-116206525D01*
X161832018Y-116371565D01*
X161896498Y-116612207D01*
X161991836Y-116842373D01*
X162116401Y-117058127D01*
X162268062Y-117255776D01*
X162444224Y-117431938D01*
X162641873Y-117583599D01*
X162857627Y-117708164D01*
X163087793Y-117803502D01*
X163328435Y-117867982D01*
X163523952Y-117893722D01*
X163575433Y-117900500D01*
X163575435Y-117900500D01*
X164424567Y-117900500D01*
X164471188Y-117894361D01*
X164671565Y-117867982D01*
X164912207Y-117803502D01*
X165142373Y-117708164D01*
X165358127Y-117583599D01*
X165555776Y-117431938D01*
X165731938Y-117255776D01*
X165883599Y-117058127D01*
X166008164Y-116842373D01*
X166103502Y-116612207D01*
X166167982Y-116371565D01*
X166200500Y-116124565D01*
X166200500Y-115875435D01*
X166167982Y-115628435D01*
X166103502Y-115387793D01*
X166008164Y-115157627D01*
X165883599Y-114941873D01*
X165731938Y-114744224D01*
X165555776Y-114568062D01*
X165358127Y-114416401D01*
X165200183Y-114325213D01*
X165142375Y-114291837D01*
X165014997Y-114239075D01*
X164912207Y-114196498D01*
X164671565Y-114132018D01*
X164589231Y-114121178D01*
X164424567Y-114099500D01*
X164424565Y-114099500D01*
X163575435Y-114099500D01*
X163575433Y-114099500D01*
X163328435Y-114132018D01*
X163087793Y-114196498D01*
X163087791Y-114196498D01*
X163087790Y-114196499D01*
X162857624Y-114291837D01*
X162641871Y-114416402D01*
X162444223Y-114568062D01*
X162268062Y-114744223D01*
X162116402Y-114941871D01*
X161991837Y-115157624D01*
X161938483Y-115286433D01*
X161896498Y-115387793D01*
X161872447Y-115477553D01*
X161832018Y-115628435D01*
X161799500Y-115875432D01*
X153193894Y-115875432D01*
X153236450Y-115852685D01*
X153315063Y-115788168D01*
X153398471Y-115739824D01*
X153427395Y-115728825D01*
X153469409Y-115722171D01*
X153641639Y-115666211D01*
X153802994Y-115583996D01*
X153834026Y-115561450D01*
X153949501Y-115477553D01*
X154077553Y-115349501D01*
X154077554Y-115349499D01*
X154094589Y-115332464D01*
X154094595Y-115332457D01*
X155344033Y-114083018D01*
X155434683Y-114020923D01*
X155541646Y-113995765D01*
X155632846Y-114005636D01*
X155647986Y-114009693D01*
X155827541Y-114033331D01*
X155881987Y-114040500D01*
X155881989Y-114040500D01*
X156118013Y-114040500D01*
X156162181Y-114034684D01*
X156352014Y-114009693D01*
X156579993Y-113948606D01*
X156798049Y-113858284D01*
X157002450Y-113740273D01*
X157189699Y-113596592D01*
X157356592Y-113429699D01*
X157500273Y-113242450D01*
X157618284Y-113038049D01*
X157708606Y-112819993D01*
X157769693Y-112592014D01*
X157800500Y-112358011D01*
X157800500Y-111400000D01*
X161840155Y-111400000D01*
X161896974Y-111612052D01*
X161992286Y-111842154D01*
X162116816Y-112057845D01*
X162268439Y-112255445D01*
X162444554Y-112431560D01*
X162642154Y-112583183D01*
X162857845Y-112707713D01*
X163087949Y-112803026D01*
X163328534Y-112867490D01*
X163575465Y-112900000D01*
X163600000Y-112900000D01*
X164400000Y-112900000D01*
X164424535Y-112900000D01*
X164671465Y-112867490D01*
X164912050Y-112803026D01*
X165142154Y-112707713D01*
X165357845Y-112583183D01*
X165555445Y-112431560D01*
X165731560Y-112255445D01*
X165883183Y-112057845D01*
X166007713Y-111842154D01*
X166103025Y-111612052D01*
X166159845Y-111400000D01*
X164400000Y-111400000D01*
X164400000Y-112900000D01*
X163600000Y-112900000D01*
X163600000Y-111400000D01*
X161840155Y-111400000D01*
X157800500Y-111400000D01*
X157800500Y-111321989D01*
X157800494Y-111321945D01*
X157781796Y-111179920D01*
X157769693Y-111087986D01*
X157708606Y-110860007D01*
X157618284Y-110641951D01*
X157500273Y-110437550D01*
X157420320Y-110333353D01*
X157356597Y-110250307D01*
X157356594Y-110250304D01*
X157356592Y-110250301D01*
X157189699Y-110083408D01*
X157189696Y-110083405D01*
X157189692Y-110083402D01*
X157002450Y-109939727D01*
X156798051Y-109821717D01*
X156766399Y-109808606D01*
X156579993Y-109731394D01*
X156352014Y-109670307D01*
X156263774Y-109658690D01*
X156118013Y-109639500D01*
X156118011Y-109639500D01*
X155909402Y-109639500D01*
X155801391Y-109619309D01*
X155707967Y-109561464D01*
X155641748Y-109473776D01*
X155611677Y-109368088D01*
X155621816Y-109258675D01*
X155670795Y-109160312D01*
X155697977Y-109129075D01*
X156029231Y-108797821D01*
X156515631Y-108311420D01*
X156606280Y-108249325D01*
X156713244Y-108224167D01*
X156822072Y-108239348D01*
X156918068Y-108292817D01*
X156988266Y-108377353D01*
X157015865Y-108445461D01*
X157051871Y-108579836D01*
X157142162Y-108797822D01*
X157142168Y-108797834D01*
X157260144Y-109002172D01*
X157403779Y-109189362D01*
X157403790Y-109189374D01*
X157570625Y-109356209D01*
X157570637Y-109356220D01*
X157757827Y-109499855D01*
X157962165Y-109617831D01*
X157962177Y-109617837D01*
X158180163Y-109708128D01*
X158408083Y-109769200D01*
X158642021Y-109800000D01*
X158760000Y-109800000D01*
X159560000Y-109800000D01*
X159677979Y-109800000D01*
X159911916Y-109769200D01*
X160139836Y-109708128D01*
X160357822Y-109617837D01*
X160357834Y-109617831D01*
X160562172Y-109499855D01*
X160749362Y-109356220D01*
X160749374Y-109356209D01*
X160916209Y-109189374D01*
X160916220Y-109189362D01*
X161059855Y-109002172D01*
X161177831Y-108797834D01*
X161177837Y-108797821D01*
X161268128Y-108579839D01*
X161316316Y-108400000D01*
X159560000Y-108400000D01*
X159560000Y-109800000D01*
X158760000Y-109800000D01*
X158760000Y-108299000D01*
X158780191Y-108190989D01*
X158794781Y-108167423D01*
X158839920Y-108245606D01*
X158914394Y-108320080D01*
X159005606Y-108372741D01*
X159107339Y-108400000D01*
X159212661Y-108400000D01*
X159314394Y-108372741D01*
X159405606Y-108320080D01*
X159480080Y-108245606D01*
X159532741Y-108154394D01*
X159560000Y-108052661D01*
X159560000Y-107947339D01*
X159532741Y-107845606D01*
X159480080Y-107754394D01*
X159405606Y-107679920D01*
X159323882Y-107632736D01*
X159325724Y-107631346D01*
X159431412Y-107601275D01*
X159459000Y-107600000D01*
X161316316Y-107600000D01*
X161268128Y-107420160D01*
X161177837Y-107202178D01*
X161177831Y-107202165D01*
X161059855Y-106997827D01*
X160916220Y-106810637D01*
X160916209Y-106810625D01*
X160749374Y-106643790D01*
X160749362Y-106643779D01*
X160562172Y-106500144D01*
X160357834Y-106382168D01*
X160357822Y-106382162D01*
X160139838Y-106291871D01*
X160129386Y-106289071D01*
X160030281Y-106241612D01*
X159955013Y-106161557D01*
X159913746Y-106059719D01*
X159912054Y-105949849D01*
X159950166Y-105846788D01*
X160022934Y-105764454D01*
X160120531Y-105713967D01*
X160129359Y-105711455D01*
X160139993Y-105708606D01*
X160358049Y-105618284D01*
X160562450Y-105500273D01*
X160749699Y-105356592D01*
X160916592Y-105189699D01*
X161060273Y-105002450D01*
X161178284Y-104798049D01*
X161268606Y-104579993D01*
X161329693Y-104352014D01*
X161360500Y-104118011D01*
X161360500Y-103881989D01*
X161329693Y-103647986D01*
X161268606Y-103420007D01*
X161178284Y-103201951D01*
X161176581Y-103199001D01*
X161175958Y-103197235D01*
X161173954Y-103193170D01*
X161174441Y-103192929D01*
X161140061Y-103095365D01*
X161143444Y-102985535D01*
X161186274Y-102884344D01*
X161262767Y-102805458D01*
X161362591Y-102759531D01*
X161435522Y-102750500D01*
X162512413Y-102750500D01*
X162620424Y-102770691D01*
X162713848Y-102828536D01*
X162749625Y-102867479D01*
X162843408Y-102989699D01*
X163010301Y-103156592D01*
X163010304Y-103156594D01*
X163010307Y-103156597D01*
X163069410Y-103201948D01*
X163197550Y-103300273D01*
X163401951Y-103418284D01*
X163620007Y-103508606D01*
X163847986Y-103569693D01*
X164033215Y-103594078D01*
X164081987Y-103600500D01*
X164081989Y-103600500D01*
X164318013Y-103600500D01*
X164362181Y-103594684D01*
X164552014Y-103569693D01*
X164779993Y-103508606D01*
X164998049Y-103418284D01*
X165202450Y-103300273D01*
X165389699Y-103156592D01*
X165556592Y-102989699D01*
X165700273Y-102802450D01*
X165818284Y-102598049D01*
X165908606Y-102379993D01*
X165969693Y-102152014D01*
X166000500Y-101918011D01*
X166000500Y-101681989D01*
X165999971Y-101677974D01*
X165985756Y-101570000D01*
X165969693Y-101447986D01*
X165908606Y-101220007D01*
X165908604Y-101220002D01*
X165908603Y-101219998D01*
X165906085Y-101213919D01*
X165883406Y-101106403D01*
X165901098Y-100997954D01*
X165956771Y-100903220D01*
X166042907Y-100834994D01*
X166147872Y-100802492D01*
X166182326Y-100800500D01*
X170434982Y-100800500D01*
X170542993Y-100820691D01*
G37*
%TD.AperFunction*%
%TA.AperFunction,Conductor*%
G36*
X156258607Y-100820691D02*
G01*
X156352031Y-100878536D01*
X156418250Y-100966224D01*
X156448321Y-101071912D01*
X156438182Y-101181325D01*
X156389203Y-101279688D01*
X156362021Y-101310925D01*
X155422446Y-102250499D01*
X155346561Y-102354945D01*
X155346562Y-102354946D01*
X155346560Y-102354949D01*
X155316004Y-102397006D01*
X155233789Y-102558361D01*
X155233788Y-102558363D01*
X155233787Y-102558366D01*
X155233785Y-102558370D01*
X155177829Y-102730588D01*
X155162316Y-102828536D01*
X155156148Y-102867479D01*
X155149499Y-102909456D01*
X155149499Y-103102885D01*
X155149500Y-103102910D01*
X155149500Y-106299597D01*
X155129309Y-106407608D01*
X155071464Y-106501032D01*
X155061925Y-106511022D01*
X151686022Y-109886925D01*
X151595369Y-109949023D01*
X151488406Y-109974181D01*
X151474597Y-109974500D01*
X151298388Y-109974500D01*
X151144063Y-109989700D01*
X150946051Y-110049766D01*
X150946039Y-110049771D01*
X150763547Y-110147316D01*
X150763546Y-110147316D01*
X150592235Y-110287908D01*
X150590212Y-110285443D01*
X150520272Y-110333353D01*
X150413309Y-110358511D01*
X150304480Y-110343330D01*
X150208485Y-110289861D01*
X150138287Y-110205325D01*
X150103367Y-110101139D01*
X150100500Y-110059830D01*
X150100500Y-109847231D01*
X150120691Y-109739220D01*
X150178536Y-109645796D01*
X150249995Y-109588292D01*
X150402450Y-109500273D01*
X150589699Y-109356592D01*
X150756592Y-109189699D01*
X150900273Y-109002450D01*
X151018284Y-108798049D01*
X151108606Y-108579993D01*
X151169693Y-108352014D01*
X151195710Y-108154394D01*
X151200500Y-108118013D01*
X151200500Y-107881986D01*
X151186751Y-107777553D01*
X151169693Y-107647986D01*
X151108606Y-107420007D01*
X151018284Y-107201951D01*
X150900273Y-106997550D01*
X150833325Y-106910301D01*
X150756597Y-106810307D01*
X150756594Y-106810304D01*
X150756592Y-106810301D01*
X150589699Y-106643408D01*
X150589696Y-106643405D01*
X150589692Y-106643402D01*
X150402450Y-106499727D01*
X150198051Y-106381717D01*
X150198049Y-106381716D01*
X149979993Y-106291394D01*
X149970352Y-106288810D01*
X149871252Y-106241356D01*
X149795982Y-106161302D01*
X149754714Y-106059464D01*
X149753020Y-105949595D01*
X149791131Y-105846533D01*
X149863898Y-105764198D01*
X149961494Y-105713709D01*
X149970298Y-105711203D01*
X149979993Y-105708606D01*
X150198049Y-105618284D01*
X150402450Y-105500273D01*
X150589699Y-105356592D01*
X150756592Y-105189699D01*
X150900273Y-105002450D01*
X151018284Y-104798049D01*
X151108606Y-104579993D01*
X151169693Y-104352014D01*
X151200500Y-104118011D01*
X151200500Y-103881989D01*
X151169693Y-103647986D01*
X151108606Y-103420007D01*
X151018284Y-103201951D01*
X150900273Y-102997550D01*
X150800466Y-102867479D01*
X150756597Y-102810307D01*
X150756594Y-102810304D01*
X150756592Y-102810301D01*
X150589699Y-102643408D01*
X150589696Y-102643405D01*
X150589692Y-102643402D01*
X150402450Y-102499727D01*
X150198051Y-102381717D01*
X150134056Y-102355209D01*
X149979993Y-102291394D01*
X149752014Y-102230307D01*
X149674013Y-102220038D01*
X149518013Y-102199500D01*
X149518011Y-102199500D01*
X148481989Y-102199500D01*
X148481987Y-102199500D01*
X148247986Y-102230307D01*
X148020007Y-102291394D01*
X148020005Y-102291394D01*
X148020004Y-102291395D01*
X147801948Y-102381717D01*
X147597549Y-102499727D01*
X147410307Y-102643402D01*
X147410295Y-102643413D01*
X147243413Y-102810295D01*
X147243402Y-102810307D01*
X147099727Y-102997549D01*
X146981717Y-103201948D01*
X146892108Y-103418284D01*
X146891394Y-103420007D01*
X146851286Y-103569692D01*
X146830307Y-103647986D01*
X146801226Y-103868880D01*
X146799500Y-103881989D01*
X146799500Y-104118011D01*
X146830307Y-104352014D01*
X146891394Y-104579993D01*
X146930694Y-104674870D01*
X146981717Y-104798051D01*
X147099727Y-105002450D01*
X147243402Y-105189692D01*
X147243405Y-105189696D01*
X147243408Y-105189699D01*
X147410301Y-105356592D01*
X147410304Y-105356594D01*
X147410307Y-105356597D01*
X147528255Y-105447101D01*
X147597550Y-105500273D01*
X147801951Y-105618284D01*
X148020007Y-105708606D01*
X148029649Y-105711189D01*
X148128751Y-105758647D01*
X148204019Y-105838701D01*
X148245286Y-105940540D01*
X148246978Y-106050409D01*
X148208866Y-106153470D01*
X148136098Y-106235804D01*
X148038502Y-106286292D01*
X148029692Y-106288798D01*
X148022951Y-106290605D01*
X148020002Y-106291395D01*
X147801948Y-106381717D01*
X147597549Y-106499727D01*
X147410307Y-106643402D01*
X147410295Y-106643413D01*
X147243413Y-106810295D01*
X147243402Y-106810307D01*
X147099727Y-106997549D01*
X146981717Y-107201948D01*
X146934474Y-107316004D01*
X146891394Y-107420007D01*
X146887391Y-107434946D01*
X146830307Y-107647986D01*
X146799500Y-107881986D01*
X146799500Y-108118013D01*
X146812665Y-108218011D01*
X146830307Y-108352014D01*
X146891394Y-108579993D01*
X146932816Y-108679993D01*
X146981717Y-108798051D01*
X147099727Y-109002450D01*
X147243402Y-109189692D01*
X147243405Y-109189696D01*
X147243408Y-109189699D01*
X147410301Y-109356592D01*
X147410304Y-109356594D01*
X147410307Y-109356597D01*
X147429612Y-109371410D01*
X147597550Y-109500273D01*
X147750003Y-109588292D01*
X147833445Y-109659781D01*
X147885430Y-109756588D01*
X147899500Y-109847231D01*
X147899500Y-111321945D01*
X147879309Y-111429956D01*
X147821464Y-111523380D01*
X147733776Y-111589599D01*
X147628088Y-111619670D01*
X147561472Y-111618387D01*
X147418013Y-111599500D01*
X147418011Y-111599500D01*
X147181989Y-111599500D01*
X147181987Y-111599500D01*
X147028782Y-111619670D01*
X146947986Y-111630307D01*
X146720007Y-111691394D01*
X146720005Y-111691394D01*
X146720004Y-111691395D01*
X146501946Y-111781718D01*
X146410282Y-111834640D01*
X146306645Y-111871160D01*
X146196815Y-111867775D01*
X146095624Y-111824944D01*
X146016739Y-111748451D01*
X145970813Y-111648627D01*
X145964049Y-111538953D01*
X145976417Y-111483302D01*
X145979577Y-111473574D01*
X145979579Y-111473572D01*
X146059860Y-111226493D01*
X146100500Y-110969897D01*
X146100500Y-110710103D01*
X146059860Y-110453507D01*
X145986933Y-110229060D01*
X145979581Y-110206433D01*
X145979579Y-110206430D01*
X145979579Y-110206428D01*
X145861634Y-109974949D01*
X145708931Y-109764771D01*
X145708930Y-109764770D01*
X145708928Y-109764767D01*
X145708431Y-109764185D01*
X145708148Y-109763693D01*
X145702026Y-109755267D01*
X145702924Y-109754614D01*
X145653636Y-109668940D01*
X145636948Y-109560332D01*
X145660621Y-109453030D01*
X145702635Y-109385175D01*
X145702026Y-109384733D01*
X145708002Y-109376506D01*
X145708431Y-109375815D01*
X145708928Y-109375232D01*
X145708931Y-109375229D01*
X145861634Y-109165051D01*
X145979579Y-108933572D01*
X146059860Y-108686493D01*
X146100500Y-108429897D01*
X146100500Y-108170103D01*
X146059860Y-107913507D01*
X145989696Y-107697565D01*
X145979581Y-107666433D01*
X145979579Y-107666430D01*
X145979579Y-107666428D01*
X145861634Y-107434949D01*
X145708931Y-107224771D01*
X145708930Y-107224770D01*
X145708928Y-107224767D01*
X145708431Y-107224185D01*
X145708148Y-107223693D01*
X145702026Y-107215267D01*
X145702924Y-107214614D01*
X145653636Y-107128940D01*
X145636948Y-107020332D01*
X145660621Y-106913030D01*
X145702635Y-106845175D01*
X145702026Y-106844733D01*
X145708002Y-106836506D01*
X145708431Y-106835815D01*
X145708928Y-106835232D01*
X145708931Y-106835229D01*
X145861634Y-106625051D01*
X145979579Y-106393572D01*
X146059860Y-106146493D01*
X146100500Y-105889897D01*
X146100500Y-105630103D01*
X146059860Y-105373507D01*
X146000135Y-105189692D01*
X145979581Y-105126433D01*
X145979579Y-105126430D01*
X145979579Y-105126428D01*
X145861634Y-104894949D01*
X145708931Y-104684771D01*
X145708105Y-104683804D01*
X145707635Y-104682987D01*
X145702026Y-104675267D01*
X145702849Y-104674668D01*
X145653308Y-104588561D01*
X145636617Y-104479953D01*
X145660287Y-104372651D01*
X145702264Y-104304858D01*
X145701644Y-104304408D01*
X145707730Y-104296029D01*
X145708113Y-104295413D01*
X145708556Y-104294894D01*
X145861199Y-104084798D01*
X145861203Y-104084790D01*
X145979116Y-103853374D01*
X145979117Y-103853373D01*
X146054944Y-103620000D01*
X144052661Y-103620000D01*
X144154394Y-103592741D01*
X144245606Y-103540080D01*
X144320080Y-103465606D01*
X144372741Y-103374394D01*
X144400000Y-103272661D01*
X144400000Y-103167339D01*
X144372741Y-103065606D01*
X144320080Y-102974394D01*
X144245606Y-102899920D01*
X144154394Y-102847259D01*
X144052661Y-102820000D01*
X144400000Y-102820000D01*
X146054944Y-102820000D01*
X146054944Y-102819999D01*
X145979117Y-102586626D01*
X145979116Y-102586625D01*
X145861203Y-102355209D01*
X145861199Y-102355201D01*
X145708551Y-102145099D01*
X145524900Y-101961448D01*
X145314798Y-101808800D01*
X145314790Y-101808796D01*
X145083373Y-101690882D01*
X145083372Y-101690881D01*
X144836378Y-101610629D01*
X144579859Y-101570000D01*
X144400000Y-101570000D01*
X144400000Y-102820000D01*
X144052661Y-102820000D01*
X143947339Y-102820000D01*
X143845606Y-102847259D01*
X143754394Y-102899920D01*
X143679920Y-102974394D01*
X143627259Y-103065606D01*
X143600000Y-103167339D01*
X143600000Y-103272661D01*
X143627259Y-103374394D01*
X143679920Y-103465606D01*
X143754394Y-103540080D01*
X143845606Y-103592741D01*
X143947339Y-103620000D01*
X141945056Y-103620000D01*
X142020882Y-103853373D01*
X142020883Y-103853374D01*
X142138796Y-104084790D01*
X142138800Y-104084798D01*
X142291448Y-104294901D01*
X142291898Y-104295427D01*
X142292153Y-104295870D01*
X142298356Y-104304408D01*
X142297445Y-104305069D01*
X142346693Y-104390672D01*
X142363382Y-104499279D01*
X142339710Y-104606581D01*
X142297428Y-104674870D01*
X142297974Y-104675267D01*
X142292620Y-104682635D01*
X142291905Y-104683791D01*
X142291074Y-104684763D01*
X142138368Y-104894945D01*
X142138368Y-104894946D01*
X142020418Y-105126433D01*
X141940140Y-105373506D01*
X141899500Y-105630099D01*
X141899500Y-105889900D01*
X141940140Y-106146493D01*
X142020418Y-106393566D01*
X142020420Y-106393571D01*
X142020421Y-106393572D01*
X142138366Y-106625051D01*
X142138368Y-106625053D01*
X142138368Y-106625054D01*
X142174476Y-106674752D01*
X142221629Y-106774003D01*
X142229744Y-106883585D01*
X142197725Y-106988699D01*
X142129898Y-107075148D01*
X142035421Y-107131257D01*
X141932580Y-107149500D01*
X141902910Y-107149500D01*
X141902886Y-107149499D01*
X141890546Y-107149499D01*
X141709454Y-107149499D01*
X141637908Y-107160831D01*
X141530588Y-107177829D01*
X141358370Y-107233785D01*
X141358366Y-107233787D01*
X141358363Y-107233788D01*
X141358361Y-107233789D01*
X141197006Y-107316004D01*
X141106769Y-107381564D01*
X141050497Y-107422448D01*
X141050493Y-107422452D01*
X140961021Y-107511925D01*
X140870368Y-107574023D01*
X140763405Y-107599181D01*
X140749596Y-107599500D01*
X140581987Y-107599500D01*
X140371138Y-107627259D01*
X140347986Y-107630307D01*
X140120007Y-107691394D01*
X140120005Y-107691394D01*
X140120004Y-107691395D01*
X139901948Y-107781717D01*
X139697549Y-107899727D01*
X139510307Y-108043402D01*
X139510295Y-108043413D01*
X139343413Y-108210295D01*
X139343402Y-108210307D01*
X139202857Y-108393471D01*
X139121085Y-108466871D01*
X139018321Y-108505775D01*
X138908442Y-108504929D01*
X138806288Y-108464448D01*
X138754219Y-108422877D01*
X138545254Y-108213912D01*
X138483156Y-108123259D01*
X138461360Y-108049259D01*
X138460433Y-108043408D01*
X138439860Y-107913507D01*
X138369696Y-107697565D01*
X138359581Y-107666433D01*
X138359579Y-107666430D01*
X138359579Y-107666428D01*
X138241634Y-107434949D01*
X138088931Y-107224771D01*
X138088930Y-107224770D01*
X138088928Y-107224767D01*
X138088431Y-107224185D01*
X138088148Y-107223693D01*
X138082026Y-107215267D01*
X138082924Y-107214614D01*
X138033636Y-107128940D01*
X138016948Y-107020332D01*
X138040621Y-106913030D01*
X138082635Y-106845175D01*
X138082026Y-106844733D01*
X138088002Y-106836506D01*
X138088431Y-106835815D01*
X138088928Y-106835232D01*
X138088931Y-106835229D01*
X138241634Y-106625051D01*
X138359579Y-106393572D01*
X138439860Y-106146493D01*
X138480500Y-105889897D01*
X138480500Y-105630103D01*
X138439860Y-105373507D01*
X138380135Y-105189692D01*
X138359581Y-105126433D01*
X138359579Y-105126430D01*
X138359579Y-105126428D01*
X138241634Y-104894949D01*
X138088931Y-104684771D01*
X138088930Y-104684770D01*
X138088928Y-104684767D01*
X138088431Y-104684185D01*
X138088148Y-104683693D01*
X138082026Y-104675267D01*
X138082924Y-104674614D01*
X138033636Y-104588940D01*
X138016948Y-104480332D01*
X138040621Y-104373030D01*
X138082635Y-104305175D01*
X138082026Y-104304733D01*
X138088002Y-104296506D01*
X138088431Y-104295815D01*
X138088928Y-104295232D01*
X138088931Y-104295229D01*
X138241634Y-104085051D01*
X138359579Y-103853572D01*
X138439860Y-103606493D01*
X138480500Y-103349897D01*
X138480500Y-103090103D01*
X138439860Y-102833507D01*
X138435471Y-102819999D01*
X141945055Y-102819999D01*
X141945056Y-102820000D01*
X143600000Y-102820000D01*
X143600000Y-101570000D01*
X143420140Y-101570000D01*
X143163621Y-101610629D01*
X142916627Y-101690881D01*
X142916626Y-101690882D01*
X142685209Y-101808796D01*
X142685201Y-101808800D01*
X142475099Y-101961448D01*
X142291448Y-102145099D01*
X142138800Y-102355201D01*
X142138796Y-102355209D01*
X142020883Y-102586625D01*
X142020882Y-102586626D01*
X141945055Y-102819999D01*
X138435471Y-102819999D01*
X138363355Y-102598049D01*
X138359581Y-102586433D01*
X138359579Y-102586430D01*
X138359579Y-102586428D01*
X138241634Y-102354949D01*
X138088931Y-102144771D01*
X137905229Y-101961069D01*
X137845967Y-101918013D01*
X137695054Y-101808368D01*
X137695053Y-101808367D01*
X137695051Y-101808366D01*
X137463572Y-101690421D01*
X137463571Y-101690420D01*
X137463566Y-101690418D01*
X137216493Y-101610140D01*
X136959900Y-101569500D01*
X136959897Y-101569500D01*
X135800103Y-101569500D01*
X135800099Y-101569500D01*
X135543506Y-101610140D01*
X135296433Y-101690418D01*
X135225876Y-101726369D01*
X135064949Y-101808366D01*
X135064946Y-101808368D01*
X135064945Y-101808368D01*
X134854771Y-101961068D01*
X134671068Y-102144771D01*
X134518368Y-102354945D01*
X134518368Y-102354946D01*
X134518366Y-102354949D01*
X134496937Y-102397006D01*
X134400418Y-102586433D01*
X134320140Y-102833506D01*
X134279500Y-103090099D01*
X134279500Y-103349900D01*
X134320140Y-103606493D01*
X134400418Y-103853566D01*
X134400420Y-103853571D01*
X134400421Y-103853572D01*
X134488879Y-104027181D01*
X134518367Y-104085053D01*
X134583538Y-104174753D01*
X134630690Y-104274004D01*
X134638805Y-104383586D01*
X134606786Y-104488700D01*
X134538957Y-104575149D01*
X134444481Y-104631258D01*
X134341641Y-104649500D01*
X133300403Y-104649500D01*
X133192392Y-104629309D01*
X133098968Y-104571464D01*
X133088978Y-104561925D01*
X129837978Y-101310925D01*
X129775880Y-101220272D01*
X129750722Y-101113309D01*
X129765903Y-101004480D01*
X129819372Y-100908485D01*
X129903908Y-100838287D01*
X130008094Y-100803367D01*
X130049403Y-100800500D01*
X156150596Y-100800500D01*
X156258607Y-100820691D01*
G37*
%TD.AperFunction*%
%TD*%
M02*
