M48
; DRILL file KiCad 10.0.5 date 2026-09-25T18:16:57
; FORMAT={-:-/ absolute / metric / decimal}
; #@! TF.CreationDate,2026-09-25T18:16:57+02:00
; #@! TF.GenerationSoftware,Kicad,Pcbnew,10.0.5
; #@! TF.FileFunction,MixedPlating,1,2
FMAT,2
METRIC
; #@! TA.AperFunction,Plated,PTH,ViaDrill
T1C0.800
; #@! TA.AperFunction,Plated,PTH,ComponentDrill
T2C0.800
; #@! TA.AperFunction,Plated,PTH,ComponentDrill
T3C0.900
; #@! TA.AperFunction,Plated,PTH,ComponentDrill
T4C1.000
; #@! TA.AperFunction,Plated,PTH,ComponentDrill
T5C1.300
; #@! TA.AperFunction,Plated,PTH,ComponentDrill
T6C1.500
; #@! TA.AperFunction,NonPlated,NPTH,ComponentDrill
T7C3.200
%
G90
G05
T1
X110.1Y-135.0
X121.5Y-155.0
X128.5Y-111.4
X128.5Y-120.7
X131.0Y-122.6
X133.1Y-112.4
X133.125Y-120.65
X134.6Y-132.6
X140.7Y-109.4
X147.3Y-113.4
X150.5Y-130.6
X154.1Y-106.0
X158.5Y-129.0
X161.5Y-121.0
X164.2Y-101.8
X166.6Y-108.1
T2
X105.5Y-129.0
X111.0Y-104.0
X111.0Y-108.0
X113.0Y-134.0
X115.54Y-134.0
X115.66Y-129.0
X116.0Y-111.5
X116.0Y-116.5
X118.08Y-134.0
X121.16Y-104.0
X121.16Y-108.0
X124.5Y-111.84
X124.5Y-122.0
X131.5Y-129.0
X132.5Y-125.5
X136.38Y-103.22
X136.38Y-105.76
X136.38Y-108.3
X136.38Y-110.84
X136.38Y-113.38
X136.38Y-115.92
X136.38Y-118.46
X136.38Y-121.0
X137.5Y-125.5
X139.0Y-134.0
X141.54Y-134.0
X141.66Y-129.0
X144.0Y-103.22
X144.0Y-105.76
X144.0Y-108.3
X144.0Y-110.84
X144.0Y-113.38
X144.0Y-115.92
X144.0Y-118.46
X144.0Y-121.0
X144.08Y-134.0
X149.0Y-104.0
X149.0Y-108.0
X156.0Y-111.84
X156.0Y-122.0
X159.16Y-104.0
X159.16Y-108.0
X164.0Y-111.0
X164.0Y-116.0
X166.0Y-154.0
X171.0Y-154.0
X174.0Y-146.0
X175.0Y-154.0
X176.5Y-146.0
X177.5Y-154.0
T3
X122.0Y-134.0
X124.54Y-134.0
X148.0Y-134.0
X150.54Y-134.0
T4
X118.65Y-139.95
X118.65Y-151.95
X125.0Y-140.34
X125.0Y-150.5
X144.65Y-139.95
X144.65Y-151.95
X151.0Y-140.34
X151.0Y-150.5
X161.0Y-148.0
X161.0Y-161.0
X163.54Y-148.0
X166.08Y-148.0
X168.62Y-148.0
X171.11Y-103.38
X171.11Y-118.62
X171.16Y-161.0
X173.65Y-103.38
X173.65Y-118.62
X176.19Y-103.38
X176.19Y-118.62
X178.73Y-103.38
X178.73Y-118.62
X181.27Y-103.38
X181.27Y-118.62
X183.81Y-103.38
X183.81Y-118.62
X186.35Y-103.38
X186.35Y-118.62
X188.89Y-103.38
X188.89Y-118.62
T5
X104.0Y-164.0
X106.4Y-152.0
X106.45Y-139.95
X109.0Y-164.0
X116.0Y-164.0
X120.6Y-146.0
X121.0Y-164.0
X130.0Y-164.0
X132.4Y-152.0
X132.45Y-139.95
X135.0Y-164.0
X142.0Y-164.0
X146.6Y-146.0
X147.0Y-164.0
T6
X156.0Y-148.0
X156.0Y-163.24
X184.0Y-128.0
X184.0Y-143.24
T7
X104.0Y-104.0
X186.0Y-166.0
M30
