%TF.GenerationSoftware,KiCad,Pcbnew,10.0.5*%
%TF.CreationDate,2026-09-26T15:51:20+02:00*%
%TF.ProjectId,texecom-power-reset,74657865-636f-46d2-9d70-6f7765722d72,rev?*%
%TF.SameCoordinates,Original*%
%TF.FileFunction,Legend,Top*%
%TF.FilePolarity,Positive*%
%FSLAX46Y46*%
G04 Gerber Fmt 4.6, Leading zero omitted, Abs format (unit mm)*
G04 Created by KiCad (PCBNEW 10.0.5) date 2026-09-26 15:51:20*
%MOMM*%
%LPD*%
G01*
G04 APERTURE LIST*
%ADD10C,0.150000*%
%ADD11C,0.120000*%
G04 APERTURE END LIST*
D10*
X175083333Y-142609580D02*
X175035714Y-142657200D01*
X175035714Y-142657200D02*
X174892857Y-142704819D01*
X174892857Y-142704819D02*
X174797619Y-142704819D01*
X174797619Y-142704819D02*
X174654762Y-142657200D01*
X174654762Y-142657200D02*
X174559524Y-142561961D01*
X174559524Y-142561961D02*
X174511905Y-142466723D01*
X174511905Y-142466723D02*
X174464286Y-142276247D01*
X174464286Y-142276247D02*
X174464286Y-142133390D01*
X174464286Y-142133390D02*
X174511905Y-141942914D01*
X174511905Y-141942914D02*
X174559524Y-141847676D01*
X174559524Y-141847676D02*
X174654762Y-141752438D01*
X174654762Y-141752438D02*
X174797619Y-141704819D01*
X174797619Y-141704819D02*
X174892857Y-141704819D01*
X174892857Y-141704819D02*
X175035714Y-141752438D01*
X175035714Y-141752438D02*
X175083333Y-141800057D01*
X175416667Y-141704819D02*
X176035714Y-141704819D01*
X176035714Y-141704819D02*
X175702381Y-142085771D01*
X175702381Y-142085771D02*
X175845238Y-142085771D01*
X175845238Y-142085771D02*
X175940476Y-142133390D01*
X175940476Y-142133390D02*
X175988095Y-142181009D01*
X175988095Y-142181009D02*
X176035714Y-142276247D01*
X176035714Y-142276247D02*
X176035714Y-142514342D01*
X176035714Y-142514342D02*
X175988095Y-142609580D01*
X175988095Y-142609580D02*
X175940476Y-142657200D01*
X175940476Y-142657200D02*
X175845238Y-142704819D01*
X175845238Y-142704819D02*
X175559524Y-142704819D01*
X175559524Y-142704819D02*
X175464286Y-142657200D01*
X175464286Y-142657200D02*
X175416667Y-142609580D01*
X164048095Y-131254819D02*
X164048095Y-132064342D01*
X164048095Y-132064342D02*
X164095714Y-132159580D01*
X164095714Y-132159580D02*
X164143333Y-132207200D01*
X164143333Y-132207200D02*
X164238571Y-132254819D01*
X164238571Y-132254819D02*
X164429047Y-132254819D01*
X164429047Y-132254819D02*
X164524285Y-132207200D01*
X164524285Y-132207200D02*
X164571904Y-132159580D01*
X164571904Y-132159580D02*
X164619523Y-132064342D01*
X164619523Y-132064342D02*
X164619523Y-131254819D01*
X165619523Y-132254819D02*
X165048095Y-132254819D01*
X165333809Y-132254819D02*
X165333809Y-131254819D01*
X165333809Y-131254819D02*
X165238571Y-131397676D01*
X165238571Y-131397676D02*
X165143333Y-131492914D01*
X165143333Y-131492914D02*
X165048095Y-131540533D01*
X184666667Y-162304819D02*
X184666667Y-161304819D01*
X184666667Y-161304819D02*
X185000000Y-162019104D01*
X185000000Y-162019104D02*
X185333333Y-161304819D01*
X185333333Y-161304819D02*
X185333333Y-162304819D01*
X185809524Y-162304819D02*
X185809524Y-161304819D01*
X185809524Y-161781009D02*
X186380952Y-161781009D01*
X186380952Y-162304819D02*
X186380952Y-161304819D01*
X186809524Y-161400057D02*
X186857143Y-161352438D01*
X186857143Y-161352438D02*
X186952381Y-161304819D01*
X186952381Y-161304819D02*
X187190476Y-161304819D01*
X187190476Y-161304819D02*
X187285714Y-161352438D01*
X187285714Y-161352438D02*
X187333333Y-161400057D01*
X187333333Y-161400057D02*
X187380952Y-161495295D01*
X187380952Y-161495295D02*
X187380952Y-161590533D01*
X187380952Y-161590533D02*
X187333333Y-161733390D01*
X187333333Y-161733390D02*
X186761905Y-162304819D01*
X186761905Y-162304819D02*
X187380952Y-162304819D01*
X154084819Y-117086666D02*
X153608628Y-117419999D01*
X154084819Y-117658094D02*
X153084819Y-117658094D01*
X153084819Y-117658094D02*
X153084819Y-117277142D01*
X153084819Y-117277142D02*
X153132438Y-117181904D01*
X153132438Y-117181904D02*
X153180057Y-117134285D01*
X153180057Y-117134285D02*
X153275295Y-117086666D01*
X153275295Y-117086666D02*
X153418152Y-117086666D01*
X153418152Y-117086666D02*
X153513390Y-117134285D01*
X153513390Y-117134285D02*
X153561009Y-117181904D01*
X153561009Y-117181904D02*
X153608628Y-117277142D01*
X153608628Y-117277142D02*
X153608628Y-117658094D01*
X153084819Y-116753332D02*
X153084819Y-116134285D01*
X153084819Y-116134285D02*
X153465771Y-116467618D01*
X153465771Y-116467618D02*
X153465771Y-116324761D01*
X153465771Y-116324761D02*
X153513390Y-116229523D01*
X153513390Y-116229523D02*
X153561009Y-116181904D01*
X153561009Y-116181904D02*
X153656247Y-116134285D01*
X153656247Y-116134285D02*
X153894342Y-116134285D01*
X153894342Y-116134285D02*
X153989580Y-116181904D01*
X153989580Y-116181904D02*
X154037200Y-116229523D01*
X154037200Y-116229523D02*
X154084819Y-116324761D01*
X154084819Y-116324761D02*
X154084819Y-116610475D01*
X154084819Y-116610475D02*
X154037200Y-116705713D01*
X154037200Y-116705713D02*
X153989580Y-116753332D01*
X118166666Y-157134819D02*
X118166666Y-157849104D01*
X118166666Y-157849104D02*
X118119047Y-157991961D01*
X118119047Y-157991961D02*
X118023809Y-158087200D01*
X118023809Y-158087200D02*
X117880952Y-158134819D01*
X117880952Y-158134819D02*
X117785714Y-158134819D01*
X118547619Y-157134819D02*
X119166666Y-157134819D01*
X119166666Y-157134819D02*
X118833333Y-157515771D01*
X118833333Y-157515771D02*
X118976190Y-157515771D01*
X118976190Y-157515771D02*
X119071428Y-157563390D01*
X119071428Y-157563390D02*
X119119047Y-157611009D01*
X119119047Y-157611009D02*
X119166666Y-157706247D01*
X119166666Y-157706247D02*
X119166666Y-157944342D01*
X119166666Y-157944342D02*
X119119047Y-158039580D01*
X119119047Y-158039580D02*
X119071428Y-158087200D01*
X119071428Y-158087200D02*
X118976190Y-158134819D01*
X118976190Y-158134819D02*
X118690476Y-158134819D01*
X118690476Y-158134819D02*
X118595238Y-158087200D01*
X118595238Y-158087200D02*
X118547619Y-158039580D01*
X139428095Y-122784819D02*
X139428095Y-123594342D01*
X139428095Y-123594342D02*
X139475714Y-123689580D01*
X139475714Y-123689580D02*
X139523333Y-123737200D01*
X139523333Y-123737200D02*
X139618571Y-123784819D01*
X139618571Y-123784819D02*
X139809047Y-123784819D01*
X139809047Y-123784819D02*
X139904285Y-123737200D01*
X139904285Y-123737200D02*
X139951904Y-123689580D01*
X139951904Y-123689580D02*
X139999523Y-123594342D01*
X139999523Y-123594342D02*
X139999523Y-122784819D01*
X140428095Y-122880057D02*
X140475714Y-122832438D01*
X140475714Y-122832438D02*
X140570952Y-122784819D01*
X140570952Y-122784819D02*
X140809047Y-122784819D01*
X140809047Y-122784819D02*
X140904285Y-122832438D01*
X140904285Y-122832438D02*
X140951904Y-122880057D01*
X140951904Y-122880057D02*
X140999523Y-122975295D01*
X140999523Y-122975295D02*
X140999523Y-123070533D01*
X140999523Y-123070533D02*
X140951904Y-123213390D01*
X140951904Y-123213390D02*
X140380476Y-123784819D01*
X140380476Y-123784819D02*
X140999523Y-123784819D01*
X153913333Y-102084819D02*
X153580000Y-101608628D01*
X153341905Y-102084819D02*
X153341905Y-101084819D01*
X153341905Y-101084819D02*
X153722857Y-101084819D01*
X153722857Y-101084819D02*
X153818095Y-101132438D01*
X153818095Y-101132438D02*
X153865714Y-101180057D01*
X153865714Y-101180057D02*
X153913333Y-101275295D01*
X153913333Y-101275295D02*
X153913333Y-101418152D01*
X153913333Y-101418152D02*
X153865714Y-101513390D01*
X153865714Y-101513390D02*
X153818095Y-101561009D01*
X153818095Y-101561009D02*
X153722857Y-101608628D01*
X153722857Y-101608628D02*
X153341905Y-101608628D01*
X154818095Y-101084819D02*
X154341905Y-101084819D01*
X154341905Y-101084819D02*
X154294286Y-101561009D01*
X154294286Y-101561009D02*
X154341905Y-101513390D01*
X154341905Y-101513390D02*
X154437143Y-101465771D01*
X154437143Y-101465771D02*
X154675238Y-101465771D01*
X154675238Y-101465771D02*
X154770476Y-101513390D01*
X154770476Y-101513390D02*
X154818095Y-101561009D01*
X154818095Y-101561009D02*
X154865714Y-101656247D01*
X154865714Y-101656247D02*
X154865714Y-101894342D01*
X154865714Y-101894342D02*
X154818095Y-101989580D01*
X154818095Y-101989580D02*
X154770476Y-102037200D01*
X154770476Y-102037200D02*
X154675238Y-102084819D01*
X154675238Y-102084819D02*
X154437143Y-102084819D01*
X154437143Y-102084819D02*
X154341905Y-102037200D01*
X154341905Y-102037200D02*
X154294286Y-101989580D01*
X111761905Y-137254819D02*
X111761905Y-136254819D01*
X112333333Y-137254819D02*
X111904762Y-136683390D01*
X112333333Y-136254819D02*
X111761905Y-136826247D01*
X112714286Y-136350057D02*
X112761905Y-136302438D01*
X112761905Y-136302438D02*
X112857143Y-136254819D01*
X112857143Y-136254819D02*
X113095238Y-136254819D01*
X113095238Y-136254819D02*
X113190476Y-136302438D01*
X113190476Y-136302438D02*
X113238095Y-136350057D01*
X113238095Y-136350057D02*
X113285714Y-136445295D01*
X113285714Y-136445295D02*
X113285714Y-136540533D01*
X113285714Y-136540533D02*
X113238095Y-136683390D01*
X113238095Y-136683390D02*
X112666667Y-137254819D01*
X112666667Y-137254819D02*
X113285714Y-137254819D01*
X153913333Y-106084819D02*
X153580000Y-105608628D01*
X153341905Y-106084819D02*
X153341905Y-105084819D01*
X153341905Y-105084819D02*
X153722857Y-105084819D01*
X153722857Y-105084819D02*
X153818095Y-105132438D01*
X153818095Y-105132438D02*
X153865714Y-105180057D01*
X153865714Y-105180057D02*
X153913333Y-105275295D01*
X153913333Y-105275295D02*
X153913333Y-105418152D01*
X153913333Y-105418152D02*
X153865714Y-105513390D01*
X153865714Y-105513390D02*
X153818095Y-105561009D01*
X153818095Y-105561009D02*
X153722857Y-105608628D01*
X153722857Y-105608628D02*
X153341905Y-105608628D01*
X154865714Y-106084819D02*
X154294286Y-106084819D01*
X154580000Y-106084819D02*
X154580000Y-105084819D01*
X154580000Y-105084819D02*
X154484762Y-105227676D01*
X154484762Y-105227676D02*
X154389524Y-105322914D01*
X154389524Y-105322914D02*
X154294286Y-105370533D01*
X132166666Y-157134819D02*
X132166666Y-157849104D01*
X132166666Y-157849104D02*
X132119047Y-157991961D01*
X132119047Y-157991961D02*
X132023809Y-158087200D01*
X132023809Y-158087200D02*
X131880952Y-158134819D01*
X131880952Y-158134819D02*
X131785714Y-158134819D01*
X132595238Y-157230057D02*
X132642857Y-157182438D01*
X132642857Y-157182438D02*
X132738095Y-157134819D01*
X132738095Y-157134819D02*
X132976190Y-157134819D01*
X132976190Y-157134819D02*
X133071428Y-157182438D01*
X133071428Y-157182438D02*
X133119047Y-157230057D01*
X133119047Y-157230057D02*
X133166666Y-157325295D01*
X133166666Y-157325295D02*
X133166666Y-157420533D01*
X133166666Y-157420533D02*
X133119047Y-157563390D01*
X133119047Y-157563390D02*
X132547619Y-158134819D01*
X132547619Y-158134819D02*
X133166666Y-158134819D01*
X135937142Y-127084819D02*
X135603809Y-126608628D01*
X135365714Y-127084819D02*
X135365714Y-126084819D01*
X135365714Y-126084819D02*
X135746666Y-126084819D01*
X135746666Y-126084819D02*
X135841904Y-126132438D01*
X135841904Y-126132438D02*
X135889523Y-126180057D01*
X135889523Y-126180057D02*
X135937142Y-126275295D01*
X135937142Y-126275295D02*
X135937142Y-126418152D01*
X135937142Y-126418152D02*
X135889523Y-126513390D01*
X135889523Y-126513390D02*
X135841904Y-126561009D01*
X135841904Y-126561009D02*
X135746666Y-126608628D01*
X135746666Y-126608628D02*
X135365714Y-126608628D01*
X136889523Y-127084819D02*
X136318095Y-127084819D01*
X136603809Y-127084819D02*
X136603809Y-126084819D01*
X136603809Y-126084819D02*
X136508571Y-126227676D01*
X136508571Y-126227676D02*
X136413333Y-126322914D01*
X136413333Y-126322914D02*
X136318095Y-126370533D01*
X137222857Y-126084819D02*
X137841904Y-126084819D01*
X137841904Y-126084819D02*
X137508571Y-126465771D01*
X137508571Y-126465771D02*
X137651428Y-126465771D01*
X137651428Y-126465771D02*
X137746666Y-126513390D01*
X137746666Y-126513390D02*
X137794285Y-126561009D01*
X137794285Y-126561009D02*
X137841904Y-126656247D01*
X137841904Y-126656247D02*
X137841904Y-126894342D01*
X137841904Y-126894342D02*
X137794285Y-126989580D01*
X137794285Y-126989580D02*
X137746666Y-127037200D01*
X137746666Y-127037200D02*
X137651428Y-127084819D01*
X137651428Y-127084819D02*
X137365714Y-127084819D01*
X137365714Y-127084819D02*
X137270476Y-127037200D01*
X137270476Y-127037200D02*
X137222857Y-126989580D01*
X102666667Y-100304819D02*
X102666667Y-99304819D01*
X102666667Y-99304819D02*
X103000000Y-100019104D01*
X103000000Y-100019104D02*
X103333333Y-99304819D01*
X103333333Y-99304819D02*
X103333333Y-100304819D01*
X103809524Y-100304819D02*
X103809524Y-99304819D01*
X103809524Y-99781009D02*
X104380952Y-99781009D01*
X104380952Y-100304819D02*
X104380952Y-99304819D01*
X105380952Y-100304819D02*
X104809524Y-100304819D01*
X105095238Y-100304819D02*
X105095238Y-99304819D01*
X105095238Y-99304819D02*
X105000000Y-99447676D01*
X105000000Y-99447676D02*
X104904762Y-99542914D01*
X104904762Y-99542914D02*
X104809524Y-99590533D01*
X148984819Y-146158094D02*
X147984819Y-146158094D01*
X147984819Y-146158094D02*
X147984819Y-145919999D01*
X147984819Y-145919999D02*
X148032438Y-145777142D01*
X148032438Y-145777142D02*
X148127676Y-145681904D01*
X148127676Y-145681904D02*
X148222914Y-145634285D01*
X148222914Y-145634285D02*
X148413390Y-145586666D01*
X148413390Y-145586666D02*
X148556247Y-145586666D01*
X148556247Y-145586666D02*
X148746723Y-145634285D01*
X148746723Y-145634285D02*
X148841961Y-145681904D01*
X148841961Y-145681904D02*
X148937200Y-145777142D01*
X148937200Y-145777142D02*
X148984819Y-145919999D01*
X148984819Y-145919999D02*
X148984819Y-146158094D01*
X148318152Y-144729523D02*
X148984819Y-144729523D01*
X147937200Y-144967618D02*
X148651485Y-145205713D01*
X148651485Y-145205713D02*
X148651485Y-144586666D01*
X149354819Y-150761904D02*
X148354819Y-150761904D01*
X149354819Y-150190476D02*
X148783390Y-150619047D01*
X148354819Y-150190476D02*
X148926247Y-150761904D01*
X122584819Y-117086666D02*
X122108628Y-117419999D01*
X122584819Y-117658094D02*
X121584819Y-117658094D01*
X121584819Y-117658094D02*
X121584819Y-117277142D01*
X121584819Y-117277142D02*
X121632438Y-117181904D01*
X121632438Y-117181904D02*
X121680057Y-117134285D01*
X121680057Y-117134285D02*
X121775295Y-117086666D01*
X121775295Y-117086666D02*
X121918152Y-117086666D01*
X121918152Y-117086666D02*
X122013390Y-117134285D01*
X122013390Y-117134285D02*
X122061009Y-117181904D01*
X122061009Y-117181904D02*
X122108628Y-117277142D01*
X122108628Y-117277142D02*
X122108628Y-117658094D01*
X121918152Y-116229523D02*
X122584819Y-116229523D01*
X121537200Y-116467618D02*
X122251485Y-116705713D01*
X122251485Y-116705713D02*
X122251485Y-116086666D01*
X161859580Y-113666666D02*
X161907200Y-113714285D01*
X161907200Y-113714285D02*
X161954819Y-113857142D01*
X161954819Y-113857142D02*
X161954819Y-113952380D01*
X161954819Y-113952380D02*
X161907200Y-114095237D01*
X161907200Y-114095237D02*
X161811961Y-114190475D01*
X161811961Y-114190475D02*
X161716723Y-114238094D01*
X161716723Y-114238094D02*
X161526247Y-114285713D01*
X161526247Y-114285713D02*
X161383390Y-114285713D01*
X161383390Y-114285713D02*
X161192914Y-114238094D01*
X161192914Y-114238094D02*
X161097676Y-114190475D01*
X161097676Y-114190475D02*
X161002438Y-114095237D01*
X161002438Y-114095237D02*
X160954819Y-113952380D01*
X160954819Y-113952380D02*
X160954819Y-113857142D01*
X160954819Y-113857142D02*
X161002438Y-113714285D01*
X161002438Y-113714285D02*
X161050057Y-113666666D01*
X160954819Y-113333332D02*
X160954819Y-112666666D01*
X160954819Y-112666666D02*
X161954819Y-113095237D01*
X122984819Y-146158094D02*
X121984819Y-146158094D01*
X121984819Y-146158094D02*
X121984819Y-145919999D01*
X121984819Y-145919999D02*
X122032438Y-145777142D01*
X122032438Y-145777142D02*
X122127676Y-145681904D01*
X122127676Y-145681904D02*
X122222914Y-145634285D01*
X122222914Y-145634285D02*
X122413390Y-145586666D01*
X122413390Y-145586666D02*
X122556247Y-145586666D01*
X122556247Y-145586666D02*
X122746723Y-145634285D01*
X122746723Y-145634285D02*
X122841961Y-145681904D01*
X122841961Y-145681904D02*
X122937200Y-145777142D01*
X122937200Y-145777142D02*
X122984819Y-145919999D01*
X122984819Y-145919999D02*
X122984819Y-146158094D01*
X121984819Y-144681904D02*
X121984819Y-145158094D01*
X121984819Y-145158094D02*
X122461009Y-145205713D01*
X122461009Y-145205713D02*
X122413390Y-145158094D01*
X122413390Y-145158094D02*
X122365771Y-145062856D01*
X122365771Y-145062856D02*
X122365771Y-144824761D01*
X122365771Y-144824761D02*
X122413390Y-144729523D01*
X122413390Y-144729523D02*
X122461009Y-144681904D01*
X122461009Y-144681904D02*
X122556247Y-144634285D01*
X122556247Y-144634285D02*
X122794342Y-144634285D01*
X122794342Y-144634285D02*
X122889580Y-144681904D01*
X122889580Y-144681904D02*
X122937200Y-144729523D01*
X122937200Y-144729523D02*
X122984819Y-144824761D01*
X122984819Y-144824761D02*
X122984819Y-145062856D01*
X122984819Y-145062856D02*
X122937200Y-145158094D01*
X122937200Y-145158094D02*
X122889580Y-145205713D01*
X123354819Y-150761904D02*
X122354819Y-150761904D01*
X123354819Y-150190476D02*
X122783390Y-150619047D01*
X122354819Y-150190476D02*
X122926247Y-150761904D01*
X122531905Y-131494819D02*
X122531905Y-130494819D01*
X122531905Y-130494819D02*
X122770000Y-130494819D01*
X122770000Y-130494819D02*
X122912857Y-130542438D01*
X122912857Y-130542438D02*
X123008095Y-130637676D01*
X123008095Y-130637676D02*
X123055714Y-130732914D01*
X123055714Y-130732914D02*
X123103333Y-130923390D01*
X123103333Y-130923390D02*
X123103333Y-131066247D01*
X123103333Y-131066247D02*
X123055714Y-131256723D01*
X123055714Y-131256723D02*
X123008095Y-131351961D01*
X123008095Y-131351961D02*
X122912857Y-131447200D01*
X122912857Y-131447200D02*
X122770000Y-131494819D01*
X122770000Y-131494819D02*
X122531905Y-131494819D01*
X123436667Y-130494819D02*
X124103333Y-130494819D01*
X124103333Y-130494819D02*
X123674762Y-131494819D01*
X144166666Y-157134819D02*
X144166666Y-157849104D01*
X144166666Y-157849104D02*
X144119047Y-157991961D01*
X144119047Y-157991961D02*
X144023809Y-158087200D01*
X144023809Y-158087200D02*
X143880952Y-158134819D01*
X143880952Y-158134819D02*
X143785714Y-158134819D01*
X145166666Y-158134819D02*
X144595238Y-158134819D01*
X144880952Y-158134819D02*
X144880952Y-157134819D01*
X144880952Y-157134819D02*
X144785714Y-157277676D01*
X144785714Y-157277676D02*
X144690476Y-157372914D01*
X144690476Y-157372914D02*
X144595238Y-157420533D01*
X188174819Y-136358094D02*
X187174819Y-136358094D01*
X187174819Y-136358094D02*
X187174819Y-136119999D01*
X187174819Y-136119999D02*
X187222438Y-135977142D01*
X187222438Y-135977142D02*
X187317676Y-135881904D01*
X187317676Y-135881904D02*
X187412914Y-135834285D01*
X187412914Y-135834285D02*
X187603390Y-135786666D01*
X187603390Y-135786666D02*
X187746247Y-135786666D01*
X187746247Y-135786666D02*
X187936723Y-135834285D01*
X187936723Y-135834285D02*
X188031961Y-135881904D01*
X188031961Y-135881904D02*
X188127200Y-135977142D01*
X188127200Y-135977142D02*
X188174819Y-136119999D01*
X188174819Y-136119999D02*
X188174819Y-136358094D01*
X187174819Y-135453332D02*
X187174819Y-134834285D01*
X187174819Y-134834285D02*
X187555771Y-135167618D01*
X187555771Y-135167618D02*
X187555771Y-135024761D01*
X187555771Y-135024761D02*
X187603390Y-134929523D01*
X187603390Y-134929523D02*
X187651009Y-134881904D01*
X187651009Y-134881904D02*
X187746247Y-134834285D01*
X187746247Y-134834285D02*
X187984342Y-134834285D01*
X187984342Y-134834285D02*
X188079580Y-134881904D01*
X188079580Y-134881904D02*
X188127200Y-134929523D01*
X188127200Y-134929523D02*
X188174819Y-135024761D01*
X188174819Y-135024761D02*
X188174819Y-135310475D01*
X188174819Y-135310475D02*
X188127200Y-135405713D01*
X188127200Y-135405713D02*
X188079580Y-135453332D01*
X187054819Y-128261904D02*
X186054819Y-128261904D01*
X187054819Y-127690476D02*
X186483390Y-128119047D01*
X186054819Y-127690476D02*
X186626247Y-128261904D01*
X115913333Y-102084819D02*
X115580000Y-101608628D01*
X115341905Y-102084819D02*
X115341905Y-101084819D01*
X115341905Y-101084819D02*
X115722857Y-101084819D01*
X115722857Y-101084819D02*
X115818095Y-101132438D01*
X115818095Y-101132438D02*
X115865714Y-101180057D01*
X115865714Y-101180057D02*
X115913333Y-101275295D01*
X115913333Y-101275295D02*
X115913333Y-101418152D01*
X115913333Y-101418152D02*
X115865714Y-101513390D01*
X115865714Y-101513390D02*
X115818095Y-101561009D01*
X115818095Y-101561009D02*
X115722857Y-101608628D01*
X115722857Y-101608628D02*
X115341905Y-101608628D01*
X116770476Y-101084819D02*
X116580000Y-101084819D01*
X116580000Y-101084819D02*
X116484762Y-101132438D01*
X116484762Y-101132438D02*
X116437143Y-101180057D01*
X116437143Y-101180057D02*
X116341905Y-101322914D01*
X116341905Y-101322914D02*
X116294286Y-101513390D01*
X116294286Y-101513390D02*
X116294286Y-101894342D01*
X116294286Y-101894342D02*
X116341905Y-101989580D01*
X116341905Y-101989580D02*
X116389524Y-102037200D01*
X116389524Y-102037200D02*
X116484762Y-102084819D01*
X116484762Y-102084819D02*
X116675238Y-102084819D01*
X116675238Y-102084819D02*
X116770476Y-102037200D01*
X116770476Y-102037200D02*
X116818095Y-101989580D01*
X116818095Y-101989580D02*
X116865714Y-101894342D01*
X116865714Y-101894342D02*
X116865714Y-101656247D01*
X116865714Y-101656247D02*
X116818095Y-101561009D01*
X116818095Y-101561009D02*
X116770476Y-101513390D01*
X116770476Y-101513390D02*
X116675238Y-101465771D01*
X116675238Y-101465771D02*
X116484762Y-101465771D01*
X116484762Y-101465771D02*
X116389524Y-101513390D01*
X116389524Y-101513390D02*
X116341905Y-101561009D01*
X116341905Y-101561009D02*
X116294286Y-101656247D01*
X106166666Y-157134819D02*
X106166666Y-157849104D01*
X106166666Y-157849104D02*
X106119047Y-157991961D01*
X106119047Y-157991961D02*
X106023809Y-158087200D01*
X106023809Y-158087200D02*
X105880952Y-158134819D01*
X105880952Y-158134819D02*
X105785714Y-158134819D01*
X107071428Y-157468152D02*
X107071428Y-158134819D01*
X106833333Y-157087200D02*
X106595238Y-157801485D01*
X106595238Y-157801485D02*
X107214285Y-157801485D01*
X148531905Y-131494819D02*
X148531905Y-130494819D01*
X148531905Y-130494819D02*
X148770000Y-130494819D01*
X148770000Y-130494819D02*
X148912857Y-130542438D01*
X148912857Y-130542438D02*
X149008095Y-130637676D01*
X149008095Y-130637676D02*
X149055714Y-130732914D01*
X149055714Y-130732914D02*
X149103333Y-130923390D01*
X149103333Y-130923390D02*
X149103333Y-131066247D01*
X149103333Y-131066247D02*
X149055714Y-131256723D01*
X149055714Y-131256723D02*
X149008095Y-131351961D01*
X149008095Y-131351961D02*
X148912857Y-131447200D01*
X148912857Y-131447200D02*
X148770000Y-131494819D01*
X148770000Y-131494819D02*
X148531905Y-131494819D01*
X149960476Y-130494819D02*
X149770000Y-130494819D01*
X149770000Y-130494819D02*
X149674762Y-130542438D01*
X149674762Y-130542438D02*
X149627143Y-130590057D01*
X149627143Y-130590057D02*
X149531905Y-130732914D01*
X149531905Y-130732914D02*
X149484286Y-130923390D01*
X149484286Y-130923390D02*
X149484286Y-131304342D01*
X149484286Y-131304342D02*
X149531905Y-131399580D01*
X149531905Y-131399580D02*
X149579524Y-131447200D01*
X149579524Y-131447200D02*
X149674762Y-131494819D01*
X149674762Y-131494819D02*
X149865238Y-131494819D01*
X149865238Y-131494819D02*
X149960476Y-131447200D01*
X149960476Y-131447200D02*
X150008095Y-131399580D01*
X150008095Y-131399580D02*
X150055714Y-131304342D01*
X150055714Y-131304342D02*
X150055714Y-131066247D01*
X150055714Y-131066247D02*
X150008095Y-130971009D01*
X150008095Y-130971009D02*
X149960476Y-130923390D01*
X149960476Y-130923390D02*
X149865238Y-130875771D01*
X149865238Y-130875771D02*
X149674762Y-130875771D01*
X149674762Y-130875771D02*
X149579524Y-130923390D01*
X149579524Y-130923390D02*
X149531905Y-130971009D01*
X149531905Y-130971009D02*
X149484286Y-131066247D01*
X141444761Y-130990057D02*
X141349523Y-130942438D01*
X141349523Y-130942438D02*
X141254285Y-130847200D01*
X141254285Y-130847200D02*
X141111428Y-130704342D01*
X141111428Y-130704342D02*
X141016190Y-130656723D01*
X141016190Y-130656723D02*
X140920952Y-130656723D01*
X140968571Y-130894819D02*
X140873333Y-130847200D01*
X140873333Y-130847200D02*
X140778095Y-130751961D01*
X140778095Y-130751961D02*
X140730476Y-130561485D01*
X140730476Y-130561485D02*
X140730476Y-130228152D01*
X140730476Y-130228152D02*
X140778095Y-130037676D01*
X140778095Y-130037676D02*
X140873333Y-129942438D01*
X140873333Y-129942438D02*
X140968571Y-129894819D01*
X140968571Y-129894819D02*
X141159047Y-129894819D01*
X141159047Y-129894819D02*
X141254285Y-129942438D01*
X141254285Y-129942438D02*
X141349523Y-130037676D01*
X141349523Y-130037676D02*
X141397142Y-130228152D01*
X141397142Y-130228152D02*
X141397142Y-130561485D01*
X141397142Y-130561485D02*
X141349523Y-130751961D01*
X141349523Y-130751961D02*
X141254285Y-130847200D01*
X141254285Y-130847200D02*
X141159047Y-130894819D01*
X141159047Y-130894819D02*
X140968571Y-130894819D01*
X142349523Y-130894819D02*
X141778095Y-130894819D01*
X142063809Y-130894819D02*
X142063809Y-129894819D01*
X142063809Y-129894819D02*
X141968571Y-130037676D01*
X141968571Y-130037676D02*
X141873333Y-130132914D01*
X141873333Y-130132914D02*
X141778095Y-130180533D01*
X165341905Y-158534819D02*
X165341905Y-157534819D01*
X165341905Y-157534819D02*
X165580000Y-157534819D01*
X165580000Y-157534819D02*
X165722857Y-157582438D01*
X165722857Y-157582438D02*
X165818095Y-157677676D01*
X165818095Y-157677676D02*
X165865714Y-157772914D01*
X165865714Y-157772914D02*
X165913333Y-157963390D01*
X165913333Y-157963390D02*
X165913333Y-158106247D01*
X165913333Y-158106247D02*
X165865714Y-158296723D01*
X165865714Y-158296723D02*
X165818095Y-158391961D01*
X165818095Y-158391961D02*
X165722857Y-158487200D01*
X165722857Y-158487200D02*
X165580000Y-158534819D01*
X165580000Y-158534819D02*
X165341905Y-158534819D01*
X166294286Y-157630057D02*
X166341905Y-157582438D01*
X166341905Y-157582438D02*
X166437143Y-157534819D01*
X166437143Y-157534819D02*
X166675238Y-157534819D01*
X166675238Y-157534819D02*
X166770476Y-157582438D01*
X166770476Y-157582438D02*
X166818095Y-157630057D01*
X166818095Y-157630057D02*
X166865714Y-157725295D01*
X166865714Y-157725295D02*
X166865714Y-157820533D01*
X166865714Y-157820533D02*
X166818095Y-157963390D01*
X166818095Y-157963390D02*
X166246667Y-158534819D01*
X166246667Y-158534819D02*
X166865714Y-158534819D01*
X160738095Y-159254819D02*
X160738095Y-158254819D01*
X161309523Y-159254819D02*
X160880952Y-158683390D01*
X161309523Y-158254819D02*
X160738095Y-158826247D01*
X168333333Y-151859580D02*
X168285714Y-151907200D01*
X168285714Y-151907200D02*
X168142857Y-151954819D01*
X168142857Y-151954819D02*
X168047619Y-151954819D01*
X168047619Y-151954819D02*
X167904762Y-151907200D01*
X167904762Y-151907200D02*
X167809524Y-151811961D01*
X167809524Y-151811961D02*
X167761905Y-151716723D01*
X167761905Y-151716723D02*
X167714286Y-151526247D01*
X167714286Y-151526247D02*
X167714286Y-151383390D01*
X167714286Y-151383390D02*
X167761905Y-151192914D01*
X167761905Y-151192914D02*
X167809524Y-151097676D01*
X167809524Y-151097676D02*
X167904762Y-151002438D01*
X167904762Y-151002438D02*
X168047619Y-150954819D01*
X168047619Y-150954819D02*
X168142857Y-150954819D01*
X168142857Y-150954819D02*
X168285714Y-151002438D01*
X168285714Y-151002438D02*
X168333333Y-151050057D01*
X168714286Y-151050057D02*
X168761905Y-151002438D01*
X168761905Y-151002438D02*
X168857143Y-150954819D01*
X168857143Y-150954819D02*
X169095238Y-150954819D01*
X169095238Y-150954819D02*
X169190476Y-151002438D01*
X169190476Y-151002438D02*
X169238095Y-151050057D01*
X169238095Y-151050057D02*
X169285714Y-151145295D01*
X169285714Y-151145295D02*
X169285714Y-151240533D01*
X169285714Y-151240533D02*
X169238095Y-151383390D01*
X169238095Y-151383390D02*
X168666667Y-151954819D01*
X168666667Y-151954819D02*
X169285714Y-151954819D01*
X113859580Y-114166666D02*
X113907200Y-114214285D01*
X113907200Y-114214285D02*
X113954819Y-114357142D01*
X113954819Y-114357142D02*
X113954819Y-114452380D01*
X113954819Y-114452380D02*
X113907200Y-114595237D01*
X113907200Y-114595237D02*
X113811961Y-114690475D01*
X113811961Y-114690475D02*
X113716723Y-114738094D01*
X113716723Y-114738094D02*
X113526247Y-114785713D01*
X113526247Y-114785713D02*
X113383390Y-114785713D01*
X113383390Y-114785713D02*
X113192914Y-114738094D01*
X113192914Y-114738094D02*
X113097676Y-114690475D01*
X113097676Y-114690475D02*
X113002438Y-114595237D01*
X113002438Y-114595237D02*
X112954819Y-114452380D01*
X112954819Y-114452380D02*
X112954819Y-114357142D01*
X112954819Y-114357142D02*
X113002438Y-114214285D01*
X113002438Y-114214285D02*
X113050057Y-114166666D01*
X113383390Y-113595237D02*
X113335771Y-113690475D01*
X113335771Y-113690475D02*
X113288152Y-113738094D01*
X113288152Y-113738094D02*
X113192914Y-113785713D01*
X113192914Y-113785713D02*
X113145295Y-113785713D01*
X113145295Y-113785713D02*
X113050057Y-113738094D01*
X113050057Y-113738094D02*
X113002438Y-113690475D01*
X113002438Y-113690475D02*
X112954819Y-113595237D01*
X112954819Y-113595237D02*
X112954819Y-113404761D01*
X112954819Y-113404761D02*
X113002438Y-113309523D01*
X113002438Y-113309523D02*
X113050057Y-113261904D01*
X113050057Y-113261904D02*
X113145295Y-113214285D01*
X113145295Y-113214285D02*
X113192914Y-113214285D01*
X113192914Y-113214285D02*
X113288152Y-113261904D01*
X113288152Y-113261904D02*
X113335771Y-113309523D01*
X113335771Y-113309523D02*
X113383390Y-113404761D01*
X113383390Y-113404761D02*
X113383390Y-113595237D01*
X113383390Y-113595237D02*
X113431009Y-113690475D01*
X113431009Y-113690475D02*
X113478628Y-113738094D01*
X113478628Y-113738094D02*
X113573866Y-113785713D01*
X113573866Y-113785713D02*
X113764342Y-113785713D01*
X113764342Y-113785713D02*
X113859580Y-113738094D01*
X113859580Y-113738094D02*
X113907200Y-113690475D01*
X113907200Y-113690475D02*
X113954819Y-113595237D01*
X113954819Y-113595237D02*
X113954819Y-113404761D01*
X113954819Y-113404761D02*
X113907200Y-113309523D01*
X113907200Y-113309523D02*
X113859580Y-113261904D01*
X113859580Y-113261904D02*
X113764342Y-113214285D01*
X113764342Y-113214285D02*
X113573866Y-113214285D01*
X113573866Y-113214285D02*
X113478628Y-113261904D01*
X113478628Y-113261904D02*
X113431009Y-113309523D01*
X113431009Y-113309523D02*
X113383390Y-113404761D01*
X191954819Y-111761904D02*
X192764342Y-111761904D01*
X192764342Y-111761904D02*
X192859580Y-111714285D01*
X192859580Y-111714285D02*
X192907200Y-111666666D01*
X192907200Y-111666666D02*
X192954819Y-111571428D01*
X192954819Y-111571428D02*
X192954819Y-111380952D01*
X192954819Y-111380952D02*
X192907200Y-111285714D01*
X192907200Y-111285714D02*
X192859580Y-111238095D01*
X192859580Y-111238095D02*
X192764342Y-111190476D01*
X192764342Y-111190476D02*
X191954819Y-111190476D01*
X191954819Y-110809523D02*
X191954819Y-110190476D01*
X191954819Y-110190476D02*
X192335771Y-110523809D01*
X192335771Y-110523809D02*
X192335771Y-110380952D01*
X192335771Y-110380952D02*
X192383390Y-110285714D01*
X192383390Y-110285714D02*
X192431009Y-110238095D01*
X192431009Y-110238095D02*
X192526247Y-110190476D01*
X192526247Y-110190476D02*
X192764342Y-110190476D01*
X192764342Y-110190476D02*
X192859580Y-110238095D01*
X192859580Y-110238095D02*
X192907200Y-110285714D01*
X192907200Y-110285714D02*
X192954819Y-110380952D01*
X192954819Y-110380952D02*
X192954819Y-110666666D01*
X192954819Y-110666666D02*
X192907200Y-110761904D01*
X192907200Y-110761904D02*
X192859580Y-110809523D01*
X137761905Y-137254819D02*
X137761905Y-136254819D01*
X138333333Y-137254819D02*
X137904762Y-136683390D01*
X138333333Y-136254819D02*
X137761905Y-136826247D01*
X139285714Y-137254819D02*
X138714286Y-137254819D01*
X139000000Y-137254819D02*
X139000000Y-136254819D01*
X139000000Y-136254819D02*
X138904762Y-136397676D01*
X138904762Y-136397676D02*
X138809524Y-136492914D01*
X138809524Y-136492914D02*
X138714286Y-136540533D01*
X115913333Y-106084819D02*
X115580000Y-105608628D01*
X115341905Y-106084819D02*
X115341905Y-105084819D01*
X115341905Y-105084819D02*
X115722857Y-105084819D01*
X115722857Y-105084819D02*
X115818095Y-105132438D01*
X115818095Y-105132438D02*
X115865714Y-105180057D01*
X115865714Y-105180057D02*
X115913333Y-105275295D01*
X115913333Y-105275295D02*
X115913333Y-105418152D01*
X115913333Y-105418152D02*
X115865714Y-105513390D01*
X115865714Y-105513390D02*
X115818095Y-105561009D01*
X115818095Y-105561009D02*
X115722857Y-105608628D01*
X115722857Y-105608628D02*
X115341905Y-105608628D01*
X116294286Y-105180057D02*
X116341905Y-105132438D01*
X116341905Y-105132438D02*
X116437143Y-105084819D01*
X116437143Y-105084819D02*
X116675238Y-105084819D01*
X116675238Y-105084819D02*
X116770476Y-105132438D01*
X116770476Y-105132438D02*
X116818095Y-105180057D01*
X116818095Y-105180057D02*
X116865714Y-105275295D01*
X116865714Y-105275295D02*
X116865714Y-105370533D01*
X116865714Y-105370533D02*
X116818095Y-105513390D01*
X116818095Y-105513390D02*
X116246667Y-106084819D01*
X116246667Y-106084819D02*
X116865714Y-106084819D01*
X176083333Y-149959580D02*
X176035714Y-150007200D01*
X176035714Y-150007200D02*
X175892857Y-150054819D01*
X175892857Y-150054819D02*
X175797619Y-150054819D01*
X175797619Y-150054819D02*
X175654762Y-150007200D01*
X175654762Y-150007200D02*
X175559524Y-149911961D01*
X175559524Y-149911961D02*
X175511905Y-149816723D01*
X175511905Y-149816723D02*
X175464286Y-149626247D01*
X175464286Y-149626247D02*
X175464286Y-149483390D01*
X175464286Y-149483390D02*
X175511905Y-149292914D01*
X175511905Y-149292914D02*
X175559524Y-149197676D01*
X175559524Y-149197676D02*
X175654762Y-149102438D01*
X175654762Y-149102438D02*
X175797619Y-149054819D01*
X175797619Y-149054819D02*
X175892857Y-149054819D01*
X175892857Y-149054819D02*
X176035714Y-149102438D01*
X176035714Y-149102438D02*
X176083333Y-149150057D01*
X177035714Y-150054819D02*
X176464286Y-150054819D01*
X176750000Y-150054819D02*
X176750000Y-149054819D01*
X176750000Y-149054819D02*
X176654762Y-149197676D01*
X176654762Y-149197676D02*
X176559524Y-149292914D01*
X176559524Y-149292914D02*
X176464286Y-149340533D01*
X160174819Y-156358094D02*
X159174819Y-156358094D01*
X159174819Y-156358094D02*
X159174819Y-156119999D01*
X159174819Y-156119999D02*
X159222438Y-155977142D01*
X159222438Y-155977142D02*
X159317676Y-155881904D01*
X159317676Y-155881904D02*
X159412914Y-155834285D01*
X159412914Y-155834285D02*
X159603390Y-155786666D01*
X159603390Y-155786666D02*
X159746247Y-155786666D01*
X159746247Y-155786666D02*
X159936723Y-155834285D01*
X159936723Y-155834285D02*
X160031961Y-155881904D01*
X160031961Y-155881904D02*
X160127200Y-155977142D01*
X160127200Y-155977142D02*
X160174819Y-156119999D01*
X160174819Y-156119999D02*
X160174819Y-156358094D01*
X160174819Y-154834285D02*
X160174819Y-155405713D01*
X160174819Y-155119999D02*
X159174819Y-155119999D01*
X159174819Y-155119999D02*
X159317676Y-155215237D01*
X159317676Y-155215237D02*
X159412914Y-155310475D01*
X159412914Y-155310475D02*
X159460533Y-155405713D01*
X159054819Y-148261904D02*
X158054819Y-148261904D01*
X159054819Y-147690476D02*
X158483390Y-148119047D01*
X158054819Y-147690476D02*
X158626247Y-148261904D01*
X115444761Y-130990057D02*
X115349523Y-130942438D01*
X115349523Y-130942438D02*
X115254285Y-130847200D01*
X115254285Y-130847200D02*
X115111428Y-130704342D01*
X115111428Y-130704342D02*
X115016190Y-130656723D01*
X115016190Y-130656723D02*
X114920952Y-130656723D01*
X114968571Y-130894819D02*
X114873333Y-130847200D01*
X114873333Y-130847200D02*
X114778095Y-130751961D01*
X114778095Y-130751961D02*
X114730476Y-130561485D01*
X114730476Y-130561485D02*
X114730476Y-130228152D01*
X114730476Y-130228152D02*
X114778095Y-130037676D01*
X114778095Y-130037676D02*
X114873333Y-129942438D01*
X114873333Y-129942438D02*
X114968571Y-129894819D01*
X114968571Y-129894819D02*
X115159047Y-129894819D01*
X115159047Y-129894819D02*
X115254285Y-129942438D01*
X115254285Y-129942438D02*
X115349523Y-130037676D01*
X115349523Y-130037676D02*
X115397142Y-130228152D01*
X115397142Y-130228152D02*
X115397142Y-130561485D01*
X115397142Y-130561485D02*
X115349523Y-130751961D01*
X115349523Y-130751961D02*
X115254285Y-130847200D01*
X115254285Y-130847200D02*
X115159047Y-130894819D01*
X115159047Y-130894819D02*
X114968571Y-130894819D01*
X115778095Y-129990057D02*
X115825714Y-129942438D01*
X115825714Y-129942438D02*
X115920952Y-129894819D01*
X115920952Y-129894819D02*
X116159047Y-129894819D01*
X116159047Y-129894819D02*
X116254285Y-129942438D01*
X116254285Y-129942438D02*
X116301904Y-129990057D01*
X116301904Y-129990057D02*
X116349523Y-130085295D01*
X116349523Y-130085295D02*
X116349523Y-130180533D01*
X116349523Y-130180533D02*
X116301904Y-130323390D01*
X116301904Y-130323390D02*
X115730476Y-130894819D01*
X115730476Y-130894819D02*
X116349523Y-130894819D01*
X134833333Y-123359580D02*
X134785714Y-123407200D01*
X134785714Y-123407200D02*
X134642857Y-123454819D01*
X134642857Y-123454819D02*
X134547619Y-123454819D01*
X134547619Y-123454819D02*
X134404762Y-123407200D01*
X134404762Y-123407200D02*
X134309524Y-123311961D01*
X134309524Y-123311961D02*
X134261905Y-123216723D01*
X134261905Y-123216723D02*
X134214286Y-123026247D01*
X134214286Y-123026247D02*
X134214286Y-122883390D01*
X134214286Y-122883390D02*
X134261905Y-122692914D01*
X134261905Y-122692914D02*
X134309524Y-122597676D01*
X134309524Y-122597676D02*
X134404762Y-122502438D01*
X134404762Y-122502438D02*
X134547619Y-122454819D01*
X134547619Y-122454819D02*
X134642857Y-122454819D01*
X134642857Y-122454819D02*
X134785714Y-122502438D01*
X134785714Y-122502438D02*
X134833333Y-122550057D01*
X135690476Y-122788152D02*
X135690476Y-123454819D01*
X135452381Y-122407200D02*
X135214286Y-123121485D01*
X135214286Y-123121485D02*
X135833333Y-123121485D01*
X109937142Y-127084819D02*
X109603809Y-126608628D01*
X109365714Y-127084819D02*
X109365714Y-126084819D01*
X109365714Y-126084819D02*
X109746666Y-126084819D01*
X109746666Y-126084819D02*
X109841904Y-126132438D01*
X109841904Y-126132438D02*
X109889523Y-126180057D01*
X109889523Y-126180057D02*
X109937142Y-126275295D01*
X109937142Y-126275295D02*
X109937142Y-126418152D01*
X109937142Y-126418152D02*
X109889523Y-126513390D01*
X109889523Y-126513390D02*
X109841904Y-126561009D01*
X109841904Y-126561009D02*
X109746666Y-126608628D01*
X109746666Y-126608628D02*
X109365714Y-126608628D01*
X110889523Y-127084819D02*
X110318095Y-127084819D01*
X110603809Y-127084819D02*
X110603809Y-126084819D01*
X110603809Y-126084819D02*
X110508571Y-126227676D01*
X110508571Y-126227676D02*
X110413333Y-126322914D01*
X110413333Y-126322914D02*
X110318095Y-126370533D01*
X111746666Y-126418152D02*
X111746666Y-127084819D01*
X111508571Y-126037200D02*
X111270476Y-126751485D01*
X111270476Y-126751485D02*
X111889523Y-126751485D01*
%TO.C,C3*%
D11*
X172445225Y-144525000D02*
X172945225Y-144525000D01*
X172695225Y-144275000D02*
X172695225Y-144775000D01*
X175250000Y-143420000D02*
X175250000Y-148580000D01*
X175290000Y-143420000D02*
X175290000Y-148580000D01*
X175330000Y-143421000D02*
X175330000Y-148579000D01*
X175370000Y-143423000D02*
X175370000Y-148577000D01*
X175410000Y-143425000D02*
X175410000Y-148575000D01*
X175450000Y-143428000D02*
X175450000Y-148572000D01*
X175490000Y-143431000D02*
X175490000Y-144960000D01*
X175490000Y-147040000D02*
X175490000Y-148569000D01*
X175530000Y-143435000D02*
X175530000Y-144960000D01*
X175530000Y-147040000D02*
X175530000Y-148565000D01*
X175570000Y-143440000D02*
X175570000Y-144960000D01*
X175570000Y-147040000D02*
X175570000Y-148560000D01*
X175610000Y-143445000D02*
X175610000Y-144960000D01*
X175610000Y-147040000D02*
X175610000Y-148555000D01*
X175650000Y-143451000D02*
X175650000Y-144960000D01*
X175650000Y-147040000D02*
X175650000Y-148549000D01*
X175690000Y-143457000D02*
X175690000Y-144960000D01*
X175690000Y-147040000D02*
X175690000Y-148543000D01*
X175730000Y-143464000D02*
X175730000Y-144960000D01*
X175730000Y-147040000D02*
X175730000Y-148536000D01*
X175770000Y-143472000D02*
X175770000Y-144960000D01*
X175770000Y-147040000D02*
X175770000Y-148528000D01*
X175810000Y-143481000D02*
X175810000Y-144960000D01*
X175810000Y-147040000D02*
X175810000Y-148519000D01*
X175850000Y-143490000D02*
X175850000Y-144960000D01*
X175850000Y-147040000D02*
X175850000Y-148510000D01*
X175890000Y-143499000D02*
X175890000Y-144960000D01*
X175890000Y-147040000D02*
X175890000Y-148501000D01*
X175930000Y-143510000D02*
X175930000Y-144960000D01*
X175930000Y-147040000D02*
X175930000Y-148490000D01*
X175970000Y-143521000D02*
X175970000Y-144960000D01*
X175970000Y-147040000D02*
X175970000Y-148479000D01*
X176010000Y-143533000D02*
X176010000Y-144960000D01*
X176010000Y-147040000D02*
X176010000Y-148467000D01*
X176050000Y-143545000D02*
X176050000Y-144960000D01*
X176050000Y-147040000D02*
X176050000Y-148455000D01*
X176090000Y-143558000D02*
X176090000Y-144960000D01*
X176090000Y-147040000D02*
X176090000Y-148442000D01*
X176130000Y-143572000D02*
X176130000Y-144960000D01*
X176130000Y-147040000D02*
X176130000Y-148428000D01*
X176170000Y-143587000D02*
X176170000Y-144960000D01*
X176170000Y-147040000D02*
X176170000Y-148413000D01*
X176210000Y-143602000D02*
X176210000Y-144960000D01*
X176210000Y-147040000D02*
X176210000Y-148398000D01*
X176250000Y-143618000D02*
X176250000Y-144960000D01*
X176250000Y-147040000D02*
X176250000Y-148382000D01*
X176290000Y-143635000D02*
X176290000Y-144960000D01*
X176290000Y-147040000D02*
X176290000Y-148365000D01*
X176330000Y-143653000D02*
X176330000Y-144960000D01*
X176330000Y-147040000D02*
X176330000Y-148347000D01*
X176370000Y-143671000D02*
X176370000Y-144960000D01*
X176370000Y-147040000D02*
X176370000Y-148329000D01*
X176410000Y-143691000D02*
X176410000Y-144960000D01*
X176410000Y-147040000D02*
X176410000Y-148309000D01*
X176450000Y-143711000D02*
X176450000Y-144960000D01*
X176450000Y-147040000D02*
X176450000Y-148289000D01*
X176490000Y-143732000D02*
X176490000Y-144960000D01*
X176490000Y-147040000D02*
X176490000Y-148268000D01*
X176530000Y-143754000D02*
X176530000Y-144960000D01*
X176530000Y-147040000D02*
X176530000Y-148246000D01*
X176570000Y-143777000D02*
X176570000Y-144960000D01*
X176570000Y-147040000D02*
X176570000Y-148223000D01*
X176610000Y-143801000D02*
X176610000Y-144960000D01*
X176610000Y-147040000D02*
X176610000Y-148199000D01*
X176650000Y-143825000D02*
X176650000Y-144960000D01*
X176650000Y-147040000D02*
X176650000Y-148175000D01*
X176690000Y-143851000D02*
X176690000Y-144960000D01*
X176690000Y-147040000D02*
X176690000Y-148149000D01*
X176730000Y-143878000D02*
X176730000Y-144960000D01*
X176730000Y-147040000D02*
X176730000Y-148122000D01*
X176770000Y-143906000D02*
X176770000Y-144960000D01*
X176770000Y-147040000D02*
X176770000Y-148094000D01*
X176810000Y-143935000D02*
X176810000Y-144960000D01*
X176810000Y-147040000D02*
X176810000Y-148065000D01*
X176850000Y-143965000D02*
X176850000Y-144960000D01*
X176850000Y-147040000D02*
X176850000Y-148035000D01*
X176890000Y-143997000D02*
X176890000Y-144960000D01*
X176890000Y-147040000D02*
X176890000Y-148003000D01*
X176930000Y-144030000D02*
X176930000Y-144960000D01*
X176930000Y-147040000D02*
X176930000Y-147970000D01*
X176970000Y-144064000D02*
X176970000Y-144960000D01*
X176970000Y-147040000D02*
X176970000Y-147936000D01*
X177010000Y-144099000D02*
X177010000Y-144960000D01*
X177010000Y-147040000D02*
X177010000Y-147901000D01*
X177050000Y-144136000D02*
X177050000Y-144960000D01*
X177050000Y-147040000D02*
X177050000Y-147864000D01*
X177090000Y-144175000D02*
X177090000Y-144960000D01*
X177090000Y-147040000D02*
X177090000Y-147825000D01*
X177130000Y-144215000D02*
X177130000Y-144960000D01*
X177130000Y-147040000D02*
X177130000Y-147785000D01*
X177170000Y-144257000D02*
X177170000Y-144960000D01*
X177170000Y-147040000D02*
X177170000Y-147743000D01*
X177210000Y-144301000D02*
X177210000Y-144960000D01*
X177210000Y-147040000D02*
X177210000Y-147699000D01*
X177250000Y-144348000D02*
X177250000Y-144960000D01*
X177250000Y-147040000D02*
X177250000Y-147652000D01*
X177290000Y-144396000D02*
X177290000Y-144960000D01*
X177290000Y-147040000D02*
X177290000Y-147604000D01*
X177330000Y-144447000D02*
X177330000Y-144960000D01*
X177330000Y-147040000D02*
X177330000Y-147553000D01*
X177370000Y-144501000D02*
X177370000Y-144960000D01*
X177370000Y-147040000D02*
X177370000Y-147499000D01*
X177410000Y-144557000D02*
X177410000Y-144960000D01*
X177410000Y-147040000D02*
X177410000Y-147443000D01*
X177450000Y-144617000D02*
X177450000Y-144960000D01*
X177450000Y-147040000D02*
X177450000Y-147383000D01*
X177490000Y-144681000D02*
X177490000Y-144960000D01*
X177490000Y-147040000D02*
X177490000Y-147319000D01*
X177530000Y-144749000D02*
X177530000Y-144960000D01*
X177530000Y-147040000D02*
X177530000Y-147251000D01*
X177570000Y-144823000D02*
X177570000Y-147177000D01*
X177610000Y-144902000D02*
X177610000Y-147098000D01*
X177650000Y-144989000D02*
X177650000Y-147011000D01*
X177690000Y-145086000D02*
X177690000Y-146914000D01*
X177730000Y-145195000D02*
X177730000Y-146805000D01*
X177770000Y-145323000D02*
X177770000Y-146677000D01*
X177810000Y-145483000D02*
X177810000Y-146517000D01*
X177850000Y-145717000D02*
X177850000Y-146283000D01*
X177870000Y-146000000D02*
G75*
G02*
X172630000Y-146000000I-2620000J0D01*
G01*
X172630000Y-146000000D02*
G75*
G02*
X177870000Y-146000000I2620000J0D01*
G01*
%TO.C,U1*%
X159360000Y-133150000D02*
X170260000Y-133150000D01*
X170260000Y-149650000D01*
X159360000Y-149650000D01*
X159360000Y-133150000D01*
%TO.C,R3*%
X156000000Y-112880000D02*
X156000000Y-113650000D01*
X156000000Y-120960000D02*
X156000000Y-120190000D01*
X154630000Y-113650000D02*
X157370000Y-113650000D01*
X157370000Y-120190000D01*
X154630000Y-120190000D01*
X154630000Y-113650000D01*
%TO.C,J3*%
X113380000Y-158680000D02*
X123620000Y-158680000D01*
X113380000Y-161700000D02*
X123620000Y-161700000D01*
X113380000Y-166600000D02*
X123620000Y-166600000D01*
X113380000Y-168100000D02*
X123620000Y-168100000D01*
X113380000Y-168720000D02*
X113380000Y-158680000D01*
X115700000Y-168720000D02*
X113380000Y-168720000D01*
X123620000Y-158680000D02*
X123620000Y-168720000D01*
X123620000Y-168720000D02*
X116300000Y-168720000D01*
X116000000Y-168720000D02*
X116440000Y-169330000D01*
X115560000Y-169330000D01*
X116000000Y-168720000D01*
G36*
X116440000Y-169330000D02*
G01*
X115560000Y-169330000D01*
X116000000Y-168720000D01*
X116440000Y-169330000D01*
G37*
%TO.C,U2*%
X137540000Y-101890000D02*
X137540000Y-122330000D01*
X137540000Y-122330000D02*
X139190000Y-122330000D01*
X141190000Y-122330000D02*
X142840000Y-122330000D01*
X142840000Y-101890000D02*
X137540000Y-101890000D01*
X142840000Y-122330000D02*
X142840000Y-101890000D01*
X135050000Y-101830000D02*
X145330000Y-101830000D01*
X145330000Y-122390000D01*
X135050000Y-122390000D01*
X135050000Y-101830000D01*
X139190000Y-122330000D02*
G75*
G02*
X141190000Y-122330000I1000000J0D01*
G01*
%TO.C,R5*%
X150040000Y-104000000D02*
X150810000Y-104000000D01*
X158120000Y-104000000D02*
X157350000Y-104000000D01*
X150810000Y-102630000D02*
X157350000Y-102630000D01*
X157350000Y-105370000D01*
X150810000Y-105370000D01*
X150810000Y-102630000D01*
%TO.C,K2*%
X102200000Y-138200000D02*
X122000000Y-138200000D01*
X102200000Y-153800000D02*
X102200000Y-138200000D01*
X106450000Y-141800000D02*
X106450000Y-144250000D01*
X106450000Y-150200000D02*
X106450000Y-147700000D01*
X109650000Y-145950000D02*
X105050000Y-148450000D01*
X111150000Y-142350000D02*
X117950000Y-142350000D01*
X111150000Y-145950000D02*
X109650000Y-145950000D01*
X111150000Y-145950000D02*
X111150000Y-142350000D01*
X112550000Y-144150000D02*
X116550000Y-144150000D01*
X112550000Y-144150000D02*
X116550000Y-147750000D01*
X112550000Y-147750000D02*
X112550000Y-144150000D01*
X114550000Y-144150000D02*
X114550000Y-139950000D01*
X114550000Y-151950000D02*
X114550000Y-147750000D01*
X114550000Y-151950000D02*
X117050000Y-151950000D01*
X116550000Y-144150000D02*
X116550000Y-147750000D01*
X116550000Y-147750000D02*
X112550000Y-147750000D01*
X117050000Y-139950000D02*
X114550000Y-139950000D01*
X117950000Y-145950000D02*
X117950000Y-142350000D01*
X117950000Y-145950000D02*
X118750000Y-145950000D01*
X122000000Y-144800000D02*
X122000000Y-138200000D01*
X122000000Y-153800000D02*
X102200000Y-153800000D01*
X122000000Y-153800000D02*
X122000000Y-147200000D01*
%TO.C,R1*%
X150040000Y-108000000D02*
X150810000Y-108000000D01*
X158120000Y-108000000D02*
X157350000Y-108000000D01*
X150810000Y-106630000D02*
X157350000Y-106630000D01*
X157350000Y-109370000D01*
X150810000Y-109370000D01*
X150810000Y-106630000D01*
%TO.C,J2*%
X127380000Y-158680000D02*
X137620000Y-158680000D01*
X127380000Y-161700000D02*
X137620000Y-161700000D01*
X127380000Y-166600000D02*
X137620000Y-166600000D01*
X127380000Y-168100000D02*
X137620000Y-168100000D01*
X127380000Y-168720000D02*
X127380000Y-158680000D01*
X129700000Y-168720000D02*
X127380000Y-168720000D01*
X137620000Y-158680000D02*
X137620000Y-168720000D01*
X137620000Y-168720000D02*
X130300000Y-168720000D01*
X130000000Y-168720000D02*
X130440000Y-169330000D01*
X129560000Y-169330000D01*
X130000000Y-168720000D01*
G36*
X130440000Y-169330000D02*
G01*
X129560000Y-169330000D01*
X130000000Y-168720000D01*
X130440000Y-169330000D01*
G37*
%TO.C,R13*%
X132540000Y-129000000D02*
X133310000Y-129000000D01*
X140620000Y-129000000D02*
X139850000Y-129000000D01*
X133310000Y-127630000D02*
X139850000Y-127630000D01*
X139850000Y-130370000D01*
X133310000Y-130370000D01*
X133310000Y-127630000D01*
%TO.C,D4*%
X149530000Y-147120000D02*
X152470000Y-147120000D01*
X149530000Y-147240000D02*
X152470000Y-147240000D01*
X149530000Y-147360000D02*
X152470000Y-147360000D01*
X151000000Y-141680000D02*
X151000000Y-142700000D01*
X151000000Y-149160000D02*
X151000000Y-148140000D01*
X149530000Y-142700000D02*
X152470000Y-142700000D01*
X152470000Y-148140000D01*
X149530000Y-148140000D01*
X149530000Y-142700000D01*
%TO.C,R4*%
X124500000Y-112880000D02*
X124500000Y-113650000D01*
X124500000Y-120960000D02*
X124500000Y-120190000D01*
X123130000Y-113650000D02*
X125870000Y-113650000D01*
X125870000Y-120190000D01*
X123130000Y-120190000D01*
X123130000Y-113650000D01*
%TO.C,C7*%
X162630000Y-110880000D02*
X162967000Y-110880000D01*
X162630000Y-116120000D02*
X162630000Y-110880000D01*
X162967000Y-116120000D02*
X162630000Y-116120000D01*
X165033000Y-110880000D02*
X165370000Y-110880000D01*
X165370000Y-110880000D02*
X165370000Y-116120000D01*
X165370000Y-116120000D02*
X165033000Y-116120000D01*
%TO.C,D5*%
X123530000Y-147120000D02*
X126470000Y-147120000D01*
X123530000Y-147240000D02*
X126470000Y-147240000D01*
X123530000Y-147360000D02*
X126470000Y-147360000D01*
X125000000Y-141680000D02*
X125000000Y-142700000D01*
X125000000Y-149160000D02*
X125000000Y-148140000D01*
X123530000Y-142700000D02*
X126470000Y-142700000D01*
X126470000Y-148140000D01*
X123530000Y-148140000D01*
X123530000Y-142700000D01*
%TO.C,D7*%
X121710000Y-132764000D02*
X121710000Y-132920000D01*
X121710000Y-135080000D02*
X121710000Y-135236000D01*
X121710000Y-132764484D02*
G75*
G02*
X124941437Y-132920000I1560000J-1235516D01*
G01*
X122229039Y-132920000D02*
G75*
G02*
X124310961Y-132920000I1040961J-1080000D01*
G01*
X124310961Y-135080000D02*
G75*
G02*
X122229039Y-135080000I-1040961J1080000D01*
G01*
X124941437Y-135080000D02*
G75*
G02*
X121710000Y-135235516I-1671437J1080000D01*
G01*
%TO.C,J1*%
X139380000Y-158680000D02*
X149620000Y-158680000D01*
X139380000Y-161700000D02*
X149620000Y-161700000D01*
X139380000Y-166600000D02*
X149620000Y-166600000D01*
X139380000Y-168100000D02*
X149620000Y-168100000D01*
X139380000Y-168720000D02*
X139380000Y-158680000D01*
X141700000Y-168720000D02*
X139380000Y-168720000D01*
X149620000Y-158680000D02*
X149620000Y-168720000D01*
X149620000Y-168720000D02*
X142300000Y-168720000D01*
X142000000Y-168720000D02*
X142440000Y-169330000D01*
X141560000Y-169330000D01*
X142000000Y-168720000D01*
G36*
X142440000Y-169330000D02*
G01*
X141560000Y-169330000D01*
X142000000Y-168720000D01*
X142440000Y-169330000D01*
G37*
%TO.C,D3*%
X184000000Y-129840000D02*
X184000000Y-130750000D01*
X184000000Y-141400000D02*
X184000000Y-140490000D01*
X186720000Y-132175000D02*
X181280000Y-132175000D01*
X186720000Y-132295000D02*
X181280000Y-132295000D01*
X186720000Y-132415000D02*
X181280000Y-132415000D01*
X181280000Y-130750000D02*
X186720000Y-130750000D01*
X186720000Y-140490000D01*
X181280000Y-140490000D01*
X181280000Y-130750000D01*
%TO.C,R6*%
X112040000Y-104000000D02*
X112810000Y-104000000D01*
X120120000Y-104000000D02*
X119350000Y-104000000D01*
X112810000Y-102630000D02*
X119350000Y-102630000D01*
X119350000Y-105370000D01*
X112810000Y-105370000D01*
X112810000Y-102630000D01*
%TO.C,J4*%
X101380000Y-158680000D02*
X111620000Y-158680000D01*
X101380000Y-161700000D02*
X111620000Y-161700000D01*
X101380000Y-166600000D02*
X111620000Y-166600000D01*
X101380000Y-168100000D02*
X111620000Y-168100000D01*
X101380000Y-168720000D02*
X101380000Y-158680000D01*
X103700000Y-168720000D02*
X101380000Y-168720000D01*
X111620000Y-158680000D02*
X111620000Y-168720000D01*
X111620000Y-168720000D02*
X104300000Y-168720000D01*
X104000000Y-168720000D02*
X104440000Y-169330000D01*
X103560000Y-169330000D01*
X104000000Y-168720000D01*
G36*
X104440000Y-169330000D02*
G01*
X103560000Y-169330000D01*
X104000000Y-168720000D01*
X104440000Y-169330000D01*
G37*
%TO.C,D6*%
X147710000Y-132764000D02*
X147710000Y-132920000D01*
X147710000Y-135080000D02*
X147710000Y-135236000D01*
X147710000Y-132764484D02*
G75*
G02*
X150941437Y-132920000I1560000J-1235516D01*
G01*
X148229039Y-132920000D02*
G75*
G02*
X150310961Y-132920000I1040961J-1080000D01*
G01*
X150310961Y-135080000D02*
G75*
G02*
X148229039Y-135080000I-1040961J1080000D01*
G01*
X150941437Y-135080000D02*
G75*
G02*
X147710000Y-135235516I-1671437J1080000D01*
G01*
%TO.C,Q1*%
X139740000Y-135850000D02*
X143340000Y-135850000D01*
X139183600Y-132901193D02*
G75*
G02*
X141540000Y-131400000I2356400J-1098807D01*
G01*
X139740000Y-135850000D02*
G75*
G02*
X139215816Y-135122795I1800000J1850000D01*
G01*
X141540000Y-131400000D02*
G75*
G02*
X143896400Y-132901193I0J-2600000D01*
G01*
X143864184Y-135122795D02*
G75*
G02*
X143340000Y-135850000I-2324184J1122795D01*
G01*
%TO.C,D2*%
X162160000Y-159080000D02*
X170000000Y-159080000D01*
X162160000Y-159560000D02*
X162160000Y-159080000D01*
X162160000Y-162440000D02*
X162160000Y-162920000D01*
X162160000Y-162920000D02*
X170000000Y-162920000D01*
X163300000Y-159080000D02*
X163300000Y-162920000D01*
X163420000Y-159080000D02*
X163420000Y-162920000D01*
X163540000Y-159080000D02*
X163540000Y-162920000D01*
X170000000Y-159080000D02*
X170000000Y-159560000D01*
X170000000Y-162920000D02*
X170000000Y-162440000D01*
%TO.C,C2*%
X165880000Y-152630000D02*
X171120000Y-152630000D01*
X165880000Y-152967000D02*
X165880000Y-152630000D01*
X165880000Y-155370000D02*
X165880000Y-155033000D01*
X171120000Y-152630000D02*
X171120000Y-152967000D01*
X171120000Y-155033000D02*
X171120000Y-155370000D01*
X171120000Y-155370000D02*
X165880000Y-155370000D01*
%TO.C,C8*%
X114630000Y-111380000D02*
X114967000Y-111380000D01*
X114630000Y-116620000D02*
X114630000Y-111380000D01*
X114967000Y-116620000D02*
X114630000Y-116620000D01*
X117033000Y-111380000D02*
X117370000Y-111380000D01*
X117370000Y-111380000D02*
X117370000Y-116620000D01*
X117370000Y-116620000D02*
X117033000Y-116620000D01*
%TO.C,U3*%
D10*
X168740000Y-102000000D02*
X191260000Y-102000000D01*
X191260000Y-120000000D01*
X168740000Y-120000000D01*
X168740000Y-102000000D01*
%TO.C,K1*%
D11*
X128200000Y-138200000D02*
X148000000Y-138200000D01*
X128200000Y-153800000D02*
X128200000Y-138200000D01*
X132450000Y-141800000D02*
X132450000Y-144250000D01*
X132450000Y-150200000D02*
X132450000Y-147700000D01*
X135650000Y-145950000D02*
X131050000Y-148450000D01*
X137150000Y-142350000D02*
X143950000Y-142350000D01*
X137150000Y-145950000D02*
X135650000Y-145950000D01*
X137150000Y-145950000D02*
X137150000Y-142350000D01*
X138550000Y-144150000D02*
X142550000Y-144150000D01*
X138550000Y-144150000D02*
X142550000Y-147750000D01*
X138550000Y-147750000D02*
X138550000Y-144150000D01*
X140550000Y-144150000D02*
X140550000Y-139950000D01*
X140550000Y-151950000D02*
X140550000Y-147750000D01*
X140550000Y-151950000D02*
X143050000Y-151950000D01*
X142550000Y-144150000D02*
X142550000Y-147750000D01*
X142550000Y-147750000D02*
X138550000Y-147750000D01*
X143050000Y-139950000D02*
X140550000Y-139950000D01*
X143950000Y-145950000D02*
X143950000Y-142350000D01*
X143950000Y-145950000D02*
X144750000Y-145950000D01*
X148000000Y-144800000D02*
X148000000Y-138200000D01*
X148000000Y-153800000D02*
X128200000Y-153800000D01*
X148000000Y-153800000D02*
X148000000Y-147200000D01*
%TO.C,R2*%
X112040000Y-108000000D02*
X112810000Y-108000000D01*
X120120000Y-108000000D02*
X119350000Y-108000000D01*
X112810000Y-106630000D02*
X119350000Y-106630000D01*
X119350000Y-109370000D01*
X112810000Y-109370000D01*
X112810000Y-106630000D01*
%TO.C,C1*%
X172749759Y-152161000D02*
X173379759Y-152161000D01*
X173064759Y-151846000D02*
X173064759Y-152476000D01*
X176250000Y-150770000D02*
X176250000Y-157230000D01*
X176290000Y-150770000D02*
X176290000Y-157230000D01*
X176330000Y-150771000D02*
X176330000Y-157229000D01*
X176370000Y-150772000D02*
X176370000Y-157228000D01*
X176410000Y-150774000D02*
X176410000Y-157226000D01*
X176450000Y-150776000D02*
X176450000Y-157224000D01*
X176490000Y-150779000D02*
X176490000Y-152960000D01*
X176490000Y-155040000D02*
X176490000Y-157221000D01*
X176530000Y-150782000D02*
X176530000Y-152960000D01*
X176530000Y-155040000D02*
X176530000Y-157218000D01*
X176570000Y-150786000D02*
X176570000Y-152960000D01*
X176570000Y-155040000D02*
X176570000Y-157214000D01*
X176610000Y-150790000D02*
X176610000Y-152960000D01*
X176610000Y-155040000D02*
X176610000Y-157210000D01*
X176650000Y-150795000D02*
X176650000Y-152960000D01*
X176650000Y-155040000D02*
X176650000Y-157205000D01*
X176690000Y-150800000D02*
X176690000Y-152960000D01*
X176690000Y-155040000D02*
X176690000Y-157200000D01*
X176730000Y-150805000D02*
X176730000Y-152960000D01*
X176730000Y-155040000D02*
X176730000Y-157195000D01*
X176770000Y-150812000D02*
X176770000Y-152960000D01*
X176770000Y-155040000D02*
X176770000Y-157188000D01*
X176810000Y-150818000D02*
X176810000Y-152960000D01*
X176810000Y-155040000D02*
X176810000Y-157182000D01*
X176850000Y-150826000D02*
X176850000Y-152960000D01*
X176850000Y-155040000D02*
X176850000Y-157174000D01*
X176890000Y-150833000D02*
X176890000Y-152960000D01*
X176890000Y-155040000D02*
X176890000Y-157167000D01*
X176930000Y-150841000D02*
X176930000Y-152960000D01*
X176930000Y-155040000D02*
X176930000Y-157159000D01*
X176970000Y-150850000D02*
X176970000Y-152960000D01*
X176970000Y-155040000D02*
X176970000Y-157150000D01*
X177010000Y-150860000D02*
X177010000Y-152960000D01*
X177010000Y-155040000D02*
X177010000Y-157140000D01*
X177050000Y-150869000D02*
X177050000Y-152960000D01*
X177050000Y-155040000D02*
X177050000Y-157131000D01*
X177090000Y-150880000D02*
X177090000Y-152960000D01*
X177090000Y-155040000D02*
X177090000Y-157120000D01*
X177130000Y-150891000D02*
X177130000Y-152960000D01*
X177130000Y-155040000D02*
X177130000Y-157109000D01*
X177170000Y-150902000D02*
X177170000Y-152960000D01*
X177170000Y-155040000D02*
X177170000Y-157098000D01*
X177210000Y-150914000D02*
X177210000Y-152960000D01*
X177210000Y-155040000D02*
X177210000Y-157086000D01*
X177250000Y-150927000D02*
X177250000Y-152960000D01*
X177250000Y-155040000D02*
X177250000Y-157073000D01*
X177290000Y-150940000D02*
X177290000Y-152960000D01*
X177290000Y-155040000D02*
X177290000Y-157060000D01*
X177330000Y-150953000D02*
X177330000Y-152960000D01*
X177330000Y-155040000D02*
X177330000Y-157047000D01*
X177370000Y-150968000D02*
X177370000Y-152960000D01*
X177370000Y-155040000D02*
X177370000Y-157032000D01*
X177410000Y-150983000D02*
X177410000Y-152960000D01*
X177410000Y-155040000D02*
X177410000Y-157017000D01*
X177450000Y-150998000D02*
X177450000Y-152960000D01*
X177450000Y-155040000D02*
X177450000Y-157002000D01*
X177490000Y-151014000D02*
X177490000Y-152960000D01*
X177490000Y-155040000D02*
X177490000Y-156986000D01*
X177530000Y-151031000D02*
X177530000Y-152960000D01*
X177530000Y-155040000D02*
X177530000Y-156969000D01*
X177570000Y-151048000D02*
X177570000Y-152960000D01*
X177570000Y-155040000D02*
X177570000Y-156952000D01*
X177610000Y-151066000D02*
X177610000Y-152960000D01*
X177610000Y-155040000D02*
X177610000Y-156934000D01*
X177650000Y-151085000D02*
X177650000Y-152960000D01*
X177650000Y-155040000D02*
X177650000Y-156915000D01*
X177690000Y-151104000D02*
X177690000Y-152960000D01*
X177690000Y-155040000D02*
X177690000Y-156896000D01*
X177730000Y-151124000D02*
X177730000Y-152960000D01*
X177730000Y-155040000D02*
X177730000Y-156876000D01*
X177770000Y-151145000D02*
X177770000Y-152960000D01*
X177770000Y-155040000D02*
X177770000Y-156855000D01*
X177810000Y-151166000D02*
X177810000Y-152960000D01*
X177810000Y-155040000D02*
X177810000Y-156834000D01*
X177850000Y-151188000D02*
X177850000Y-152960000D01*
X177850000Y-155040000D02*
X177850000Y-156812000D01*
X177890000Y-151211000D02*
X177890000Y-152960000D01*
X177890000Y-155040000D02*
X177890000Y-156789000D01*
X177930000Y-151235000D02*
X177930000Y-152960000D01*
X177930000Y-155040000D02*
X177930000Y-156765000D01*
X177970000Y-151259000D02*
X177970000Y-152960000D01*
X177970000Y-155040000D02*
X177970000Y-156741000D01*
X178010000Y-151284000D02*
X178010000Y-152960000D01*
X178010000Y-155040000D02*
X178010000Y-156716000D01*
X178050000Y-151310000D02*
X178050000Y-152960000D01*
X178050000Y-155040000D02*
X178050000Y-156690000D01*
X178090000Y-151337000D02*
X178090000Y-152960000D01*
X178090000Y-155040000D02*
X178090000Y-156663000D01*
X178130000Y-151364000D02*
X178130000Y-152960000D01*
X178130000Y-155040000D02*
X178130000Y-156636000D01*
X178170000Y-151393000D02*
X178170000Y-152960000D01*
X178170000Y-155040000D02*
X178170000Y-156607000D01*
X178210000Y-151423000D02*
X178210000Y-152960000D01*
X178210000Y-155040000D02*
X178210000Y-156577000D01*
X178250000Y-151453000D02*
X178250000Y-152960000D01*
X178250000Y-155040000D02*
X178250000Y-156547000D01*
X178290000Y-151484000D02*
X178290000Y-152960000D01*
X178290000Y-155040000D02*
X178290000Y-156516000D01*
X178330000Y-151517000D02*
X178330000Y-152960000D01*
X178330000Y-155040000D02*
X178330000Y-156483000D01*
X178370000Y-151550000D02*
X178370000Y-152960000D01*
X178370000Y-155040000D02*
X178370000Y-156450000D01*
X178410000Y-151585000D02*
X178410000Y-152960000D01*
X178410000Y-155040000D02*
X178410000Y-156415000D01*
X178450000Y-151621000D02*
X178450000Y-152960000D01*
X178450000Y-155040000D02*
X178450000Y-156379000D01*
X178490000Y-151658000D02*
X178490000Y-152960000D01*
X178490000Y-155040000D02*
X178490000Y-156342000D01*
X178530000Y-151696000D02*
X178530000Y-152960000D01*
X178530000Y-155040000D02*
X178530000Y-156304000D01*
X178570000Y-151736000D02*
X178570000Y-156264000D01*
X178610000Y-151777000D02*
X178610000Y-156223000D01*
X178650000Y-151819000D02*
X178650000Y-156181000D01*
X178690000Y-151863000D02*
X178690000Y-156137000D01*
X178730000Y-151909000D02*
X178730000Y-156091000D01*
X178770000Y-151956000D02*
X178770000Y-156044000D01*
X178810000Y-152005000D02*
X178810000Y-155995000D01*
X178850000Y-152057000D02*
X178850000Y-155943000D01*
X178890000Y-152110000D02*
X178890000Y-155890000D01*
X178930000Y-152166000D02*
X178930000Y-155834000D01*
X178970000Y-152225000D02*
X178970000Y-155775000D01*
X179010000Y-152286000D02*
X179010000Y-155714000D01*
X179050000Y-152351000D02*
X179050000Y-155649000D01*
X179090000Y-152419000D02*
X179090000Y-155581000D01*
X179130000Y-152491000D02*
X179130000Y-155509000D01*
X179170000Y-152568000D02*
X179170000Y-155432000D01*
X179210000Y-152650000D02*
X179210000Y-155350000D01*
X179250000Y-152739000D02*
X179250000Y-155261000D01*
X179290000Y-152835000D02*
X179290000Y-155165000D01*
X179330000Y-152942000D02*
X179330000Y-155058000D01*
X179370000Y-153061000D02*
X179370000Y-154939000D01*
X179410000Y-153199000D02*
X179410000Y-154801000D01*
X179450000Y-153367000D02*
X179450000Y-154633000D01*
X179490000Y-153598000D02*
X179490000Y-154402000D01*
X179520000Y-154000000D02*
G75*
G02*
X172980000Y-154000000I-3270000J0D01*
G01*
X172980000Y-154000000D02*
G75*
G02*
X179520000Y-154000000I3270000J0D01*
G01*
%TO.C,D1*%
X156000000Y-149840000D02*
X156000000Y-150750000D01*
X156000000Y-161400000D02*
X156000000Y-160490000D01*
X158720000Y-152175000D02*
X153280000Y-152175000D01*
X158720000Y-152295000D02*
X153280000Y-152295000D01*
X158720000Y-152415000D02*
X153280000Y-152415000D01*
X153280000Y-150750000D02*
X158720000Y-150750000D01*
X158720000Y-160490000D01*
X153280000Y-160490000D01*
X153280000Y-150750000D01*
%TO.C,Q2*%
X113740000Y-135850000D02*
X117340000Y-135850000D01*
X113183600Y-132901193D02*
G75*
G02*
X115540000Y-131400000I2356400J-1098807D01*
G01*
X113740000Y-135850000D02*
G75*
G02*
X113215816Y-135122795I1800000J1850000D01*
G01*
X115540000Y-131400000D02*
G75*
G02*
X117896400Y-132901193I0J-2600000D01*
G01*
X117864184Y-135122795D02*
G75*
G02*
X117340000Y-135850000I-2324184J1122795D01*
G01*
%TO.C,C4*%
X132380000Y-124130000D02*
X137620000Y-124130000D01*
X132380000Y-124467000D02*
X132380000Y-124130000D01*
X132380000Y-126870000D02*
X132380000Y-126533000D01*
X137620000Y-124130000D02*
X137620000Y-124467000D01*
X137620000Y-126533000D02*
X137620000Y-126870000D01*
X137620000Y-126870000D02*
X132380000Y-126870000D01*
%TO.C,R14*%
X106540000Y-129000000D02*
X107310000Y-129000000D01*
X114620000Y-129000000D02*
X113850000Y-129000000D01*
X107310000Y-127630000D02*
X113850000Y-127630000D01*
X113850000Y-130370000D01*
X107310000Y-130370000D01*
X107310000Y-127630000D01*
%TD*%
M02*
