%TF.GenerationSoftware,KiCad,Pcbnew,10.0.5*%
%TF.CreationDate,2026-09-26T15:51:20+02:00*%
%TF.ProjectId,texecom-power-reset,74657865-636f-46d2-9d70-6f7765722d72,rev?*%
%TF.SameCoordinates,Original*%
%TF.FileFunction,Other,User*%
%FSLAX46Y46*%
G04 Gerber Fmt 4.6, Leading zero omitted, Abs format (unit mm)*
G04 Created by KiCad (PCBNEW 10.0.5) date 2026-09-26 15:51:20*
%MOMM*%
%LPD*%
G01*
G04 APERTURE LIST*
%ADD10C,0.150000*%
G04 APERTURE END LIST*
D10*
X101380000Y-158680000D02*
X111620000Y-158680000D01*
X101380000Y-161700000D02*
X111620000Y-161700000D01*
X101380000Y-166600000D02*
X111620000Y-166600000D01*
X101380000Y-168100000D02*
X111620000Y-168100000D01*
X101380000Y-168720000D02*
X101380000Y-158680000D01*
X102200000Y-138200000D02*
X105075682Y-138200000D01*
X102200000Y-153800000D02*
X102200000Y-138200000D01*
X103700000Y-168720000D02*
X101380000Y-168720000D01*
X105090844Y-153800000D02*
X102200000Y-153800000D01*
X106450000Y-142175000D02*
X106450000Y-144250000D01*
X106450000Y-149774999D02*
X106450000Y-147700000D01*
X107310000Y-127630000D02*
X113850000Y-127630000D01*
X107310000Y-128784239D02*
X107310000Y-127630000D01*
X107310000Y-130370000D02*
X107310000Y-129215760D01*
X107824317Y-138200000D02*
X117844392Y-138200000D01*
X109378237Y-105225000D02*
G75*
G02*
X108378237Y-105225000I-500000J0D01*
G01*
X108378237Y-105225000D02*
G75*
G02*
X109378237Y-105225000I500000J0D01*
G01*
X109650000Y-145950000D02*
X105050000Y-148450000D01*
X111121852Y-130370000D02*
X107310000Y-130370000D01*
X111150000Y-142350000D02*
X117950000Y-142350000D01*
X111150000Y-145950000D02*
X109650000Y-145950000D01*
X111150000Y-145950000D02*
X111150000Y-142350000D01*
X111620000Y-158680000D02*
X111620000Y-168720000D01*
X111620000Y-168720000D02*
X104300000Y-168720000D01*
X112725000Y-110121762D02*
G75*
G02*
X111725000Y-110121762I-500000J0D01*
G01*
X111725000Y-110121762D02*
G75*
G02*
X112725000Y-110121762I500000J0D01*
G01*
X112550000Y-144150000D02*
X116550000Y-144150000D01*
X112550000Y-144150000D02*
X116550000Y-147750000D01*
X112550000Y-147750000D02*
X112550000Y-144150000D01*
X112810000Y-105370000D02*
X112810000Y-104215760D01*
X112810000Y-106630000D02*
X117825000Y-106630000D01*
X112810000Y-107784239D02*
X112810000Y-106630000D01*
X112810000Y-109370000D02*
X112810000Y-108215760D01*
X113380000Y-158680000D02*
X123620000Y-158680000D01*
X113380000Y-161700000D02*
X123620000Y-161700000D01*
X113380000Y-166600000D02*
X123620000Y-166600000D01*
X113380000Y-168100000D02*
X123620000Y-168100000D01*
X113380000Y-168720000D02*
X113380000Y-158680000D01*
X113466015Y-102630000D02*
X119350000Y-102630000D01*
X113510256Y-132378495D02*
X113532173Y-132348143D01*
X113532173Y-132348143D02*
X113755771Y-132108828D01*
X113740000Y-135850000D02*
X117340000Y-135850000D01*
X113755771Y-132108828D02*
X114007682Y-131899523D01*
X113850000Y-127630000D02*
X113850000Y-128074999D01*
X114007682Y-131899523D02*
X114283907Y-131723549D01*
X114283907Y-131723549D02*
X114580064Y-131583696D01*
X114550000Y-144150000D02*
X114550000Y-139950000D01*
X114550000Y-151950000D02*
X114550000Y-147750000D01*
X114550000Y-151950000D02*
X116725000Y-151950000D01*
X114580064Y-131583696D02*
X114891453Y-131482186D01*
X114630000Y-115413324D02*
X114630000Y-112586675D01*
X114891453Y-131482186D02*
X115213133Y-131420628D01*
X115213133Y-131420628D02*
X115540000Y-131400000D01*
X115540000Y-131400000D02*
X115866866Y-131420628D01*
X115700000Y-168720000D02*
X113380000Y-168720000D01*
X115866866Y-131420628D02*
X116188547Y-131482186D01*
X116188547Y-131482186D02*
X116499936Y-131583696D01*
X116499936Y-131583696D02*
X116796092Y-131723548D01*
X116550000Y-144150000D02*
X116550000Y-147750000D01*
X116550000Y-147750000D02*
X112550000Y-147750000D01*
X116725000Y-139950000D02*
X114550000Y-139950000D01*
X116796092Y-131723548D02*
X117072318Y-131899523D01*
X117072318Y-131899523D02*
X117324228Y-132108828D01*
X117324228Y-132108828D02*
X117547826Y-132348142D01*
X117547826Y-132348142D02*
X117626890Y-132457633D01*
X117825000Y-109370000D02*
X112810000Y-109370000D01*
X117950000Y-145950000D02*
X117950000Y-142350000D01*
X118610000Y-129000000D02*
G75*
G02*
X117610000Y-129000000I-500000J0D01*
G01*
X117610000Y-129000000D02*
G75*
G02*
X118610000Y-129000000I500000J0D01*
G01*
X118114284Y-153800000D02*
X107709155Y-153800000D01*
X118950000Y-116500000D02*
G75*
G02*
X117950000Y-116500000I-500000J0D01*
G01*
X117950000Y-116500000D02*
G75*
G02*
X118950000Y-116500000I500000J0D01*
G01*
X118733984Y-105370000D02*
X112810000Y-105370000D01*
X119350000Y-102630000D02*
X119350000Y-103784239D01*
X119455607Y-138200000D02*
X122000000Y-138200000D01*
X120732602Y-153800000D02*
X119185715Y-153800000D01*
X122000000Y-144269707D02*
X122000000Y-138200000D01*
X122000000Y-153191852D02*
X122000000Y-147730292D01*
X122127635Y-132375000D02*
X122171776Y-132340480D01*
X122171776Y-132340480D02*
X122446885Y-132188210D01*
X122171776Y-135659519D02*
X122127634Y-135624999D01*
X122446885Y-132188210D02*
X122742544Y-132081174D01*
X122446885Y-135811790D02*
X122171776Y-135659519D01*
X122742544Y-132081174D02*
X123051373Y-132022045D01*
X122742544Y-135918825D02*
X122446885Y-135811790D01*
X122937911Y-132541165D02*
X122984136Y-132527491D01*
X122984136Y-132527491D02*
X123270000Y-132500000D01*
X122984136Y-135472508D02*
X122937911Y-135458834D01*
X123051373Y-132022045D02*
X123365660Y-132012300D01*
X123051373Y-135977954D02*
X122742544Y-135918825D01*
X123130000Y-113650000D02*
X123130000Y-120190000D01*
X123130000Y-120190000D02*
X124284239Y-120190000D01*
X123270000Y-132500000D02*
X123555863Y-132527491D01*
X123270000Y-135499999D02*
X122984136Y-135472508D01*
X123781762Y-105225000D02*
G75*
G02*
X122781762Y-105225000I-500000J0D01*
G01*
X122781762Y-105225000D02*
G75*
G02*
X123781762Y-105225000I500000J0D01*
G01*
X123365660Y-132012300D02*
X123677558Y-132052181D01*
X123365660Y-135987699D02*
X123051373Y-135977954D01*
X123530000Y-142700000D02*
X123530000Y-148140000D01*
X123555863Y-132527491D02*
X123811731Y-132603183D01*
X123555863Y-135472508D02*
X123270000Y-135499999D01*
X123620000Y-158680000D02*
X123620000Y-168720000D01*
X123620000Y-168720000D02*
X116300000Y-168720000D01*
X123677558Y-132052181D02*
X123979281Y-132140693D01*
X123677558Y-135947818D02*
X123365660Y-135987699D01*
X123811731Y-135396816D02*
X123555863Y-135472508D01*
X123979281Y-132140693D02*
X124263296Y-132275626D01*
X123979281Y-135859306D02*
X123677558Y-135947818D01*
X124263296Y-132275626D02*
X124411645Y-132377488D01*
X124263296Y-135724373D02*
X123979281Y-135859306D01*
X124284239Y-113650000D02*
X123130000Y-113650000D01*
X124411646Y-135622511D02*
X124263296Y-135724373D01*
X124715760Y-120190000D02*
X125870000Y-120190000D01*
X125491852Y-142700000D02*
X123530000Y-142700000D01*
X125870000Y-113650000D02*
X124715760Y-113650000D01*
X125870000Y-120190000D02*
X125870000Y-113650000D01*
X125925000Y-148140000D02*
X126470000Y-148140000D01*
X126470000Y-148140000D02*
X126470000Y-144338147D01*
X127450000Y-122000000D02*
G75*
G02*
X126450000Y-122000000I-500000J0D01*
G01*
X126450000Y-122000000D02*
G75*
G02*
X127450000Y-122000000I500000J0D01*
G01*
X127621762Y-151725000D02*
G75*
G02*
X126621762Y-151725000I-500000J0D01*
G01*
X126621762Y-151725000D02*
G75*
G02*
X127621762Y-151725000I500000J0D01*
G01*
X127380000Y-158680000D02*
X137620000Y-158680000D01*
X127380000Y-161700000D02*
X137620000Y-161700000D01*
X127380000Y-166600000D02*
X137620000Y-166600000D01*
X127380000Y-168100000D02*
X137620000Y-168100000D01*
X127380000Y-168720000D02*
X127380000Y-158680000D01*
X128199999Y-153800000D02*
X128199999Y-142504164D01*
X129909037Y-124671779D02*
G75*
G02*
X128909037Y-124671779I-500000J0D01*
G01*
X128909037Y-124671779D02*
G75*
G02*
X129909037Y-124671779I500000J0D01*
G01*
X129699999Y-168720000D02*
X127380000Y-168720000D01*
X129708147Y-138200000D02*
X131075682Y-138200000D01*
X131090844Y-153800000D02*
X128199999Y-153800000D01*
X132449999Y-142175000D02*
X132449999Y-144250000D01*
X132449999Y-149774999D02*
X132449999Y-147700000D01*
X133310000Y-127630000D02*
X138373984Y-127630000D01*
X133310000Y-128784239D02*
X133310000Y-127630000D01*
X133310000Y-130370000D02*
X133310000Y-129215760D01*
X133824317Y-138200000D02*
X143844392Y-138200000D01*
X135050000Y-101830000D02*
X145330000Y-101830000D01*
X135050000Y-102296877D02*
X135050000Y-101830000D01*
X135050000Y-122390000D02*
X135050000Y-121923122D01*
X135633984Y-130370000D02*
X133310000Y-130370000D01*
X135650000Y-145950000D02*
X131050000Y-148450000D01*
X136413324Y-126870000D02*
X133586675Y-126870000D01*
X137150000Y-142350000D02*
X143950000Y-142350000D01*
X137150000Y-145950000D02*
X135650000Y-145950000D01*
X137150000Y-145950000D02*
X137150000Y-142350000D01*
X137540000Y-122330000D02*
X139190000Y-122330000D01*
X137620000Y-158680000D02*
X137620000Y-168720000D01*
X137620000Y-168720000D02*
X130300000Y-168720000D01*
X138550000Y-144150000D02*
X142550000Y-144150000D01*
X138550000Y-144150000D02*
X142550000Y-147750000D01*
X138550000Y-147750000D02*
X138550000Y-144150000D01*
X139225000Y-123378237D02*
G75*
G02*
X138225000Y-123378237I-500000J0D01*
G01*
X138225000Y-123378237D02*
G75*
G02*
X139225000Y-123378237I500000J0D01*
G01*
X139190000Y-122330000D02*
X139238943Y-122020983D01*
X139238943Y-122020983D02*
X139380983Y-121742214D01*
X139380000Y-158680000D02*
X149620000Y-158680000D01*
X139380000Y-161700000D02*
X149620000Y-161700000D01*
X139380000Y-166600000D02*
X149620000Y-166600000D01*
X139380000Y-168100000D02*
X149620000Y-168100000D01*
X139380000Y-168720000D02*
X139380000Y-158680000D01*
X139380983Y-121742214D02*
X139602214Y-121520983D01*
X139510256Y-132378495D02*
X139532173Y-132348143D01*
X139532173Y-132348143D02*
X139755771Y-132108828D01*
X139602214Y-121520983D02*
X139880983Y-121378943D01*
X139740000Y-135850000D02*
X143340000Y-135850000D01*
X139755771Y-132108828D02*
X140007682Y-131899523D01*
X139850000Y-129215760D02*
X139850000Y-130370000D01*
X139850000Y-130370000D02*
X137826015Y-130370000D01*
X139880983Y-121378943D02*
X139924999Y-121371971D01*
X139924999Y-122390000D02*
X135050000Y-122390000D01*
X140007682Y-131899523D02*
X140283907Y-131723549D01*
X140283907Y-131723549D02*
X140580064Y-131583696D01*
X140550000Y-144150000D02*
X140550000Y-139950000D01*
X140550000Y-151950000D02*
X140550000Y-147750000D01*
X140550000Y-151950000D02*
X142725000Y-151950000D01*
X140580064Y-131583696D02*
X140891453Y-131482186D01*
X140891453Y-131482186D02*
X141213133Y-131420628D01*
X141213133Y-131420628D02*
X141540000Y-131400000D01*
X141475000Y-122330000D02*
X142840000Y-122330000D01*
X141540000Y-131400000D02*
X141866866Y-131420628D01*
X141700000Y-168720000D02*
X139380000Y-168720000D01*
X141866866Y-131420628D02*
X142188547Y-131482186D01*
X142188547Y-131482186D02*
X142499936Y-131583696D01*
X142499936Y-131583696D02*
X142796092Y-131723548D01*
X142550000Y-144150000D02*
X142550000Y-147750000D01*
X142550000Y-147750000D02*
X138550000Y-147750000D01*
X142725000Y-139950000D02*
X140550000Y-139950000D01*
X142796092Y-131723548D02*
X143072318Y-131899523D01*
X142840000Y-101890000D02*
X137540000Y-101890000D01*
X143072318Y-131899523D02*
X143324228Y-132108828D01*
X143324228Y-132108828D02*
X143547826Y-132348142D01*
X143547826Y-132348142D02*
X143626890Y-132457633D01*
X143950000Y-145950000D02*
X143950000Y-142350000D01*
X144114284Y-153800000D02*
X133709155Y-153800000D01*
X145330000Y-101830000D02*
X145330000Y-102296877D01*
X145330000Y-122390000D02*
X141475000Y-122390000D01*
X145455607Y-138200000D02*
X147766609Y-138200000D01*
X148275000Y-101878237D02*
G75*
G02*
X147275000Y-101878237I-500000J0D01*
G01*
X147275000Y-101878237D02*
G75*
G02*
X148275000Y-101878237I500000J0D01*
G01*
X148000000Y-144269707D02*
X148000000Y-142804164D01*
X148000000Y-153800000D02*
X145185715Y-153800000D01*
X148000000Y-153800000D02*
X148000000Y-147730292D01*
X148127635Y-132375000D02*
X148171776Y-132340480D01*
X148171776Y-132340480D02*
X148446885Y-132188210D01*
X148446885Y-132188210D02*
X148742544Y-132081174D01*
X148742544Y-132081174D02*
X149051373Y-132022045D01*
X149378237Y-151725000D02*
G75*
G02*
X148378237Y-151725000I-500000J0D01*
G01*
X148378237Y-151725000D02*
G75*
G02*
X149378237Y-151725000I500000J0D01*
G01*
X148937911Y-132541165D02*
X148984136Y-132527491D01*
X148984136Y-132527491D02*
X149270000Y-132500000D01*
X148984136Y-135472508D02*
X148937911Y-135458834D01*
X149051373Y-132022045D02*
X149365660Y-132012300D01*
X149270000Y-132500000D02*
X149555863Y-132527491D01*
X149270000Y-135499999D02*
X148984136Y-135472508D01*
X149365660Y-132012300D02*
X149677558Y-132052181D01*
X149530000Y-144338147D02*
X149530000Y-148140000D01*
X149555863Y-132527491D02*
X149811731Y-132603183D01*
X149555863Y-135472508D02*
X149270000Y-135499999D01*
X149620000Y-158680000D02*
X149620000Y-168720000D01*
X149620000Y-168720000D02*
X142300000Y-168720000D01*
X149677558Y-132052181D02*
X149979281Y-132140693D01*
X149811731Y-135396816D02*
X149555863Y-135472508D01*
X149979281Y-132140693D02*
X150263296Y-132275626D01*
X150725000Y-110121762D02*
G75*
G02*
X149725000Y-110121762I-500000J0D01*
G01*
X149725000Y-110121762D02*
G75*
G02*
X150725000Y-110121762I500000J0D01*
G01*
X150263296Y-132275626D02*
X150411645Y-132377488D01*
X150810000Y-102630000D02*
X153273984Y-102630000D01*
X150810000Y-103784239D02*
X150810000Y-102630000D01*
X150810000Y-105093984D02*
X150810000Y-104215760D01*
X150810000Y-109370000D02*
X150810000Y-108215760D01*
X151466015Y-106630000D02*
X152822954Y-106630000D01*
X151925000Y-148140000D02*
X152470000Y-148140000D01*
X152470000Y-142700000D02*
X150508147Y-142700000D01*
X152470000Y-148140000D02*
X152470000Y-142700000D01*
X153280000Y-150750000D02*
X153280000Y-160490000D01*
X153280000Y-160490000D02*
X158720000Y-160490000D01*
X153950000Y-140340000D02*
G75*
G02*
X152950000Y-140340000I-500000J0D01*
G01*
X152950000Y-140340000D02*
G75*
G02*
X153950000Y-140340000I500000J0D01*
G01*
X154630000Y-115155846D02*
X154630000Y-120190000D01*
X154630000Y-120190000D02*
X155784239Y-120190000D01*
X155466015Y-102630000D02*
X157350000Y-102630000D01*
X156500000Y-145250000D02*
G75*
G02*
X155500000Y-145250000I-500000J0D01*
G01*
X155500000Y-145250000D02*
G75*
G02*
X156500000Y-145250000I500000J0D01*
G01*
X156215760Y-120190000D02*
X157370000Y-120190000D01*
X156960000Y-104000000D02*
G75*
G02*
X155960000Y-104000000I-500000J0D01*
G01*
X155960000Y-104000000D02*
G75*
G02*
X156960000Y-104000000I500000J0D01*
G01*
X156960000Y-108000000D02*
G75*
G02*
X155960000Y-108000000I-500000J0D01*
G01*
X155960000Y-108000000D02*
G75*
G02*
X156960000Y-108000000I500000J0D01*
G01*
X157350000Y-102630000D02*
X157350000Y-103784239D01*
X157350000Y-104215760D02*
X157350000Y-105087737D01*
X157350000Y-108215760D02*
X157350000Y-109370000D01*
X157350000Y-109370000D02*
X150810000Y-109370000D01*
X157370000Y-120190000D02*
X157370000Y-115175000D01*
X157441852Y-150750000D02*
X153280000Y-150750000D01*
X158950000Y-122000000D02*
G75*
G02*
X157950000Y-122000000I-500000J0D01*
G01*
X157950000Y-122000000D02*
G75*
G02*
X158950000Y-122000000I500000J0D01*
G01*
X158720000Y-152175000D02*
X153280000Y-152175000D01*
X158720000Y-152295000D02*
X153280000Y-152295000D01*
X158720000Y-152415000D02*
X153280000Y-152415000D01*
X158720000Y-160490000D02*
X158720000Y-152028147D01*
X159360000Y-133150000D02*
X170260000Y-133150000D01*
X159360000Y-149650000D02*
X159360000Y-133150000D01*
X160223736Y-149650000D02*
X159360000Y-149650000D01*
X161500000Y-163450000D02*
G75*
G02*
X160500000Y-163450000I-500000J0D01*
G01*
X160500000Y-163450000D02*
G75*
G02*
X161500000Y-163450000I500000J0D01*
G01*
X162160000Y-162920000D02*
X170000000Y-162920000D01*
X162228147Y-159080000D02*
X170000000Y-159080000D01*
X162630000Y-113533984D02*
X162630000Y-112086675D01*
X163275000Y-118121762D02*
G75*
G02*
X162275000Y-118121762I-500000J0D01*
G01*
X162275000Y-118121762D02*
G75*
G02*
X163275000Y-118121762I500000J0D01*
G01*
X163105320Y-149650000D02*
X161776263Y-149650000D01*
X163300000Y-159080000D02*
X163300000Y-162920000D01*
X163420000Y-159080000D02*
X163420000Y-162920000D01*
X163540000Y-159080000D02*
X163540000Y-162920000D01*
X165370000Y-112086675D02*
X165370000Y-114913324D01*
X165645320Y-149650000D02*
X163974679Y-149650000D01*
X167134106Y-156366518D02*
G75*
G02*
X166134106Y-156366518I-500000J0D01*
G01*
X166134106Y-156366518D02*
G75*
G02*
X167134106Y-156366518I500000J0D01*
G01*
X167086675Y-152630000D02*
X169913324Y-152630000D01*
X168550000Y-168050000D02*
G75*
G02*
X167550000Y-168050000I-500000J0D01*
G01*
X167550000Y-168050000D02*
G75*
G02*
X168550000Y-168050000I500000J0D01*
G01*
X168185320Y-149650000D02*
X166514679Y-149650000D01*
X168740000Y-102000000D02*
X168740000Y-105243984D01*
X168740000Y-110556015D02*
X168740000Y-120000000D01*
X168740000Y-120000000D02*
X170236877Y-120000000D01*
X169913324Y-155370000D02*
X167086675Y-155370000D01*
X170236877Y-102000000D02*
X168740000Y-102000000D01*
X170260000Y-133150000D02*
X170260000Y-149650000D01*
X170260000Y-149650000D02*
X169054679Y-149650000D01*
X173100000Y-154000000D02*
X173115168Y-153691246D01*
X173115168Y-153691246D02*
X173160526Y-153385465D01*
X173115168Y-154308753D02*
X173100000Y-154000000D01*
X173160526Y-153385465D02*
X173235637Y-153085603D01*
X173160526Y-154614534D02*
X173115168Y-154308753D01*
X173235637Y-153085603D02*
X173339779Y-152794547D01*
X173235637Y-154914396D02*
X173160526Y-154614534D01*
X173310492Y-144423429D02*
X173317473Y-144414016D01*
X173317473Y-144414016D02*
X173482233Y-144232233D01*
X173317473Y-147585983D02*
X173310492Y-147576570D01*
X173339779Y-152794547D02*
X173471948Y-152515100D01*
X173339779Y-155205452D02*
X173235637Y-154914396D01*
X173471948Y-152515100D02*
X173630870Y-152249953D01*
X173471948Y-155484899D02*
X173339779Y-155205452D01*
X173482233Y-144232233D02*
X173664016Y-144067473D01*
X173482233Y-147767766D02*
X173317473Y-147585983D01*
X173630870Y-152249953D02*
X173815017Y-152001661D01*
X173630870Y-155750046D02*
X173471948Y-155484899D01*
X173664016Y-144067473D02*
X173861074Y-143921325D01*
X173664016Y-147932526D02*
X173482233Y-147767766D01*
X173815017Y-152001661D02*
X174022613Y-151772613D01*
X173815017Y-155998338D02*
X173630870Y-155750046D01*
X173861074Y-143921325D02*
X174071508Y-143795196D01*
X173861074Y-148078674D02*
X173664016Y-147932526D01*
X174022613Y-151772613D02*
X174251661Y-151565017D01*
X174022613Y-156227386D02*
X173815017Y-155998338D01*
X174071508Y-143795196D02*
X174293291Y-143690301D01*
X174071508Y-148204803D02*
X173861074Y-148078674D01*
X174251661Y-151565017D02*
X174499953Y-151380870D01*
X174251661Y-156434982D02*
X174022613Y-156227386D01*
X174293291Y-143690301D02*
X174524288Y-143607649D01*
X174293291Y-148309698D02*
X174071508Y-148204803D01*
X174499953Y-151380870D02*
X174765100Y-151221948D01*
X174499953Y-156619129D02*
X174251661Y-156434982D01*
X174524288Y-143607649D02*
X174762274Y-143548036D01*
X174524288Y-148392350D02*
X174293291Y-148309698D01*
X174762274Y-143548036D02*
X175004957Y-143512038D01*
X174762274Y-148451963D02*
X174524288Y-148392350D01*
X174765100Y-151221948D02*
X175044547Y-151089779D01*
X174765100Y-156778051D02*
X174499953Y-156619129D01*
X175004957Y-143512038D02*
X175250000Y-143500000D01*
X175004957Y-148487961D02*
X174762274Y-148451963D01*
X175044547Y-151089779D02*
X175335603Y-150985637D01*
X175044547Y-156910220D02*
X174765100Y-156778051D01*
X175250000Y-143500000D02*
X175495042Y-143512038D01*
X175250000Y-148500000D02*
X175004957Y-148487961D01*
X175335603Y-150985637D02*
X175635465Y-150910526D01*
X175335603Y-157014362D02*
X175044547Y-156910220D01*
X175495042Y-143512038D02*
X175737725Y-143548036D01*
X175495042Y-148487961D02*
X175250000Y-148500000D01*
X175635465Y-150910526D02*
X175941246Y-150865168D01*
X175635465Y-157089473D02*
X175335603Y-157014362D01*
X175737725Y-143548036D02*
X175975711Y-143607649D01*
X175737725Y-148451963D02*
X175495042Y-148487961D01*
X175941246Y-150865168D02*
X176250000Y-150850000D01*
X175941246Y-157134831D02*
X175635465Y-157089473D01*
X175975711Y-143607649D02*
X176206708Y-143690301D01*
X175975711Y-148392350D02*
X175737725Y-148451963D01*
X176206708Y-143690301D02*
X176428491Y-143795196D01*
X176206708Y-148309698D02*
X175975711Y-148392350D01*
X176250000Y-150850000D02*
X176558753Y-150865168D01*
X176250000Y-157150000D02*
X175941246Y-157134831D01*
X176428491Y-143795196D02*
X176638925Y-143921325D01*
X176428491Y-148204803D02*
X176206708Y-148309698D01*
X176558753Y-150865168D02*
X176864534Y-150910526D01*
X176558753Y-157134831D02*
X176250000Y-157150000D01*
X176638925Y-143921325D02*
X176835983Y-144067473D01*
X176638925Y-148078674D02*
X176428491Y-148204803D01*
X176835983Y-144067473D02*
X177017766Y-144232233D01*
X176835983Y-147932526D02*
X176638925Y-148078674D01*
X176864534Y-150910526D02*
X177164396Y-150985637D01*
X176864534Y-157089473D02*
X176558753Y-157134831D01*
X177017766Y-144232233D02*
X177182526Y-144414016D01*
X177017766Y-147767766D02*
X176835983Y-147932526D01*
X177164396Y-150985637D02*
X177455452Y-151089779D01*
X177164396Y-157014362D02*
X176864534Y-157089473D01*
X177182526Y-144414016D02*
X177328674Y-144611074D01*
X177182526Y-147585983D02*
X177017766Y-147767766D01*
X177328674Y-144611074D02*
X177454803Y-144821508D01*
X177328674Y-147388925D02*
X177182526Y-147585983D01*
X177454803Y-144821508D02*
X177461950Y-144836620D01*
X177454803Y-147178491D02*
X177328674Y-147388925D01*
X177455452Y-151089779D02*
X177734899Y-151221948D01*
X177455452Y-156910220D02*
X177164396Y-157014362D01*
X177461950Y-147163379D02*
X177454803Y-147178491D01*
X177734899Y-151221948D02*
X178000046Y-151380870D01*
X177734899Y-156778051D02*
X177455452Y-156910220D01*
X178000046Y-151380870D02*
X178248338Y-151565017D01*
X178000046Y-156619129D02*
X177734899Y-156778051D01*
X178248338Y-151565017D02*
X178477386Y-151772613D01*
X178248338Y-156434982D02*
X178000046Y-156619129D01*
X178477386Y-151772613D02*
X178684982Y-152001661D01*
X178477386Y-156227386D02*
X178248338Y-156434982D01*
X178684982Y-152001661D02*
X178869129Y-152249953D01*
X178684982Y-155998338D02*
X178477386Y-156227386D01*
X178869129Y-152249953D02*
X179028051Y-152515100D01*
X178869129Y-155750046D02*
X178684982Y-155998338D01*
X179028051Y-152515100D02*
X179160220Y-152794547D01*
X179028051Y-155484899D02*
X178869129Y-155750046D01*
X179160220Y-152794547D02*
X179264362Y-153085603D01*
X179160220Y-155205452D02*
X179028051Y-155484899D01*
X179264362Y-153085603D02*
X179339473Y-153385465D01*
X179264362Y-154914396D02*
X179160220Y-155205452D01*
X179339473Y-153385465D02*
X179384831Y-153691246D01*
X179339473Y-154614534D02*
X179264362Y-154914396D01*
X179384831Y-153691246D02*
X179400000Y-154000000D01*
X179384831Y-154308753D02*
X179339473Y-154614534D01*
X179400000Y-154000000D02*
X179384831Y-154308753D01*
X181280000Y-130750000D02*
X181280000Y-140490000D01*
X181280000Y-140490000D02*
X186720000Y-140490000D01*
X183890000Y-111000000D02*
X189390000Y-111000000D01*
X186720000Y-130750000D02*
X181280000Y-130750000D01*
X186720000Y-132175000D02*
X181280000Y-132175000D01*
X186720000Y-132294999D02*
X181280000Y-132294999D01*
X186720000Y-132414999D02*
X181280000Y-132414999D01*
X186720000Y-140490000D02*
X186720000Y-130750000D01*
X187890000Y-112000000D02*
X189390000Y-111000000D01*
X189390000Y-111000000D02*
X187890000Y-110000000D01*
X190004582Y-120000000D02*
X191050000Y-120000000D01*
X191050000Y-102000000D02*
X189763122Y-102000000D01*
X134833333Y-126059580D02*
X134785714Y-126107200D01*
X134785714Y-126107200D02*
X134642857Y-126154819D01*
X134642857Y-126154819D02*
X134547619Y-126154819D01*
X134547619Y-126154819D02*
X134404762Y-126107200D01*
X134404762Y-126107200D02*
X134309524Y-126011961D01*
X134309524Y-126011961D02*
X134261905Y-125916723D01*
X134261905Y-125916723D02*
X134214286Y-125726247D01*
X134214286Y-125726247D02*
X134214286Y-125583390D01*
X134214286Y-125583390D02*
X134261905Y-125392914D01*
X134261905Y-125392914D02*
X134309524Y-125297676D01*
X134309524Y-125297676D02*
X134404762Y-125202438D01*
X134404762Y-125202438D02*
X134547619Y-125154819D01*
X134547619Y-125154819D02*
X134642857Y-125154819D01*
X134642857Y-125154819D02*
X134785714Y-125202438D01*
X134785714Y-125202438D02*
X134833333Y-125250057D01*
X135690476Y-125488152D02*
X135690476Y-126154819D01*
X135452381Y-125107200D02*
X135214286Y-125821485D01*
X135214286Y-125821485D02*
X135833333Y-125821485D01*
X134357142Y-129454819D02*
X134023809Y-128978628D01*
X133785714Y-129454819D02*
X133785714Y-128454819D01*
X133785714Y-128454819D02*
X134166666Y-128454819D01*
X134166666Y-128454819D02*
X134261904Y-128502438D01*
X134261904Y-128502438D02*
X134309523Y-128550057D01*
X134309523Y-128550057D02*
X134357142Y-128645295D01*
X134357142Y-128645295D02*
X134357142Y-128788152D01*
X134357142Y-128788152D02*
X134309523Y-128883390D01*
X134309523Y-128883390D02*
X134261904Y-128931009D01*
X134261904Y-128931009D02*
X134166666Y-128978628D01*
X134166666Y-128978628D02*
X133785714Y-128978628D01*
X135309523Y-129454819D02*
X134738095Y-129454819D01*
X135023809Y-129454819D02*
X135023809Y-128454819D01*
X135023809Y-128454819D02*
X134928571Y-128597676D01*
X134928571Y-128597676D02*
X134833333Y-128692914D01*
X134833333Y-128692914D02*
X134738095Y-128740533D01*
X135642857Y-128454819D02*
X136261904Y-128454819D01*
X136261904Y-128454819D02*
X135928571Y-128835771D01*
X135928571Y-128835771D02*
X136071428Y-128835771D01*
X136071428Y-128835771D02*
X136166666Y-128883390D01*
X136166666Y-128883390D02*
X136214285Y-128931009D01*
X136214285Y-128931009D02*
X136261904Y-129026247D01*
X136261904Y-129026247D02*
X136261904Y-129264342D01*
X136261904Y-129264342D02*
X136214285Y-129359580D01*
X136214285Y-129359580D02*
X136166666Y-129407200D01*
X136166666Y-129407200D02*
X136071428Y-129454819D01*
X136071428Y-129454819D02*
X135785714Y-129454819D01*
X135785714Y-129454819D02*
X135690476Y-129407200D01*
X135690476Y-129407200D02*
X135642857Y-129359580D01*
X169534398Y-167968771D02*
X170448684Y-167968771D01*
X170448684Y-168311628D02*
X169534398Y-168311628D01*
X171877255Y-168540200D02*
X172048684Y-168597342D01*
X172048684Y-168597342D02*
X172334398Y-168597342D01*
X172334398Y-168597342D02*
X172448684Y-168540200D01*
X172448684Y-168540200D02*
X172505826Y-168483057D01*
X172505826Y-168483057D02*
X172562969Y-168368771D01*
X172562969Y-168368771D02*
X172562969Y-168254485D01*
X172562969Y-168254485D02*
X172505826Y-168140200D01*
X172505826Y-168140200D02*
X172448684Y-168083057D01*
X172448684Y-168083057D02*
X172334398Y-168025914D01*
X172334398Y-168025914D02*
X172105826Y-167968771D01*
X172105826Y-167968771D02*
X171991541Y-167911628D01*
X171991541Y-167911628D02*
X171934398Y-167854485D01*
X171934398Y-167854485D02*
X171877255Y-167740200D01*
X171877255Y-167740200D02*
X171877255Y-167625914D01*
X171877255Y-167625914D02*
X171934398Y-167511628D01*
X171934398Y-167511628D02*
X171991541Y-167454485D01*
X171991541Y-167454485D02*
X172105826Y-167397342D01*
X172105826Y-167397342D02*
X172391541Y-167397342D01*
X172391541Y-167397342D02*
X172562969Y-167454485D01*
X173305826Y-167397342D02*
X173534398Y-167397342D01*
X173534398Y-167397342D02*
X173648683Y-167454485D01*
X173648683Y-167454485D02*
X173762969Y-167568771D01*
X173762969Y-167568771D02*
X173820112Y-167797342D01*
X173820112Y-167797342D02*
X173820112Y-168197342D01*
X173820112Y-168197342D02*
X173762969Y-168425914D01*
X173762969Y-168425914D02*
X173648683Y-168540200D01*
X173648683Y-168540200D02*
X173534398Y-168597342D01*
X173534398Y-168597342D02*
X173305826Y-168597342D01*
X173305826Y-168597342D02*
X173191541Y-168540200D01*
X173191541Y-168540200D02*
X173077255Y-168425914D01*
X173077255Y-168425914D02*
X173020112Y-168197342D01*
X173020112Y-168197342D02*
X173020112Y-167797342D01*
X173020112Y-167797342D02*
X173077255Y-167568771D01*
X173077255Y-167568771D02*
X173191541Y-167454485D01*
X173191541Y-167454485D02*
X173305826Y-167397342D01*
X174905826Y-168597342D02*
X174334398Y-168597342D01*
X174334398Y-168597342D02*
X174334398Y-167397342D01*
X175305827Y-168597342D02*
X175305827Y-167397342D01*
X175305827Y-167397342D02*
X175591541Y-167397342D01*
X175591541Y-167397342D02*
X175762970Y-167454485D01*
X175762970Y-167454485D02*
X175877255Y-167568771D01*
X175877255Y-167568771D02*
X175934398Y-167683057D01*
X175934398Y-167683057D02*
X175991541Y-167911628D01*
X175991541Y-167911628D02*
X175991541Y-168083057D01*
X175991541Y-168083057D02*
X175934398Y-168311628D01*
X175934398Y-168311628D02*
X175877255Y-168425914D01*
X175877255Y-168425914D02*
X175762970Y-168540200D01*
X175762970Y-168540200D02*
X175591541Y-168597342D01*
X175591541Y-168597342D02*
X175305827Y-168597342D01*
X176505827Y-167968771D02*
X176905827Y-167968771D01*
X177077255Y-168597342D02*
X176505827Y-168597342D01*
X176505827Y-168597342D02*
X176505827Y-167397342D01*
X176505827Y-167397342D02*
X177077255Y-167397342D01*
X178277255Y-168597342D02*
X177877255Y-168025914D01*
X177591541Y-168597342D02*
X177591541Y-167397342D01*
X177591541Y-167397342D02*
X178048684Y-167397342D01*
X178048684Y-167397342D02*
X178162969Y-167454485D01*
X178162969Y-167454485D02*
X178220112Y-167511628D01*
X178220112Y-167511628D02*
X178277255Y-167625914D01*
X178277255Y-167625914D02*
X178277255Y-167797342D01*
X178277255Y-167797342D02*
X178220112Y-167911628D01*
X178220112Y-167911628D02*
X178162969Y-167968771D01*
X178162969Y-167968771D02*
X178048684Y-168025914D01*
X178048684Y-168025914D02*
X177591541Y-168025914D01*
X179534398Y-167397342D02*
X180220113Y-167397342D01*
X179877255Y-168597342D02*
X179877255Y-167397342D01*
X180848684Y-167397342D02*
X181077256Y-167397342D01*
X181077256Y-167397342D02*
X181191541Y-167454485D01*
X181191541Y-167454485D02*
X181305827Y-167568771D01*
X181305827Y-167568771D02*
X181362970Y-167797342D01*
X181362970Y-167797342D02*
X181362970Y-168197342D01*
X181362970Y-168197342D02*
X181305827Y-168425914D01*
X181305827Y-168425914D02*
X181191541Y-168540200D01*
X181191541Y-168540200D02*
X181077256Y-168597342D01*
X181077256Y-168597342D02*
X180848684Y-168597342D01*
X180848684Y-168597342D02*
X180734399Y-168540200D01*
X180734399Y-168540200D02*
X180620113Y-168425914D01*
X180620113Y-168425914D02*
X180562970Y-168197342D01*
X180562970Y-168197342D02*
X180562970Y-167797342D01*
X180562970Y-167797342D02*
X180620113Y-167568771D01*
X180620113Y-167568771D02*
X180734399Y-167454485D01*
X180734399Y-167454485D02*
X180848684Y-167397342D01*
X181877256Y-168597342D02*
X181877256Y-167397342D01*
X181877256Y-167397342D02*
X182334399Y-167397342D01*
X182334399Y-167397342D02*
X182448684Y-167454485D01*
X182448684Y-167454485D02*
X182505827Y-167511628D01*
X182505827Y-167511628D02*
X182562970Y-167625914D01*
X182562970Y-167625914D02*
X182562970Y-167797342D01*
X182562970Y-167797342D02*
X182505827Y-167911628D01*
X182505827Y-167911628D02*
X182448684Y-167968771D01*
X182448684Y-167968771D02*
X182334399Y-168025914D01*
X182334399Y-168025914D02*
X181877256Y-168025914D01*
X106100000Y-159542342D02*
X106100000Y-160399485D01*
X106100000Y-160399485D02*
X106042857Y-160570914D01*
X106042857Y-160570914D02*
X105928571Y-160685200D01*
X105928571Y-160685200D02*
X105757143Y-160742342D01*
X105757143Y-160742342D02*
X105642857Y-160742342D01*
X107185715Y-159942342D02*
X107185715Y-160742342D01*
X106900000Y-159485200D02*
X106614286Y-160342342D01*
X106614286Y-160342342D02*
X107357143Y-160342342D01*
X109308571Y-129547342D02*
X108908571Y-128975914D01*
X108622857Y-129547342D02*
X108622857Y-128347342D01*
X108622857Y-128347342D02*
X109080000Y-128347342D01*
X109080000Y-128347342D02*
X109194285Y-128404485D01*
X109194285Y-128404485D02*
X109251428Y-128461628D01*
X109251428Y-128461628D02*
X109308571Y-128575914D01*
X109308571Y-128575914D02*
X109308571Y-128747342D01*
X109308571Y-128747342D02*
X109251428Y-128861628D01*
X109251428Y-128861628D02*
X109194285Y-128918771D01*
X109194285Y-128918771D02*
X109080000Y-128975914D01*
X109080000Y-128975914D02*
X108622857Y-128975914D01*
X110451428Y-129547342D02*
X109765714Y-129547342D01*
X110108571Y-129547342D02*
X110108571Y-128347342D01*
X110108571Y-128347342D02*
X109994285Y-128518771D01*
X109994285Y-128518771D02*
X109880000Y-128633057D01*
X109880000Y-128633057D02*
X109765714Y-128690200D01*
X111480000Y-128747342D02*
X111480000Y-129547342D01*
X111194285Y-128290200D02*
X110908571Y-129147342D01*
X110908571Y-129147342D02*
X111651428Y-129147342D01*
X110214286Y-147547342D02*
X110214286Y-146347342D01*
X110900000Y-147547342D02*
X110385714Y-146861628D01*
X110900000Y-146347342D02*
X110214286Y-147033057D01*
X111357143Y-146461628D02*
X111414286Y-146404485D01*
X111414286Y-146404485D02*
X111528572Y-146347342D01*
X111528572Y-146347342D02*
X111814286Y-146347342D01*
X111814286Y-146347342D02*
X111928572Y-146404485D01*
X111928572Y-146404485D02*
X111985714Y-146461628D01*
X111985714Y-146461628D02*
X112042857Y-146575914D01*
X112042857Y-146575914D02*
X112042857Y-146690200D01*
X112042857Y-146690200D02*
X111985714Y-146861628D01*
X111985714Y-146861628D02*
X111300000Y-147547342D01*
X111300000Y-147547342D02*
X112042857Y-147547342D01*
X115425714Y-137616628D02*
X115311428Y-137559485D01*
X115311428Y-137559485D02*
X115197142Y-137445200D01*
X115197142Y-137445200D02*
X115025714Y-137273771D01*
X115025714Y-137273771D02*
X114911428Y-137216628D01*
X114911428Y-137216628D02*
X114797142Y-137216628D01*
X114854285Y-137502342D02*
X114740000Y-137445200D01*
X114740000Y-137445200D02*
X114625714Y-137330914D01*
X114625714Y-137330914D02*
X114568571Y-137102342D01*
X114568571Y-137102342D02*
X114568571Y-136702342D01*
X114568571Y-136702342D02*
X114625714Y-136473771D01*
X114625714Y-136473771D02*
X114740000Y-136359485D01*
X114740000Y-136359485D02*
X114854285Y-136302342D01*
X114854285Y-136302342D02*
X115082857Y-136302342D01*
X115082857Y-136302342D02*
X115197142Y-136359485D01*
X115197142Y-136359485D02*
X115311428Y-136473771D01*
X115311428Y-136473771D02*
X115368571Y-136702342D01*
X115368571Y-136702342D02*
X115368571Y-137102342D01*
X115368571Y-137102342D02*
X115311428Y-137330914D01*
X115311428Y-137330914D02*
X115197142Y-137445200D01*
X115197142Y-137445200D02*
X115082857Y-137502342D01*
X115082857Y-137502342D02*
X114854285Y-137502342D01*
X115825714Y-136416628D02*
X115882857Y-136359485D01*
X115882857Y-136359485D02*
X115997143Y-136302342D01*
X115997143Y-136302342D02*
X116282857Y-136302342D01*
X116282857Y-136302342D02*
X116397143Y-136359485D01*
X116397143Y-136359485D02*
X116454285Y-136416628D01*
X116454285Y-136416628D02*
X116511428Y-136530914D01*
X116511428Y-136530914D02*
X116511428Y-136645200D01*
X116511428Y-136645200D02*
X116454285Y-136816628D01*
X116454285Y-136816628D02*
X115768571Y-137502342D01*
X115768571Y-137502342D02*
X116511428Y-137502342D01*
X115880000Y-104547342D02*
X115480000Y-103975914D01*
X115194286Y-104547342D02*
X115194286Y-103347342D01*
X115194286Y-103347342D02*
X115651429Y-103347342D01*
X115651429Y-103347342D02*
X115765714Y-103404485D01*
X115765714Y-103404485D02*
X115822857Y-103461628D01*
X115822857Y-103461628D02*
X115880000Y-103575914D01*
X115880000Y-103575914D02*
X115880000Y-103747342D01*
X115880000Y-103747342D02*
X115822857Y-103861628D01*
X115822857Y-103861628D02*
X115765714Y-103918771D01*
X115765714Y-103918771D02*
X115651429Y-103975914D01*
X115651429Y-103975914D02*
X115194286Y-103975914D01*
X116908572Y-103347342D02*
X116680000Y-103347342D01*
X116680000Y-103347342D02*
X116565714Y-103404485D01*
X116565714Y-103404485D02*
X116508572Y-103461628D01*
X116508572Y-103461628D02*
X116394286Y-103633057D01*
X116394286Y-103633057D02*
X116337143Y-103861628D01*
X116337143Y-103861628D02*
X116337143Y-104318771D01*
X116337143Y-104318771D02*
X116394286Y-104433057D01*
X116394286Y-104433057D02*
X116451429Y-104490200D01*
X116451429Y-104490200D02*
X116565714Y-104547342D01*
X116565714Y-104547342D02*
X116794286Y-104547342D01*
X116794286Y-104547342D02*
X116908572Y-104490200D01*
X116908572Y-104490200D02*
X116965714Y-104433057D01*
X116965714Y-104433057D02*
X117022857Y-104318771D01*
X117022857Y-104318771D02*
X117022857Y-104033057D01*
X117022857Y-104033057D02*
X116965714Y-103918771D01*
X116965714Y-103918771D02*
X116908572Y-103861628D01*
X116908572Y-103861628D02*
X116794286Y-103804485D01*
X116794286Y-103804485D02*
X116565714Y-103804485D01*
X116565714Y-103804485D02*
X116451429Y-103861628D01*
X116451429Y-103861628D02*
X116394286Y-103918771D01*
X116394286Y-103918771D02*
X116337143Y-104033057D01*
X115880000Y-108547342D02*
X115480000Y-107975914D01*
X115194286Y-108547342D02*
X115194286Y-107347342D01*
X115194286Y-107347342D02*
X115651429Y-107347342D01*
X115651429Y-107347342D02*
X115765714Y-107404485D01*
X115765714Y-107404485D02*
X115822857Y-107461628D01*
X115822857Y-107461628D02*
X115880000Y-107575914D01*
X115880000Y-107575914D02*
X115880000Y-107747342D01*
X115880000Y-107747342D02*
X115822857Y-107861628D01*
X115822857Y-107861628D02*
X115765714Y-107918771D01*
X115765714Y-107918771D02*
X115651429Y-107975914D01*
X115651429Y-107975914D02*
X115194286Y-107975914D01*
X116337143Y-107461628D02*
X116394286Y-107404485D01*
X116394286Y-107404485D02*
X116508572Y-107347342D01*
X116508572Y-107347342D02*
X116794286Y-107347342D01*
X116794286Y-107347342D02*
X116908572Y-107404485D01*
X116908572Y-107404485D02*
X116965714Y-107461628D01*
X116965714Y-107461628D02*
X117022857Y-107575914D01*
X117022857Y-107575914D02*
X117022857Y-107690200D01*
X117022857Y-107690200D02*
X116965714Y-107861628D01*
X116965714Y-107861628D02*
X116280000Y-108547342D01*
X116280000Y-108547342D02*
X117022857Y-108547342D01*
X118100000Y-159542342D02*
X118100000Y-160399485D01*
X118100000Y-160399485D02*
X118042857Y-160570914D01*
X118042857Y-160570914D02*
X117928571Y-160685200D01*
X117928571Y-160685200D02*
X117757143Y-160742342D01*
X117757143Y-160742342D02*
X117642857Y-160742342D01*
X118557143Y-159542342D02*
X119300000Y-159542342D01*
X119300000Y-159542342D02*
X118900000Y-159999485D01*
X118900000Y-159999485D02*
X119071429Y-159999485D01*
X119071429Y-159999485D02*
X119185715Y-160056628D01*
X119185715Y-160056628D02*
X119242857Y-160113771D01*
X119242857Y-160113771D02*
X119300000Y-160228057D01*
X119300000Y-160228057D02*
X119300000Y-160513771D01*
X119300000Y-160513771D02*
X119242857Y-160628057D01*
X119242857Y-160628057D02*
X119185715Y-160685200D01*
X119185715Y-160685200D02*
X119071429Y-160742342D01*
X119071429Y-160742342D02*
X118728572Y-160742342D01*
X118728572Y-160742342D02*
X118614286Y-160685200D01*
X118614286Y-160685200D02*
X118557143Y-160628057D01*
X122384286Y-131392342D02*
X122384286Y-130192342D01*
X122384286Y-130192342D02*
X122670000Y-130192342D01*
X122670000Y-130192342D02*
X122841429Y-130249485D01*
X122841429Y-130249485D02*
X122955714Y-130363771D01*
X122955714Y-130363771D02*
X123012857Y-130478057D01*
X123012857Y-130478057D02*
X123070000Y-130706628D01*
X123070000Y-130706628D02*
X123070000Y-130878057D01*
X123070000Y-130878057D02*
X123012857Y-131106628D01*
X123012857Y-131106628D02*
X122955714Y-131220914D01*
X122955714Y-131220914D02*
X122841429Y-131335200D01*
X122841429Y-131335200D02*
X122670000Y-131392342D01*
X122670000Y-131392342D02*
X122384286Y-131392342D01*
X123470000Y-130192342D02*
X124270000Y-130192342D01*
X124270000Y-130192342D02*
X123755714Y-131392342D01*
X124114286Y-138092342D02*
X124114286Y-136892342D01*
X124114286Y-136892342D02*
X124400000Y-136892342D01*
X124400000Y-136892342D02*
X124571429Y-136949485D01*
X124571429Y-136949485D02*
X124685714Y-137063771D01*
X124685714Y-137063771D02*
X124742857Y-137178057D01*
X124742857Y-137178057D02*
X124800000Y-137406628D01*
X124800000Y-137406628D02*
X124800000Y-137578057D01*
X124800000Y-137578057D02*
X124742857Y-137806628D01*
X124742857Y-137806628D02*
X124685714Y-137920914D01*
X124685714Y-137920914D02*
X124571429Y-138035200D01*
X124571429Y-138035200D02*
X124400000Y-138092342D01*
X124400000Y-138092342D02*
X124114286Y-138092342D01*
X125885714Y-136892342D02*
X125314286Y-136892342D01*
X125314286Y-136892342D02*
X125257143Y-137463771D01*
X125257143Y-137463771D02*
X125314286Y-137406628D01*
X125314286Y-137406628D02*
X125428572Y-137349485D01*
X125428572Y-137349485D02*
X125714286Y-137349485D01*
X125714286Y-137349485D02*
X125828572Y-137406628D01*
X125828572Y-137406628D02*
X125885714Y-137463771D01*
X125885714Y-137463771D02*
X125942857Y-137578057D01*
X125942857Y-137578057D02*
X125942857Y-137863771D01*
X125942857Y-137863771D02*
X125885714Y-137978057D01*
X125885714Y-137978057D02*
X125828572Y-138035200D01*
X125828572Y-138035200D02*
X125714286Y-138092342D01*
X125714286Y-138092342D02*
X125428572Y-138092342D01*
X125428572Y-138092342D02*
X125314286Y-138035200D01*
X125314286Y-138035200D02*
X125257143Y-137978057D01*
X136214286Y-147547342D02*
X136214286Y-146347342D01*
X136900000Y-147547342D02*
X136385714Y-146861628D01*
X136900000Y-146347342D02*
X136214286Y-147033057D01*
X138042857Y-147547342D02*
X137357143Y-147547342D01*
X137700000Y-147547342D02*
X137700000Y-146347342D01*
X137700000Y-146347342D02*
X137585714Y-146518771D01*
X137585714Y-146518771D02*
X137471429Y-146633057D01*
X137471429Y-146633057D02*
X137357143Y-146690200D01*
X145584286Y-131747341D02*
X145584286Y-130547341D01*
X145584286Y-130547341D02*
X145870000Y-130547341D01*
X145870000Y-130547341D02*
X146041429Y-130604484D01*
X146041429Y-130604484D02*
X146155714Y-130718770D01*
X146155714Y-130718770D02*
X146212857Y-130833056D01*
X146212857Y-130833056D02*
X146270000Y-131061627D01*
X146270000Y-131061627D02*
X146270000Y-131233056D01*
X146270000Y-131233056D02*
X146212857Y-131461627D01*
X146212857Y-131461627D02*
X146155714Y-131575913D01*
X146155714Y-131575913D02*
X146041429Y-131690199D01*
X146041429Y-131690199D02*
X145870000Y-131747341D01*
X145870000Y-131747341D02*
X145584286Y-131747341D01*
X147298572Y-130547341D02*
X147070000Y-130547341D01*
X147070000Y-130547341D02*
X146955714Y-130604484D01*
X146955714Y-130604484D02*
X146898572Y-130661627D01*
X146898572Y-130661627D02*
X146784286Y-130833056D01*
X146784286Y-130833056D02*
X146727143Y-131061627D01*
X146727143Y-131061627D02*
X146727143Y-131518770D01*
X146727143Y-131518770D02*
X146784286Y-131633056D01*
X146784286Y-131633056D02*
X146841429Y-131690199D01*
X146841429Y-131690199D02*
X146955714Y-131747341D01*
X146955714Y-131747341D02*
X147184286Y-131747341D01*
X147184286Y-131747341D02*
X147298572Y-131690199D01*
X147298572Y-131690199D02*
X147355714Y-131633056D01*
X147355714Y-131633056D02*
X147412857Y-131518770D01*
X147412857Y-131518770D02*
X147412857Y-131233056D01*
X147412857Y-131233056D02*
X147355714Y-131118770D01*
X147355714Y-131118770D02*
X147298572Y-131061627D01*
X147298572Y-131061627D02*
X147184286Y-131004484D01*
X147184286Y-131004484D02*
X146955714Y-131004484D01*
X146955714Y-131004484D02*
X146841429Y-131061627D01*
X146841429Y-131061627D02*
X146784286Y-131118770D01*
X146784286Y-131118770D02*
X146727143Y-131233056D01*
X150114286Y-153842342D02*
X150114286Y-152642342D01*
X150114286Y-152642342D02*
X150400000Y-152642342D01*
X150400000Y-152642342D02*
X150571429Y-152699485D01*
X150571429Y-152699485D02*
X150685714Y-152813771D01*
X150685714Y-152813771D02*
X150742857Y-152928057D01*
X150742857Y-152928057D02*
X150800000Y-153156628D01*
X150800000Y-153156628D02*
X150800000Y-153328057D01*
X150800000Y-153328057D02*
X150742857Y-153556628D01*
X150742857Y-153556628D02*
X150685714Y-153670914D01*
X150685714Y-153670914D02*
X150571429Y-153785200D01*
X150571429Y-153785200D02*
X150400000Y-153842342D01*
X150400000Y-153842342D02*
X150114286Y-153842342D01*
X151828572Y-153042342D02*
X151828572Y-153842342D01*
X151542857Y-152585200D02*
X151257143Y-153442342D01*
X151257143Y-153442342D02*
X152000000Y-153442342D01*
X163800000Y-108938057D02*
X163742857Y-108995200D01*
X163742857Y-108995200D02*
X163571429Y-109052342D01*
X163571429Y-109052342D02*
X163457143Y-109052342D01*
X163457143Y-109052342D02*
X163285714Y-108995200D01*
X163285714Y-108995200D02*
X163171429Y-108880914D01*
X163171429Y-108880914D02*
X163114286Y-108766628D01*
X163114286Y-108766628D02*
X163057143Y-108538057D01*
X163057143Y-108538057D02*
X163057143Y-108366628D01*
X163057143Y-108366628D02*
X163114286Y-108138057D01*
X163114286Y-108138057D02*
X163171429Y-108023771D01*
X163171429Y-108023771D02*
X163285714Y-107909485D01*
X163285714Y-107909485D02*
X163457143Y-107852342D01*
X163457143Y-107852342D02*
X163571429Y-107852342D01*
X163571429Y-107852342D02*
X163742857Y-107909485D01*
X163742857Y-107909485D02*
X163800000Y-107966628D01*
X164200000Y-107852342D02*
X165000000Y-107852342D01*
X165000000Y-107852342D02*
X164485714Y-109052342D01*
X165194286Y-161547342D02*
X165194286Y-160347342D01*
X165194286Y-160347342D02*
X165480000Y-160347342D01*
X165480000Y-160347342D02*
X165651429Y-160404485D01*
X165651429Y-160404485D02*
X165765714Y-160518771D01*
X165765714Y-160518771D02*
X165822857Y-160633057D01*
X165822857Y-160633057D02*
X165880000Y-160861628D01*
X165880000Y-160861628D02*
X165880000Y-161033057D01*
X165880000Y-161033057D02*
X165822857Y-161261628D01*
X165822857Y-161261628D02*
X165765714Y-161375914D01*
X165765714Y-161375914D02*
X165651429Y-161490200D01*
X165651429Y-161490200D02*
X165480000Y-161547342D01*
X165480000Y-161547342D02*
X165194286Y-161547342D01*
X166337143Y-160461628D02*
X166394286Y-160404485D01*
X166394286Y-160404485D02*
X166508572Y-160347342D01*
X166508572Y-160347342D02*
X166794286Y-160347342D01*
X166794286Y-160347342D02*
X166908572Y-160404485D01*
X166908572Y-160404485D02*
X166965714Y-160461628D01*
X166965714Y-160461628D02*
X167022857Y-160575914D01*
X167022857Y-160575914D02*
X167022857Y-160690200D01*
X167022857Y-160690200D02*
X166965714Y-160861628D01*
X166965714Y-160861628D02*
X166280000Y-161547342D01*
X166280000Y-161547342D02*
X167022857Y-161547342D01*
X175051254Y-142740565D02*
X174994111Y-142797708D01*
X174994111Y-142797708D02*
X174822683Y-142854850D01*
X174822683Y-142854850D02*
X174708397Y-142854850D01*
X174708397Y-142854850D02*
X174536968Y-142797708D01*
X174536968Y-142797708D02*
X174422683Y-142683422D01*
X174422683Y-142683422D02*
X174365540Y-142569136D01*
X174365540Y-142569136D02*
X174308397Y-142340565D01*
X174308397Y-142340565D02*
X174308397Y-142169136D01*
X174308397Y-142169136D02*
X174365540Y-141940565D01*
X174365540Y-141940565D02*
X174422683Y-141826279D01*
X174422683Y-141826279D02*
X174536968Y-141711993D01*
X174536968Y-141711993D02*
X174708397Y-141654850D01*
X174708397Y-141654850D02*
X174822683Y-141654850D01*
X174822683Y-141654850D02*
X174994111Y-141711993D01*
X174994111Y-141711993D02*
X175051254Y-141769136D01*
X175451254Y-141654850D02*
X176194111Y-141654850D01*
X176194111Y-141654850D02*
X175794111Y-142111993D01*
X175794111Y-142111993D02*
X175965540Y-142111993D01*
X175965540Y-142111993D02*
X176079826Y-142169136D01*
X176079826Y-142169136D02*
X176136968Y-142226279D01*
X176136968Y-142226279D02*
X176194111Y-142340565D01*
X176194111Y-142340565D02*
X176194111Y-142626279D01*
X176194111Y-142626279D02*
X176136968Y-142740565D01*
X176136968Y-142740565D02*
X176079826Y-142797708D01*
X176079826Y-142797708D02*
X175965540Y-142854850D01*
X175965540Y-142854850D02*
X175622683Y-142854850D01*
X175622683Y-142854850D02*
X175508397Y-142797708D01*
X175508397Y-142797708D02*
X175451254Y-142740565D01*
X176051246Y-150085567D02*
X175994103Y-150142710D01*
X175994103Y-150142710D02*
X175822675Y-150199852D01*
X175822675Y-150199852D02*
X175708389Y-150199852D01*
X175708389Y-150199852D02*
X175536960Y-150142710D01*
X175536960Y-150142710D02*
X175422675Y-150028424D01*
X175422675Y-150028424D02*
X175365532Y-149914138D01*
X175365532Y-149914138D02*
X175308389Y-149685567D01*
X175308389Y-149685567D02*
X175308389Y-149514138D01*
X175308389Y-149514138D02*
X175365532Y-149285567D01*
X175365532Y-149285567D02*
X175422675Y-149171281D01*
X175422675Y-149171281D02*
X175536960Y-149056995D01*
X175536960Y-149056995D02*
X175708389Y-148999852D01*
X175708389Y-148999852D02*
X175822675Y-148999852D01*
X175822675Y-148999852D02*
X175994103Y-149056995D01*
X175994103Y-149056995D02*
X176051246Y-149114138D01*
X177194103Y-150199852D02*
X176508389Y-150199852D01*
X176851246Y-150199852D02*
X176851246Y-148999852D01*
X176851246Y-148999852D02*
X176736960Y-149171281D01*
X176736960Y-149171281D02*
X176622675Y-149285567D01*
X176622675Y-149285567D02*
X176508389Y-149342710D01*
X179085714Y-110347342D02*
X179085714Y-111318771D01*
X179085714Y-111318771D02*
X179142857Y-111433057D01*
X179142857Y-111433057D02*
X179200000Y-111490200D01*
X179200000Y-111490200D02*
X179314285Y-111547342D01*
X179314285Y-111547342D02*
X179542857Y-111547342D01*
X179542857Y-111547342D02*
X179657142Y-111490200D01*
X179657142Y-111490200D02*
X179714285Y-111433057D01*
X179714285Y-111433057D02*
X179771428Y-111318771D01*
X179771428Y-111318771D02*
X179771428Y-110347342D01*
X180228571Y-110347342D02*
X180971428Y-110347342D01*
X180971428Y-110347342D02*
X180571428Y-110804485D01*
X180571428Y-110804485D02*
X180742857Y-110804485D01*
X180742857Y-110804485D02*
X180857143Y-110861628D01*
X180857143Y-110861628D02*
X180914285Y-110918771D01*
X180914285Y-110918771D02*
X180971428Y-111033057D01*
X180971428Y-111033057D02*
X180971428Y-111318771D01*
X180971428Y-111318771D02*
X180914285Y-111433057D01*
X180914285Y-111433057D02*
X180857143Y-111490200D01*
X180857143Y-111490200D02*
X180742857Y-111547342D01*
X180742857Y-111547342D02*
X180400000Y-111547342D01*
X180400000Y-111547342D02*
X180285714Y-111490200D01*
X180285714Y-111490200D02*
X180228571Y-111433057D01*
X113988057Y-114199999D02*
X114045200Y-114257142D01*
X114045200Y-114257142D02*
X114102342Y-114428570D01*
X114102342Y-114428570D02*
X114102342Y-114542856D01*
X114102342Y-114542856D02*
X114045200Y-114714285D01*
X114045200Y-114714285D02*
X113930914Y-114828570D01*
X113930914Y-114828570D02*
X113816628Y-114885713D01*
X113816628Y-114885713D02*
X113588057Y-114942856D01*
X113588057Y-114942856D02*
X113416628Y-114942856D01*
X113416628Y-114942856D02*
X113188057Y-114885713D01*
X113188057Y-114885713D02*
X113073771Y-114828570D01*
X113073771Y-114828570D02*
X112959485Y-114714285D01*
X112959485Y-114714285D02*
X112902342Y-114542856D01*
X112902342Y-114542856D02*
X112902342Y-114428570D01*
X112902342Y-114428570D02*
X112959485Y-114257142D01*
X112959485Y-114257142D02*
X113016628Y-114199999D01*
X113416628Y-113514285D02*
X113359485Y-113628570D01*
X113359485Y-113628570D02*
X113302342Y-113685713D01*
X113302342Y-113685713D02*
X113188057Y-113742856D01*
X113188057Y-113742856D02*
X113130914Y-113742856D01*
X113130914Y-113742856D02*
X113016628Y-113685713D01*
X113016628Y-113685713D02*
X112959485Y-113628570D01*
X112959485Y-113628570D02*
X112902342Y-113514285D01*
X112902342Y-113514285D02*
X112902342Y-113285713D01*
X112902342Y-113285713D02*
X112959485Y-113171428D01*
X112959485Y-113171428D02*
X113016628Y-113114285D01*
X113016628Y-113114285D02*
X113130914Y-113057142D01*
X113130914Y-113057142D02*
X113188057Y-113057142D01*
X113188057Y-113057142D02*
X113302342Y-113114285D01*
X113302342Y-113114285D02*
X113359485Y-113171428D01*
X113359485Y-113171428D02*
X113416628Y-113285713D01*
X113416628Y-113285713D02*
X113416628Y-113514285D01*
X113416628Y-113514285D02*
X113473771Y-113628570D01*
X113473771Y-113628570D02*
X113530914Y-113685713D01*
X113530914Y-113685713D02*
X113645200Y-113742856D01*
X113645200Y-113742856D02*
X113873771Y-113742856D01*
X113873771Y-113742856D02*
X113988057Y-113685713D01*
X113988057Y-113685713D02*
X114045200Y-113628570D01*
X114045200Y-113628570D02*
X114102342Y-113514285D01*
X114102342Y-113514285D02*
X114102342Y-113285713D01*
X114102342Y-113285713D02*
X114045200Y-113171428D01*
X114045200Y-113171428D02*
X113988057Y-113114285D01*
X113988057Y-113114285D02*
X113873771Y-113057142D01*
X113873771Y-113057142D02*
X113645200Y-113057142D01*
X113645200Y-113057142D02*
X113530914Y-113114285D01*
X113530914Y-113114285D02*
X113473771Y-113171428D01*
X113473771Y-113171428D02*
X113416628Y-113285713D01*
X125047342Y-117119999D02*
X124475914Y-117519999D01*
X125047342Y-117805713D02*
X123847342Y-117805713D01*
X123847342Y-117805713D02*
X123847342Y-117348570D01*
X123847342Y-117348570D02*
X123904485Y-117234285D01*
X123904485Y-117234285D02*
X123961628Y-117177142D01*
X123961628Y-117177142D02*
X124075914Y-117119999D01*
X124075914Y-117119999D02*
X124247342Y-117119999D01*
X124247342Y-117119999D02*
X124361628Y-117177142D01*
X124361628Y-117177142D02*
X124418771Y-117234285D01*
X124418771Y-117234285D02*
X124475914Y-117348570D01*
X124475914Y-117348570D02*
X124475914Y-117805713D01*
X124247342Y-116091428D02*
X125047342Y-116091428D01*
X123790200Y-116377142D02*
X124647342Y-116662856D01*
X124647342Y-116662856D02*
X124647342Y-115919999D01*
X125402342Y-164094999D02*
X126259485Y-164094999D01*
X126259485Y-164094999D02*
X126430914Y-164152142D01*
X126430914Y-164152142D02*
X126545200Y-164266428D01*
X126545200Y-164266428D02*
X126602342Y-164437856D01*
X126602342Y-164437856D02*
X126602342Y-164552142D01*
X125516628Y-163580713D02*
X125459485Y-163523570D01*
X125459485Y-163523570D02*
X125402342Y-163409285D01*
X125402342Y-163409285D02*
X125402342Y-163123570D01*
X125402342Y-163123570D02*
X125459485Y-163009285D01*
X125459485Y-163009285D02*
X125516628Y-162952142D01*
X125516628Y-162952142D02*
X125630914Y-162894999D01*
X125630914Y-162894999D02*
X125745200Y-162894999D01*
X125745200Y-162894999D02*
X125916628Y-162952142D01*
X125916628Y-162952142D02*
X126602342Y-163637856D01*
X126602342Y-163637856D02*
X126602342Y-162894999D01*
X138537342Y-113024285D02*
X139508771Y-113024285D01*
X139508771Y-113024285D02*
X139623057Y-112967142D01*
X139623057Y-112967142D02*
X139680200Y-112910000D01*
X139680200Y-112910000D02*
X139737342Y-112795714D01*
X139737342Y-112795714D02*
X139737342Y-112567142D01*
X139737342Y-112567142D02*
X139680200Y-112452857D01*
X139680200Y-112452857D02*
X139623057Y-112395714D01*
X139623057Y-112395714D02*
X139508771Y-112338571D01*
X139508771Y-112338571D02*
X138537342Y-112338571D01*
X138651628Y-111824285D02*
X138594485Y-111767142D01*
X138594485Y-111767142D02*
X138537342Y-111652857D01*
X138537342Y-111652857D02*
X138537342Y-111367142D01*
X138537342Y-111367142D02*
X138594485Y-111252857D01*
X138594485Y-111252857D02*
X138651628Y-111195714D01*
X138651628Y-111195714D02*
X138765914Y-111138571D01*
X138765914Y-111138571D02*
X138880200Y-111138571D01*
X138880200Y-111138571D02*
X139051628Y-111195714D01*
X139051628Y-111195714D02*
X139737342Y-111881428D01*
X139737342Y-111881428D02*
X139737342Y-111138571D01*
X145001628Y-130954284D02*
X144944485Y-131068570D01*
X144944485Y-131068570D02*
X144830200Y-131182856D01*
X144830200Y-131182856D02*
X144658771Y-131354284D01*
X144658771Y-131354284D02*
X144601628Y-131468570D01*
X144601628Y-131468570D02*
X144601628Y-131582856D01*
X144887342Y-131525713D02*
X144830200Y-131639999D01*
X144830200Y-131639999D02*
X144715914Y-131754284D01*
X144715914Y-131754284D02*
X144487342Y-131811427D01*
X144487342Y-131811427D02*
X144087342Y-131811427D01*
X144087342Y-131811427D02*
X143858771Y-131754284D01*
X143858771Y-131754284D02*
X143744485Y-131639999D01*
X143744485Y-131639999D02*
X143687342Y-131525713D01*
X143687342Y-131525713D02*
X143687342Y-131297141D01*
X143687342Y-131297141D02*
X143744485Y-131182856D01*
X143744485Y-131182856D02*
X143858771Y-131068570D01*
X143858771Y-131068570D02*
X144087342Y-131011427D01*
X144087342Y-131011427D02*
X144487342Y-131011427D01*
X144487342Y-131011427D02*
X144715914Y-131068570D01*
X144715914Y-131068570D02*
X144830200Y-131182856D01*
X144830200Y-131182856D02*
X144887342Y-131297141D01*
X144887342Y-131297141D02*
X144887342Y-131525713D01*
X144887342Y-129868570D02*
X144887342Y-130554284D01*
X144887342Y-130211427D02*
X143687342Y-130211427D01*
X143687342Y-130211427D02*
X143858771Y-130325713D01*
X143858771Y-130325713D02*
X143973057Y-130439998D01*
X143973057Y-130439998D02*
X144030200Y-130554284D01*
X147052342Y-104199999D02*
X146480914Y-104599999D01*
X147052342Y-104885713D02*
X145852342Y-104885713D01*
X145852342Y-104885713D02*
X145852342Y-104428570D01*
X145852342Y-104428570D02*
X145909485Y-104314285D01*
X145909485Y-104314285D02*
X145966628Y-104257142D01*
X145966628Y-104257142D02*
X146080914Y-104199999D01*
X146080914Y-104199999D02*
X146252342Y-104199999D01*
X146252342Y-104199999D02*
X146366628Y-104257142D01*
X146366628Y-104257142D02*
X146423771Y-104314285D01*
X146423771Y-104314285D02*
X146480914Y-104428570D01*
X146480914Y-104428570D02*
X146480914Y-104885713D01*
X145852342Y-103114285D02*
X145852342Y-103685713D01*
X145852342Y-103685713D02*
X146423771Y-103742856D01*
X146423771Y-103742856D02*
X146366628Y-103685713D01*
X146366628Y-103685713D02*
X146309485Y-103571428D01*
X146309485Y-103571428D02*
X146309485Y-103285713D01*
X146309485Y-103285713D02*
X146366628Y-103171428D01*
X146366628Y-103171428D02*
X146423771Y-103114285D01*
X146423771Y-103114285D02*
X146538057Y-103057142D01*
X146538057Y-103057142D02*
X146823771Y-103057142D01*
X146823771Y-103057142D02*
X146938057Y-103114285D01*
X146938057Y-103114285D02*
X146995200Y-103171428D01*
X146995200Y-103171428D02*
X147052342Y-103285713D01*
X147052342Y-103285713D02*
X147052342Y-103571428D01*
X147052342Y-103571428D02*
X146995200Y-103685713D01*
X146995200Y-103685713D02*
X146938057Y-103742856D01*
X147052342Y-108199999D02*
X146480914Y-108599999D01*
X147052342Y-108885713D02*
X145852342Y-108885713D01*
X145852342Y-108885713D02*
X145852342Y-108428570D01*
X145852342Y-108428570D02*
X145909485Y-108314285D01*
X145909485Y-108314285D02*
X145966628Y-108257142D01*
X145966628Y-108257142D02*
X146080914Y-108199999D01*
X146080914Y-108199999D02*
X146252342Y-108199999D01*
X146252342Y-108199999D02*
X146366628Y-108257142D01*
X146366628Y-108257142D02*
X146423771Y-108314285D01*
X146423771Y-108314285D02*
X146480914Y-108428570D01*
X146480914Y-108428570D02*
X146480914Y-108885713D01*
X147052342Y-107057142D02*
X147052342Y-107742856D01*
X147052342Y-107399999D02*
X145852342Y-107399999D01*
X145852342Y-107399999D02*
X146023771Y-107514285D01*
X146023771Y-107514285D02*
X146138057Y-107628570D01*
X146138057Y-107628570D02*
X146195200Y-107742856D01*
X150292342Y-164094999D02*
X151149485Y-164094999D01*
X151149485Y-164094999D02*
X151320914Y-164152142D01*
X151320914Y-164152142D02*
X151435200Y-164266428D01*
X151435200Y-164266428D02*
X151492342Y-164437856D01*
X151492342Y-164437856D02*
X151492342Y-164552142D01*
X151492342Y-162894999D02*
X151492342Y-163580713D01*
X151492342Y-163237856D02*
X150292342Y-163237856D01*
X150292342Y-163237856D02*
X150463771Y-163352142D01*
X150463771Y-163352142D02*
X150578057Y-163466427D01*
X150578057Y-163466427D02*
X150635200Y-163580713D01*
X156547342Y-117119999D02*
X155975914Y-117519999D01*
X156547342Y-117805713D02*
X155347342Y-117805713D01*
X155347342Y-117805713D02*
X155347342Y-117348570D01*
X155347342Y-117348570D02*
X155404485Y-117234285D01*
X155404485Y-117234285D02*
X155461628Y-117177142D01*
X155461628Y-117177142D02*
X155575914Y-117119999D01*
X155575914Y-117119999D02*
X155747342Y-117119999D01*
X155747342Y-117119999D02*
X155861628Y-117177142D01*
X155861628Y-117177142D02*
X155918771Y-117234285D01*
X155918771Y-117234285D02*
X155975914Y-117348570D01*
X155975914Y-117348570D02*
X155975914Y-117805713D01*
X155347342Y-116719999D02*
X155347342Y-115977142D01*
X155347342Y-115977142D02*
X155804485Y-116377142D01*
X155804485Y-116377142D02*
X155804485Y-116205713D01*
X155804485Y-116205713D02*
X155861628Y-116091428D01*
X155861628Y-116091428D02*
X155918771Y-116034285D01*
X155918771Y-116034285D02*
X156033057Y-115977142D01*
X156033057Y-115977142D02*
X156318771Y-115977142D01*
X156318771Y-115977142D02*
X156433057Y-116034285D01*
X156433057Y-116034285D02*
X156490200Y-116091428D01*
X156490200Y-116091428D02*
X156547342Y-116205713D01*
X156547342Y-116205713D02*
X156547342Y-116548570D01*
X156547342Y-116548570D02*
X156490200Y-116662856D01*
X156490200Y-116662856D02*
X156433057Y-116719999D01*
X156547342Y-156505713D02*
X155347342Y-156505713D01*
X155347342Y-156505713D02*
X155347342Y-156219999D01*
X155347342Y-156219999D02*
X155404485Y-156048570D01*
X155404485Y-156048570D02*
X155518771Y-155934285D01*
X155518771Y-155934285D02*
X155633057Y-155877142D01*
X155633057Y-155877142D02*
X155861628Y-155819999D01*
X155861628Y-155819999D02*
X156033057Y-155819999D01*
X156033057Y-155819999D02*
X156261628Y-155877142D01*
X156261628Y-155877142D02*
X156375914Y-155934285D01*
X156375914Y-155934285D02*
X156490200Y-156048570D01*
X156490200Y-156048570D02*
X156547342Y-156219999D01*
X156547342Y-156219999D02*
X156547342Y-156505713D01*
X156547342Y-154677142D02*
X156547342Y-155362856D01*
X156547342Y-155019999D02*
X155347342Y-155019999D01*
X155347342Y-155019999D02*
X155518771Y-155134285D01*
X155518771Y-155134285D02*
X155633057Y-155248570D01*
X155633057Y-155248570D02*
X155690200Y-155362856D01*
X164157342Y-142314285D02*
X165128771Y-142314285D01*
X165128771Y-142314285D02*
X165243057Y-142257142D01*
X165243057Y-142257142D02*
X165300200Y-142200000D01*
X165300200Y-142200000D02*
X165357342Y-142085714D01*
X165357342Y-142085714D02*
X165357342Y-141857142D01*
X165357342Y-141857142D02*
X165300200Y-141742857D01*
X165300200Y-141742857D02*
X165243057Y-141685714D01*
X165243057Y-141685714D02*
X165128771Y-141628571D01*
X165128771Y-141628571D02*
X164157342Y-141628571D01*
X165357342Y-140428571D02*
X165357342Y-141114285D01*
X165357342Y-140771428D02*
X164157342Y-140771428D01*
X164157342Y-140771428D02*
X164328771Y-140885714D01*
X164328771Y-140885714D02*
X164443057Y-140999999D01*
X164443057Y-140999999D02*
X164500200Y-141114285D01*
X168933057Y-154199999D02*
X168990200Y-154257142D01*
X168990200Y-154257142D02*
X169047342Y-154428570D01*
X169047342Y-154428570D02*
X169047342Y-154542856D01*
X169047342Y-154542856D02*
X168990200Y-154714285D01*
X168990200Y-154714285D02*
X168875914Y-154828570D01*
X168875914Y-154828570D02*
X168761628Y-154885713D01*
X168761628Y-154885713D02*
X168533057Y-154942856D01*
X168533057Y-154942856D02*
X168361628Y-154942856D01*
X168361628Y-154942856D02*
X168133057Y-154885713D01*
X168133057Y-154885713D02*
X168018771Y-154828570D01*
X168018771Y-154828570D02*
X167904485Y-154714285D01*
X167904485Y-154714285D02*
X167847342Y-154542856D01*
X167847342Y-154542856D02*
X167847342Y-154428570D01*
X167847342Y-154428570D02*
X167904485Y-154257142D01*
X167904485Y-154257142D02*
X167961628Y-154199999D01*
X167961628Y-153742856D02*
X167904485Y-153685713D01*
X167904485Y-153685713D02*
X167847342Y-153571428D01*
X167847342Y-153571428D02*
X167847342Y-153285713D01*
X167847342Y-153285713D02*
X167904485Y-153171428D01*
X167904485Y-153171428D02*
X167961628Y-153114285D01*
X167961628Y-153114285D02*
X168075914Y-153057142D01*
X168075914Y-153057142D02*
X168190200Y-153057142D01*
X168190200Y-153057142D02*
X168361628Y-153114285D01*
X168361628Y-153114285D02*
X169047342Y-153799999D01*
X169047342Y-153799999D02*
X169047342Y-153057142D01*
X184547342Y-136505713D02*
X183347342Y-136505713D01*
X183347342Y-136505713D02*
X183347342Y-136219999D01*
X183347342Y-136219999D02*
X183404485Y-136048570D01*
X183404485Y-136048570D02*
X183518771Y-135934285D01*
X183518771Y-135934285D02*
X183633057Y-135877142D01*
X183633057Y-135877142D02*
X183861628Y-135819999D01*
X183861628Y-135819999D02*
X184033057Y-135819999D01*
X184033057Y-135819999D02*
X184261628Y-135877142D01*
X184261628Y-135877142D02*
X184375914Y-135934285D01*
X184375914Y-135934285D02*
X184490200Y-136048570D01*
X184490200Y-136048570D02*
X184547342Y-136219999D01*
X184547342Y-136219999D02*
X184547342Y-136505713D01*
X183347342Y-135419999D02*
X183347342Y-134677142D01*
X183347342Y-134677142D02*
X183804485Y-135077142D01*
X183804485Y-135077142D02*
X183804485Y-134905713D01*
X183804485Y-134905713D02*
X183861628Y-134791428D01*
X183861628Y-134791428D02*
X183918771Y-134734285D01*
X183918771Y-134734285D02*
X184033057Y-134677142D01*
X184033057Y-134677142D02*
X184318771Y-134677142D01*
X184318771Y-134677142D02*
X184433057Y-134734285D01*
X184433057Y-134734285D02*
X184490200Y-134791428D01*
X184490200Y-134791428D02*
X184547342Y-134905713D01*
X184547342Y-134905713D02*
X184547342Y-135248570D01*
X184547342Y-135248570D02*
X184490200Y-135362856D01*
X184490200Y-135362856D02*
X184433057Y-135419999D01*
X102678571Y-157102557D02*
X103392857Y-157102557D01*
X102535714Y-157531128D02*
X103035714Y-156031128D01*
X103035714Y-156031128D02*
X103535714Y-157531128D01*
X104892856Y-157388271D02*
X104821428Y-157459700D01*
X104821428Y-157459700D02*
X104607142Y-157531128D01*
X104607142Y-157531128D02*
X104464285Y-157531128D01*
X104464285Y-157531128D02*
X104249999Y-157459700D01*
X104249999Y-157459700D02*
X104107142Y-157316842D01*
X104107142Y-157316842D02*
X104035713Y-157173985D01*
X104035713Y-157173985D02*
X103964285Y-156888271D01*
X103964285Y-156888271D02*
X103964285Y-156673985D01*
X103964285Y-156673985D02*
X104035713Y-156388271D01*
X104035713Y-156388271D02*
X104107142Y-156245414D01*
X104107142Y-156245414D02*
X104249999Y-156102557D01*
X104249999Y-156102557D02*
X104464285Y-156031128D01*
X104464285Y-156031128D02*
X104607142Y-156031128D01*
X104607142Y-156031128D02*
X104821428Y-156102557D01*
X104821428Y-156102557D02*
X104892856Y-156173985D01*
X106964285Y-156031128D02*
X107249999Y-156031128D01*
X107249999Y-156031128D02*
X107392856Y-156102557D01*
X107392856Y-156102557D02*
X107535713Y-156245414D01*
X107535713Y-156245414D02*
X107607142Y-156531128D01*
X107607142Y-156531128D02*
X107607142Y-157031128D01*
X107607142Y-157031128D02*
X107535713Y-157316842D01*
X107535713Y-157316842D02*
X107392856Y-157459700D01*
X107392856Y-157459700D02*
X107249999Y-157531128D01*
X107249999Y-157531128D02*
X106964285Y-157531128D01*
X106964285Y-157531128D02*
X106821428Y-157459700D01*
X106821428Y-157459700D02*
X106678570Y-157316842D01*
X106678570Y-157316842D02*
X106607142Y-157031128D01*
X106607142Y-157031128D02*
X106607142Y-156531128D01*
X106607142Y-156531128D02*
X106678570Y-156245414D01*
X106678570Y-156245414D02*
X106821428Y-156102557D01*
X106821428Y-156102557D02*
X106964285Y-156031128D01*
X108249999Y-156031128D02*
X108249999Y-157245414D01*
X108249999Y-157245414D02*
X108321428Y-157388271D01*
X108321428Y-157388271D02*
X108392857Y-157459700D01*
X108392857Y-157459700D02*
X108535714Y-157531128D01*
X108535714Y-157531128D02*
X108821428Y-157531128D01*
X108821428Y-157531128D02*
X108964285Y-157459700D01*
X108964285Y-157459700D02*
X109035714Y-157388271D01*
X109035714Y-157388271D02*
X109107142Y-157245414D01*
X109107142Y-157245414D02*
X109107142Y-156031128D01*
X109607143Y-156031128D02*
X110464286Y-156031128D01*
X110035714Y-157531128D02*
X110035714Y-156031128D01*
X114678571Y-157102557D02*
X115392857Y-157102557D01*
X114535714Y-157531128D02*
X115035714Y-156031128D01*
X115035714Y-156031128D02*
X115535714Y-157531128D01*
X116892856Y-157388271D02*
X116821428Y-157459700D01*
X116821428Y-157459700D02*
X116607142Y-157531128D01*
X116607142Y-157531128D02*
X116464285Y-157531128D01*
X116464285Y-157531128D02*
X116249999Y-157459700D01*
X116249999Y-157459700D02*
X116107142Y-157316842D01*
X116107142Y-157316842D02*
X116035713Y-157173985D01*
X116035713Y-157173985D02*
X115964285Y-156888271D01*
X115964285Y-156888271D02*
X115964285Y-156673985D01*
X115964285Y-156673985D02*
X116035713Y-156388271D01*
X116035713Y-156388271D02*
X116107142Y-156245414D01*
X116107142Y-156245414D02*
X116249999Y-156102557D01*
X116249999Y-156102557D02*
X116464285Y-156031128D01*
X116464285Y-156031128D02*
X116607142Y-156031128D01*
X116607142Y-156031128D02*
X116821428Y-156102557D01*
X116821428Y-156102557D02*
X116892856Y-156173985D01*
X118678570Y-157531128D02*
X118678570Y-156031128D01*
X119392856Y-157531128D02*
X119392856Y-156031128D01*
X119392856Y-156031128D02*
X120249999Y-157531128D01*
X120249999Y-157531128D02*
X120249999Y-156031128D01*
X129428571Y-160814700D02*
X130571429Y-160814700D01*
X130000000Y-161386128D02*
X130000000Y-160243271D01*
X128678571Y-156745414D02*
X128892857Y-156816842D01*
X128892857Y-156816842D02*
X128964286Y-156888271D01*
X128964286Y-156888271D02*
X129035714Y-157031128D01*
X129035714Y-157031128D02*
X129035714Y-157245414D01*
X129035714Y-157245414D02*
X128964286Y-157388271D01*
X128964286Y-157388271D02*
X128892857Y-157459700D01*
X128892857Y-157459700D02*
X128750000Y-157531128D01*
X128750000Y-157531128D02*
X128178571Y-157531128D01*
X128178571Y-157531128D02*
X128178571Y-156031128D01*
X128178571Y-156031128D02*
X128678571Y-156031128D01*
X128678571Y-156031128D02*
X128821429Y-156102557D01*
X128821429Y-156102557D02*
X128892857Y-156173985D01*
X128892857Y-156173985D02*
X128964286Y-156316842D01*
X128964286Y-156316842D02*
X128964286Y-156459700D01*
X128964286Y-156459700D02*
X128892857Y-156602557D01*
X128892857Y-156602557D02*
X128821429Y-156673985D01*
X128821429Y-156673985D02*
X128678571Y-156745414D01*
X128678571Y-156745414D02*
X128178571Y-156745414D01*
X129607143Y-157102557D02*
X130321429Y-157102557D01*
X129464286Y-157531128D02*
X129964286Y-156031128D01*
X129964286Y-156031128D02*
X130464286Y-157531128D01*
X130750000Y-156031128D02*
X131607143Y-156031128D01*
X131178571Y-157531128D02*
X131178571Y-156031128D01*
X133535714Y-156031128D02*
X133821428Y-156031128D01*
X133821428Y-156031128D02*
X133964285Y-156102557D01*
X133964285Y-156102557D02*
X134107142Y-156245414D01*
X134107142Y-156245414D02*
X134178571Y-156531128D01*
X134178571Y-156531128D02*
X134178571Y-157031128D01*
X134178571Y-157031128D02*
X134107142Y-157316842D01*
X134107142Y-157316842D02*
X133964285Y-157459700D01*
X133964285Y-157459700D02*
X133821428Y-157531128D01*
X133821428Y-157531128D02*
X133535714Y-157531128D01*
X133535714Y-157531128D02*
X133392857Y-157459700D01*
X133392857Y-157459700D02*
X133249999Y-157316842D01*
X133249999Y-157316842D02*
X133178571Y-157031128D01*
X133178571Y-157031128D02*
X133178571Y-156531128D01*
X133178571Y-156531128D02*
X133249999Y-156245414D01*
X133249999Y-156245414D02*
X133392857Y-156102557D01*
X133392857Y-156102557D02*
X133535714Y-156031128D01*
X134821428Y-156031128D02*
X134821428Y-157245414D01*
X134821428Y-157245414D02*
X134892857Y-157388271D01*
X134892857Y-157388271D02*
X134964286Y-157459700D01*
X134964286Y-157459700D02*
X135107143Y-157531128D01*
X135107143Y-157531128D02*
X135392857Y-157531128D01*
X135392857Y-157531128D02*
X135535714Y-157459700D01*
X135535714Y-157459700D02*
X135607143Y-157388271D01*
X135607143Y-157388271D02*
X135678571Y-157245414D01*
X135678571Y-157245414D02*
X135678571Y-156031128D01*
X136178572Y-156031128D02*
X137035715Y-156031128D01*
X136607143Y-157531128D02*
X136607143Y-156031128D01*
X134428571Y-160814700D02*
X135571429Y-160814700D01*
X141428571Y-160814700D02*
X142571429Y-160814700D01*
X142000000Y-161386128D02*
X142000000Y-160243271D01*
X141678571Y-156745414D02*
X141892857Y-156816842D01*
X141892857Y-156816842D02*
X141964286Y-156888271D01*
X141964286Y-156888271D02*
X142035714Y-157031128D01*
X142035714Y-157031128D02*
X142035714Y-157245414D01*
X142035714Y-157245414D02*
X141964286Y-157388271D01*
X141964286Y-157388271D02*
X141892857Y-157459700D01*
X141892857Y-157459700D02*
X141750000Y-157531128D01*
X141750000Y-157531128D02*
X141178571Y-157531128D01*
X141178571Y-157531128D02*
X141178571Y-156031128D01*
X141178571Y-156031128D02*
X141678571Y-156031128D01*
X141678571Y-156031128D02*
X141821429Y-156102557D01*
X141821429Y-156102557D02*
X141892857Y-156173985D01*
X141892857Y-156173985D02*
X141964286Y-156316842D01*
X141964286Y-156316842D02*
X141964286Y-156459700D01*
X141964286Y-156459700D02*
X141892857Y-156602557D01*
X141892857Y-156602557D02*
X141821429Y-156673985D01*
X141821429Y-156673985D02*
X141678571Y-156745414D01*
X141678571Y-156745414D02*
X141178571Y-156745414D01*
X142607143Y-157102557D02*
X143321429Y-157102557D01*
X142464286Y-157531128D02*
X142964286Y-156031128D01*
X142964286Y-156031128D02*
X143464286Y-157531128D01*
X143750000Y-156031128D02*
X144607143Y-156031128D01*
X144178571Y-157531128D02*
X144178571Y-156031128D01*
X146249999Y-157531128D02*
X146249999Y-156031128D01*
X146964285Y-157531128D02*
X146964285Y-156031128D01*
X146964285Y-156031128D02*
X147821428Y-157531128D01*
X147821428Y-157531128D02*
X147821428Y-156031128D01*
X146428571Y-160814700D02*
X147571429Y-160814700D01*
X183997142Y-112786128D02*
X183997142Y-114000414D01*
X183997142Y-114000414D02*
X184068571Y-114143271D01*
X184068571Y-114143271D02*
X184140000Y-114214700D01*
X184140000Y-114214700D02*
X184282857Y-114286128D01*
X184282857Y-114286128D02*
X184568571Y-114286128D01*
X184568571Y-114286128D02*
X184711428Y-114214700D01*
X184711428Y-114214700D02*
X184782857Y-114143271D01*
X184782857Y-114143271D02*
X184854285Y-114000414D01*
X184854285Y-114000414D02*
X184854285Y-112786128D01*
X185497143Y-114214700D02*
X185711429Y-114286128D01*
X185711429Y-114286128D02*
X186068571Y-114286128D01*
X186068571Y-114286128D02*
X186211429Y-114214700D01*
X186211429Y-114214700D02*
X186282857Y-114143271D01*
X186282857Y-114143271D02*
X186354286Y-114000414D01*
X186354286Y-114000414D02*
X186354286Y-113857557D01*
X186354286Y-113857557D02*
X186282857Y-113714700D01*
X186282857Y-113714700D02*
X186211429Y-113643271D01*
X186211429Y-113643271D02*
X186068571Y-113571842D01*
X186068571Y-113571842D02*
X185782857Y-113500414D01*
X185782857Y-113500414D02*
X185640000Y-113428985D01*
X185640000Y-113428985D02*
X185568571Y-113357557D01*
X185568571Y-113357557D02*
X185497143Y-113214700D01*
X185497143Y-113214700D02*
X185497143Y-113071842D01*
X185497143Y-113071842D02*
X185568571Y-112928985D01*
X185568571Y-112928985D02*
X185640000Y-112857557D01*
X185640000Y-112857557D02*
X185782857Y-112786128D01*
X185782857Y-112786128D02*
X186140000Y-112786128D01*
X186140000Y-112786128D02*
X186354286Y-112857557D01*
X187497142Y-113500414D02*
X187711428Y-113571842D01*
X187711428Y-113571842D02*
X187782857Y-113643271D01*
X187782857Y-113643271D02*
X187854285Y-113786128D01*
X187854285Y-113786128D02*
X187854285Y-114000414D01*
X187854285Y-114000414D02*
X187782857Y-114143271D01*
X187782857Y-114143271D02*
X187711428Y-114214700D01*
X187711428Y-114214700D02*
X187568571Y-114286128D01*
X187568571Y-114286128D02*
X186997142Y-114286128D01*
X186997142Y-114286128D02*
X186997142Y-112786128D01*
X186997142Y-112786128D02*
X187497142Y-112786128D01*
X187497142Y-112786128D02*
X187640000Y-112857557D01*
X187640000Y-112857557D02*
X187711428Y-112928985D01*
X187711428Y-112928985D02*
X187782857Y-113071842D01*
X187782857Y-113071842D02*
X187782857Y-113214700D01*
X187782857Y-113214700D02*
X187711428Y-113357557D01*
X187711428Y-113357557D02*
X187640000Y-113428985D01*
X187640000Y-113428985D02*
X187497142Y-113500414D01*
X187497142Y-113500414D02*
X186997142Y-113500414D01*
M02*
